<svg width="180" height="180" viewBox="0 0 180 180" fill="none" xmlns="http://www.w3.org/2000/svg">
<rect width="5" height="5" fill="#E9004F"/>
<rect y="25" width="5" height="5" fill="#E9004F"/>
<rect y="50" width="5" height="5" fill="#E9004F"/>
<rect y="75" width="5" height="5" fill="#E9004F"/>
<rect y="100" width="5" height="5" fill="#E9004F"/>
<rect y="125" width="5" height="5" fill="#E9004F"/>
<rect y="150" width="5" height="5" fill="#E9004F"/>
<rect y="175" width="5" height="5" fill="#E9004F"/>
<rect x="25" width="5" height="5" fill="#E9004F"/>
<rect x="25" y="25" width="5" height="5" fill="#E9004F"/>
<rect x="25" y="50" width="5" height="5" fill="#E9004F"/>
<rect x="25" y="75" width="5" height="5" fill="#E9004F"/>
<rect x="25" y="100" width="5" height="5" fill="#E9004F"/>
<rect x="25" y="125" width="5" height="5" fill="#E9004F"/>
<rect x="25" y="150" width="5" height="5" fill="#E9004F"/>
<rect x="25" y="175" width="5" height="5" fill="#E9004F"/>
<rect x="50" width="5" height="5" fill="#E9004F"/>
<rect x="50" y="25" width="5" height="5" fill="#E9004F"/>
<rect x="50" y="50" width="5" height="5" fill="#E9004F"/>
<rect x="50" y="75" width="5" height="5" fill="#E9004F"/>
<rect x="50" y="100" width="5" height="5" fill="#E9004F"/>
<rect x="50" y="125" width="5" height="5" fill="#E9004F"/>
<rect x="50" y="150" width="5" height="5" fill="#E9004F"/>
<rect x="50" y="175" width="5" height="5" fill="#E9004F"/>
<rect x="75" width="5" height="5" fill="#E9004F"/>
<rect x="75" y="25" width="5" height="5" fill="#E9004F"/>
<rect x="75" y="50" width="5" height="5" fill="#E9004F"/>
<rect x="75" y="75" width="5" height="5" fill="#E9004F"/>
<rect x="75" y="100" width="5" height="5" fill="#E9004F"/>
<rect x="75" y="125" width="5" height="5" fill="#E9004F"/>
<rect x="75" y="150" width="5" height="5" fill="#E9004F"/>
<rect x="75" y="175" width="5" height="5" fill="#E9004F"/>
<rect x="100" width="5" height="5" fill="#E9004F"/>
<rect x="100" y="25" width="5" height="5" fill="#E9004F"/>
<rect x="100" y="50" width="5" height="5" fill="#E9004F"/>
<rect x="100" y="75" width="5" height="5" fill="#E9004F"/>
<rect x="100" y="100" width="5" height="5" fill="#E9004F"/>
<rect x="100" y="125" width="5" height="5" fill="#E9004F"/>
<rect x="100" y="150" width="5" height="5" fill="#E9004F"/>
<rect x="100" y="175" width="5" height="5" fill="#E9004F"/>
<rect x="125" width="5" height="5" fill="#E9004F"/>
<rect x="125" y="25" width="5" height="5" fill="#E9004F"/>
<rect x="125" y="50" width="5" height="5" fill="#E9004F"/>
<rect x="125" y="75" width="5" height="5" fill="#E9004F"/>
<rect x="125" y="100" width="5" height="5" fill="#E9004F"/>
<rect x="125" y="125" width="5" height="5" fill="#E9004F"/>
<rect x="125" y="150" width="5" height="5" fill="#E9004F"/>
<rect x="125" y="175" width="5" height="5" fill="#E9004F"/>
<rect x="150" width="5" height="5" fill="#E9004F"/>
<rect x="150" y="25" width="5" height="5" fill="#E9004F"/>
<rect x="150" y="50" width="5" height="5" fill="#E9004F"/>
<rect x="150" y="75" width="5" height="5" fill="#E9004F"/>
<rect x="150" y="100" width="5" height="5" fill="#E9004F"/>
<rect x="150" y="125" width="5" height="5" fill="#E9004F"/>
<rect x="150" y="150" width="5" height="5" fill="#E9004F"/>
<rect x="150" y="175" width="5" height="5" fill="#E9004F"/>
<rect x="175" width="5" height="5" fill="#E9004F"/>
<rect x="175" y="25" width="5" height="5" fill="#E9004F"/>
<rect x="175" y="50" width="5" height="5" fill="#E9004F"/>
<rect x="175" y="75" width="5" height="5" fill="#E9004F"/>
<rect x="175" y="100" width="5" height="5" fill="#E9004F"/>
<rect x="175" y="125" width="5" height="5" fill="#E9004F"/>
<rect x="175" y="150" width="5" height="5" fill="#E9004F"/>
<rect x="175" y="175" width="5" height="5" fill="#E9004F"/>
</svg>
