<svg width="25" height="11" viewBox="0 0 25 11" fill="none" xmlns="http://www.w3.org/2000/svg">
<path d="M18 1.4V5.5V9.6C18 9.76481 18.1881 9.85889 18.32 9.76L24 5.5L18.32 1.24C18.1881 1.14111 18 1.23519 18 1.4Z" fill="white"/>
<path d="M1 5C0.723858 5 0.5 5.22386 0.5 5.5C0.5 5.77614 0.723858 6 1 6V5ZM18.32 1.24L18.62 0.84V0.839999L18.32 1.24ZM24 5.5L24.3 5.9L24.8333 5.5L24.3 5.1L24 5.5ZM18.32 9.76L18.02 9.36V9.36L18.32 9.76ZM1 6H18V5H1V6ZM18.5 5.5V1.4H17.5V5.5H18.5ZM18.02 1.64L23.7 5.9L24.3 5.1L18.62 0.84L18.02 1.64ZM23.7 5.1L18.02 9.36L18.62 10.16L24.3 5.9L23.7 5.1ZM18.5 9.6V5.5H17.5V9.6H18.5ZM18.02 9.36C18.2178 9.21167 18.5 9.35279 18.5 9.6H17.5C17.5 10.1768 18.1585 10.5061 18.62 10.16L18.02 9.36ZM18.5 1.4C18.5 1.64721 18.2178 1.78833 18.02 1.64L18.62 0.839999C18.1585 0.493901 17.5 0.823168 17.5 1.4H18.5Z" fill="white"/>
</svg>
