<svg width="70" height="70" viewBox="0 0 70 70" fill="none" xmlns="http://www.w3.org/2000/svg">
<g clip-path="url(#clip0_429_2)">
<path d="M64.3089 50.401C63.1696 49.9125 62.6367 48.5854 63.124 47.4421C63.616 46.2942 64.9352 45.7659 66.0815 46.2591C67.2208 46.7475 67.7537 48.0747 67.2664 49.2167C67.2243 49.3058 67.1858 49.3866 67.1402 49.4651C66.5781 50.4338 65.3629 50.8566 64.3089 50.401Z" fill="#A044FF"/>
<path d="M57.1197 62.7294C56.1533 63.5154 54.7371 63.369 53.953 62.4015C53.1654 61.4398 53.3115 60.0201 54.2708 59.2306C55.2372 58.4446 56.6535 58.591 57.441 59.5527C58.0463 60.3047 58.0977 61.3262 57.642 62.1121C57.5111 62.3394 57.3359 62.5502 57.1197 62.7294Z" fill="#A044FF"/>
<path d="M67.9271 34.9614C66.6908 35.0598 65.6053 34.1332 65.5013 32.8893C65.4031 31.65 66.3274 30.5618 67.5637 30.4634C68.8035 30.3591 69.8891 31.2857 69.9931 32.5285C70.0269 33.0087 69.9148 33.4574 69.6928 33.8404C69.3364 34.46 68.6913 34.9016 67.9271 34.9614Z" fill="#A044FF"/>
<path d="M41.8733 69.9532C40.651 70.2074 39.4638 69.412 39.2125 68.1973C38.9648 66.9756 39.7524 65.7808 40.9712 65.5337C42.1899 65.2865 43.3806 66.0748 43.6284 67.2966C43.7452 67.86 43.6401 68.4152 43.3725 68.8779C43.0593 69.4167 42.53 69.822 41.8733 69.9532Z" fill="#A044FF"/>
<path d="M63.9769 19.5968C62.917 20.2586 61.5323 19.94 60.8686 18.8846C60.2107 17.8327 60.5227 16.44 61.5756 15.7746C62.6284 15.1093 64.0201 15.4314 64.678 16.4833C65.143 17.2236 65.1279 18.1185 64.7212 18.8213C64.5436 19.1271 64.2924 19.3976 63.9769 19.5968Z" fill="#A044FF"/>
<path d="M25.0152 69.2761C23.8245 68.9224 23.135 67.669 23.4879 66.4754C23.8303 65.2842 25.0806 64.5931 26.2748 64.941C27.4632 65.2853 28.1491 66.5434 27.8056 67.7358C27.7542 67.9139 27.6794 68.0884 27.5894 68.2442C27.0858 69.1157 26.0259 69.5678 25.0152 69.2761Z" fill="#A044FF"/>
<path d="M50.2767 8.65512C50.2568 8.6434 50.2381 8.63286 50.2253 8.62466C50.2054 8.61295 50.1867 8.60241 50.1739 8.59421C49.093 7.97456 48.7214 6.59354 49.3466 5.51355C49.9647 4.43005 51.3389 4.06459 52.4139 4.68072C52.4396 4.69595 52.4595 4.70766 52.4782 4.7182C52.4981 4.72992 52.5168 4.74046 52.5366 4.75217C53.614 5.37885 53.9786 6.75636 53.3534 7.83517C52.7271 8.91633 51.3529 9.28179 50.2767 8.65512Z" fill="#A044FF"/>
<path d="M13.5952 60.7475C12.7364 61.6471 11.3119 61.6799 10.4145 60.819C9.51709 59.958 9.48788 58.5243 10.3479 57.6235C11.2068 56.7239 12.6335 56.7017 13.531 57.5626C14.2952 58.2947 14.4295 59.4415 13.9212 60.3188C13.8301 60.4758 13.7238 60.614 13.5952 60.7475Z" fill="#A044FF"/>
<path d="M36.0325 4.50972C34.795 4.45936 33.8322 3.41217 33.8754 2.16819C33.9187 0.924214 34.968 -0.0480078 36.2043 0.00236033C37.4511 0.0503858 38.4151 1.09757 38.3719 2.34155C38.3579 2.72458 38.248 3.07833 38.0716 3.38405C37.6661 4.08569 36.8984 4.54369 36.0325 4.50972Z" fill="#A044FF"/>
<path d="M4.24819 47.947C3.06799 48.3382 1.79664 47.7033 1.40635 46.5191C1.00555 45.3384 1.64941 44.0616 2.82377 43.6657C4.00397 43.2744 5.27531 43.9093 5.67612 45.09C5.88528 45.7331 5.79647 46.3949 5.48097 46.942C5.21689 47.3976 4.78687 47.7654 4.24819 47.947Z" fill="#A044FF"/>
<path d="M21.6177 7.47909C20.4982 8.01909 19.1533 7.54117 18.6181 6.41199C18.0888 5.28749 18.5667 3.93927 19.6885 3.40982C20.8137 2.87334 22.1529 3.34773 22.688 4.47575C23.0211 5.17387 22.9591 5.95516 22.5981 6.57949C22.3795 6.95667 22.0465 7.27645 21.6177 7.47909Z" fill="#A044FF"/>
<path d="M1.88991 32.2579C0.661794 32.0564 -0.17019 30.9026 0.0296266 29.6715C0.230612 28.4405 1.3816 27.6065 2.61322 27.8009C3.84133 28.0024 4.66981 29.162 4.4735 30.3872C4.42909 30.6742 4.33211 30.9308 4.19656 31.165C3.74434 31.9451 2.84225 32.4113 1.88991 32.2579Z" fill="#A044FF"/>
<path d="M10.235 16.8206C9.49418 17.8151 8.08378 18.0201 7.0847 17.2739C6.09263 16.5313 5.89164 15.1105 6.63131 14.116C7.37566 13.1145 8.78255 12.9165 9.78164 13.6627C10.7059 14.3573 10.9478 15.6188 10.3823 16.5946C10.3379 16.6719 10.2864 16.7457 10.235 16.8206Z" fill="#A044FF"/>
<path d="M58.9483 47.6576C58.0147 47.2629 57.5788 46.1735 57.9831 45.2353C58.3839 44.3029 59.4695 43.8648 60.3996 44.2666C61.3356 44.6719 61.7656 45.7565 61.3648 46.6889C61.3403 46.7616 61.3029 46.8272 61.2643 46.8916C60.8063 47.6858 59.8165 48.0313 58.9483 47.6576Z" fill="#A044FF"/>
<path d="M53.0658 57.7454C52.2759 58.3908 51.1132 58.2701 50.481 57.476C49.8337 56.6912 49.9528 55.5257 50.7428 54.8814C51.5327 54.236 52.6954 54.3566 53.331 55.1438C53.83 55.7646 53.8697 56.5963 53.497 57.2393C53.3883 57.4291 53.2469 57.5989 53.0658 57.7454Z" fill="#A044FF"/>
<path d="M61.9139 35.0281C60.8973 35.1066 60.0093 34.3464 59.9275 33.3344C59.8492 32.3153 60.604 31.4321 61.6171 31.3442C62.6267 31.2622 63.5206 32.026 63.6024 33.038C63.6293 33.4269 63.5347 33.7982 63.3547 34.111C63.0614 34.6182 62.5356 34.9731 61.9139 35.0281Z" fill="#A044FF"/>
<path d="M40.5888 63.6595C39.5944 63.8633 38.6234 63.2202 38.4224 62.2164C38.219 61.2196 38.8606 60.2462 39.855 60.0412C40.8494 59.8374 41.8204 60.4804 42.0308 61.4808C42.1196 61.9411 42.0378 62.3979 41.8192 62.7751C41.5645 63.2179 41.131 63.5482 40.5888 63.6595Z" fill="#A044FF"/>
<path d="M58.6808 22.4548C57.8137 22.9937 56.6768 22.7407 56.1392 21.8715C55.5982 21.0094 55.8565 19.8732 56.7177 19.3297C57.5777 18.7873 58.7182 19.0497 59.2533 19.9083C59.6331 20.5116 59.6238 21.246 59.2931 21.8176C59.1447 22.0718 58.939 22.292 58.6808 22.4548Z" fill="#A044FF"/>
<path d="M26.8029 63.0996C25.8225 62.8161 25.2639 61.7877 25.5491 60.8143C25.8318 59.8315 26.8519 59.2681 27.8323 59.5516C28.8022 59.8374 29.3713 60.8635 29.0815 61.8439C29.0382 61.9927 28.9798 62.1239 28.905 62.2539C28.4914 62.9696 27.6349 63.3409 26.8029 63.0996Z" fill="#A044FF"/>
<path d="M47.4679 13.5069L47.4714 13.501C47.4644 13.4975 47.4585 13.4928 47.4457 13.4858C47.4258 13.4741 47.4024 13.4694 47.3837 13.4577C46.5015 12.9446 46.1977 11.8201 46.7037 10.9322C47.2155 10.0479 48.3372 9.74332 49.2195 10.2564C49.2393 10.2681 49.2522 10.2751 49.2709 10.2868C49.2838 10.2939 49.3036 10.3056 49.3165 10.3138C50.1987 10.8268 50.5025 11.9513 49.9907 12.8357C49.4777 13.7201 48.3501 14.0211 47.4679 13.5069Z" fill="#A044FF"/>
<path d="M17.4577 56.1254C16.753 56.8633 15.5857 56.8879 14.853 56.1757C14.853 56.1757 14.853 56.1757 14.8495 56.1816C14.1239 55.4729 14.0958 54.3086 14.7993 53.5706C15.5039 52.8327 16.6677 52.8139 17.4074 53.5144C18.0279 54.1188 18.1389 55.0524 17.7206 55.7739C17.6493 55.8993 17.5605 56.0211 17.4577 56.1254Z" fill="#A044FF"/>
<path d="M35.8164 10.1123C34.801 10.069 34.0099 9.21855 34.0461 8.19596C34.0882 7.17806 34.9377 6.38505 35.9578 6.42136C36.9768 6.45768 37.7713 7.31979 37.7281 8.3377C37.7164 8.64342 37.63 8.94094 37.4839 9.19513C37.1555 9.76206 36.5245 10.1334 35.8164 10.1123Z" fill="#A044FF"/>
<path d="M9.80791 45.6523C8.84622 45.9803 7.8004 45.4497 7.48373 44.4833C7.15655 43.5193 7.67537 42.4733 8.6429 42.15C9.6116 41.8267 10.6504 42.3526 10.9776 43.3166C11.1494 43.8426 11.0758 44.3908 10.8198 44.8336C10.606 45.2037 10.2519 45.5012 9.80791 45.6523Z" fill="#A044FF"/>
<path d="M24.0259 12.5487C23.1051 12.9868 22.0067 12.5909 21.5696 11.6678C21.1326 10.7448 21.5229 9.65077 22.4449 9.21269C23.3598 8.77109 24.4582 9.16583 24.8988 10.083C25.1652 10.6558 25.1219 11.3 24.8286 11.8072C24.6463 12.1188 24.3753 12.3777 24.0259 12.5487Z" fill="#A044FF"/>
<path d="M7.88246 32.8131C6.88104 32.6562 6.19979 31.7039 6.35637 30.7C6.52347 29.6927 7.46646 29.0074 8.47139 29.1737C9.47398 29.3307 10.1541 30.283 9.99747 31.2869C9.96008 31.5176 9.87945 31.7308 9.76961 31.9194C9.39685 32.5636 8.65718 32.942 7.88246 32.8131Z" fill="#A044FF"/>
<path d="M14.7086 20.1789C14.1033 21 12.95 21.164 12.1309 20.5573C11.3152 19.9435 11.1516 18.7885 11.764 17.9697C12.3716 17.158 13.5284 16.9881 14.3382 17.5972C15.0931 18.1665 15.2905 19.2032 14.8278 20.0032C14.7939 20.0629 14.7565 20.1274 14.7086 20.1789Z" fill="#A044FF"/>
<path d="M54.3712 45.3161C53.6152 44.9893 53.2623 44.1143 53.5883 43.3565C53.9144 42.5986 54.7896 42.239 55.5526 42.5693C56.3028 42.8926 56.6569 43.777 56.332 44.5348C56.3086 44.5911 56.2783 44.6426 56.2479 44.6941C55.8763 45.3395 55.0724 45.6195 54.3712 45.3161Z" fill="#A044FF"/>
<path d="M49.6064 53.4898C48.9649 54.0122 48.0277 53.9103 47.5124 53.2719C46.9913 52.63 47.0824 51.6918 47.7239 51.1694C48.3654 50.6469 49.3026 50.7488 49.8214 51.3814C50.2281 51.878 50.2596 52.5574 49.9581 53.0775C49.867 53.2333 49.7513 53.3738 49.6064 53.4898Z" fill="#A044FF"/>
<path d="M56.7747 35.082C55.9474 35.1488 55.2357 34.535 55.1656 33.7115C55.1025 32.8928 55.7113 32.1689 56.5328 32.0986C57.3566 32.0388 58.0787 32.6503 58.1418 33.4691C58.1652 33.7877 58.0904 34.0828 57.9397 34.3429C57.7025 34.7529 57.2806 35.0469 56.7747 35.082Z" fill="#A044FF"/>
<path d="M39.4977 58.2783C38.6902 58.4435 37.9062 57.9257 37.7414 57.1175C37.5766 56.3081 38.0966 55.5151 38.9029 55.3499C39.7092 55.1848 40.5014 55.706 40.6662 56.5143C40.7375 56.8868 40.6709 57.2557 40.4933 57.5615C40.2864 57.9199 39.937 58.194 39.4977 58.2783Z" fill="#A044FF"/>
<path d="M54.1525 24.8983C53.4561 25.3364 52.5353 25.1302 52.0948 24.4227C51.6577 23.7246 51.8692 22.8051 52.5657 22.3658C53.2621 21.9277 54.1829 22.1327 54.6199 22.8308C54.9261 23.3216 54.9191 23.9179 54.648 24.3864C54.5311 24.5879 54.3628 24.7601 54.1525 24.8983Z" fill="#A044FF"/>
<path d="M28.33 57.825C27.5342 57.5966 27.0785 56.7661 27.3122 55.9719C27.5424 55.1848 28.3709 54.7279 29.1608 54.9517C29.9531 55.1859 30.4088 56.0164 30.1751 56.8106C30.1412 56.9301 30.0933 57.0414 30.0372 57.1386C29.6972 57.7243 29.0031 58.0253 28.33 57.825Z" fill="#A044FF"/>
<path d="M45.0737 17.6441C45.0608 17.6371 45.048 17.6289 45.0351 17.6219C45.0281 17.6183 45.0153 17.6101 45.0024 17.6031C44.2849 17.1943 44.043 16.2795 44.4567 15.565C44.8645 14.8458 45.7771 14.6021 46.4946 15.0109C46.5075 15.0191 46.5168 15.032 46.5297 15.0402C46.5425 15.0472 46.5589 15.0484 46.5717 15.0566C47.2857 15.4713 47.5241 16.3931 47.1139 17.1018C46.7003 17.8163 45.7876 18.0588 45.0737 17.6441Z" fill="#A044FF"/>
<path d="M20.7584 52.1767C20.1869 52.7753 19.2416 52.7893 18.6515 52.2201C18.0556 51.6473 18.0357 50.7055 18.6013 50.1046C19.1797 49.5107 20.118 49.492 20.7151 50.0648C21.2223 50.5521 21.3134 51.3087 20.9745 51.8933C20.9173 51.9916 20.8437 52.0889 20.7584 52.1767Z" fill="#A044FF"/>
<path d="M35.6347 14.8926C34.8097 14.8645 34.1705 14.1711 34.2044 13.3476C34.2325 12.5206 34.9242 11.8799 35.7492 11.9068C36.5707 11.9408 37.2133 12.6284 37.1853 13.4554C37.176 13.7107 37.1012 13.945 36.9808 14.1535C36.7144 14.6162 36.2084 14.9219 35.6347 14.8926Z" fill="#A044FF"/>
<path d="M14.5624 43.688C13.776 43.9527 12.9347 43.5334 12.6776 42.7486C12.4135 41.9602 12.833 41.1169 13.6183 40.8533C14.4 40.5956 15.2413 41.015 15.5054 41.8033C15.6445 42.2226 15.5861 42.6677 15.3792 43.025C15.2028 43.3295 14.9223 43.5755 14.5624 43.688Z" fill="#A044FF"/>
<path d="M26.0768 16.871C25.336 17.2224 24.4444 16.9038 24.088 16.1577C23.7374 15.415 24.0553 14.5213 24.7961 14.1699C25.5416 13.8115 26.432 14.1301 26.7826 14.8739C27.0058 15.3424 26.966 15.859 26.73 16.269C26.5828 16.522 26.3584 16.7305 26.0768 16.871Z" fill="#A044FF"/>
<path d="M12.9975 33.2934C12.1819 33.1586 11.6315 32.3867 11.7624 31.575C11.898 30.7574 12.661 30.2021 13.4766 30.3369C14.2852 30.468 14.8391 31.2341 14.7117 32.0541C14.6837 32.238 14.6194 32.409 14.5283 32.5648C14.228 33.0872 13.6274 33.3906 12.9975 33.2934Z" fill="#A044FF"/>
<path d="M18.5344 23.0557C18.0402 23.7152 17.1042 23.8499 16.4416 23.3603C15.7838 22.8648 15.6494 21.9266 16.1448 21.2659C16.6333 20.6018 17.5692 20.4682 18.2341 20.9684C18.8476 21.4205 19.0042 22.2604 18.6279 22.9105C18.5975 22.962 18.5707 23.0077 18.5344 23.0557Z" fill="#A044FF"/>
</g>
<defs>
<clipPath id="clip0_429_2">
<rect width="70" height="70" fill="white"/>
</clipPath>
</defs>
</svg>
