<svg width="20" height="20" viewBox="0 0 20 20" fill="none" xmlns="http://www.w3.org/2000/svg">
<path d="M8.75 0.0585938C7.01562 0.273438 5.42188 0.917969 3.98438 1.98438C3.39844 2.42188 2.42188 3.39844 1.98438 3.98438C0.90625 5.4375 0.269531 7.02734 0.0546875 8.78906C-0.0117188 9.36719 -0.0117188 10.6328 0.0546875 11.2109C0.269531 12.9727 0.90625 14.5625 1.98438 16.0156C2.42188 16.6016 3.39844 17.5781 3.98438 18.0156C5.4375 19.0938 7.02734 19.7305 8.78906 19.9453C9.36719 20.0117 10.6328 20.0117 11.2109 19.9453C12.9727 19.7305 14.5625 19.0938 16.0156 18.0156C16.6016 17.5781 17.5781 16.6016 18.0156 16.0156C19.0938 14.5625 19.7305 12.9727 19.9453 11.2109C20.0117 10.6328 20.0117 9.36719 19.9453 8.78906C19.7305 7.02734 19.0938 5.4375 18.0156 3.98438C17.5781 3.39844 16.6016 2.42188 16.0156 1.98438C14.5625 0.90625 12.9727 0.269531 11.2109 0.0546875C10.6523 -0.0117188 9.30469 -0.0078125 8.75 0.0585938ZM11.2383 1.28516C15.1289 1.85938 18.1406 4.87109 18.7148 8.76172C18.8047 9.39062 18.8164 10.457 18.7344 11.0781C18.5391 12.5391 18.0469 13.8242 17.2109 15.0312L17.0156 15.3125L16.7773 14.8555C15.9141 13.1914 14.5352 11.9453 12.7812 11.25L12.4531 11.1211L12.5859 11.0234C13.0039 10.7109 13.5312 10.0117 13.7734 9.45703C14.0391 8.84766 14.0781 8.62109 14.0781 7.79297C14.0781 7.09766 14.0703 7.02734 13.9688 6.69922C13.543 5.29297 12.5234 4.26953 11.1133 3.83984C10.7812 3.74219 10.7188 3.73438 10 3.73438C9.28125 3.73438 9.21875 3.74219 8.88672 3.83984C7.47656 4.26953 6.45703 5.29297 6.03125 6.69922C5.92969 7.02734 5.92188 7.09766 5.92188 7.79297C5.92188 8.62109 5.96094 8.84766 6.22656 9.45703C6.46875 10.0117 6.99609 10.7109 7.41406 11.0234L7.54688 11.1211L7.21875 11.25C5.46484 11.9453 4.08594 13.1914 3.22266 14.8555L2.98438 15.3125L2.78906 15.0312C1.95703 13.8281 1.46094 12.5352 1.26562 11.0781C1.18359 10.457 1.19531 9.39062 1.28516 8.76172C1.85547 4.88672 4.85547 1.875 8.72656 1.28906C9.40234 1.1875 10.5547 1.1875 11.2383 1.28516ZM10.8867 5.05078C11.8008 5.36719 12.4766 6.05469 12.7812 6.96875C12.8594 7.20703 12.8711 7.32422 12.8711 7.8125C12.8711 8.30078 12.8594 8.41797 12.7812 8.65625C12.4727 9.58203 11.7695 10.2852 10.8438 10.5938C10.6055 10.6719 10.4883 10.6836 10 10.6836C9.51172 10.6836 9.39453 10.6719 9.15625 10.5938C8.23047 10.2852 7.52734 9.58203 7.21875 8.65625C7.14062 8.41797 7.12891 8.30078 7.12891 7.8125C7.12891 7.32422 7.14062 7.20703 7.21875 6.96875C7.52344 6.04688 8.25 5.31641 9.13672 5.04688C9.51172 4.92969 9.53906 4.92578 10.0977 4.94141C10.5195 4.94922 10.6523 4.96875 10.8867 5.05078ZM11.2695 12.0664C13.2305 12.4883 14.8711 13.75 15.7422 15.5039C15.875 15.7695 16.0938 16.293 16.0938 16.3398C16.0938 16.3477 15.9414 16.4844 15.7539 16.6445C14.0898 18.0742 12.168 18.7891 10 18.7891C7.83203 18.7891 5.91016 18.0742 4.24609 16.6445C4.05859 16.4844 3.90625 16.3477 3.90625 16.3398C3.90625 16.293 4.125 15.7695 4.25781 15.5039C5.12891 13.75 6.82031 12.4531 8.73438 12.0703C9.30469 11.957 9.29297 11.9609 10.1172 11.9727C10.7188 11.9805 10.9609 12 11.2695 12.0664Z" fill="#E9004F"/>
</svg>
