<svg width="20" height="20" viewBox="0 0 20 20" fill="none" xmlns="http://www.w3.org/2000/svg">
<path d="M4.30859 0.101562C4.21484 0.15625 4.09766 0.273438 4.04297 0.367188C3.95312 0.523438 3.94531 0.570312 3.94531 1.04688V1.5625H2.23828H0.535156L0.367188 1.66016C0.265625 1.71875 0.15625 1.82812 0.0976562 1.92969L0 2.09766V10.7812V19.4648L0.0976562 19.6328C0.15625 19.7344 0.265625 19.8438 0.367188 19.9023L0.535156 20H4.94141H9.34766L9.51562 19.9023C9.76172 19.7578 9.88281 19.5312 9.88281 19.2188C9.88281 18.9062 9.76172 18.6797 9.51562 18.5352L9.34766 18.4375H5.45703H1.5625V12.7344V7.03125H10H18.4375V8.58203V10.1289L18.5352 10.2969C18.6797 10.543 18.9062 10.6641 19.2188 10.6641C19.5312 10.6641 19.7578 10.543 19.9023 10.2969L20 10.1289V6.11328V2.09766L19.9023 1.92969C19.8438 1.82812 19.7344 1.71875 19.6328 1.66016L19.4648 1.5625H17.7617H16.0547V1.04688C16.0547 0.570312 16.0469 0.523438 15.957 0.367188C15.8125 0.121094 15.5859 0 15.2734 0C14.9609 0 14.7344 0.121094 14.5898 0.367188C14.5 0.523438 14.4922 0.570312 14.4922 1.04688V1.5625H12.6367H10.7812V1.04688C10.7812 0.570312 10.7734 0.523438 10.6836 0.367188C10.5391 0.121094 10.3125 0 10 0C9.6875 0 9.46094 0.121094 9.31641 0.367188C9.22656 0.523438 9.21875 0.570312 9.21875 1.04688V1.5625H7.36328H5.50781V1.04688C5.50781 0.570312 5.5 0.523438 5.41016 0.367188C5.26562 0.121094 5.03906 0 4.72266 0C4.52344 0 4.4375 0.0195312 4.30859 0.101562ZM3.94531 3.64062C3.94531 4.11719 3.95312 4.16406 4.04297 4.32031C4.1875 4.56641 4.41406 4.6875 4.72656 4.6875C5.03906 4.6875 5.26562 4.56641 5.41016 4.32031C5.5 4.16406 5.50781 4.11719 5.50781 3.64062V3.125H7.36328H9.21875V3.64062C9.21875 4.11719 9.22656 4.16406 9.31641 4.32031C9.46094 4.56641 9.6875 4.6875 10 4.6875C10.3125 4.6875 10.5391 4.56641 10.6836 4.32031C10.7734 4.16406 10.7812 4.11719 10.7812 3.64062V3.125H12.6367H14.4922V3.64062C14.4922 4.11719 14.5 4.16406 14.5898 4.32031C14.7344 4.56641 14.9609 4.6875 15.2734 4.6875C15.5859 4.6875 15.8125 4.56641 15.957 4.32031C16.0469 4.16406 16.0547 4.11719 16.0547 3.64062V3.125H17.2461H18.4375V4.29688V5.46875H10H1.5625V4.29688V3.125H2.75391H3.94531V3.64062Z" fill="#E9004F"/>
<path d="M18.7963 12.3321C18.7064 12.3946 17.5189 13.6875 16.1283 15.2344C14.7533 16.7696 13.6088 18.0274 13.5931 18.0274C13.5775 18.0274 12.933 17.4297 12.1674 16.6993C11.3978 15.9688 10.7025 15.3282 10.6166 15.2774C10.3471 15.1133 9.92909 15.1602 9.67127 15.3868C9.43299 15.5977 9.36268 16.0782 9.53456 16.3594C9.65956 16.5703 13.1361 19.875 13.3041 19.9453C13.4838 20.0196 13.8353 20.0157 14.0033 19.9336C14.101 19.8868 15.0189 18.8946 16.9838 16.7071C18.5463 14.9688 19.8627 13.4805 19.9096 13.4024C20.0385 13.1953 20.0346 12.8203 19.9017 12.5938C19.7572 12.3477 19.5306 12.2266 19.2142 12.2266C19.0033 12.2266 18.933 12.2461 18.7963 12.3321Z" fill="#E9004F"/>
</svg>
