<svg width="16" height="16" viewBox="0 0 16 16" fill="none" xmlns="http://www.w3.org/2000/svg">
<g clip-path="url(#clip0_839_217)">
<path fill-rule="evenodd" clip-rule="evenodd" d="M3.5 6C3.36739 6 3.24021 6.05268 3.14645 6.14645C3.05268 6.24021 3 6.36739 3 6.5V14.5C3 14.6326 3.05268 14.7598 3.14645 14.8536C3.24021 14.9473 3.36739 15 3.5 15H12.5C12.6326 15 12.7598 14.9473 12.8536 14.8536C12.9473 14.7598 13 14.6326 13 14.5V6.5C13 6.36739 12.9473 6.24021 12.8536 6.14645C12.7598 6.05268 12.6326 6 12.5 6H10.5C10.3674 6 10.2402 5.94732 10.1464 5.85355C10.0527 5.75979 10 5.63261 10 5.5C10 5.36739 10.0527 5.24021 10.1464 5.14645C10.2402 5.05268 10.3674 5 10.5 5H12.5C12.8978 5 13.2794 5.15804 13.5607 5.43934C13.842 5.72064 14 6.10218 14 6.5V14.5C14 14.8978 13.842 15.2794 13.5607 15.5607C13.2794 15.842 12.8978 16 12.5 16H3.5C3.10218 16 2.72064 15.842 2.43934 15.5607C2.15804 15.2794 2 14.8978 2 14.5V6.5C2 6.10218 2.15804 5.72064 2.43934 5.43934C2.72064 5.15804 3.10218 5 3.5 5H5.5C5.63261 5 5.75979 5.05268 5.85355 5.14645C5.94732 5.24021 6 5.36739 6 5.5C6 5.63261 5.94732 5.75979 5.85355 5.85355C5.75979 5.94732 5.63261 6 5.5 6H3.5Z" fill="#18212E"/>
<path fill-rule="evenodd" clip-rule="evenodd" d="M7.64566 0.146039C7.6921 0.0994761 7.74728 0.0625332 7.80802 0.0373268C7.86877 0.0121203 7.93389 -0.000854492 7.99966 -0.000854492C8.06542 -0.000854492 8.13054 0.0121203 8.19129 0.0373268C8.25203 0.0625332 8.30721 0.0994761 8.35366 0.146039L11.3537 3.14604C11.4475 3.23993 11.5003 3.36726 11.5003 3.50004C11.5003 3.63282 11.4475 3.76015 11.3537 3.85404C11.2598 3.94793 11.1324 4.00067 10.9997 4.00067C10.8669 4.00067 10.7395 3.94793 10.6457 3.85404L8.49966 1.70704V10.5C8.49966 10.6326 8.44698 10.7598 8.35321 10.8536C8.25944 10.9474 8.13226 11 7.99966 11C7.86705 11 7.73987 10.9474 7.6461 10.8536C7.55233 10.7598 7.49966 10.6326 7.49966 10.5V1.70704L5.35366 3.85404C5.30717 3.90053 5.25198 3.9374 5.19124 3.96256C5.1305 3.98772 5.0654 4.00067 4.99966 4.00067C4.86688 4.00067 4.73954 3.94793 4.64566 3.85404C4.59917 3.80755 4.56229 3.75236 4.53713 3.69162C4.51197 3.63088 4.49902 3.56578 4.49902 3.50004C4.49902 3.36726 4.55177 3.23993 4.64566 3.14604L7.64566 0.146039Z" fill="#18212E"/>
</g>
<defs>
<clipPath id="clip0_839_217">
<rect width="16" height="16" fill="white"/>
</clipPath>
</defs>
</svg>
