<svg width="30" height="20" viewBox="0 0 30 20" fill="none" xmlns="http://www.w3.org/2000/svg">
<path d="M6.65072 0.103468C3.89681 0.449171 1.61166 2.56441 1.05502 5.30073C0.908531 6.02144 0.896813 7.18745 1.02572 7.873C1.26009 9.11519 1.85189 10.2578 2.71908 11.166C3.59213 12.0683 4.46517 12.5957 5.68392 12.9472L6.15267 13.082L5.71908 13.9609C5.1097 15.1855 4.34798 16.3222 3.42806 17.3828C3.05306 17.8164 2.93002 18.0976 2.93002 18.5312C2.93002 19.2285 3.35189 19.7617 4.02572 19.9082C4.40658 19.996 4.69369 19.9375 5.66634 19.58C9.89681 18.0097 12.721 14.7988 13.7347 10.4043C14.0511 9.01558 14.1976 6.88277 14.0452 5.86909C13.8167 4.39839 13.1956 3.12691 12.2054 2.0898C11.596 1.44526 11.1097 1.08784 10.3421 0.712843C9.15267 0.132765 7.98666 -0.0605946 6.65072 0.103468Z" fill="#E9004F"/>
<path d="M21.6332 0.0976372C17.9242 0.619122 15.4047 3.97654 15.9672 7.65623C16.348 10.164 18.223 12.2969 20.6195 12.9355C20.8773 13.0058 21.0941 13.082 21.0941 13.0996C21.0941 13.1172 20.9242 13.4804 20.7191 13.9082C20.1449 15.0918 19.4359 16.1582 18.4398 17.3476C17.9887 17.8926 17.8422 18.25 17.889 18.6777C17.9769 19.4219 18.5336 19.9199 19.2777 19.9258C20.2504 19.9316 22.8812 18.6777 24.3461 17.5117C27.3871 15.0918 29.0629 11.3594 29.0629 7.02342C29.0629 5.87498 28.9398 5.17186 28.5883 4.29295C27.5805 1.77342 25.3422 0.156231 22.7347 0.0683403C22.3305 0.0566216 21.8383 0.0683403 21.6332 0.0976372Z" fill="#E9004F"/>
</svg>
