<svg width="50" height="50" viewBox="0 0 50 50" fill="none" xmlns="http://www.w3.org/2000/svg">
<path d="M3.16406 5.55664C2.70508 5.67383 1.86523 6.16211 1.60156 6.47461C1.46484 6.64062 1.24023 6.99219 1.09375 7.26562L0.830078 7.76367V21.875V35.9863L1.16211 36.6016C1.5332 37.2852 1.83594 37.5781 2.57812 37.9688L3.07617 38.2324L11.543 38.2617L20 38.291L19.4922 39.8242L18.9746 41.3574L17.4902 41.4062C15.6152 41.4648 15.625 41.4648 15.625 42.832V43.75H11.9629H8.29102L8.05664 43.9941C7.73438 44.3066 7.73438 44.7559 8.05664 45.0684L8.29102 45.3125H25.7812H43.2715L43.5059 45.0684C43.8281 44.7559 43.8281 44.3066 43.5059 43.9941L43.2715 43.75H38.8184H34.375V42.832C34.375 41.4648 34.3848 41.4648 32.5098 41.4062L31.0254 41.3574L30.5078 39.8242L30 38.291L38.457 38.2617L46.9238 38.2324L47.4219 37.9688C48.1641 37.5781 48.4668 37.2852 48.8379 36.6016L49.1699 35.9863V21.875V7.76367L48.8379 7.14844C48.4668 6.46484 48.1641 6.17188 47.4219 5.78125L46.9238 5.51758L25.1953 5.49805C13.2422 5.49805 3.33008 5.51758 3.16406 5.55664ZM46.7188 7.16797C46.8945 7.24609 47.168 7.4707 47.3242 7.67578L47.6074 8.03711L47.6367 20.0391L47.6562 32.0312H43.75H39.8438V27.6074L39.834 23.1934L38.5449 20.6543C37.1582 17.9102 37.0703 17.8125 36.4551 18.0273C36.2207 18.1055 35.9863 18.4961 34.8926 20.6543L33.6035 23.1934L33.5938 27.6074V32.0312H33.2031H32.8125V22.1191V12.1973L32.5684 11.9629L32.334 11.7188H28.5156H24.6973L24.4629 11.9629L24.2188 12.1973V22.1191V32.0312H23.8281H23.4375V24.4824L23.4277 16.9434L22.1387 14.4043C20.752 11.6602 20.6641 11.5625 20.0488 11.7773C19.8145 11.8555 19.5801 12.2461 18.4863 14.4043L17.1973 16.9434L17.1875 24.4824V32.0312H16.2598H15.332V31.5137C15.332 31.2402 15.4004 29.4922 15.4883 27.6367L15.6348 24.2676L15.2734 22.0215L14.9121 19.7754L15.2734 19.3848C16.0059 18.6035 16.4648 17.3047 16.377 16.2598C16.2793 15.0879 15.5566 13.7598 14.2871 12.4219C13.7109 11.8066 13.5742 11.7188 13.2812 11.7188C12.9883 11.7188 12.8516 11.8066 12.2754 12.4219C11.0059 13.7598 10.2832 15.0879 10.1855 16.2598C10.0977 17.3047 10.5566 18.6035 11.2891 19.3848L11.6504 19.7754L11.2891 22.0215L10.9277 24.2676L11.0742 27.6367C11.1621 29.4922 11.2305 31.2402 11.2305 31.5137V32.0312H6.78711H2.34375V20.1758C2.34375 12.0117 2.37305 8.23242 2.45117 8.03711C2.58789 7.67578 2.91016 7.32422 3.27148 7.16797C3.7207 6.97266 46.2402 6.97266 46.7188 7.16797ZM31.25 14.0625V14.8438H29.9316C28.6523 14.8438 28.5938 14.8535 28.3691 15.0879C28.2129 15.2344 28.125 15.4395 28.125 15.625C28.125 15.8105 28.2129 16.0156 28.3691 16.1621C28.5938 16.3965 28.6523 16.4062 29.9316 16.4062H31.25V17.1875V17.9688H30.7129C30.0586 17.9688 29.6875 18.252 29.6875 18.75C29.6875 19.248 30.0586 19.5312 30.7129 19.5312H31.25V20.3125V21.0938H29.9316C28.6523 21.0938 28.5938 21.1035 28.3691 21.3379C28.0469 21.6504 28.0469 22.0996 28.3691 22.4121C28.5938 22.6465 28.6523 22.6562 29.9316 22.6562H31.25V23.4375V24.2188H30.7129C30.0586 24.2188 29.6875 24.502 29.6875 25C29.6875 25.498 30.0586 25.7812 30.7129 25.7812H31.25V26.5625V27.3438H29.9316C28.6523 27.3438 28.5938 27.3535 28.3691 27.5879C28.0469 27.9004 28.0469 28.3496 28.3691 28.6621C28.5938 28.8965 28.6523 28.9062 29.9316 28.9062H31.25V30.4688V32.0312H28.5156H25.7812V22.6562V13.2812H28.5156H31.25V14.0625ZM13.8281 14.2773C14.4336 15.0879 14.8438 15.9668 14.8438 16.4648C14.8438 17.4316 14.209 18.5352 13.5449 18.7012C12.6562 18.9258 11.7188 17.7734 11.7188 16.4648C11.7188 16.2305 11.8359 15.8301 12.002 15.4785C12.2852 14.873 13.1348 13.6719 13.2812 13.6719C13.3301 13.6719 13.5742 13.9453 13.8281 14.2773ZM20.6836 14.9902L20.9961 15.625H20.3125H19.6289L19.9414 14.9902C20.1172 14.6387 20.2832 14.3555 20.3125 14.3555C20.3418 14.3555 20.5078 14.6387 20.6836 14.9902ZM21.8555 17.5977L21.8848 17.9688H20.3223H18.75V17.6465C18.75 17.4609 18.7793 17.2852 18.8184 17.2461C18.8574 17.2168 19.5508 17.1973 20.3516 17.207L21.8262 17.2363L21.8555 17.5977ZM21.875 25.7812V32.0312H20.3125H18.75V25.7812V19.5312H20.3125H21.875V25.7812ZM13.4277 20.5273C13.5156 20.9375 13.8672 23.1152 13.8672 23.2812C13.8672 23.4082 13.7598 23.4375 13.2812 23.4375C12.5879 23.4375 12.6172 23.5547 12.8906 21.9336C13.1445 20.4102 13.1641 20.3125 13.2812 20.3125C13.3301 20.3125 13.3984 20.4102 13.4277 20.5273ZM37.5293 22.1191C37.959 22.998 38.2812 23.7598 38.2812 23.9258V24.2188H36.7188H35.1562V23.9258C35.1562 23.6621 36.5918 20.6055 36.7188 20.6055C36.748 20.6055 37.1094 21.2891 37.5293 22.1191ZM14.0039 25.6543C13.9453 26.6016 13.7695 30.9082 13.7695 31.5234V32.0312H13.2812H12.793V31.5234C12.793 30.9082 12.6172 26.6016 12.5586 25.6543L12.5098 25H13.2812H14.0527L14.0039 25.6543ZM38.2812 28.9062V32.0312H36.7188H35.1562V28.9062V25.7812H36.7188H38.2812V28.9062ZM47.6367 34.6582C47.6074 35.8105 47.5195 36.0352 46.9336 36.4648L46.6699 36.6699H25.0098H3.34961L2.98828 36.3867C2.4707 35.9961 2.34375 35.625 2.34375 34.5215V33.5938H25.0098H47.6758L47.6367 34.6582ZM28.8672 39.8633L29.375 41.4062H25H20.6152L21.1035 39.9609C21.3672 39.1699 21.6016 38.4668 21.6309 38.3984C21.6602 38.3008 22.3926 38.2812 25.0098 38.3008L28.3496 38.3301L28.8672 39.8633ZM32.8125 43.3594V43.75H25H17.1875V43.3594V42.9688H25H32.8125V43.3594Z" fill="#E9004F"/>
<path d="M4.15039 8.83789C3.99414 8.98438 3.90625 9.18945 3.90625 9.375C3.90625 9.56055 3.99414 9.76562 4.15039 9.91211L4.38477 10.1562H7.8125H11.2402L11.4746 9.91211C11.6309 9.76562 11.7188 9.56055 11.7188 9.375C11.7188 9.18945 11.6309 8.98438 11.4746 8.83789L11.2402 8.59375H7.8125H4.38477L4.15039 8.83789Z" fill="#E9004F"/>
<path d="M4.15039 11.1816C3.99414 11.3281 3.90625 11.5332 3.90625 11.7188C3.90625 11.9043 3.99414 12.1094 4.15039 12.2559C4.375 12.4902 4.45312 12.5 5.46875 12.5C6.48438 12.5 6.5625 12.4902 6.78711 12.2559C6.94336 12.1094 7.03125 11.9043 7.03125 11.7188C7.03125 11.5332 6.94336 11.3281 6.78711 11.1816C6.5625 10.9473 6.48438 10.9375 5.46875 10.9375C4.45312 10.9375 4.375 10.9473 4.15039 11.1816Z" fill="#E9004F"/>
<path d="M43.9941 26.8066C43.8379 26.9531 43.75 27.1582 43.75 27.3438C43.75 27.5293 43.8379 27.7344 43.9941 27.8809C44.1992 28.0957 44.3164 28.125 44.9219 28.125C45.5273 28.125 45.6445 28.0957 45.8496 27.8809C46.0059 27.7344 46.0938 27.5293 46.0938 27.3438C46.0938 27.1582 46.0059 26.9531 45.8496 26.8066C45.6445 26.5918 45.5273 26.5625 44.9219 26.5625C44.3164 26.5625 44.1992 26.5918 43.9941 26.8066Z" fill="#E9004F"/>
<path d="M41.6504 29.1504C41.4941 29.2969 41.4062 29.502 41.4062 29.6875C41.4062 29.873 41.4941 30.0781 41.6504 30.2246C41.8848 30.4688 41.9043 30.4688 43.75 30.4688C45.5957 30.4688 45.6152 30.4688 45.8496 30.2246C46.0059 30.0781 46.0938 29.873 46.0938 29.6875C46.0938 29.502 46.0059 29.2969 45.8496 29.1504C45.6152 28.9062 45.5957 28.9062 43.75 28.9062C41.9043 28.9062 41.8848 28.9062 41.6504 29.1504Z" fill="#E9004F"/>
<path d="M19.7754 20.5567L19.5312 20.791V25.3906V29.9902L19.7754 30.2246C20.0879 30.5469 20.5371 30.5469 20.8496 30.2246L21.0938 29.9902V25.3906V20.791L20.8496 20.5567C20.7031 20.4004 20.498 20.3125 20.3125 20.3125C20.127 20.3125 19.9219 20.4004 19.7754 20.5567Z" fill="#E9004F"/>
<path d="M36.1816 26.8066C35.9473 27.0312 35.9375 27.0801 35.9375 28.5156C35.9375 29.9512 35.9473 30 36.1816 30.2246C36.3281 30.3809 36.5332 30.4688 36.7188 30.4688C36.9043 30.4688 37.1094 30.3809 37.2559 30.2246C37.4902 30 37.5 29.9512 37.5 28.5156C37.5 27.0801 37.4902 27.0312 37.2559 26.8066C37.1094 26.6504 36.9043 26.5625 36.7188 26.5625C36.5332 26.5625 36.3281 26.6504 36.1816 26.8066Z" fill="#E9004F"/>
<path d="M4.15039 34.6191C3.99414 34.7656 3.90625 34.9707 3.90625 35.1562C3.90625 35.3418 3.99414 35.5469 4.15039 35.6934L4.38477 35.9375H7.03125H9.67773L9.91211 35.6934C10.2344 35.3809 10.2344 34.9316 9.91211 34.6191L9.67773 34.375H7.03125H4.38477L4.15039 34.6191Z" fill="#E9004F"/>
<path d="M11.1816 34.6191C11.0254 34.7656 10.9375 34.9707 10.9375 35.1562C10.9375 35.3418 11.0254 35.5469 11.1816 35.6934C11.3867 35.9082 11.5039 35.9375 12.1094 35.9375C12.7148 35.9375 12.832 35.9082 13.0371 35.6934C13.1934 35.5469 13.2812 35.3418 13.2812 35.1562C13.2812 34.9707 13.1934 34.7656 13.0371 34.6191C12.832 34.4043 12.7148 34.375 12.1094 34.375C11.5039 34.375 11.3867 34.4043 11.1816 34.6191Z" fill="#E9004F"/>
</svg>
