<svg width="28" height="28" viewBox="0 0 28 28" fill="none" xmlns="http://www.w3.org/2000/svg">
<g clip-path="url(#clip0_819_267)">
<path d="M6.03203 0.142187C5.90078 0.21875 5.73672 0.382812 5.66016 0.514063C5.53437 0.732813 5.52344 0.798437 5.52344 1.46563V2.1875H3.13359H0.749219L0.514062 2.32422C0.371875 2.40625 0.21875 2.55938 0.136719 2.70156L0 2.93672V15.0938V27.2508L0.136719 27.4859C0.21875 27.6281 0.371875 27.7812 0.514062 27.8633L0.749219 28H6.91797H13.0867L13.3219 27.8633C13.6664 27.6609 13.8359 27.3438 13.8359 26.9062C13.8359 26.4688 13.6664 26.1516 13.3219 25.9492L13.0867 25.8125H7.63984H2.1875V17.8281V9.84375H14H25.8125V12.0148V14.1805L25.9492 14.4156C26.1516 14.7602 26.4688 14.9297 26.9062 14.9297C27.3438 14.9297 27.6609 14.7602 27.8633 14.4156L28 14.1805V8.55859V2.93672L27.8633 2.70156C27.7812 2.55938 27.6281 2.40625 27.4859 2.32422L27.2508 2.1875H24.8664H22.4766V1.46563C22.4766 0.798437 22.4656 0.732813 22.3398 0.514063C22.1375 0.169531 21.8203 0 21.3828 0C20.9453 0 20.6281 0.169531 20.4258 0.514063C20.3 0.732813 20.2891 0.798437 20.2891 1.46563V2.1875H17.6914H15.0938V1.46563C15.0938 0.798437 15.0828 0.732813 14.957 0.514063C14.7547 0.169531 14.4375 0 14 0C13.5625 0 13.2453 0.169531 13.043 0.514063C12.9172 0.732813 12.9062 0.798437 12.9062 1.46563V2.1875H10.3086H7.71094V1.46563C7.71094 0.798437 7.7 0.732813 7.57422 0.514063C7.37187 0.169531 7.05469 0 6.61172 0C6.33281 0 6.2125 0.0273438 6.03203 0.142187ZM5.52344 5.09688C5.52344 5.76406 5.53437 5.82969 5.66016 6.04844C5.8625 6.39297 6.17969 6.5625 6.61719 6.5625C7.05469 6.5625 7.37187 6.39297 7.57422 6.04844C7.7 5.82969 7.71094 5.76406 7.71094 5.09688V4.375H10.3086H12.9062V5.09688C12.9062 5.76406 12.9172 5.82969 13.043 6.04844C13.2453 6.39297 13.5625 6.5625 14 6.5625C14.4375 6.5625 14.7547 6.39297 14.957 6.04844C15.0828 5.82969 15.0938 5.76406 15.0938 5.09688V4.375H17.6914H20.2891V5.09688C20.2891 5.76406 20.3 5.82969 20.4258 6.04844C20.6281 6.39297 20.9453 6.5625 21.3828 6.5625C21.8203 6.5625 22.1375 6.39297 22.3398 6.04844C22.4656 5.82969 22.4766 5.76406 22.4766 5.09688V4.375H24.1445H25.8125V6.01562V7.65625H14H2.1875V6.01562V4.375H3.85547H5.52344V5.09688Z" fill="#E9004F"/>
<path d="M26.3154 17.2649C26.1896 17.3524 24.5271 19.1625 22.5802 21.3282C20.6552 23.4774 19.0529 25.2383 19.031 25.2383C19.0091 25.2383 18.1068 24.4016 17.0349 23.3789C15.9576 22.3563 14.9841 21.4594 14.8638 21.3883C14.4865 21.1586 13.9013 21.2242 13.5404 21.5414C13.2068 21.8367 13.1083 22.5094 13.349 22.9032C13.524 23.1985 18.3911 27.825 18.6263 27.9235C18.8779 28.0274 19.3701 28.0219 19.6052 27.9071C19.7419 27.8414 21.0271 26.4524 23.7779 23.3899C25.9654 20.9563 27.8083 18.8727 27.874 18.7633C28.0544 18.4735 28.049 17.9485 27.863 17.6313C27.6607 17.2867 27.3435 17.1172 26.9005 17.1172C26.6052 17.1172 26.5068 17.1446 26.3154 17.2649Z" fill="#E9004F"/>
</g>
<defs>
<clipPath id="clip0_819_267">
<rect width="28" height="28" fill="white"/>
</clipPath>
</defs>
</svg>
