<svg width="28" height="28" viewBox="0 0 28 28" fill="none" xmlns="http://www.w3.org/2000/svg">
<g clip-path="url(#clip0_819_251)">
<path d="M2.37876 0.103893C1.25766 0.432018 0.371724 1.33436 0.0818805 2.44452C-0.0439007 2.92577 -0.038432 9.97499 0.0873493 10.4617C0.377193 11.5883 1.31782 12.5289 2.43891 12.8187C2.94204 12.95 9.95844 12.95 10.4616 12.8187C11.5991 12.5234 12.5233 11.5992 12.8186 10.4617C12.9499 9.96405 12.9499 2.94217 12.8186 2.44452C12.5233 1.30702 11.5991 0.382799 10.4616 0.0874872C10.1717 0.0109243 9.61938 -1.33514e-05 6.42016 0.00545597C3.05141 0.00545597 2.67407 0.0163927 2.37876 0.103893ZM10.0897 2.32967C10.3413 2.46639 10.4452 2.57577 10.5873 2.84374C10.6858 3.02421 10.6913 3.22108 10.6913 6.45311C10.6913 9.68514 10.6858 9.88202 10.5873 10.0625C10.4452 10.3305 10.3413 10.4398 10.0897 10.5766C9.87094 10.6914 9.8436 10.6914 6.45297 10.6914C3.22094 10.6914 3.02407 10.6859 2.8436 10.5875C2.57563 10.4453 2.46626 10.3414 2.32954 10.0898C2.21469 9.87108 2.21469 9.84374 2.21469 6.45311C2.21469 3.22108 2.22016 3.02421 2.3186 2.84374C2.51001 2.48827 2.72876 2.31874 3.11704 2.23671C3.22094 2.21483 4.78501 2.20389 6.58969 2.20389C9.83266 2.21483 9.87094 2.21483 10.0897 2.32967Z" fill="#E9004F"/>
<path d="M17.4725 0.103893C16.3514 0.432018 15.4655 1.33436 15.1756 2.44452C15.0498 2.92577 15.0553 9.97499 15.1811 10.4617C15.4709 11.5883 16.4116 12.5289 17.5327 12.8187C18.0358 12.95 25.0522 12.95 25.5553 12.8187C26.6928 12.5234 27.617 11.5992 27.9123 10.4617C28.0436 9.96405 28.0436 2.94217 27.9123 2.44452C27.617 1.30702 26.6928 0.382799 25.5553 0.0874872C25.2655 0.0109243 24.7131 -1.33514e-05 21.5139 0.00545597C18.1452 0.00545597 17.7678 0.0163927 17.4725 0.103893ZM25.1834 2.32967C25.435 2.46639 25.5389 2.57577 25.6811 2.84374C25.7795 3.02421 25.785 3.22108 25.785 6.45311C25.785 9.68514 25.7795 9.88202 25.6811 10.0625C25.5389 10.3305 25.435 10.4398 25.1834 10.5766C24.9647 10.6914 24.9374 10.6914 21.5467 10.6914C18.3147 10.6914 18.1178 10.6859 17.9373 10.5875C17.6694 10.4453 17.56 10.3414 17.4233 10.0898C17.3084 9.87108 17.3084 9.84374 17.3084 6.45311C17.3084 3.22108 17.3139 3.02421 17.4123 2.84374C17.6038 2.48827 17.8225 2.31874 18.2108 2.23671C18.3147 2.21483 19.8788 2.20389 21.6834 2.20389C24.9264 2.21483 24.9647 2.21483 25.1834 2.32967Z" fill="#E9004F"/>
<path d="M2.37876 15.1976C1.25766 15.5258 0.371724 16.4281 0.0818805 17.5383C-0.0439007 18.0195 -0.038432 25.0687 0.0873493 25.5555C0.377193 26.682 1.31782 27.6226 2.43891 27.9125C2.94204 28.0437 9.95844 28.0437 10.4616 27.9125C11.5991 27.6172 12.5233 26.693 12.8186 25.5555C12.9499 25.0578 12.9499 18.0359 12.8186 17.5383C12.5233 16.4008 11.5991 15.4765 10.4616 15.1812C10.1717 15.1047 9.61938 15.0937 6.42016 15.0992C3.05141 15.0992 2.67407 15.1101 2.37876 15.1976ZM10.0897 17.4234C10.3413 17.5601 10.4452 17.6695 10.5873 17.9375C10.6858 18.118 10.6913 18.3148 10.6913 21.5469C10.6913 24.7789 10.6858 24.9758 10.5873 25.1562C10.4452 25.4242 10.3413 25.5336 10.0897 25.6703C9.87094 25.7851 9.8436 25.7851 6.45297 25.7851C3.22094 25.7851 3.02407 25.7797 2.8436 25.6812C2.57563 25.5391 2.46626 25.4351 2.32954 25.1836C2.21469 24.9648 2.21469 24.9375 2.21469 21.5469C2.21469 18.3148 2.22016 18.118 2.3186 17.9375C2.51001 17.582 2.72876 17.4125 3.11704 17.3305C3.22094 17.3086 4.78501 17.2976 6.58969 17.2976C9.83266 17.3086 9.87094 17.3086 10.0897 17.4234Z" fill="#E9004F"/>
<path d="M17.4725 15.1976C16.3514 15.5258 15.4655 16.4281 15.1756 17.5383C15.0498 18.0195 15.0553 25.0687 15.1811 25.5555C15.4709 26.682 16.4116 27.6226 17.5327 27.9125C18.0358 28.0437 25.0522 28.0437 25.5553 27.9125C26.6928 27.6172 27.617 26.693 27.9123 25.5555C28.0436 25.0578 28.0436 18.0359 27.9123 17.5383C27.617 16.4008 26.6928 15.4765 25.5553 15.1812C25.2655 15.1047 24.7131 15.0937 21.5139 15.0992C18.1452 15.0992 17.7678 15.1101 17.4725 15.1976ZM25.1834 17.4234C25.435 17.5601 25.5389 17.6695 25.6811 17.9375C25.7795 18.118 25.785 18.3148 25.785 21.5469C25.785 24.7789 25.7795 24.9758 25.6811 25.1562C25.5389 25.4242 25.435 25.5336 25.1834 25.6703C24.9647 25.7851 24.9374 25.7851 21.5467 25.7851C18.3147 25.7851 18.1178 25.7797 17.9373 25.6812C17.6694 25.5391 17.56 25.4351 17.4233 25.1836C17.3084 24.9648 17.3084 24.9375 17.3084 21.5469C17.3084 18.3148 17.3139 18.118 17.4123 17.9375C17.6038 17.582 17.8225 17.4125 18.2108 17.3305C18.3147 17.3086 19.8788 17.2976 21.6834 17.2976C24.9264 17.3086 24.9647 17.3086 25.1834 17.4234Z" fill="#E9004F"/>
</g>
<defs>
<clipPath id="clip0_819_251">
<rect width="28" height="28" fill="white"/>
</clipPath>
</defs>
</svg>
