<svg width="28" height="28" viewBox="0 0 28 28" fill="none" xmlns="http://www.w3.org/2000/svg">
<path d="M12.25 0.0820312C9.82187 0.382812 7.59062 1.28516 5.57812 2.77813C4.75781 3.39062 3.39062 4.75781 2.77813 5.57812C1.26875 7.6125 0.377344 9.83828 0.0765625 12.3047C-0.0164062 13.1141 -0.0164062 14.8859 0.0765625 15.6953C0.377344 18.1617 1.26875 20.3875 2.77813 22.4219C3.39062 23.2422 4.75781 24.6094 5.57812 25.2219C7.6125 26.7313 9.83828 27.6227 12.3047 27.9234C13.1141 28.0164 14.8859 28.0164 15.6953 27.9234C18.1617 27.6227 20.3875 26.7313 22.4219 25.2219C23.2422 24.6094 24.6094 23.2422 25.2219 22.4219C26.7312 20.3875 27.6227 18.1617 27.9234 15.6953C28.0164 14.8859 28.0164 13.1141 27.9234 12.3047C27.6227 9.83828 26.7312 7.6125 25.2219 5.57812C24.6094 4.75781 23.2422 3.39062 22.4219 2.77813C20.3875 1.26875 18.1617 0.377344 15.6953 0.0765629C14.9133 -0.0164051 13.0266 -0.0109367 12.25 0.0820312ZM15.7336 1.79922C21.1805 2.60312 25.3969 6.81953 26.2008 12.2664C26.3266 13.1469 26.343 14.6398 26.2281 15.5094C25.9547 17.5547 25.2656 19.3539 24.0953 21.0438L23.8219 21.4375L23.4883 20.7977C22.2797 18.468 20.3492 16.7234 17.8937 15.75L17.4344 15.5695L17.6203 15.4328C18.2055 14.9953 18.9438 14.0164 19.2828 13.2398C19.6547 12.3867 19.7094 12.0695 19.7094 10.9102C19.7094 9.93672 19.6984 9.83828 19.5562 9.37891C18.9602 7.41016 17.5328 5.97734 15.5586 5.37578C15.0938 5.23906 15.0062 5.22812 14 5.22812C12.9937 5.22812 12.9062 5.23906 12.4414 5.37578C10.4672 5.97734 9.03984 7.41016 8.44375 9.37891C8.30156 9.83828 8.29062 9.93672 8.29062 10.9102C8.29062 12.0695 8.34531 12.3867 8.71719 13.2398C9.05625 14.0164 9.79453 14.9953 10.3797 15.4328L10.5656 15.5695L10.1062 15.75C7.65078 16.7234 5.72031 18.468 4.51172 20.7977L4.17812 21.4375L3.90469 21.0438C2.73984 19.3594 2.04531 17.5492 1.77188 15.5094C1.65703 14.6398 1.67344 13.1469 1.79922 12.2664C2.59766 6.84141 6.79766 2.625 12.2172 1.80469C13.1633 1.6625 14.7766 1.6625 15.7336 1.79922ZM15.2414 7.07109C16.5211 7.51406 17.4672 8.47656 17.8937 9.75625C18.0031 10.0898 18.0195 10.2539 18.0195 10.9375C18.0195 11.6211 18.0031 11.7852 17.8937 12.1188C17.4617 13.4148 16.4773 14.3992 15.1812 14.8313C14.8477 14.9406 14.6836 14.957 14 14.957C13.3164 14.957 13.1523 14.9406 12.8187 14.8313C11.5227 14.3992 10.5383 13.4148 10.1062 12.1188C9.99687 11.7852 9.98047 11.6211 9.98047 10.9375C9.98047 10.2539 9.99687 10.0898 10.1062 9.75625C10.5328 8.46563 11.55 7.44297 12.7914 7.06563C13.3164 6.90156 13.3547 6.89609 14.1367 6.91797C14.7273 6.92891 14.9133 6.95625 15.2414 7.07109ZM15.7773 16.893C18.5227 17.4836 20.8195 19.25 22.0391 21.7055C22.225 22.0773 22.5312 22.8102 22.5312 22.8758C22.5312 22.8867 22.318 23.0781 22.0555 23.3023C19.7258 25.3039 17.0352 26.3047 14 26.3047C10.9648 26.3047 8.27422 25.3039 5.94453 23.3023C5.68203 23.0781 5.46875 22.8867 5.46875 22.8758C5.46875 22.8102 5.775 22.0773 5.96094 21.7055C7.18047 19.25 9.54844 17.4344 12.2281 16.8984C13.0266 16.7398 13.0102 16.7453 14.1641 16.7617C15.0062 16.7727 15.3453 16.8 15.7773 16.893Z" fill="#E9004F"/>
</svg>
