<svg width="50" height="50" viewBox="0 0 50 50" fill="none" xmlns="http://www.w3.org/2000/svg">
<path d="M9.54102 0.15625C4.90234 0.996094 1.15234 4.6875 0.205078 9.3457C0 10.3125 0 10.5859 0 25C0 39.4141 0 39.6875 0.205078 40.6543C1.04492 44.7754 4.00391 48.1055 8.01758 49.4531C9.6582 50 9.58984 50 20.6836 50H30.8887L31.3086 49.7559C32.5195 49.043 32.5586 47.1094 31.377 46.3672L31.0059 46.1426L20.8984 46.0938C9.43359 46.0352 10.1465 46.084 8.34961 45.2148C6.66992 44.3945 5.60547 43.3301 4.78516 41.6504C3.89648 39.8145 3.95508 41.0254 3.95508 25C3.95508 8.97461 3.89648 10.1855 4.78516 8.34961C5.60547 6.66992 6.66992 5.60547 8.34961 4.78516C10.1855 3.89648 8.96484 3.95508 25.0488 3.95508H39.209L40.0781 4.17969C40.5469 4.29688 41.3184 4.58984 41.7871 4.83398C43.3789 5.6543 44.4336 6.73828 45.2148 8.34961C46.084 10.1465 46.0352 9.41406 46.0938 21.0156L46.1426 31.2305L46.4453 31.6113C47.2949 32.6758 48.7988 32.6758 49.6484 31.6113L49.9512 31.2305L49.9805 20.791C50 10.5566 50 10.3223 49.8047 9.3457C48.8477 4.6582 45.0781 0.966797 40.3906 0.146484C39.6387 0.0195312 37.6465 0 24.9121 0.00976562C12.7637 0.0195312 10.1758 0.0390625 9.54102 0.15625Z" fill="#E9004F"/>
<path d="M11.0544 9.92187C10.1462 10.3809 9.71652 11.1719 9.78488 12.3047C9.8337 13.1543 10.195 13.7793 10.8786 14.209C11.3181 14.4727 11.4353 14.502 12.2068 14.502C12.9782 14.502 13.0954 14.4727 13.5349 14.209C13.8278 14.0234 14.1208 13.7305 14.3064 13.4375C14.57 12.998 14.5993 12.8809 14.5993 12.1094C14.5993 11.3379 14.57 11.2207 14.3064 10.7812C13.8571 10.0586 13.2419 9.72656 12.3142 9.6875C11.6696 9.6582 11.5036 9.6875 11.0544 9.92187Z" fill="#E9004F"/>
<path d="M19.3652 10.6055C18.7598 10.9668 18.457 11.5332 18.457 12.3047C18.457 13.0859 18.7598 13.6523 19.375 14.0137L19.7949 14.2578H29.3457H38.8965L39.3164 14.0137C39.9316 13.6523 40.2344 13.0859 40.2344 12.3047C40.2344 11.5234 39.9316 10.957 39.3164 10.5957L38.8965 10.3516H29.3359H19.7754L19.3652 10.6055Z" fill="#E9004F"/>
<path d="M10.6738 18.418C10.0684 18.7793 9.76562 19.3457 9.76562 20.1172C9.76562 20.8984 10.0684 21.4648 10.6836 21.8262L11.1035 22.0703H25H38.8965L39.3164 21.8262C39.9316 21.4648 40.2344 20.8984 40.2344 20.1172C40.2344 19.3359 39.9316 18.7695 39.3164 18.4082L38.8965 18.1641H24.9902H11.084L10.6738 18.418Z" fill="#E9004F"/>
<path d="M10.6738 26.2305C10.0684 26.5918 9.76562 27.1582 9.76562 27.9297C9.76562 28.7109 10.0684 29.2773 10.6836 29.6387L11.1035 29.8828H15.2344H19.3652L19.7852 29.6387C20.4004 29.2773 20.7031 28.7109 20.7031 27.9297C20.7031 27.1484 20.4004 26.582 19.7852 26.2207L19.3652 25.9766H15.2246H11.084L10.6738 26.2305Z" fill="#E9004F"/>
<path d="M26.8848 26.2305C26.3086 26.5723 25.9766 27.1582 25.9766 27.8418C25.9766 28.6426 27.207 34.6191 27.6074 35.7715C28.1152 37.2363 28.8086 38.5352 29.7656 39.7949C30.3613 40.5762 37.4512 47.7246 38.3594 48.4473C39.6875 49.5117 41.0938 50 42.8711 50C44.6094 50 46.0156 49.5312 47.334 48.4961C49.0527 47.1484 50 45.1562 50 42.8711C50 41.0938 49.5117 39.6875 48.4473 38.3594C47.5195 37.1973 40.293 30.1074 39.4043 29.4824C38.3301 28.7207 36.9531 28.0078 35.7812 27.6074C34.6094 27.1973 28.6328 25.9766 27.832 25.9766C27.4316 25.9766 27.1875 26.0449 26.8848 26.2305ZM32.3535 30.8594C34.5703 31.3184 35.7031 31.7871 37.1094 32.8223C38.0469 33.5156 45.4395 40.9668 45.7129 41.5039C45.9082 41.875 45.9473 42.0898 45.9473 42.8711C45.9473 43.6523 45.9082 43.8672 45.7227 44.2188C45.1074 45.3711 44.1016 45.9961 42.8711 45.9961C41.5332 45.9961 41.5234 45.9863 37.002 41.4453C34.8242 39.248 32.8809 37.2266 32.6953 36.9629C31.7578 35.625 31.2988 34.4727 30.8594 32.3535C30.7031 31.5527 30.5469 30.8105 30.5176 30.6836C30.4688 30.498 30.498 30.4688 30.6836 30.5176C30.8105 30.5469 31.5527 30.7031 32.3535 30.8594Z" fill="#E9004F"/>
</svg>
