<svg width="146" height="33" viewBox="0 0 146 33" fill="none" xmlns="http://www.w3.org/2000/svg">
<path d="M12.1644 22.1862C12.1164 22.1763 12.0703 22.1663 12.0244 22.1582C12.0244 22.1582 12.0244 22.1601 12.0263 22.1601C12.0724 22.1701 12.1183 22.1801 12.1644 22.1862Z" fill="#00CAEB"/>
<path d="M27.9656 14.9996C26.3956 12.3037 24.0077 10.1437 21.1416 8.85381C20.1395 8.40374 19.0776 8.05989 17.9697 7.83984C17.9716 7.84174 17.9738 7.84174 17.9757 7.84388C17.9776 7.84388 17.9776 7.84578 17.9797 7.84578C18.0776 7.91185 18.1758 7.97791 18.2718 8.04777C18.3537 8.10385 18.4357 8.16373 18.5177 8.22385C18.6496 8.31986 18.7777 8.41776 18.9076 8.51994C18.9157 8.52588 18.9257 8.53396 18.9336 8.5399C19.0037 8.59598 19.0735 8.65182 19.1436 8.7079L19.1795 8.73784C19.1835 8.73975 19.1854 8.74379 19.1895 8.74592C19.2734 8.81389 19.3575 8.88589 19.4414 8.95789C19.7253 9.20194 20.0015 9.45786 20.2714 9.72781C20.5414 9.99776 20.7975 10.2739 21.0413 10.5578C21.1174 10.6439 21.1894 10.7318 21.2614 10.82C21.2713 10.8318 21.2813 10.844 21.2913 10.8558C21.3493 10.9259 21.4054 10.9958 21.4593 11.0659C21.4874 11.1018 21.5154 11.136 21.5413 11.1719C21.6074 11.2539 21.6694 11.3358 21.7293 11.42C21.7333 11.424 21.7373 11.4299 21.7411 11.4359C21.8051 11.52 21.8652 11.6039 21.9251 11.6899C21.941 11.7139 21.959 11.7379 21.975 11.76C21.979 11.7641 21.9809 11.77 21.985 11.774C22.041 11.856 22.0969 11.9401 22.153 12.0221C22.1549 12.024 22.157 12.0281 22.1589 12.0302V12.0321L22.1948 12.212C22.1848 12.1521 22.1727 12.092 22.1608 12.034C22.2387 12.1521 22.3148 12.27 22.3887 12.3881C22.4647 12.5081 22.5367 12.6281 22.6066 12.7481C22.6646 12.846 22.7207 12.9441 22.7746 13.0442C22.7805 13.0541 22.7865 13.0641 22.7927 13.0741C22.8307 13.1421 22.8666 13.21 22.9027 13.278C22.9588 13.3799 23.0106 13.4819 23.0626 13.586C23.1206 13.7019 23.1786 13.8179 23.2325 13.9338C23.2444 13.9597 23.2565 13.9838 23.2686 14.0099C23.3107 14.1019 23.3525 14.1938 23.3946 14.2879C23.4986 14.5239 23.5947 14.762 23.6866 15.002C24.8025 17.9379 24.9627 21.154 24.1666 24.1681C23.6227 26.2362 22.6287 28.212 21.1865 29.9379C21.6325 29.98 22.0845 30 22.5405 30C24.7286 30 26.8086 29.5321 28.6844 28.6899C29.5285 26.816 29.9985 24.7339 29.9985 22.5439C29.9985 22.0879 29.9786 21.6338 29.9365 21.188C29.7376 18.9457 29.0437 16.8477 27.9656 14.9996Z" fill="#00CAEB"/>
<path d="M2.03197 14.9999C3.60389 17.6958 5.98992 19.8558 8.85383 21.1438C8.98786 21.2037 9.12592 21.2638 9.26374 21.3199C9.27182 21.3239 9.27776 21.3258 9.28584 21.3299C9.37591 21.3657 9.46383 21.4019 9.55389 21.4377C9.55983 21.4396 9.56577 21.4418 9.57195 21.4437C9.69195 21.4898 9.81005 21.5356 9.93006 21.5777L9.93196 21.5796C9.99588 21.6017 10.0619 21.6257 10.128 21.6457C10.2159 21.6777 10.3041 21.7058 10.392 21.7357C10.4039 21.7398 10.416 21.7438 10.4279 21.7457C10.5379 21.7818 10.6498 21.8158 10.762 21.8476C10.7879 21.8557 10.8159 21.8636 10.844 21.8716H10.8459C10.9659 21.9056 11.0818 21.9396 11.204 21.9696C11.2719 21.9876 11.338 22.0054 11.406 22.0216C11.4739 22.0375 11.544 22.0537 11.612 22.0696C11.7479 22.1017 11.886 22.1295 12.024 22.1575C11.2121 21.6176 10.4421 20.9896 9.72617 20.2736C9.00829 19.5557 8.38024 18.7837 7.83821 17.9717C7.21015 17.0297 6.7002 16.0336 6.31025 15.0018C5.19434 12.0637 5.03418 8.84575 5.83238 5.8319C6.37631 3.76191 7.36841 1.78792 8.81225 0.0620213C8.36598 0.0199609 7.91401 0 7.4561 0C5.26611 0 3.1859 0.467892 1.31195 1.31195C0.467892 3.1859 0 5.26611 0 7.4561C0 7.91401 0.0199609 8.36598 0.0620213 8.81415C0.262105 11.054 0.955983 13.1521 2.03197 14.9999Z" fill="#00CAEB"/>
<path d="M9.72794 9.72807C10.4439 9.00996 11.216 8.38214 12.028 7.84011C12.9699 7.21205 13.9661 6.7021 14.9978 6.31215C17.9359 5.19624 21.1517 5.03608 24.1677 5.83214C26.2358 6.37607 28.2117 7.37008 29.9376 8.81415C29.9797 8.36622 29.9996 7.91425 29.9996 7.4561C29.9996 5.26611 29.5296 3.184 28.6855 1.31005C26.8097 0.467892 24.7297 0 22.5419 0C22.0859 0 21.6339 0.0199609 21.1879 0.0620213C18.9458 0.259967 16.8478 0.954082 14.9997 2.03411C12.3038 3.60199 10.1419 5.98993 8.85394 8.85597C8.40197 9.86186 8.05598 10.926 7.83594 12.0359C8.37797 11.2199 9.00983 10.446 9.72794 9.72807Z" fill="#00CAEB"/>
<path d="M21.486 20.3095C21.5259 20.2075 21.5639 20.1035 21.6019 19.9994C21.6038 19.9894 21.6079 19.9794 21.6119 19.9694C21.6179 19.9535 21.6238 19.9355 21.6278 19.9195C21.6637 19.8235 21.6958 19.7294 21.7257 19.6315C21.7638 19.5175 21.7996 19.4015 21.8336 19.2834C21.8536 19.2214 21.8716 19.1594 21.8876 19.0973C21.8916 19.0833 21.8956 19.0693 21.8995 19.0534C21.9235 18.9673 21.9475 18.8813 21.9696 18.7934C22.0035 18.6653 22.0356 18.5375 22.0656 18.4075C22.0696 18.3894 22.0736 18.3735 22.0774 18.3576V18.3557C22.1074 18.2276 22.1354 18.0998 22.1594 17.9717C22.1575 17.9736 22.1575 17.9757 22.1554 17.9776C22.1554 17.9795 22.1535 17.9795 22.1535 17.9817C22.1454 17.9916 22.1395 18.0038 22.1314 18.0137C22.0734 18.1017 22.0133 18.1877 21.9515 18.2737C21.8835 18.3737 21.8115 18.4717 21.7414 18.5677C21.7355 18.5736 21.7333 18.5776 21.7295 18.5817C21.6697 18.6618 21.6114 18.7416 21.5516 18.8198C21.4815 18.9077 21.4135 18.9937 21.3436 19.0819C21.2956 19.1418 21.2457 19.2019 21.1956 19.2599C21.1937 19.2639 21.1897 19.2658 21.1875 19.2699C21.1816 19.2758 21.1756 19.2839 21.1695 19.2898C21.1295 19.3419 21.0853 19.3918 21.0414 19.4419C20.7973 19.7259 20.5414 20.002 20.2715 20.2719C20.0015 20.5419 19.7254 20.798 19.4414 21.0419C19.3994 21.0777 19.3594 21.1139 19.3155 21.1478C19.2734 21.1837 19.2316 21.2179 19.1895 21.2538C19.1855 21.2557 19.1836 21.2598 19.1795 21.2619C19.1677 21.2719 19.1555 21.2819 19.1437 21.2918C19.0736 21.3479 19.0037 21.4038 18.9336 21.4598C18.9255 21.4658 18.9155 21.4739 18.9077 21.4798C18.8438 21.5297 18.7777 21.5817 18.7138 21.6297C18.6477 21.6796 18.5838 21.7276 18.5177 21.7757C18.4358 21.8355 18.3538 21.8957 18.2718 21.9517C18.1858 22.0138 18.0998 22.0736 18.0118 22.1316C18.0019 22.1397 17.9897 22.1456 17.9798 22.1537C17.9779 22.1537 17.9779 22.1556 17.9757 22.1556C17.9738 22.1575 17.9717 22.1575 17.9698 22.1597C17.9657 22.1616 17.9638 22.1637 17.9598 22.1677C17.8619 22.2317 17.7618 22.2958 17.6618 22.3597C17.6259 22.3837 17.5879 22.4058 17.5499 22.4298C17.534 22.4398 17.5199 22.4479 17.5038 22.4579C17.4399 22.4978 17.3738 22.5358 17.3077 22.5738C17.2797 22.5938 17.2498 22.6097 17.2217 22.6259C17.1098 22.692 16.9998 22.7559 16.8876 22.816C16.7897 22.8721 16.6897 22.9239 16.5896 22.9759C16.5756 22.984 16.5637 22.9899 16.5497 22.9959C16.4777 23.0339 16.4057 23.0719 16.3318 23.1059C16.3237 23.1118 16.3137 23.1159 16.3059 23.1199C16.2279 23.1598 16.1498 23.1979 16.0699 23.234C15.968 23.282 15.8679 23.3281 15.766 23.3739C15.6781 23.4139 15.5921 23.45 15.5039 23.4859C15.426 23.5179 15.3478 23.5519 15.2698 23.5838C15.2679 23.5838 15.2639 23.5838 15.2617 23.5857C15.1738 23.6216 15.0857 23.6558 14.9977 23.6898C12.0618 24.8038 8.84766 24.9637 5.82976 24.1698C3.76167 23.6237 1.78769 22.6297 0.0617836 21.1859C0.0199609 21.6335 0 22.0855 0 22.5434C0 24.7334 0.467892 26.8134 1.31195 28.6873C3.1859 29.5314 5.26587 29.9993 7.45586 29.9993C7.91377 29.9993 8.36574 29.9793 8.81177 29.9373C11.0517 29.7372 13.1518 29.0433 14.9996 27.9652C17.6936 26.3952 19.8537 24.0091 21.1417 21.1452C21.2037 21.0093 21.2636 20.8693 21.3196 20.7313C21.3779 20.5934 21.4339 20.4516 21.486 20.3095Z" fill="#00CAEB"/>
<path d="M48.1514 0.798828C48.8818 0.798828 49.5182 0.832031 50.0605 0.898438C50.6139 0.964844 51.1286 1.05892 51.6045 1.18066C52.0915 1.29134 52.5729 1.42415 53.0488 1.5791C53.5247 1.73405 54.056 1.9056 54.6426 2.09375L54.5762 3.83691C54.1556 3.69303 53.7295 3.55469 53.2979 3.42188C52.8662 3.28906 52.4124 3.17285 51.9365 3.07324C51.4717 2.97363 50.9736 2.89616 50.4424 2.84082C49.9111 2.77441 49.3411 2.74121 48.7324 2.74121C48.4557 2.74121 48.1348 2.78548 47.7695 2.87402C47.4043 2.96257 47.0557 3.11198 46.7236 3.32227C46.3916 3.53255 46.1094 3.80924 45.877 4.15234C45.6445 4.49544 45.5283 4.92155 45.5283 5.43066C45.5283 5.90658 45.7165 6.46549 46.0928 7.10742C46.4691 7.73828 47.0999 8.52962 47.9854 9.48145L50.9072 12.6357C51.5492 13.2998 52.1634 13.9583 52.75 14.6113C53.3477 15.2533 53.8678 15.8896 54.3105 16.5205C54.7533 17.1403 55.1074 17.7601 55.373 18.3799C55.6387 18.9886 55.7715 19.5918 55.7715 20.1895C55.7715 21.3516 55.5557 22.3421 55.124 23.1611C54.7035 23.9691 54.1501 24.6276 53.4639 25.1367C52.7887 25.6348 52.0195 26 51.1562 26.2324C50.293 26.4648 49.4297 26.5811 48.5664 26.5811C47.8138 26.5811 47.111 26.5368 46.458 26.4482C45.805 26.3708 45.1797 26.249 44.582 26.083C43.9954 25.9281 43.431 25.7344 42.8887 25.502C42.3464 25.2585 41.8096 24.9818 41.2783 24.6719L41.4941 22.8789C41.9258 23.0781 42.3685 23.2829 42.8223 23.4932C43.276 23.6924 43.7354 23.875 44.2002 24.041C44.6761 24.196 45.1576 24.3232 45.6445 24.4229C46.1315 24.5225 46.6185 24.5723 47.1055 24.5723C48.7324 24.5723 49.9609 24.2402 50.791 23.5762C51.6211 22.901 52.0361 21.9271 52.0361 20.6543C52.0361 20.2669 51.9476 19.874 51.7705 19.4756C51.6045 19.0771 51.3721 18.6676 51.0732 18.2471C50.7744 17.8154 50.4202 17.3727 50.0107 16.9189C49.6123 16.4652 49.1862 15.9893 48.7324 15.4912L45.7773 12.2705C45.0247 11.3519 44.3939 10.5661 43.8848 9.91309C43.3757 9.26009 42.9661 8.67904 42.6562 8.16992C42.3574 7.66081 42.1416 7.19596 42.0088 6.77539C41.887 6.34375 41.8262 5.89551 41.8262 5.43066C41.8262 4.53418 42.0088 3.79264 42.374 3.20605C42.7393 2.6084 43.2207 2.13249 43.8184 1.77832C44.416 1.42415 45.0911 1.17513 45.8438 1.03125C46.5964 0.876302 47.3656 0.798828 48.1514 0.798828ZM62.2461 11.1914C62.877 10.804 63.5465 10.5163 64.2549 10.3281C64.9632 10.14 65.5996 10.0459 66.1641 10.0459C67.5697 10.0459 68.7816 10.2396 69.7998 10.627C70.8291 11.0033 71.6758 11.529 72.3398 12.2041C73.015 12.8682 73.513 13.665 73.834 14.5947C74.1549 15.5133 74.3154 16.515 74.3154 17.5996C74.3154 18.6953 74.166 19.7523 73.8672 20.7705C73.5794 21.7777 73.0592 22.6686 72.3066 23.4434C71.5651 24.2181 70.5524 24.8379 69.2686 25.3027C67.9847 25.7676 66.3577 26 64.3877 26H62.2461V32.0098L58.8926 32.9727V10.3613H62.2461V11.1914ZM65.8154 11.4404C65.1071 11.4404 64.4652 11.5234 63.8896 11.6895C63.3252 11.8555 62.7773 12.099 62.2461 12.4199V24.6387H64.3877C65.3838 24.6387 66.236 24.5169 66.9443 24.2734C67.6527 24.0299 68.2503 23.709 68.7373 23.3105C69.2243 22.901 69.6117 22.4473 69.8994 21.9492C70.1982 21.4401 70.4251 20.9255 70.5801 20.4053C70.735 19.874 70.8346 19.3649 70.8789 18.8779C70.9342 18.3799 70.9619 17.9427 70.9619 17.5664C70.9619 16.7585 70.8457 15.9893 70.6133 15.2588C70.3919 14.5173 70.0599 13.8643 69.6172 13.2998C69.1855 12.7354 68.6488 12.2871 68.0068 11.9551C67.376 11.612 66.6455 11.4404 65.8154 11.4404ZM81.1553 26H77.7852V10.3613H81.1553V26ZM81.1553 7.73828H77.7852V5.7627H81.1553V7.73828ZM88.9912 11.6562C89.6995 11.3464 90.3525 11.0918 90.9502 10.8926C91.5479 10.6823 92.1068 10.5163 92.627 10.3945C93.1471 10.2617 93.6286 10.1732 94.0713 10.1289C94.5251 10.0736 94.9622 10.0459 95.3828 10.0459C96.4232 10.0459 97.2145 10.3171 97.7568 10.8594C98.3102 11.4017 98.5869 12.276 98.5869 13.4824V26H95.2168V13.9971C95.2168 13.7536 95.1891 13.5046 95.1338 13.25C95.0895 12.9954 95.001 12.7686 94.8682 12.5693C94.7354 12.3701 94.5527 12.2096 94.3203 12.0879C94.099 11.9551 93.8167 11.8887 93.4736 11.8887C92.9092 11.8887 92.2562 11.9606 91.5146 12.1045C90.7731 12.2373 89.932 12.5195 88.9912 12.9512V26H85.6211V10.3613H88.9912V11.6562ZM106.323 11.6562C107.032 11.3464 107.685 11.0918 108.282 10.8926C108.88 10.6823 109.439 10.5163 109.959 10.3945C110.479 10.2617 110.961 10.1732 111.403 10.1289C111.857 10.0736 112.294 10.0459 112.715 10.0459C113.755 10.0459 114.547 10.3171 115.089 10.8594C115.642 11.4017 115.919 12.276 115.919 13.4824V26H112.549V13.9971C112.549 13.7536 112.521 13.5046 112.466 13.25C112.422 12.9954 112.333 12.7686 112.2 12.5693C112.067 12.3701 111.885 12.2096 111.652 12.0879C111.431 11.9551 111.149 11.8887 110.806 11.8887C110.241 11.8887 109.588 11.9606 108.847 12.1045C108.105 12.2373 107.264 12.5195 106.323 12.9512V26H102.953V10.3613H106.323V11.6562ZM126.677 10.0459C127.806 10.0459 128.757 10.2562 129.532 10.6768C130.318 11.0863 130.954 11.6452 131.441 12.3535C131.939 13.0618 132.294 13.8809 132.504 14.8105C132.725 15.7292 132.836 16.7031 132.836 17.7324V18.5127H122.609C122.609 19.1325 122.709 19.8021 122.908 20.5215C123.107 21.2409 123.428 21.9049 123.871 22.5137C124.325 23.1224 124.906 23.6315 125.614 24.041C126.334 24.4395 127.214 24.6387 128.254 24.6387H131.707V26H128.204C126.655 26 125.315 25.8229 124.187 25.4688C123.069 25.1146 122.145 24.5999 121.414 23.9248C120.695 23.2497 120.163 22.4251 119.82 21.4512C119.477 20.4772 119.306 19.3649 119.306 18.1143C119.306 17.0739 119.466 16.0667 119.787 15.0928C120.119 14.1188 120.595 13.2611 121.215 12.5195C121.846 11.7669 122.615 11.1693 123.522 10.7266C124.441 10.2728 125.493 10.0459 126.677 10.0459ZM126.511 11.5566C125.825 11.5566 125.238 11.7116 124.751 12.0215C124.264 12.3314 123.86 12.7464 123.539 13.2666C123.229 13.7757 122.997 14.3734 122.842 15.0596C122.698 15.7347 122.62 16.4375 122.609 17.168H129.632V16.4541C129.61 15.8122 129.549 15.1979 129.449 14.6113C129.361 14.0247 129.2 13.5046 128.968 13.0508C128.735 12.597 128.42 12.2373 128.021 11.9717C127.634 11.695 127.131 11.5566 126.511 11.5566ZM139.493 11.5898C139.936 11.2799 140.323 11.0254 140.655 10.8262C140.998 10.627 141.303 10.472 141.568 10.3613C141.834 10.2396 142.077 10.1566 142.299 10.1123C142.531 10.068 142.758 10.0459 142.979 10.0459C143.843 10.0459 144.485 10.3447 144.905 10.9424C145.326 11.54 145.575 12.3867 145.652 13.4824L142.747 14.3457C142.636 13.5488 142.487 12.9844 142.299 12.6523C142.111 12.3203 141.817 12.1543 141.419 12.1543C141.187 12.1543 140.91 12.2041 140.589 12.3037C140.279 12.4033 139.914 12.5693 139.493 12.8018V26H136.123V10.3613H139.493V11.5898Z" fill="white"/>
</svg>
