<svg width="60" height="60" viewBox="0 0 60 60" fill="none" xmlns="http://www.w3.org/2000/svg">
<circle cx="30" cy="30" r="30" fill="#FF4547"/>
<path d="M39.845 29.2625C39.845 27.4605 39.1969 26.2132 38.6423 25.242L38.4723 24.9658C37.7987 23.882 37.21 22.93 37.21 21.8208C37.21 20.482 38.2258 19.2325 39.658 19.2325C39.7005 19.2325 39.7409 19.2368 39.7813 19.2389L39.8471 19.2453C37.1615 16.7784 33.6465 15.4116 29.9999 15.416C27.5831 15.4148 25.2039 16.0149 23.0768 17.1623C20.9497 18.3097 19.1415 19.9683 17.8152 21.9887C18.1552 21.9993 18.4803 22.0078 18.7544 22.0078C20.278 22.0078 22.6389 21.8229 22.6389 21.8229C23.4252 21.7762 23.5187 22.93 22.7324 23.0235C22.7324 23.0235 21.944 23.117 21.0643 23.1617L26.3768 38.9589L29.5643 29.3837L27.2905 23.1595C26.5064 23.1128 25.7627 23.0214 25.7627 23.0214C24.9764 22.9747 25.0699 21.7719 25.854 21.8187C25.854 21.8187 28.2638 22.0035 29.696 22.0035C31.2218 22.0035 33.5848 21.8187 33.5848 21.8187C34.371 21.7719 34.4624 22.9279 33.6761 23.0214C33.6761 23.0214 32.8857 23.1128 32.008 23.1595L37.278 38.8357L38.7315 33.9758L38.8463 33.6082C39.42 31.7807 39.8429 30.4313 39.8429 29.2604L39.845 29.2625ZM15.416 29.9999C15.4159 32.7385 16.1867 35.4218 17.6403 37.7428C19.0939 40.0637 21.1716 41.9286 23.6355 43.1239L16.6762 24.0627C15.8428 25.9309 15.4134 27.9542 15.416 29.9999Z" fill="white"/>
<path d="M25.8799 43.9889L30.2574 31.2751L34.739 43.5576C34.7688 43.6277 34.8028 43.6936 34.8431 43.7573C31.9541 44.7751 28.8177 44.8562 25.8799 43.9889ZM42.7949 23.0024C42.8586 23.4678 42.8948 23.9651 42.8948 24.5027C42.8948 25.9817 42.6185 27.6456 41.7855 29.7259L37.3315 42.6034C40.6183 40.6938 43.0291 37.5759 44.0501 33.9143C45.0711 30.2528 44.6214 26.3372 42.797 23.0024H42.7949Z" fill="white"/>
<path fill-rule="evenodd" clip-rule="evenodd" d="M13 30C13 20.6266 20.6266 13 30 13C39.3713 13 47 20.6266 47 30C47 39.3734 39.3713 47 30 47C20.6266 47 13 39.3734 13 30ZM13.7799 30C13.7799 38.9441 21.0559 46.2201 30 46.2201C38.942 46.2201 46.218 38.9441 46.218 30C46.218 21.0538 38.942 13.7799 30 13.7799C21.0538 13.7799 13.7799 21.0538 13.7799 30Z" fill="white"/>
</svg>
