<svg width="60" height="60" viewBox="0 0 60 60" fill="none" xmlns="http://www.w3.org/2000/svg">
<circle cx="30" cy="30" r="30" fill="#00CEA9"/>
<g clip-path="url(#clip0_724_787)">
<path d="M15.3867 15.1114C15.2988 15.17 15.1699 15.2989 15.1113 15.3868C15.0059 15.545 15 15.6973 15 17.6368C15 19.5762 15.0059 19.7286 15.1113 19.8868C15.1699 19.9746 15.2988 20.1036 15.3867 20.1621C15.5449 20.2676 15.6973 20.2735 17.6367 20.2735C19.5762 20.2735 19.7285 20.2676 19.8867 20.1621C20.209 19.9454 20.2734 19.7754 20.2734 19.1133V18.5157L22.0488 18.5215C23.7305 18.5215 23.8125 18.5274 23.6719 18.6211C21.4805 20.1211 19.8633 22.2832 19.0781 24.7793C18.9023 25.336 18.6621 26.5079 18.6035 27.0821C18.5625 27.4805 18.5625 27.4805 18.3223 27.5918C17.6895 27.8731 17.1387 28.5 16.9336 29.1622C16.4941 30.5918 17.2207 32.045 18.6211 32.5254C19.0605 32.6778 19.8457 32.6778 20.2852 32.5254C21.0938 32.25 21.7031 31.6407 21.9785 30.8379C22.1309 30.3926 22.1309 29.6719 21.9727 29.1622C21.7676 28.5059 21.1406 27.7969 20.5781 27.586L20.3848 27.5157L20.4258 27.1875C20.5547 26.0684 20.877 25.0196 21.416 23.9356C21.9199 22.9336 22.4414 22.2071 23.2617 21.3868C24.2871 20.3614 25.3887 19.6407 26.666 19.1661C27.6035 18.8145 27.5918 18.8145 27.8262 19.1661C28.0898 19.5528 28.418 19.8282 28.8867 20.0567C29.2559 20.2383 29.2969 20.2442 30 20.2442C30.7031 20.2442 30.7441 20.2383 31.1133 20.0567C31.582 19.8282 31.9102 19.5528 32.1738 19.1661C32.4082 18.8145 32.3965 18.8145 33.334 19.1661C34.6113 19.6407 35.7129 20.3614 36.7383 21.3868C37.5586 22.2071 38.0801 22.9336 38.584 23.9356C39.123 25.0196 39.4453 26.0684 39.5742 27.1875L39.6152 27.5157L39.4219 27.586C38.8594 27.7969 38.2324 28.5059 38.0273 29.1622C37.5879 30.5918 38.3145 32.045 39.7148 32.5254C40.3477 32.7422 41.332 32.6485 41.877 32.3086C42.7324 31.7696 43.1836 30.9903 43.1836 30.0235C43.1836 28.9395 42.6094 28.0137 41.6777 27.5918C41.4375 27.4805 41.4375 27.4805 41.3965 27.0821C41.373 26.8653 41.291 26.3614 41.2148 25.9571C40.6465 23.0918 38.9238 20.4375 36.5801 18.8204L36.1289 18.5157H37.9277H39.7266V19.1133C39.7266 19.7754 39.791 19.9454 40.1133 20.1621C40.2715 20.2676 40.4238 20.2735 42.3633 20.2735C44.3027 20.2735 44.4551 20.2676 44.6133 20.1621C44.7012 20.1036 44.8301 19.9746 44.8887 19.8868C44.9941 19.7286 45 19.5762 45 17.6368C45 15.6973 44.9941 15.545 44.8887 15.3868C44.8301 15.2989 44.7012 15.17 44.6133 15.1114C44.4551 15.0059 44.3027 15 42.3633 15C40.4238 15 40.2715 15.0059 40.1133 15.1114C39.791 15.3282 39.7266 15.4981 39.7266 16.1543V16.7579H36.123H32.5254L32.4141 16.5059C32.2324 16.1133 31.957 15.7793 31.5762 15.4981C30.2461 14.5196 28.2598 15.0235 27.5859 16.5059L27.4746 16.7579H23.877H20.2734V16.1543C20.2734 15.4981 20.209 15.3282 19.8867 15.1114C19.7285 15.0059 19.5762 15 17.6367 15C15.6973 15 15.5449 15.0059 15.3867 15.1114ZM18.5156 17.6368V18.5157H17.6367H16.7578V17.6368V16.7579H17.6367H18.5156V17.6368ZM43.2422 17.6368V18.5157H42.3633H41.4844V17.6368V16.7579H42.3633H43.2422V17.6368ZM30.4336 16.9278C30.6855 17.0977 30.8203 17.3379 30.8203 17.6368C30.8203 17.9356 30.6855 18.1758 30.4336 18.3457C30.3281 18.4102 30.1582 18.4571 30 18.4571C29.5312 18.4571 29.1797 18.1055 29.1797 17.6368C29.1797 17.168 29.5312 16.8164 30 16.8164C30.1582 16.8164 30.3281 16.8633 30.4336 16.9278ZM19.8867 29.2911C20.1387 29.461 20.2734 29.7012 20.2734 30C20.2734 30.4688 19.9219 30.8204 19.4531 30.8204C18.9844 30.8204 18.6328 30.4688 18.6328 30C18.6328 29.5313 18.9844 29.1797 19.4531 29.1797C19.6113 29.1797 19.7812 29.2266 19.8867 29.2911ZM40.9805 29.2911C41.2324 29.461 41.3672 29.7012 41.3672 30C41.3672 30.4688 41.0156 30.8204 40.5469 30.8204C40.0781 30.8204 39.7266 30.4688 39.7266 30C39.7266 29.8418 39.7734 29.6719 39.8379 29.5664C40.0078 29.3145 40.248 29.1797 40.5469 29.1797C40.7051 29.1797 40.875 29.2266 40.9805 29.2911Z" fill="white"/>
<path d="M29.5554 22.1777C29.4148 22.2539 28.5769 23.4668 25.8289 27.5859C23.8777 30.5098 22.2371 32.9883 22.1843 33.0879C22.0789 33.293 22.0613 33.6621 22.1433 33.8848C22.1726 33.9609 22.366 34.207 22.571 34.4297C24.0418 36.0352 25.0496 38.0449 25.4011 40.0781L25.4949 40.6172L25.2605 40.8164C24.698 41.3027 24.1238 42.2988 23.9421 43.1074C23.8894 43.3418 23.8484 43.7344 23.8484 43.9863C23.8484 44.4902 23.9363 44.6895 24.2351 44.8887C24.3992 44.9941 24.616 45 30.0007 45C35.3855 45 35.6023 44.9941 35.7664 44.8887C36.0652 44.6895 36.1531 44.4902 36.1531 43.9863C36.1531 43.7344 36.1121 43.3418 36.0593 43.1074C35.8777 42.2988 35.3035 41.3027 34.741 40.8164L34.5066 40.6172L34.6004 40.0781C34.9519 38.0449 35.9597 36.0352 37.4304 34.4297C37.6355 34.207 37.8289 33.9609 37.8582 33.8848C37.9402 33.668 37.9226 33.293 37.8172 33.0938C37.6238 32.7188 30.7156 22.4063 30.5632 22.2715C30.364 22.084 29.8308 22.0371 29.5554 22.1777ZM29.1218 28.4766V30.9902L28.8757 31.1016C28.2371 31.3887 27.6863 32.0098 27.4812 32.6777C27.0418 34.1074 27.7683 35.5605 29.1687 36.041C29.8015 36.2578 30.7859 36.1641 31.3308 35.8242C32.1863 35.2852 32.6375 34.5059 32.6375 33.5391C32.6375 32.4492 32.0632 31.5293 31.1316 31.1016L30.8796 30.9902V28.459V25.9277L33.3699 29.666L35.866 33.4043L35.4675 33.9023C34.2429 35.4434 33.3406 37.3184 32.9304 39.1758L32.7957 39.7676L32.5847 39.7207C32.3093 39.6563 27.6921 39.6563 27.4168 39.7207L27.2058 39.7676L27.0711 39.1758C26.6609 37.3184 25.7585 35.4434 24.5339 33.9023L24.1355 33.4043L26.614 29.6836C27.9793 27.6328 29.0984 25.957 29.1101 25.957C29.116 25.957 29.1218 27.0879 29.1218 28.4766ZM30.4343 32.8066C30.6863 32.9766 30.8211 33.2168 30.8211 33.5156C30.8211 33.9844 30.4695 34.3359 30.0007 34.3359C29.7019 34.3359 29.4617 34.2012 29.2918 33.9492C29.0574 33.5918 29.1863 33.0586 29.5671 32.8066C29.7898 32.6602 30.2117 32.6602 30.4343 32.8066ZM32.5144 41.5957C33.1765 41.8242 33.7214 42.293 34.0437 42.9023L34.2254 43.2422H30.0007H25.7761L25.9578 42.9023C26.3621 42.1348 27.1003 41.6133 27.9558 41.4844C28.1316 41.4551 29.1453 41.4434 30.2058 41.4492C32.0515 41.4609 32.157 41.4668 32.5144 41.5957Z" fill="white"/>
</g>
<defs>
<clipPath id="clip0_724_787">
<rect width="30" height="30" fill="white" transform="translate(15 15)"/>
</clipPath>
</defs>
</svg>
