<svg width="36" height="36" viewBox="0 0 36 36" fill="none" xmlns="http://www.w3.org/2000/svg">
<g clip-path="url(#clip0_333_388)">
<path d="M17.55 0.182813C17.4023 0.330469 17.3672 0.435938 17.3672 0.703125C17.3672 0.970313 17.4023 1.07578 17.55 1.22344C17.6977 1.37109 17.8031 1.40625 18.0703 1.40625C18.3375 1.40625 18.443 1.37109 18.5906 1.22344C18.7383 1.07578 18.7734 0.970313 18.7734 0.703125C18.7734 0.435938 18.7383 0.330469 18.5906 0.182813C18.443 0.0351562 18.3375 0 18.0703 0C17.8031 0 17.6977 0.0351562 17.55 0.182813Z" fill="#E9004F"/>
<path d="M13.9008 0.625786C11.8266 1.30782 9.92109 2.50313 8.43047 4.05704C6.6375 5.92032 5.43516 8.2336 4.90078 10.8563C4.76719 11.5383 4.74609 11.8547 4.74609 13.3594C4.74609 14.8641 4.76719 15.1805 4.90078 15.8625C5.43516 18.4852 6.60234 20.7352 8.41641 22.6406C8.79609 23.0414 9 23.3086 8.97891 23.3719C8.95781 23.4281 8.00156 25.1227 6.8625 27.1406C5.02031 30.382 4.78125 30.8391 4.78125 31.1063C4.78125 31.5422 5.02734 31.7813 5.47734 31.7813C5.65312 31.7742 6.82734 31.5633 8.08594 31.2961C9.76641 30.9445 10.3852 30.8391 10.4203 30.9024C10.4484 30.9445 10.8492 32.0555 11.3203 33.3703C11.9391 35.107 12.2062 35.7891 12.3258 35.8734C12.5508 36.0563 13.0641 36.0422 13.268 35.8524C13.3523 35.768 14.4633 33.8695 15.7289 31.6336C16.9945 29.3977 18.0492 27.5695 18.0703 27.5695C18.0914 27.5695 19.1461 29.3977 20.4117 31.6336C21.6773 33.8695 22.7883 35.768 22.8797 35.8524C23.1117 36.0703 23.618 36.0563 23.843 35.8313C23.9625 35.7188 24.2648 34.9524 24.8133 33.3914C25.2563 32.1399 25.65 31.05 25.6922 30.9656C25.7695 30.818 25.7766 30.818 28.0547 31.2961C29.3133 31.5563 30.4875 31.7742 30.6633 31.7813C31.1133 31.7813 31.3594 31.5422 31.3594 31.1063C31.3594 30.832 31.1273 30.3891 29.2852 27.1406C28.1391 25.1297 27.1898 23.4352 27.1687 23.3789C27.1406 23.3086 27.3305 23.0555 27.7242 22.6406C29.5383 20.7352 30.7055 18.4852 31.2398 15.8625C31.3734 15.1805 31.3945 14.8711 31.3945 13.3594C31.3945 11.8547 31.3734 11.5383 31.2328 10.8563C30.7055 8.24063 29.5102 5.92032 27.7102 4.05704C26.6062 2.91094 25.5164 2.11641 24.0258 1.36407C22.943 0.822662 21.4172 0.316414 21.0656 0.379692C20.7141 0.442974 20.4961 0.717194 20.4961 1.08985C20.4961 1.55391 20.6719 1.69454 21.6422 2.00391C25.875 3.36094 28.8352 6.69376 29.7914 11.1797C29.9883 12.1078 29.9672 14.7516 29.7562 15.7078C28.6734 20.5664 25.0664 24.1172 20.2641 25.0664C19.0336 25.3125 17.107 25.3125 15.8766 25.0664C11.6016 24.2227 8.14922 21.2203 6.78516 17.1422C6.3 15.6867 6.22969 15.2016 6.22969 13.3594C6.22969 11.5172 6.3 11.032 6.78516 9.57657C8.01562 5.90626 10.8703 3.13594 14.6039 1.97579C15.4547 1.7086 15.6445 1.54688 15.6445 1.08282C15.6445 0.843758 15.6023 0.738289 15.4617 0.59063C15.1734 0.302349 14.857 0.30938 13.9008 0.625786ZM10.8422 24.6375C12.368 25.6289 14.3508 26.3672 16.1156 26.5992C16.4602 26.6484 16.7414 26.7117 16.7484 26.7469C16.7695 26.8383 12.9797 33.4688 12.9305 33.4125C12.9094 33.3844 12.593 32.5266 12.2344 31.5C11.4891 29.3836 11.4117 29.25 10.9055 29.25C10.7297 29.25 9.77344 29.4258 8.78906 29.6297C7.80469 29.8406 6.98906 30.0024 6.98203 29.9953C6.96094 29.9813 10.2094 24.2578 10.2375 24.2578C10.2516 24.2578 10.5258 24.4266 10.8422 24.6375ZM27.5625 27.1406C28.4484 28.7016 29.1656 29.9883 29.1586 29.9953C29.1516 30.0024 28.3359 29.8406 27.3516 29.6297C26.3672 29.4258 25.4109 29.257 25.2352 29.25C24.7289 29.25 24.6516 29.3836 23.9062 31.5C23.5477 32.5266 23.2312 33.3844 23.2102 33.4125C23.168 33.4617 19.3992 26.9086 19.3781 26.7539C19.3781 26.7188 19.6594 26.6484 20.018 26.5992C21.8109 26.3602 23.9766 25.5445 25.3828 24.5813C25.6359 24.4055 25.8609 24.2719 25.8961 24.2789C25.9242 24.2859 26.6766 25.5727 27.5625 27.1406Z" fill="#E9004F"/>
<path d="M16.4883 2.88281C15.7359 3.00235 14.6742 3.30469 13.957 3.61407C12.5648 4.19766 11.5383 4.92188 10.4344 6.06797C9.02812 7.52344 8.13516 9.21094 7.69219 11.25C7.58672 11.7281 7.55859 12.143 7.55859 13.3594C7.55859 15.0047 7.62187 15.4617 8.02266 16.6852C8.54297 18.2742 9.3375 19.5398 10.6102 20.8195C12.1641 22.3734 13.8164 23.2734 15.9609 23.7375C16.8187 23.9273 19.3219 23.9273 20.1797 23.7375C22.3383 23.2664 23.9695 22.3734 25.5305 20.8195C27.0844 19.2586 27.9773 17.6273 28.4484 15.4688C28.6383 14.6109 28.6383 12.1078 28.4484 11.25C27.9773 9.09141 27.0844 7.46016 25.5305 5.89922C23.9977 4.36641 22.4367 3.50156 20.3273 3.00938C19.6312 2.84766 17.2266 2.77032 16.4883 2.88281ZM19.6172 4.4086C23.3438 5.02735 26.3883 8.07188 27.0281 11.8055C27.2672 13.1906 27.1406 14.9063 26.7047 16.207C25.9523 18.443 24.3492 20.3203 22.2117 21.4383C20.0812 22.5563 17.4516 22.7531 15.1453 21.9727C12.5508 21.0867 10.3219 18.8508 9.45 16.2633C8.83828 14.4422 8.83828 12.2766 9.45703 10.4414C9.86484 9.20391 10.7016 7.88203 11.6859 6.91172C13.8234 4.80938 16.6641 3.90938 19.6172 4.4086Z" fill="#E9004F"/>
<path d="M17.7398 6.57428C17.5359 6.65866 17.4094 6.87662 16.6008 8.48678L15.6937 10.3079L13.9078 10.5751C12.9305 10.7227 12.0094 10.8704 11.8687 10.9055C11.5242 10.9969 11.3203 11.2641 11.3203 11.6227C11.3203 11.904 11.3625 11.9532 12.7758 13.3735L14.2383 14.836L13.9359 16.6501C13.5773 18.8368 13.5703 18.9282 13.8445 19.2024C14.2102 19.561 14.3719 19.5118 16.3336 18.4993L18.0773 17.5922L19.8141 18.4993C21.7688 19.5118 21.9305 19.561 22.2961 19.2024C22.5703 18.9282 22.5633 18.8368 22.2047 16.6501L21.9023 14.836L23.3648 13.3735C24.7781 11.9532 24.8203 11.904 24.8203 11.6227C24.8203 11.2641 24.6164 10.9969 24.2719 10.9055C24.1312 10.8704 23.2102 10.7157 22.2328 10.5751L20.4469 10.3079L19.5398 8.48678C18.7031 6.82037 18.6047 6.66569 18.3867 6.56725C18.0914 6.44772 18.0281 6.44772 17.7398 6.57428ZM18.7172 10.2305C19.118 11.0251 19.3922 11.4962 19.5117 11.5735C19.6172 11.6438 20.2078 11.7633 21.0023 11.8899C21.7336 12.0024 22.3664 12.1008 22.4227 12.1079C22.4719 12.1219 22.0781 12.5508 21.5437 13.0712C21.0023 13.5915 20.5312 14.0837 20.482 14.161C20.3555 14.379 20.3695 14.6813 20.6016 16.0243C20.7141 16.6993 20.7984 17.2688 20.7844 17.2758C20.7703 17.2899 20.2078 17.0157 19.5328 16.6641C18.7031 16.2422 18.225 16.0313 18.0703 16.0313C17.9156 16.0313 17.4375 16.2422 16.6078 16.6712C15.9328 17.0157 15.3703 17.2969 15.3562 17.2829C15.3422 17.2688 15.4266 16.6993 15.5391 16.0243C15.7711 14.6813 15.7852 14.386 15.6586 14.161C15.6094 14.0766 15.1312 13.5915 14.5969 13.0712C14.0484 12.5438 13.6617 12.1219 13.718 12.1079C13.7742 12.1008 14.407 12.0024 15.1383 11.8899C15.9328 11.7633 16.5234 11.6438 16.6289 11.5735C16.7484 11.4962 17.0227 11.0251 17.4234 10.2305C17.7609 9.55553 18.0492 9.00006 18.0703 9.00006C18.0914 9.00006 18.3797 9.55553 18.7172 10.2305Z" fill="#E9004F"/>
</g>
<defs>
<clipPath id="clip0_333_388">
<rect width="36" height="36" fill="white"/>
</clipPath>
</defs>
</svg>
