<svg width="16" height="16" viewBox="0 0 16 16" fill="none" xmlns="http://www.w3.org/2000/svg">
<g clip-path="url(#clip0_1295_1605)">
<path d="M3.44688 0.0812502C3.37188 0.125 3.27813 0.21875 3.23438 0.29375C3.1625 0.41875 3.15625 0.45625 3.15625 0.8375V1.25H1.79062H0.428125L0.29375 1.32812C0.2125 1.375 0.125 1.4625 0.078125 1.54375L0 1.67812V8.625V15.5719L0.078125 15.7062C0.125 15.7875 0.2125 15.875 0.29375 15.9219L0.428125 16H3.95312H7.47813L7.6125 15.9219C7.80938 15.8062 7.90625 15.625 7.90625 15.375C7.90625 15.125 7.80938 14.9438 7.6125 14.8281L7.47813 14.75H4.36562H1.25V10.1875V5.625H8H14.75V6.86562V8.10313L14.8281 8.2375C14.9438 8.43437 15.125 8.53125 15.375 8.53125C15.625 8.53125 15.8063 8.43437 15.9219 8.2375L16 8.10313V4.89062V1.67812L15.9219 1.54375C15.875 1.4625 15.7875 1.375 15.7063 1.32812L15.5719 1.25H14.2094H12.8438V0.8375C12.8438 0.45625 12.8375 0.41875 12.7656 0.29375C12.65 0.0968752 12.4688 0 12.2188 0C11.9688 0 11.7875 0.0968752 11.6719 0.29375C11.6 0.41875 11.5938 0.45625 11.5938 0.8375V1.25H10.1094H8.625V0.8375C8.625 0.45625 8.61875 0.41875 8.54688 0.29375C8.43125 0.0968752 8.25 0 8 0C7.75 0 7.56875 0.0968752 7.45312 0.29375C7.38125 0.41875 7.375 0.45625 7.375 0.8375V1.25H5.89062H4.40625V0.8375C4.40625 0.45625 4.4 0.41875 4.32812 0.29375C4.2125 0.0968752 4.03125 0 3.77813 0C3.61875 0 3.55 0.015625 3.44688 0.0812502ZM3.15625 2.9125C3.15625 3.29375 3.1625 3.33125 3.23438 3.45625C3.35 3.65312 3.53125 3.75 3.78125 3.75C4.03125 3.75 4.2125 3.65312 4.32812 3.45625C4.4 3.33125 4.40625 3.29375 4.40625 2.9125V2.5H5.89062H7.375V2.9125C7.375 3.29375 7.38125 3.33125 7.45312 3.45625C7.56875 3.65312 7.75 3.75 8 3.75C8.25 3.75 8.43125 3.65312 8.54688 3.45625C8.61875 3.33125 8.625 3.29375 8.625 2.9125V2.5H10.1094H11.5938V2.9125C11.5938 3.29375 11.6 3.33125 11.6719 3.45625C11.7875 3.65312 11.9688 3.75 12.2188 3.75C12.4688 3.75 12.65 3.65312 12.7656 3.45625C12.8375 3.33125 12.8438 3.29375 12.8438 2.9125V2.5H13.7969H14.75V3.4375V4.375H8H1.25V3.4375V2.5H2.20312H3.15625V2.9125Z" fill="#676767"/>
<path d="M15.0372 9.86567C14.9653 9.91567 14.0153 10.95 12.9028 12.1875C11.8028 13.4157 10.8872 14.4219 10.8747 14.4219C10.8622 14.4219 10.3466 13.9438 9.73409 13.3594C9.11846 12.775 8.56221 12.2625 8.49346 12.2219C8.27784 12.0907 7.94346 12.1282 7.73721 12.3094C7.54659 12.4782 7.49034 12.8625 7.62784 13.0875C7.72784 13.2563 10.5091 15.9 10.6435 15.9563C10.7872 16.0157 11.0685 16.0125 11.2028 15.9469C11.281 15.9094 12.0153 15.1157 13.5872 13.3657C14.8372 11.975 15.8903 10.7844 15.9278 10.7219C16.031 10.5563 16.0278 10.2563 15.9216 10.075C15.806 9.87817 15.6247 9.78129 15.3716 9.78129C15.2028 9.78129 15.1466 9.79692 15.0372 9.86567Z" fill="#676767"/>
</g>
<defs>
<clipPath id="clip0_1295_1605">
<rect width="16" height="16" fill="white"/>
</clipPath>
</defs>
</svg>
