<svg width="24" height="24" viewBox="0 0 24 24" fill="none" xmlns="http://www.w3.org/2000/svg">
<path d="M21.0004 21C21.5971 21 22.1694 20.7629 22.5914 20.341C23.0133 19.919 23.2504 19.3467 23.2504 18.75V13.2555C23.2504 12.6588 23.0133 12.0865 22.5914 11.6645C22.1694 11.2426 21.5971 11.0055 21.0004 11.0055H17.8774C17.8774 10.2157 17.9246 9.42375 18.0169 8.634C18.1564 7.797 18.3904 7.05225 18.7144 6.402C19.0406 5.7495 19.4591 5.23875 19.9721 4.86525C20.4829 4.44675 21.1331 4.2375 21.9251 4.2375V0.75C20.6224 0.75 19.4839 1.029 18.5051 1.587C17.5349 2.13934 16.7007 2.90202 16.0639 3.819C15.4247 4.82996 14.9536 5.93782 14.6689 7.0995C14.382 8.38146 14.2416 9.69186 14.2504 11.0055V18.75C14.2504 19.3467 14.4874 19.919 14.9094 20.341C15.3314 20.7629 15.9037 21 16.5004 21H21.0004ZM7.50039 21C8.09713 21 8.66942 20.7629 9.09138 20.341C9.51334 19.919 9.75039 19.3467 9.75039 18.75V13.2555C9.75039 12.6588 9.51334 12.0865 9.09138 11.6645C8.66942 11.2426 8.09713 11.0055 7.50039 11.0055H4.37739C4.37739 10.2157 4.42464 9.42375 4.51689 8.634C4.65639 7.797 4.89039 7.05225 5.21439 6.402C5.54064 5.7495 5.95914 5.23875 6.47214 4.86525C6.98289 4.44675 7.63314 4.2375 8.42514 4.2375V0.75C7.12239 0.75 5.98389 1.029 5.00514 1.587C4.03491 2.13934 3.20074 2.90202 2.56389 3.819C1.92472 4.82996 1.45361 5.93782 1.16889 7.0995C0.881983 8.38146 0.741584 9.69186 0.75039 11.0055V18.75C0.75039 19.3467 0.987443 19.919 1.4094 20.341C1.83136 20.7629 2.40365 21 3.00039 21H7.50039Z" fill="white"/>
</svg>
