<svg width="42" height="42" viewBox="0 0 42 42" fill="none" xmlns="http://www.w3.org/2000/svg">
<g opacity="0.3">
<path d="M36.7507 36.75C37.795 36.75 38.7965 36.3352 39.5349 35.5967C40.2733 34.8583 40.6882 33.8568 40.6882 32.8125V23.1971C40.6882 22.1528 40.2733 21.1513 39.5349 20.4129C38.7965 19.6745 37.795 19.2596 36.7507 19.2596H31.2854C31.2854 17.8776 31.3681 16.4916 31.5296 15.1095C31.7737 13.6448 32.1832 12.3414 32.7502 11.2035C33.3211 10.0616 34.0535 9.16781 34.9512 8.51419C35.8451 7.78181 36.983 7.41563 38.369 7.41563V1.3125C36.0892 1.3125 34.0968 1.80075 32.384 2.77725C30.6861 3.74385 29.2263 5.07853 28.1118 6.68325C26.9933 8.45243 26.1688 10.3912 25.6706 12.4241C25.1685 14.6676 24.9228 16.9607 24.9382 19.2596V32.8125C24.9382 33.8568 25.353 34.8583 26.0914 35.5967C26.8299 36.3352 27.8314 36.75 28.8757 36.75H36.7507ZM13.1257 36.75C14.17 36.75 15.1715 36.3352 15.9099 35.5967C16.6483 34.8583 17.0632 33.8568 17.0632 32.8125V23.1971C17.0632 22.1528 16.6483 21.1513 15.9099 20.4129C15.1715 19.6745 14.17 19.2596 13.1257 19.2596H7.66043C7.66043 17.8776 7.74312 16.4916 7.90456 15.1095C8.14868 13.6448 8.55818 12.3414 9.12518 11.2035C9.69612 10.0616 10.4285 9.16781 11.3262 8.51419C12.2201 7.78181 13.358 7.41563 14.744 7.41563V1.3125C12.4642 1.3125 10.4718 1.80075 8.75899 2.77725C7.06109 3.74385 5.60129 5.07853 4.48681 6.68325C3.36826 8.45243 2.54383 10.3912 2.04556 12.4241C1.54347 14.6676 1.29777 16.9607 1.31318 19.2596V32.8125C1.31318 33.8568 1.72802 34.8583 2.46645 35.5967C3.20487 36.3352 4.20639 36.75 5.25068 36.75H13.1257Z" fill="#27AE60"/>
</g>
</svg>
