<svg width="52" height="52" viewBox="0 0 52 52" fill="none" xmlns="http://www.w3.org/2000/svg">
<g opacity="0.3">
<path d="M11.5277 8.84598C6.75421 9.4452 2.79328 13.1116 1.82843 17.8546C1.57453 19.1038 1.55421 21.1249 1.77765 22.3132C2.1839 24.4663 3.20968 26.4468 4.71281 28.021C6.22609 29.585 7.73937 30.4991 9.85187 31.1085L10.6644 31.3421L9.91281 32.8655C8.85656 34.9882 7.53625 36.9585 5.94171 38.7968C5.29171 39.5483 5.07843 40.0358 5.07843 40.7874C5.07843 41.996 5.80968 42.9202 6.97765 43.1741C7.63781 43.3265 8.13546 43.2249 9.8214 42.6054C17.1542 39.8835 22.0495 34.3179 23.8066 26.7007C24.355 24.2936 24.6089 20.5968 24.3448 18.8397C23.9487 16.2905 22.8722 14.0866 21.1558 12.2889C20.0995 11.1718 19.2566 10.5522 17.9261 9.90223C15.8644 8.89676 13.8433 8.56161 11.5277 8.84598Z" fill="#E9004F"/>
<path d="M37.4972 8.83581C31.0683 9.73971 26.7011 15.5592 27.6761 21.9374C28.3363 26.2842 31.5863 29.9811 35.7402 31.0881C36.187 31.21 36.5628 31.3421 36.5628 31.3725C36.5628 31.403 36.2683 32.0327 35.9128 32.7741C34.9175 34.8256 33.6886 36.6741 31.962 38.7358C31.18 39.6803 30.9261 40.2999 31.0074 41.0413C31.1597 42.3311 32.1245 43.1944 33.4144 43.2046C35.1003 43.2147 39.6605 41.0413 42.1995 39.0202C47.4706 34.8256 50.3753 28.3561 50.3753 20.8405C50.3753 18.8499 50.162 17.6311 49.5527 16.1077C47.8058 11.7405 43.9261 8.93737 39.4066 8.78503C38.7058 8.76471 37.8527 8.78503 37.4972 8.83581Z" fill="#E9004F"/>
</g>
</svg>
