<svg width="196" height="10" viewBox="0 0 196 10" fill="none" xmlns="http://www.w3.org/2000/svg">
<path fill-rule="evenodd" clip-rule="evenodd" d="M196 0C182.221 2.05882 167.754 4.11765 151.909 5.58823C150.531 5.58823 149.153 5.88235 147.431 5.88235C146.742 6.17647 146.053 6.17647 145.364 6.17647H144.33C137.786 6.76471 130.896 7.35294 123.663 7.94118C123.663 7.94118 123.318 7.94118 122.974 7.94118C122.285 7.94118 121.596 7.94118 120.907 8.23529C116.773 8.23529 112.295 8.52941 107.473 8.82353H106.439C106.439 8.82353 106.095 8.82353 105.75 9.11765C105.406 8.82353 105.406 8.82353 105.062 9.11765C103.684 8.82353 102.306 9.11765 100.583 9.11765H100.239C100.239 9.11765 100.239 9.11765 99.8946 9.41176C99.5501 9.11765 99.2056 9.11765 98.5167 9.41176C97.8278 9.11765 97.1388 9.41176 96.7944 9.41176C81.9824 9.70588 66.4815 10 50.6362 10C49.9473 10 48.9139 9.70588 47.536 10C47.536 10 47.536 10 47.1916 10C46.8471 9.70588 46.1582 9.70588 45.1248 10C30.3128 9.70588 15.5009 9.11765 0 8.23529L36.1687 6.76471H38.58V6.47059H38.9244L159.831 1.47059H161.898L196 0Z" fill="#00CAEB"/>
</svg>
