<svg width="40" height="40" viewBox="0 0 40 40" fill="none" xmlns="http://www.w3.org/2000/svg">
<path d="M7.63281 0.125C3.92188 0.796875 0.921875 3.75 0.164063 7.47656C0 8.25 0 8.46875 0 20C0 31.5312 0 31.75 0.164063 32.5234C0.835938 35.8203 3.20313 38.4844 6.41406 39.5625C7.72656 40 7.67188 40 16.5469 40H24.7109L25.0469 39.8047C26.0156 39.2344 26.0469 37.6875 25.1016 37.0938L24.8047 36.9141L16.7188 36.875C7.54688 36.8281 8.11719 36.8672 6.67969 36.1719C5.33594 35.5156 4.48438 34.6641 3.82813 33.3203C3.11719 31.8516 3.16406 32.8203 3.16406 20C3.16406 7.17969 3.11719 8.14844 3.82813 6.67969C4.48438 5.33594 5.33594 4.48438 6.67969 3.82812C8.14844 3.11719 7.17188 3.16406 20.0391 3.16406H31.3672L32.0625 3.34375C32.4375 3.4375 33.0547 3.67188 33.4297 3.86719C34.7031 4.52344 35.5469 5.39062 36.1719 6.67969C36.8672 8.11719 36.8281 7.53125 36.875 16.8125L36.9141 24.9844L37.1563 25.2891C37.8359 26.1406 39.0391 26.1406 39.7188 25.2891L39.9609 24.9844L39.9844 16.6328C40 8.44531 40 8.25781 39.8438 7.47656C39.0781 3.72656 36.0625 0.773438 32.3125 0.117188C31.7109 0.015625 30.1172 0 19.9297 0.0078125C10.2109 0.015625 8.14063 0.03125 7.63281 0.125Z" fill="white"/>
<path d="M8.84353 7.9375C8.11696 8.30469 7.77321 8.9375 7.8279 9.84375C7.86696 10.5234 8.15603 11.0234 8.7029 11.3672C9.05446 11.5781 9.14821 11.6016 9.7654 11.6016C10.3826 11.6016 10.4763 11.5781 10.8279 11.3672C11.0623 11.2187 11.2967 10.9844 11.4451 10.75C11.656 10.3984 11.6795 10.3047 11.6795 9.6875C11.6795 9.07031 11.656 8.97656 11.4451 8.625C11.0857 8.04687 10.5935 7.78125 9.85134 7.75C9.33571 7.72656 9.2029 7.75 8.84353 7.9375Z" fill="white"/>
<path d="M15.4922 8.48438C15.0078 8.77344 14.7656 9.22656 14.7656 9.84375C14.7656 10.4688 15.0078 10.9219 15.5 11.2109L15.8359 11.4062H23.4766H31.1172L31.4531 11.2109C31.9453 10.9219 32.1875 10.4688 32.1875 9.84375C32.1875 9.21875 31.9453 8.76562 31.4531 8.47656L31.1172 8.28125H23.4688H15.8203L15.4922 8.48438Z" fill="white"/>
<path d="M8.53906 14.7344C8.05469 15.0234 7.8125 15.4766 7.8125 16.0938C7.8125 16.7188 8.05469 17.1719 8.54688 17.4609L8.88281 17.6562H20H31.1172L31.4531 17.4609C31.9453 17.1719 32.1875 16.7188 32.1875 16.0938C32.1875 15.4688 31.9453 15.0156 31.4531 14.7266L31.1172 14.5312H19.9922H8.86719L8.53906 14.7344Z" fill="white"/>
<path d="M8.53906 20.9844C8.05469 21.2734 7.8125 21.7266 7.8125 22.3438C7.8125 22.9688 8.05469 23.4219 8.54688 23.7109L8.88281 23.9062H12.1875H15.4922L15.8281 23.7109C16.3203 23.4219 16.5625 22.9688 16.5625 22.3438C16.5625 21.7188 16.3203 21.2656 15.8281 20.9766L15.4922 20.7812H12.1797H8.86719L8.53906 20.9844Z" fill="white"/>
<path d="M21.5078 20.9844C21.0469 21.2578 20.7812 21.7266 20.7812 22.2734C20.7812 22.9141 21.7656 27.6953 22.0859 28.6172C22.4922 29.7891 23.0469 30.8281 23.8125 31.8359C24.2891 32.4609 29.9609 38.1797 30.6875 38.7578C31.75 39.6094 32.875 40 34.2969 40C35.6875 40 36.8125 39.625 37.8672 38.7969C39.2422 37.7188 40 36.125 40 34.2969C40 32.875 39.6094 31.75 38.7578 30.6875C38.0156 29.7578 32.2344 24.0859 31.5234 23.5859C30.6641 22.9766 29.5625 22.4062 28.625 22.0859C27.6875 21.7578 22.9062 20.7812 22.2656 20.7812C21.9453 20.7812 21.75 20.8359 21.5078 20.9844ZM25.8828 24.6875C27.6562 25.0547 28.5625 25.4297 29.6875 26.2578C30.4375 26.8125 36.3516 32.7734 36.5703 33.2031C36.7266 33.5 36.7578 33.6719 36.7578 34.2969C36.7578 34.9219 36.7266 35.0938 36.5781 35.375C36.0859 36.2969 35.2812 36.7969 34.2969 36.7969C33.2266 36.7969 33.2188 36.7891 29.6016 33.1562C27.8594 31.3984 26.3047 29.7812 26.1562 29.5703C25.4062 28.5 25.0391 27.5781 24.6875 25.8828C24.5625 25.2422 24.4375 24.6484 24.4141 24.5469C24.375 24.3984 24.3984 24.375 24.5469 24.4141C24.6484 24.4375 25.2422 24.5625 25.8828 24.6875Z" fill="white"/>
</svg>
