<svg width="50" height="50" viewBox="0 0 50 50" fill="none" xmlns="http://www.w3.org/2000/svg">
<g clip-path="url(#clip0_384_5457)">
<path d="M0.644531 0.185555C0.498047 0.283211 0.283203 0.498055 0.185547 0.644539C0.00976562 0.908211 0 1.16212 0 4.39454C0 7.62696 0.00976562 7.88087 0.185547 8.14454C0.283203 8.29102 0.498047 8.50587 0.644531 8.60352C0.908203 8.7793 1.16211 8.78907 4.39453 8.78907C7.62695 8.78907 7.88086 8.7793 8.14453 8.60352C8.68164 8.2422 8.78906 7.95899 8.78906 6.85548V5.85938L11.748 5.86915C14.5508 5.86915 14.6875 5.87891 14.4531 6.03516C10.8008 8.53516 8.10547 12.1387 6.79688 16.2988C6.50391 17.2266 6.10352 19.1797 6.00586 20.1367C5.9375 20.8008 5.9375 20.8008 5.53711 20.9863C4.48242 21.4551 3.56445 22.5 3.22266 23.6035C2.49023 25.9863 3.70117 28.4082 6.03516 29.209C6.76758 29.4629 8.07617 29.4629 8.80859 29.209C10.1562 28.75 11.1719 27.7344 11.6309 26.3965C11.8848 25.6543 11.8848 24.4531 11.6211 23.6035C11.2793 22.5098 10.2344 21.3281 9.29688 20.9766L8.97461 20.8594L9.04297 20.3125C9.25781 18.4473 9.79492 16.6992 10.6934 14.8926C11.5332 13.2227 12.4023 12.0117 13.7695 10.6445C15.4785 8.93555 17.3145 7.73438 19.4434 6.94337C21.0059 6.35743 20.9863 6.35743 21.377 6.94337C21.8164 7.5879 22.3633 8.04688 23.1445 8.42774C23.7598 8.73048 23.8281 8.74024 25 8.74024C26.1719 8.74024 26.2402 8.73048 26.8555 8.42774C27.6367 8.04688 28.1836 7.5879 28.623 6.94337C29.0137 6.35743 28.9941 6.35743 30.5566 6.94337C32.6855 7.73438 34.5215 8.93555 36.2305 10.6445C37.5977 12.0117 38.4668 13.2227 39.3066 14.8926C40.2051 16.6992 40.7422 18.4473 40.957 20.3125L41.0254 20.8594L40.7031 20.9766C39.7656 21.3281 38.7207 22.5098 38.3789 23.6035C37.6465 25.9863 38.8574 28.4082 41.1914 29.209C42.2461 29.5703 43.8867 29.4141 44.7949 28.8477C46.2207 27.9492 46.9727 26.6504 46.9727 25.0391C46.9727 23.2324 46.0156 21.6895 44.4629 20.9863C44.0625 20.8008 44.0625 20.8008 43.9941 20.1367C43.9551 19.7754 43.8184 18.9356 43.6914 18.2617C42.7441 13.4863 39.873 9.06251 35.9668 6.3672L35.2148 5.85938H38.2129H41.2109V6.85548C41.2109 7.95899 41.3184 8.2422 41.8555 8.60352C42.1191 8.7793 42.373 8.78907 45.6055 8.78907C48.8379 8.78907 49.0918 8.7793 49.3555 8.60352C49.502 8.50587 49.7168 8.29102 49.8145 8.14454C49.9902 7.88087 50 7.62696 50 4.39454C50 1.16212 49.9902 0.908211 49.8145 0.644539C49.7168 0.498055 49.502 0.283211 49.3555 0.185555C49.0918 0.00977325 48.8379 7.62939e-06 45.6055 7.62939e-06C42.373 7.62939e-06 42.1191 0.00977325 41.8555 0.185555C41.3184 0.546883 41.2109 0.830086 41.2109 1.92384V2.9297H35.2051H29.209L29.0234 2.50977C28.7207 1.85548 28.2617 1.29884 27.627 0.830086C25.4102 -0.800774 22.0996 0.0390701 20.9766 2.50977L20.791 2.9297H14.7949H8.78906V1.92384C8.78906 0.830086 8.68164 0.546883 8.14453 0.185555C7.88086 0.00977325 7.62695 7.62939e-06 4.39453 7.62939e-06C1.16211 7.62939e-06 0.908203 0.00977325 0.644531 0.185555ZM5.85938 4.39454V5.85938H4.39453H2.92969V4.39454V2.9297H4.39453H5.85938V4.39454ZM47.0703 4.39454V5.85938H45.6055H44.1406V4.39454V2.9297H45.6055H47.0703V4.39454ZM25.7227 3.2129C26.1426 3.4961 26.3672 3.89649 26.3672 4.39454C26.3672 4.89259 26.1426 5.29298 25.7227 5.57618C25.5469 5.6836 25.2637 5.76173 25 5.76173C24.2188 5.76173 23.6328 5.17579 23.6328 4.39454C23.6328 3.61329 24.2188 3.02735 25 3.02735C25.2637 3.02735 25.5469 3.10548 25.7227 3.2129ZM8.14453 23.8184C8.56445 24.1016 8.78906 24.502 8.78906 25C8.78906 25.7813 8.20312 26.3672 7.42188 26.3672C6.64062 26.3672 6.05469 25.7813 6.05469 25C6.05469 24.2188 6.64062 23.6328 7.42188 23.6328C7.68555 23.6328 7.96875 23.7109 8.14453 23.8184ZM43.3008 23.8184C43.7207 24.1016 43.9453 24.502 43.9453 25C43.9453 25.7813 43.3594 26.3672 42.5781 26.3672C41.7969 26.3672 41.2109 25.7813 41.2109 25C41.2109 24.7363 41.2891 24.4531 41.3965 24.2774C41.6797 23.8574 42.0801 23.6328 42.5781 23.6328C42.8418 23.6328 43.125 23.7109 43.3008 23.8184Z" fill="#A044FF"/>
<path d="M24.2577 11.9629C24.0234 12.0898 22.6269 14.1113 18.0468 20.9766C14.7948 25.8496 12.0605 29.9805 11.9726 30.1465C11.7968 30.4883 11.7675 31.1035 11.9042 31.4746C11.953 31.6016 12.2753 32.0117 12.6171 32.3828C15.0683 35.0586 16.748 38.4082 17.3339 41.7969L17.4902 42.6953L17.0995 43.0273C16.162 43.8379 15.205 45.498 14.9023 46.8457C14.8144 47.2363 14.746 47.8906 14.746 48.3105C14.746 49.1504 14.8925 49.4824 15.3905 49.8145C15.664 49.9902 16.0253 50 24.9999 50C33.9745 50 34.3359 49.9902 34.6093 49.8145C35.1074 49.4824 35.2538 49.1504 35.2538 48.3105C35.2538 47.8906 35.1855 47.2363 35.0976 46.8457C34.7949 45.498 33.8378 43.8379 32.9003 43.0273L32.5097 42.6953L32.666 41.7969C33.2519 38.4082 34.9316 35.0586 37.3828 32.3828C37.7246 32.0117 38.0468 31.6016 38.0956 31.4746C38.2324 31.1133 38.2031 30.4883 38.0273 30.1562C37.705 29.5312 26.1913 12.3438 25.9374 12.1191C25.6054 11.8066 24.7167 11.7285 24.2577 11.9629ZM23.5351 22.4609V26.6504L23.1249 26.8359C22.0605 27.3145 21.1425 28.3496 20.8007 29.4629C20.0683 31.8457 21.2792 34.2676 23.6132 35.0684C24.6679 35.4297 26.3085 35.2734 27.2167 34.707C28.6425 33.8086 29.3945 32.5098 29.3945 30.8984C29.3945 29.082 28.4374 27.5488 26.8847 26.8359L26.4648 26.6504V22.4316V18.2129L30.6152 24.4434L34.7753 30.6738L34.1113 31.5039C32.0702 34.0723 30.5663 37.1973 29.8827 40.293L29.6581 41.2793L29.3066 41.2012C28.8476 41.0938 21.1523 41.0938 20.6933 41.2012L20.3417 41.2793L20.1171 40.293C19.4335 37.1973 17.9296 34.0723 15.8886 31.5039L15.2245 30.6738L19.3554 24.4727C21.6308 21.0547 23.496 18.2617 23.5156 18.2617C23.5253 18.2617 23.5351 20.1465 23.5351 22.4609ZM25.7226 29.6777C26.1425 29.9609 26.3671 30.3613 26.3671 30.8594C26.3671 31.6406 25.7812 32.2266 24.9999 32.2266C24.5019 32.2266 24.1015 32.002 23.8183 31.582C23.4277 30.9863 23.6425 30.0977 24.2773 29.6777C24.6484 29.4336 25.3515 29.4336 25.7226 29.6777ZM29.1894 44.3262C30.2929 44.707 31.2011 45.4883 31.7382 46.5039L32.041 47.0703H24.9999H17.9589L18.2616 46.5039C18.9355 45.2246 20.1659 44.3555 21.5917 44.1406C21.8847 44.0918 23.5741 44.0723 25.3417 44.082C28.4179 44.1016 28.5937 44.1113 29.1894 44.3262Z" fill="#A044FF"/>
</g>
<defs>
<clipPath id="clip0_384_5457">
<rect width="50" height="50" fill="white"/>
</clipPath>
</defs>
</svg>
