<svg width="40" height="40" viewBox="0 0 40 40" fill="none" xmlns="http://www.w3.org/2000/svg">
<g clip-path="url(#clip0_333_383)">
<path d="M0.515625 0.148493C0.398438 0.226618 0.226562 0.398493 0.148438 0.51568C0.0078125 0.726618 0 0.929743 0 3.51568C0 6.10162 0.0078125 6.30474 0.148438 6.51568C0.226562 6.63287 0.398438 6.80474 0.515625 6.88287C0.726562 7.02349 0.929688 7.03131 3.51562 7.03131C6.10156 7.03131 6.30469 7.02349 6.51562 6.88287C6.94531 6.59381 7.03125 6.36724 7.03125 5.48443V4.68756L9.39844 4.69537C11.6406 4.69537 11.75 4.70318 11.5625 4.82818C8.64062 6.82818 6.48438 9.71099 5.4375 13.0391C5.20312 13.7813 4.88281 15.3438 4.80469 16.1094C4.75 16.6407 4.75 16.6407 4.42969 16.7891C3.58594 17.1641 2.85156 18.0001 2.57812 18.8829C1.99219 20.7891 2.96094 22.7266 4.82812 23.3672C5.41406 23.5704 6.46094 23.5704 7.04688 23.3672C8.125 23.0001 8.9375 22.1876 9.30469 21.1172C9.50781 20.5235 9.50781 19.5626 9.29688 18.8829C9.02344 18.0079 8.1875 17.0626 7.4375 16.7813L7.17969 16.6876L7.23438 16.2501C7.40625 14.7579 7.83594 13.3594 8.55469 11.9141C9.22656 10.5782 9.92188 9.60943 11.0156 8.51568C12.3828 7.14849 13.8516 6.18756 15.5547 5.55474C16.8047 5.08599 16.7891 5.08599 17.1016 5.55474C17.4531 6.07037 17.8906 6.43756 18.5156 6.74224C19.0078 6.98443 19.0625 6.99224 20 6.99224C20.9375 6.99224 20.9922 6.98443 21.4844 6.74224C22.1094 6.43756 22.5469 6.07037 22.8984 5.55474C23.2109 5.08599 23.1953 5.08599 24.4453 5.55474C26.1484 6.18756 27.6172 7.14849 28.9844 8.51568C30.0781 9.60943 30.7734 10.5782 31.4453 11.9141C32.1641 13.3594 32.5938 14.7579 32.7656 16.2501L32.8203 16.6876L32.5625 16.7813C31.8125 17.0626 30.9766 18.0079 30.7031 18.8829C30.1172 20.7891 31.0859 22.7266 32.9531 23.3672C33.7969 23.6563 35.1094 23.5313 35.8359 23.0782C36.9766 22.3594 37.5781 21.3204 37.5781 20.0313C37.5781 18.586 36.8125 17.3516 35.5703 16.7891C35.25 16.6407 35.25 16.6407 35.1953 16.1094C35.1641 15.8204 35.0547 15.1485 34.9531 14.6094C34.1953 10.7891 31.8984 7.25006 28.7734 5.09381L28.1719 4.68756H30.5703H32.9688V5.48443C32.9688 6.36724 33.0547 6.59381 33.4844 6.88287C33.6953 7.02349 33.8984 7.03131 36.4844 7.03131C39.0703 7.03131 39.2734 7.02349 39.4844 6.88287C39.6016 6.80474 39.7734 6.63287 39.8516 6.51568C39.9922 6.30474 40 6.10162 40 3.51568C40 0.929743 39.9922 0.726618 39.8516 0.51568C39.7734 0.398493 39.6016 0.226618 39.4844 0.148493C39.2734 0.00786781 39.0703 5.53131e-05 36.4844 5.53131e-05C33.8984 5.53131e-05 33.6953 0.00786781 33.4844 0.148493C33.0547 0.437555 32.9688 0.664118 32.9688 1.53912V2.34381H28.1641H23.3672L23.2188 2.00787C22.9766 1.48443 22.6094 1.03912 22.1016 0.664118C20.3281 -0.64057 17.6797 0.0313053 16.7812 2.00787L16.6328 2.34381H11.8359H7.03125V1.53912C7.03125 0.664118 6.94531 0.437555 6.51562 0.148493C6.30469 0.00786781 6.10156 5.53131e-05 3.51562 5.53131e-05C0.929688 5.53131e-05 0.726562 0.00786781 0.515625 0.148493ZM4.6875 3.51568V4.68756H3.51562H2.34375V3.51568V2.34381H3.51562H4.6875V3.51568ZM37.6562 3.51568V4.68756H36.4844H35.3125V3.51568V2.34381H36.4844H37.6562V3.51568ZM20.5781 2.57037C20.9141 2.79693 21.0938 3.11724 21.0938 3.51568C21.0938 3.91412 20.9141 4.23443 20.5781 4.46099C20.4375 4.54693 20.2109 4.60943 20 4.60943C19.375 4.60943 18.9062 4.14068 18.9062 3.51568C18.9062 2.89068 19.375 2.42193 20 2.42193C20.2109 2.42193 20.4375 2.48443 20.5781 2.57037ZM6.51562 19.0547C6.85156 19.2813 7.03125 19.6016 7.03125 20.0001C7.03125 20.6251 6.5625 21.0938 5.9375 21.0938C5.3125 21.0938 4.84375 20.6251 4.84375 20.0001C4.84375 19.3751 5.3125 18.9063 5.9375 18.9063C6.14844 18.9063 6.375 18.9688 6.51562 19.0547ZM34.6406 19.0547C34.9766 19.2813 35.1562 19.6016 35.1562 20.0001C35.1562 20.6251 34.6875 21.0938 34.0625 21.0938C33.4375 21.0938 32.9688 20.6251 32.9688 20.0001C32.9688 19.7891 33.0312 19.5626 33.1172 19.4219C33.3438 19.086 33.6641 18.9063 34.0625 18.9063C34.2734 18.9063 34.5 18.9688 34.6406 19.0547Z" fill="white"/>
<path d="M19.4066 9.57031C19.2191 9.67188 18.1019 11.2891 14.4378 16.7812C11.8363 20.6797 9.64877 23.9844 9.57845 24.1172C9.43783 24.3906 9.41439 24.8828 9.52377 25.1797C9.56283 25.2812 9.82064 25.6094 10.0941 25.9062C12.055 28.0469 13.3988 30.7266 13.8675 33.4375L13.9925 34.1562L13.68 34.4219C12.93 35.0703 12.1644 36.3984 11.9222 37.4766C11.8519 37.7891 11.7972 38.3125 11.7972 38.6484C11.7972 39.3203 11.9144 39.5859 12.3128 39.8516C12.5316 39.9922 12.8206 40 20.0003 40C27.18 40 27.4691 39.9922 27.6878 39.8516C28.0863 39.5859 28.2035 39.3203 28.2035 38.6484C28.2035 38.3125 28.1488 37.7891 28.0785 37.4766C27.8363 36.3984 27.0707 35.0703 26.3207 34.4219L26.0082 34.1562L26.1332 33.4375C26.6019 30.7266 27.9457 28.0469 29.9066 25.9062C30.18 25.6094 30.4378 25.2812 30.4769 25.1797C30.5863 24.8906 30.5628 24.3906 30.4222 24.125C30.1644 23.625 20.9535 9.875 20.7503 9.69531C20.4847 9.44531 19.7738 9.38281 19.4066 9.57031ZM18.8285 17.9688V21.3203L18.5003 21.4688C17.6488 21.8516 16.9144 22.6797 16.641 23.5703C16.055 25.4766 17.0238 27.4141 18.891 28.0547C19.7347 28.3438 21.0472 28.2188 21.7738 27.7656C22.9144 27.0469 23.516 26.0078 23.516 24.7188C23.516 23.2656 22.7503 22.0391 21.5081 21.4688L21.1722 21.3203V17.9453V14.5703L24.4925 19.5547L27.8207 24.5391L27.2894 25.2031C25.6566 27.2578 24.4535 29.7578 23.9066 32.2344L23.7269 33.0234L23.4457 32.9609C23.0785 32.875 16.9222 32.875 16.555 32.9609L16.2738 33.0234L16.0941 32.2344C15.5472 29.7578 14.3441 27.2578 12.7113 25.2031L12.18 24.5391L15.4847 19.5781C17.305 16.8438 18.7972 14.6094 18.8128 14.6094C18.8206 14.6094 18.8285 16.1172 18.8285 17.9688ZM20.5785 23.7422C20.9144 23.9688 21.0941 24.2891 21.0941 24.6875C21.0941 25.3125 20.6253 25.7812 20.0003 25.7812C19.6019 25.7812 19.2816 25.6016 19.055 25.2656C18.7425 24.7891 18.9144 24.0781 19.4222 23.7422C19.7191 23.5469 20.2816 23.5469 20.5785 23.7422ZM23.3519 35.4609C24.2347 35.7656 24.9613 36.3906 25.391 37.2031L25.6332 37.6562H20.0003H14.3675L14.6097 37.2031C15.1488 36.1797 16.1331 35.4844 17.2738 35.3125C17.5081 35.2734 18.8597 35.2578 20.2738 35.2656C22.7347 35.2812 22.8753 35.2891 23.3519 35.4609Z" fill="white"/>
</g>
<defs>
<clipPath id="clip0_333_383">
<rect width="40" height="40" fill="white"/>
</clipPath>
</defs>
</svg>
