<svg width="36" height="30" viewBox="0 0 36 30" fill="none" xmlns="http://www.w3.org/2000/svg">
<path d="M35.316 1.3679C34.952 0.543896 34.26 0.243896 33.392 0.243896C28.264 0.255896 23.14 0.255896 18.004 0.255896H2.732C1.204 0.255896 0.5 0.947896 0.5 2.4679V27.6919C0.5 28.2759 0.632 28.7919 1.06 29.2119C1.5 29.6519 2.06 29.7519 2.656 29.7519H33.436C34.712 29.7519 35.492 28.9919 35.492 27.7479C35.504 19.2559 35.504 10.7519 35.492 2.2479C35.492 1.9519 35.436 1.6319 35.316 1.3679ZM10.16 2.5559C10.776 2.5559 11.096 2.8639 11.096 3.4799C11.096 4.1079 10.808 4.4039 10.184 4.4159C9.544 4.4159 9.26 4.1399 9.26 3.5039C9.256 2.8559 9.532 2.5679 10.16 2.5559ZM6.948 2.5559C7.576 2.5559 7.852 2.8399 7.852 3.4919C7.852 4.1519 7.6 4.4039 6.948 4.4159C6.32 4.4159 6.024 4.1199 6.024 3.4919C6.024 2.8759 6.332 2.5679 6.948 2.5559ZM3.712 2.5559C4.316 2.5559 4.648 2.8639 4.656 3.4799C4.668 4.0959 4.36 4.4039 3.744 4.4159C3.096 4.4159 2.808 4.1399 2.796 3.5159C2.788 2.8879 3.096 2.5679 3.712 2.5559ZM34.58 27.5719C34.58 28.5079 34.272 28.8039 33.348 28.8039H2.612C1.732 28.8039 1.412 28.4959 1.412 27.6159V6.7359H34.576L34.58 27.5719ZM16.856 25.6239C18.184 25.3039 18.816 23.9159 18.196 22.6959C18.16 22.6239 18.152 22.4919 18.196 22.4319C18.716 21.7199 19.244 21.0199 19.776 20.3199C19.812 20.2759 19.908 20.2399 19.964 20.2559C20.528 20.3959 21.048 20.2879 21.552 19.9839C21.608 20.0239 21.656 20.0519 21.7 20.0839C22.392 20.6039 23.084 21.1199 23.768 21.6439C23.82 21.6839 23.84 21.7999 23.84 21.8799C23.84 22.1239 23.792 22.3719 23.82 22.6079C23.924 23.4559 24.548 24.1079 25.404 24.2919C26.2 24.4639 27.06 24.0879 27.496 23.3839C27.948 22.6519 27.9 21.7359 27.364 21.0719C27.268 20.9519 27.264 20.8719 27.332 20.7439C28.048 19.3239 28.76 17.8999 29.468 16.4719C29.54 16.3279 29.612 16.2759 29.788 16.2839C30.888 16.3319 31.824 15.3999 31.824 14.2839C31.824 13.1719 30.876 12.2279 29.784 12.2759C28.964 12.3119 28.336 12.6959 27.996 13.4479C27.668 14.1759 27.752 14.8839 28.248 15.5279C28.328 15.6319 28.364 15.7079 28.296 15.8439C27.568 17.2839 26.844 18.7319 26.112 20.1719C26.076 20.2399 25.964 20.3119 25.888 20.3119C25.504 20.3079 25.148 20.3839 24.816 20.5759C24.708 20.6399 24.644 20.6239 24.548 20.5519C23.884 20.0479 23.22 19.5479 22.548 19.0559C22.404 18.9479 22.356 18.8559 22.396 18.6679C22.7 17.2919 21.392 16.0159 20.02 16.3399C18.68 16.6559 18.048 18.0559 18.68 19.2839C18.712 19.3479 18.712 19.4719 18.672 19.5279C18.156 20.2319 17.632 20.9279 17.104 21.6199C17.06 21.6759 16.952 21.7039 16.876 21.7039C16.6 21.7079 16.32 21.6559 16.052 21.6959C14.968 21.8599 14.236 22.9559 14.448 24.0599C14.668 25.1439 15.792 25.8759 16.856 25.6239ZM7.636 20.5519C9.812 21.2839 11.824 20.4759 12.912 19.3039C12.904 19.2919 12.9 19.2759 12.888 19.2639L11.592 18.1399C10.78 17.4359 9.964 16.7359 9.156 16.0279C9.08 15.9599 9.016 15.8599 8.984 15.7599C8.604 14.6039 8.236 13.4479 7.86 12.2919C7.716 11.8479 7.572 11.4079 7.424 10.9519C5.688 11.6119 4.168 13.4159 4.164 15.7559C4.168 17.8719 5.588 19.8639 7.636 20.5519ZM9.724 15.7719C9.948 15.9639 10.168 16.1559 10.388 16.3479C11.1 16.9639 11.812 17.5799 12.528 18.1959C12.784 18.4199 13.044 18.6399 13.3 18.8599C15.4 16.1679 14.216 12.6359 11.98 11.3959C11.968 11.4079 11.956 11.4159 11.948 11.4279C11.196 12.8159 10.44 14.2079 9.684 15.5959C9.644 15.6799 9.668 15.7239 9.724 15.7719ZM11.472 11.1119C10.584 10.6039 8.976 10.4639 7.976 10.7919C8.432 12.2039 8.884 13.6119 9.348 15.0519C10.072 13.7159 10.772 12.4119 11.472 11.1119Z" fill="white"/>
</svg>
