<svg width="40" height="40" viewBox="0 0 40 40" fill="none" xmlns="http://www.w3.org/2000/svg">
<g clip-path="url(#clip0_333_153)">
<path d="M8.94866 3.21846C9.03472 3.66203 9.24923 4.08565 9.59262 4.42904C10.2798 5.11623 11.2867 5.28792 12.1339 4.94412C12.4162 4.8298 12.681 4.65769 12.9101 4.42904C13.0132 4.32594 13.1009 4.2137 13.1807 4.09771C13.2048 4.06279 13.2256 4.02704 13.2472 3.99128C13.2734 3.94846 13.3038 3.90772 13.3271 3.86366C13.3216 3.86657 13.3158 3.86781 13.3104 3.87072C13.7843 2.98316 13.658 1.85946 12.9101 1.11157C12.1618 0.363272 11.0381 0.236892 10.1509 0.710816C10.1538 0.705411 10.1551 0.699591 10.158 0.694187C10.1139 0.717467 10.0732 0.747815 10.0308 0.774006C9.99504 0.796039 9.95928 0.816825 9.92436 0.840521C9.80838 0.92034 9.69613 1.00806 9.59303 1.11116C9.36397 1.34022 9.19228 1.60462 9.07795 1.8869C8.96363 2.16917 8.90626 2.46932 8.90626 2.76948C8.90584 2.92038 8.91998 3.07046 8.94866 3.21846Z" fill="white"/>
<path d="M14.6735 9.51037L21.994 16.8312C22.9102 17.7471 24.3952 17.7471 25.3114 16.8312C25.3804 16.7622 25.4424 16.6891 25.501 16.6142C25.4956 16.6163 25.4902 16.6172 25.4848 16.6188C26.2123 15.698 26.1616 14.3639 25.3114 13.5138L17.9906 6.19332C17.3221 5.52484 16.3514 5.34982 15.5191 5.65745C15.5203 5.65579 15.5208 5.65413 15.522 5.65247C15.512 5.65621 15.5021 5.6612 15.4921 5.66535C15.4584 5.67824 15.4256 5.69321 15.3923 5.70776C15.2784 5.75723 15.1666 5.81418 15.0601 5.88278C15.0423 5.89442 15.0256 5.90772 15.0082 5.91978C14.8905 6.00001 14.7774 6.08897 14.6735 6.19332C14.2154 6.65145 13.9863 7.25175 13.9863 7.85205C13.9863 8.15221 14.0437 8.45236 14.158 8.73463C14.2728 9.01691 14.4445 9.28131 14.6735 9.51037Z" fill="white"/>
<path d="M24.0312 7.84088C24.4893 8.299 25.0896 8.52807 25.6899 8.52807C25.9901 8.52807 26.2902 8.4707 26.5725 8.35637C26.8548 8.24205 27.1196 8.06994 27.3482 7.84088C27.3482 7.84088 27.3486 7.84046 27.3486 7.84005C27.4513 7.73736 27.539 7.62553 27.6185 7.50996C27.6463 7.46922 27.6696 7.42723 27.6949 7.38524C27.7216 7.34035 27.7531 7.29753 27.7768 7.25138C27.7719 7.25388 27.7669 7.25512 27.7619 7.25762C28.22 6.37421 28.0891 5.26464 27.3482 4.52341L23.5045 0.67964C22.7632 -0.0615936 21.6537 -0.19213 20.7703 0.265996C20.7728 0.261007 20.774 0.256018 20.7765 0.25103C20.7303 0.274726 20.6875 0.306321 20.6426 0.332927C20.6006 0.35787 20.5587 0.381151 20.5183 0.409004C20.4028 0.488407 20.2909 0.576125 20.1882 0.678808L20.1878 0.679224C19.8444 1.02261 19.6295 1.44623 19.5439 1.88981C19.4009 2.62896 19.6154 3.42382 20.1878 3.99627L24.0312 7.84088Z" fill="white"/>
<path d="M39.7332 20.7711C39.7382 20.7736 39.7431 20.7748 39.7481 20.7773C39.7244 20.7311 39.6928 20.6883 39.6658 20.643C39.6409 20.6014 39.6176 20.5595 39.5897 20.5187C39.5103 20.4027 39.4226 20.2909 39.3195 20.1878C38.4037 19.2715 36.9183 19.2715 36.0025 20.1878L32.1587 24.0316C31.5862 24.604 31.3713 25.3989 31.5147 26.138C31.6008 26.5816 31.8153 27.0052 32.1587 27.3486C32.1587 27.349 32.1591 27.349 32.1591 27.349C32.2622 27.4517 32.3736 27.5394 32.4896 27.6188C32.5299 27.6467 32.5723 27.67 32.6139 27.6953C32.6588 27.7224 32.7016 27.7535 32.7478 27.7772C32.7453 27.7722 32.744 27.7673 32.7415 27.7623C33.6249 28.2204 34.7345 28.0894 35.4757 27.3486L39.3195 23.5048C40.0608 22.764 40.1913 21.6545 39.7332 20.7711Z" fill="white"/>
<path d="M22.5243 24.1019C22.6104 24.5454 22.8249 24.9691 23.1683 25.3124C23.1683 25.3124 23.1687 25.3124 23.1687 25.3129C23.2377 25.3819 23.3105 25.4438 23.3853 25.502C23.3832 25.4966 23.3824 25.4912 23.3807 25.4858C24.3016 26.2133 25.6356 26.1626 26.4858 25.3124L33.8066 17.9916C34.4751 17.3227 34.6501 16.3524 34.3425 15.5201C34.3442 15.5214 34.3458 15.5222 34.3475 15.523C34.3438 15.513 34.3388 15.5035 34.3346 15.4935C34.3217 15.4594 34.3063 15.427 34.2918 15.3933C34.2423 15.2794 34.1854 15.168 34.1172 15.0611C34.1055 15.0433 34.0922 15.0266 34.0802 15.0092C34.0004 14.8915 33.911 14.7785 33.8066 14.6745C33.4633 14.3311 33.0396 14.1162 32.5961 14.0306C31.8569 13.8876 31.062 14.1021 30.4896 14.6745L23.1687 21.9954C22.5958 22.5678 22.3813 23.3627 22.5243 24.1019Z" fill="white"/>
<path d="M35.5707 12.9102C35.6738 13.0133 35.786 13.101 35.902 13.1808C35.9369 13.2049 35.9727 13.2257 36.0084 13.2473C36.0512 13.2735 36.092 13.3039 36.1356 13.3272C36.1327 13.3217 36.1315 13.3159 36.1286 13.3105C37.0157 13.7844 38.1398 13.6581 38.8877 12.9102C39.636 12.1619 39.7624 11.0382 39.2885 10.151C39.2939 10.1539 39.2997 10.1552 39.3051 10.1581C39.2818 10.114 39.2515 10.0733 39.2253 10.0309C39.2033 9.99513 39.1825 9.95938 39.1584 9.92446C39.0785 9.80847 38.9908 9.69623 38.8877 9.59313C37.9719 8.67729 36.4865 8.67729 35.5707 9.59313C34.6548 10.509 34.6548 11.9943 35.5707 12.9102Z" fill="white"/>
<path d="M30.4073 35.5708C29.7201 34.8837 28.7132 34.712 27.866 35.0558C27.5837 35.1701 27.3189 35.3422 27.0898 35.5708C26.9867 35.6739 26.899 35.7862 26.8192 35.9022C26.7951 35.9371 26.7743 35.9728 26.7527 36.0086C26.7265 36.0514 26.6961 36.0922 26.6729 36.1362C26.6783 36.1333 26.6841 36.1321 26.6895 36.1292C26.2156 37.0163 26.3419 38.1404 27.0898 38.8883C27.8381 39.6366 28.9618 39.763 29.849 39.2891C29.8461 39.2945 29.8448 39.3003 29.8419 39.3057C29.886 39.2824 29.9267 39.2521 29.9691 39.2259C30.0049 39.2039 30.0406 39.1831 30.0755 39.1594C30.1915 39.0796 30.3038 38.9918 30.4069 38.8887C31.3231 37.9721 31.3231 36.4871 30.4073 35.5708Z" fill="white"/>
<path d="M25.3249 30.4894L18.0041 23.1685C17.6607 22.8252 17.237 22.6102 16.7935 22.5246C16.4979 22.4672 16.1932 22.4672 15.8976 22.5246C15.454 22.6106 15.0304 22.8252 14.687 23.1685C14.618 23.2376 14.5561 23.3107 14.4974 23.3856C14.5028 23.3835 14.5082 23.3826 14.5136 23.381C13.7861 24.3018 13.8373 25.6359 14.687 26.486L22.0079 33.8069C22.6764 34.4754 23.6471 34.6504 24.4794 34.3428C24.4781 34.3444 24.4773 34.3461 24.4764 34.3478C24.4864 34.344 24.4964 34.339 24.5064 34.3349C24.54 34.322 24.5729 34.307 24.6061 34.2921C24.7201 34.2426 24.8319 34.1856 24.9383 34.1174C24.9562 34.1058 24.9728 34.0925 24.9903 34.0804C25.1079 34.0006 25.221 33.9112 25.3249 33.8069C25.6683 33.4635 25.8832 33.0399 25.9689 32.5963C26.0549 32.1527 26.0117 31.6892 25.84 31.2656C25.7257 30.9829 25.554 30.7185 25.3249 30.4894Z" fill="white"/>
<path d="M15.9674 32.1589C15.3949 31.5865 14.6001 31.3716 13.8609 31.515C13.4174 31.601 12.9937 31.8156 12.6504 32.1589C12.5473 32.262 12.4595 32.3739 12.3801 32.4899C12.3523 32.5302 12.329 32.5722 12.3041 32.6142C12.277 32.6591 12.2454 32.7019 12.2217 32.7484C12.2267 32.7459 12.2317 32.7447 12.2367 32.7422C11.7786 33.6256 11.9095 34.7352 12.6504 35.4764L16.4941 39.3202C17.2354 40.0614 18.3449 40.192 19.2283 39.7338C19.2258 39.7388 19.2246 39.7438 19.2221 39.7488C19.2682 39.7251 19.3111 39.6935 19.356 39.6665C19.3979 39.6415 19.4395 39.6183 19.4803 39.5904C19.5962 39.511 19.7081 39.4233 19.8112 39.3202C20.727 38.4043 20.727 36.919 19.8112 36.0031L15.9674 32.1589Z" fill="white"/>
<path d="M5.07205 28.3003C4.98599 27.8567 4.77148 27.4331 4.42809 27.0897C4.32499 26.9866 4.21275 26.8989 4.09676 26.819C4.06184 26.7949 4.02609 26.7746 3.99034 26.7525C3.94752 26.7263 3.90677 26.696 3.86271 26.6727C3.86562 26.6781 3.86687 26.6839 3.86978 26.6893C2.98262 26.2154 1.85851 26.3418 1.11062 27.0901C0.362324 27.8384 0.235944 28.9621 0.710283 29.8492C0.704879 29.8463 0.699059 29.8451 0.693655 29.8422C0.716935 29.8862 0.747283 29.927 0.773473 29.9698C0.795507 30.0056 0.816293 30.0413 0.839989 30.0762C0.919808 30.1922 1.00753 30.3045 1.11062 30.4076C2.02688 31.3234 3.51184 31.3234 4.42809 30.4076C4.88622 29.9494 5.11528 29.3491 5.11528 28.7488C5.11486 28.5983 5.10073 28.4483 5.07205 28.3003Z" fill="white"/>
<path d="M17.3458 17.2287C17.4605 16.9464 17.5175 16.6463 17.5175 16.3461C17.5175 16.196 17.5033 16.046 17.4746 15.898C17.3886 15.4544 17.1741 15.0308 16.8307 14.6874C16.7617 14.6184 16.6885 14.5564 16.6137 14.4978C16.6158 14.5032 16.6166 14.5086 16.6182 14.514C15.6974 13.7865 14.3634 13.8372 13.5132 14.6874L6.19234 22.0083C5.52386 22.6767 5.34884 23.6475 5.65648 24.4797C5.65482 24.4785 5.65315 24.4777 5.65149 24.4768C5.65523 24.4868 5.66064 24.4968 5.66438 24.5068C5.67726 24.5404 5.69223 24.5733 5.70678 24.6061C5.75667 24.7204 5.81321 24.8319 5.8818 24.9387C5.89344 24.9566 5.90674 24.9732 5.9188 24.9907C5.99903 25.1083 6.088 25.2214 6.19234 25.3257C7.10818 26.2416 8.59356 26.2416 9.50981 25.3257L16.8303 18.0049C17.0597 17.7758 17.2314 17.511 17.3458 17.2287Z" fill="white"/>
<path d="M0.332904 19.3568C0.357847 19.3984 0.381128 19.4404 0.408981 19.4811C0.488384 19.5971 0.576102 19.7089 0.679201 19.812C1.02259 20.1554 1.44621 20.3703 1.88979 20.456C2.03778 20.4847 2.18786 20.4988 2.33793 20.4988C2.63809 20.4988 2.93824 20.4414 3.22051 20.3271C3.50279 20.2128 3.7676 20.0407 3.99625 19.812L7.84002 15.9682C8.75586 15.0524 8.75586 13.567 7.84002 12.6512C7.73692 12.5481 7.62509 12.4604 7.50911 12.381C7.46878 12.3531 7.4268 12.3298 7.38481 12.3049C7.33991 12.2779 7.29709 12.2463 7.25053 12.2226C7.25302 12.2276 7.25427 12.2326 7.25676 12.2376C6.37335 11.7794 5.26379 11.91 4.52256 12.6512L0.678785 16.495C-0.0624481 17.2362 -0.192985 18.3458 0.265141 19.2292C0.260153 19.2267 0.255164 19.2254 0.250175 19.2229C0.274287 19.2687 0.305882 19.3119 0.332904 19.3568Z" fill="white"/>
</g>
<defs>
<clipPath id="clip0_333_153">
<rect width="40" height="40" fill="white"/>
</clipPath>
</defs>
</svg>
