<svg width="74" height="74" viewBox="0 0 74 74" fill="none" xmlns="http://www.w3.org/2000/svg">
<g clip-path="url(#clip0_469_1784)">
<path d="M44.1641 68.5123L44.1672 68.5107H44.1656L44.1641 68.5123Z" fill="url(#paint0_linear_469_1784)"/>
<path d="M69.9799 43.2712C70.8572 43.0168 72.2289 43.1137 72.3503 42.1251C72.5121 40.8243 71.1434 41.1018 70.2864 40.95C69.5261 40.8127 68.7702 40.6436 68.0143 40.489C70.1462 35.8539 70.1823 35.5157 69.6706 35.4665C65.3347 35.0474 67.7065 31.7795 67.1688 29.7619C68.6618 29.5133 70.0594 29.0594 71.2388 27.9914C70.548 27.1892 69.2313 27.9914 68.8338 26.8351C68.1372 24.0023 64.6511 24.9923 63.4211 22.8865C63.4315 22.6893 63.4257 22.4916 63.4038 22.2954C63.7434 21.9514 64.0831 21.606 64.4227 21.2576L65.8565 21.0047C66.9506 20.6651 67.5114 19.5435 66.8407 18.9625C65.4388 17.7455 63.7665 18.1921 62.3024 19.2414C58.8742 19.451 58.1602 16.3826 56.5212 14.4401L57.7165 12.7419C59.4667 12.1189 59.4667 10.0926 60.701 9.0491C61.4237 9.39019 62.2258 9.62722 62.6291 8.69789C63.0034 7.8307 62.5005 7.18754 61.6174 7.08492C60.0275 6.90137 59.0259 7.6934 58.575 9.20375C56.0139 12.2779 52.9585 10.2155 50.0823 10.0218C48.4246 10.0218 46.6714 10.3903 45.4255 8.81351C45.4467 8.2113 45.4679 7.61005 45.4891 7.00976C47.4201 5.07015 47.6571 2.86605 46.1959 0C45.6004 3.4832 43.4382 5.20312 40.4912 6.09054L34.7071 8.67765L33.4786 7.92176C30.9608 7.42746 30.5142 4.46746 28.3174 3.58582C27.6135 3.04383 26.7535 1.78785 26.0439 2.54519C24.9295 3.73902 26.6596 4.64234 27.0411 5.72488C26.9992 7.15863 28.1266 7.9073 28.8911 8.86843L27.3562 10.5392C25.9442 10.8789 24.6318 10.5623 23.3715 9.93652L23.1547 9.81367C22.8786 8.69933 22.8656 7.47226 21.7788 6.71781C21.6444 4.9314 21.0561 3.38348 19.342 2.56543C19.0703 2.4368 18.3303 2.67961 18.2175 2.93109C17.3286 4.96609 19.5761 5.81594 20.0097 7.37687C20.0791 7.61824 20.4433 7.77867 20.6717 7.97812L20.0531 10.0247C19.196 11.1116 17.6755 11.84 18.1149 13.6264C17.7449 14.5514 16.8878 14.508 16.1146 14.6381C15.8774 14.4619 15.5975 14.3521 15.3038 14.3202C14.7256 12.5858 13.4393 10.7878 11.8191 11.9975C10.4056 13.0555 11.3508 15.0182 13.104 15.9505C13.4306 16.3696 13.7616 16.7887 14.094 17.2093C14.1114 17.5764 14.1273 17.9392 14.1446 18.3063L12.3828 20.0523C11.7223 19.9641 11.0632 19.8774 10.4042 19.7863C9.16986 19.0839 7.59013 18.3193 6.89349 19.9988C6.26334 21.5178 7.8315 21.95 9.1106 22.1407C9.29464 22.8152 9.47964 23.4873 9.6656 24.1569C8.63943 25.6369 7.61181 27.116 6.58275 28.5941C5.52912 29.1895 3.32357 27.7919 3.38283 29.8442C3.41462 31.0511 5.41494 30.5394 6.5524 30.7273L7.52365 32.4487L4.7472 35.1442C3.80775 35.1211 2.66884 35.0358 2.21212 35.9102C1.6788 36.9349 2.60525 37.7732 3.42619 38.0782C6.25466 39.1073 5.31377 40.4991 3.9624 42.0152C1.82334 45.4507 7.26205 45.1082 6.80677 47.7011C6.43388 49.4355 2.68474 49.6725 4.70095 52.4706C6.12603 53.8567 7.78814 53.0256 9.36642 52.9678C9.94455 53.8596 11.2208 55.0057 10.9996 55.6026C9.51384 59.6596 12.4782 60.5701 15.0465 61.829C15.1491 62.8624 15.3587 63.8033 16.7216 63.7166C17.8692 64.6329 15.4208 68.1522 18.3823 67.7635C18.6497 67.8097 19.0009 67.7418 19.4648 67.5149C21.6848 66.256 23.7415 65.4293 23.7531 69.3345C23.7531 71.8089 25.275 71.7106 26.8518 71.0458C28.063 70.537 28.855 69.0324 30.4998 69.56C31.8815 70.4561 33.8399 70.0557 34.9528 71.5516C37.5399 73.523 40.1559 76.0899 42.4366 71.2206C43.3038 70.4821 44.2259 69.7869 44.3733 68.5266L47.17 69.4559C51.0984 74.0159 49.9161 66.9555 52.006 67.3313L53.8676 67.4672C54.6914 68.7506 55.5239 70.7003 57.3118 69.3721C58.403 68.5627 58.4854 66.7705 56.2495 66.4713C55.8853 65.1922 57.6037 64.9538 57.5618 63.8365C58.64 61.5717 61.7113 62.0183 62.9095 59.9111L62.9297 59.9198C64.2493 60.7132 65.6267 61.2509 67.2078 60.9242C68.5187 59.6538 68.9581 58.0466 69.0087 56.2891C70.9772 53.8321 68.896 53.7049 67.2931 53.3046C66.78 51.9171 67.481 50.7117 67.8553 49.4557C67.9637 49.1912 68.0606 48.9224 68.1444 48.6492C69.6403 48.5957 71.4354 49.3112 72.3257 47.1172C70.8804 46.2832 69.5117 46.5839 68.1704 46.6171C67.507 44.8105 68.6373 43.9837 69.9799 43.2712Z" fill="#0BCA9D"/>
<path d="M60.8403 1.06667C60.927 0.867216 60.5614 0.208153 60.3518 0.183583C59.6118 0.0968643 59.3401 0.705341 59.2794 1.31382C59.2432 1.66792 59.46 2.04659 59.6393 2.68831C60.1755 1.9989 60.6134 1.5812 60.8403 1.06667Z" fill="#0BCA9D"/>
<path d="M47.8998 25.6436C46.985 27.1073 46.2278 28.3313 46.2152 28.3629C46.2026 28.3881 46.5055 28.4133 46.8903 28.4133H47.5907V28.9181V29.4228H48.0954H48.6001V28.4133V27.4039H48.3099C48.1522 27.4039 48.0323 27.3786 48.0449 27.3534C48.1017 27.202 49.5718 24.8801 49.6033 24.8801C49.6349 24.8801 51.1239 27.2146 51.1743 27.3534C51.187 27.3786 51.0671 27.4039 50.9094 27.4039H50.6191V31.9466V36.4893H51.1239H51.6286V32.4513V28.4133H52.3226C52.7075 28.4133 53.0167 28.4007 53.0167 28.3881C53.0167 28.325 49.6664 23.0189 49.6159 23C49.5907 22.9936 48.8147 24.1798 47.8998 25.6436Z" fill="white"/>
<path d="M27.401 23.9654C27.401 24.5206 27.3883 24.5837 27.2432 24.7225C26.9845 24.9875 26.8079 24.9307 26.3031 24.4386L25.8552 24.0032L24.423 25.4291L22.9908 26.8613L23.4261 27.3156C23.9182 27.8204 23.975 27.997 23.71 28.2557C23.5712 28.4008 23.5081 28.4134 22.9529 28.4134H22.3535V30.4324V32.4514H22.9529C23.5081 32.4514 23.5712 32.464 23.71 32.6091C23.975 32.8678 23.9182 33.0445 23.4261 33.5492L22.9908 33.9972L24.4167 35.4294L25.8489 36.8616L26.3031 36.4263C26.789 35.9531 26.9593 35.89 27.2117 36.0982C27.3379 36.1991 27.3694 36.3127 27.4388 37.0319C27.5839 38.4452 27.8994 39.5683 28.4735 40.7229C29.4073 42.5778 30.8332 44.01 32.7891 45.0385L33.4453 45.3918L33.4705 46.1741C33.4894 47.0196 33.5336 47.1395 33.9248 47.4297C34.0825 47.5496 34.2024 47.5622 35.2939 47.5811L36.4864 47.6V47.8146C36.4864 48.0228 36.499 48.0291 36.7892 48.0732C37.1678 48.1237 37.4832 48.2562 37.6725 48.4329L37.8239 48.5717L35.9627 48.6032C34.2024 48.6348 34.0888 48.6411 33.9248 48.7673C33.521 49.0638 33.4894 49.1647 33.4958 50.1048C33.5021 50.8556 33.5273 51.0386 33.6661 51.474C33.7607 51.7516 33.9374 52.1617 34.0699 52.3888C34.3791 52.9125 35.2056 53.739 35.7293 54.0482C36.8839 54.7169 38.3665 54.8305 39.6536 54.3447C40.1332 54.168 40.8587 53.6822 41.2499 53.2784C41.4202 53.1018 41.6158 52.9566 41.6789 52.9566C41.9439 52.9566 42.3099 53.1144 42.5685 53.3478C42.8651 53.6065 43.0039 53.8904 43.0733 54.3573L43.1175 54.6602H45.067H47.0166L47.0608 54.3573C47.1302 53.8841 47.269 53.6065 47.5655 53.3415C48.1712 52.8115 48.8274 52.8368 49.6413 53.4298C49.7675 53.5182 49.8432 53.4488 51.1429 52.1491L52.512 50.7799L52.2912 50.4708C51.818 49.802 51.8306 49.1458 52.3354 48.578C52.594 48.2814 52.878 48.1426 53.3512 48.0732L53.6477 48.0291V46.0795V44.1299L53.3512 44.0858C52.8716 44.0164 52.594 43.8775 52.329 43.581C51.7991 42.9753 51.8243 42.3191 52.4174 41.5052C52.5057 41.3791 52.4363 41.3033 51.1366 40.0099L49.7675 38.6408L49.4015 38.8869C49.0356 39.1393 48.6129 39.2528 48.3226 39.1771L48.1775 39.1393L48.3163 38.5525C48.5624 37.5493 48.6002 36.8427 48.6002 33.5555V30.4324H48.0955H47.5908V31.1706V31.9151L47.3005 31.404C46.6444 30.2368 45.5781 29.0507 44.4929 28.2746C43.3509 27.4544 41.8177 26.7919 40.4928 26.5459C39.723 26.4071 37.2813 26.3503 36.2719 26.4575L35.5274 26.5333L34.2529 25.2651L32.9847 24.0032L32.5367 24.4386C32.032 24.9307 31.8553 24.9875 31.5967 24.7225C31.4515 24.5837 31.4389 24.5206 31.4389 23.9654V23.366H29.4199H27.401V23.9654ZM30.4547 24.6342C30.6187 25.6752 31.8049 26.2052 32.7071 25.6436L33.0036 25.4607L33.6787 26.1421C34.051 26.5143 34.3286 26.8361 34.3033 26.8487C34.2718 26.8676 34.133 26.9181 33.9942 26.9623C33.8554 27.0065 33.439 27.1831 33.073 27.3535L32.4042 27.6689L32.0005 27.3408C30.3348 25.997 28.0697 26.0979 26.5808 27.5932C25.016 29.1579 24.9908 31.6312 26.5177 33.2085C26.7763 33.4735 27.4641 33.9972 27.6344 34.0603C27.6407 34.0603 27.6092 34.2937 27.5587 34.565C27.5082 34.8426 27.4704 35.0761 27.4641 35.0824C27.4641 35.0887 27.3757 35.0634 27.2685 35.0256C26.9719 34.9246 26.4735 35.0067 26.1328 35.2212L25.8363 35.4041L25.1422 34.6975L24.4482 33.9972L24.6312 33.7196C24.9466 33.2274 24.9403 32.5839 24.6059 32.0854C24.4167 31.8015 23.975 31.5176 23.6406 31.4671L23.363 31.4293V30.4324V29.4355L23.6406 29.3977C24.6564 29.2463 25.1927 28.0159 24.6312 27.1453L24.4482 26.8676L25.1422 26.1673L25.8363 25.4607L26.1328 25.6436C27.035 26.2052 28.2212 25.6752 28.3852 24.6342L28.4294 24.3755H29.4199H30.4105L30.4547 24.6342ZM29.9941 27.467C30.4042 27.5491 31.0162 27.8267 31.3064 28.079L31.5146 28.2557L31.1298 28.5649L30.7386 28.8677L30.3474 28.6595C29.9878 28.4639 29.9121 28.445 29.4199 28.4513C28.789 28.4513 28.4041 28.6027 28.0003 29.0128C27.5966 29.4103 27.4388 29.8015 27.4388 30.4009C27.4325 31.0129 27.6155 31.4671 28.0319 31.8709L28.3032 32.1296L28.1328 32.5776C28.0319 32.8236 27.9183 33.0192 27.8679 33.0192C27.8237 33.0192 27.6029 32.8489 27.382 32.6407C26.1202 31.4608 26.0634 29.5933 27.2558 28.344C27.9688 27.5995 28.972 27.2778 29.9941 27.467ZM40.4928 27.5806C42.2909 27.9781 43.6979 28.7415 44.9787 30.016C46.2784 31.322 47.0797 32.8236 47.4456 34.6407C47.5971 35.4105 47.5971 37.1266 47.4456 37.8963C47.086 39.6882 46.1712 41.3791 44.8841 42.6409L44.5623 42.9501V39.7197V36.4893H43.048H41.5338V41.5368V46.5842H40.5243H39.5148V44.0605V41.5368H38.0006H36.4864V44.0605V46.5842H35.4769H34.4674V43.5558V40.5273H32.9532H31.4389V41.7387V42.9501L31.1171 42.6409C27.6281 39.2339 27.5082 33.688 30.8522 30.1737C32.2718 28.6847 34.1141 27.7446 36.1709 27.467C36.398 27.4355 37.3318 27.4229 38.253 27.4355C39.6347 27.4481 40.0259 27.4733 40.4928 27.5806ZM29.7985 29.5176L29.9815 29.6122L29.5903 30.1043C29.3758 30.3693 29.1108 30.7226 29.0098 30.8867C28.9026 31.057 28.8016 31.1895 28.7764 31.1895C28.7007 31.1895 28.4735 30.8236 28.4357 30.628C28.278 29.8456 29.1171 29.1642 29.7985 29.5176ZM43.5528 40.5904V43.682L43.3194 43.8271C43.1869 43.9091 42.9597 44.0416 42.8146 44.1173L42.5433 44.2498V40.8743V37.4988H43.048H43.5528V40.5904ZM50.411 40.7292L51.1871 41.5052L51.0546 41.9154C50.6949 43.0447 51.2691 44.3444 52.3354 44.8366L52.6382 44.9754V46.0795V47.1836L52.3354 47.3224C51.2691 47.8146 50.6949 49.1143 51.0546 50.2436L51.1871 50.6537L50.411 51.4235L49.6413 52.1995L49.2312 52.067C48.1018 51.7074 46.8021 52.2815 46.31 53.3478L46.1712 53.6507H45.067H43.9629L43.8241 53.3478C43.5907 52.8494 43.2247 52.4834 42.6821 52.2185C42.4171 52.0923 42.1837 51.9787 42.1774 51.9724C42.1647 51.9598 42.2089 51.7957 42.2846 51.6001C42.3603 51.4046 42.4171 51.19 42.4171 51.1269C42.4171 50.9692 42.4045 50.9692 42.8398 51.1585C44.1333 51.7326 45.78 51.7705 47.0797 51.2468C50.329 49.9534 51.6035 46.0921 49.7612 43.133C49.3511 42.4706 48.6318 41.7639 47.9567 41.3475C47.6475 41.1645 47.4015 41.0005 47.4015 40.9942C47.4015 40.9816 47.4898 40.7923 47.5971 40.5715L47.7927 40.174H48.4362C48.8715 40.174 49.1555 40.1424 49.3258 40.0667C49.4646 40.0162 49.5908 39.9658 49.6097 39.9658C49.6287 39.9595 49.9883 40.3065 50.411 40.7292ZM33.4579 42.8933V44.2498L33.1929 44.1173C33.0415 44.0416 32.8144 43.9091 32.6882 43.8271L32.4484 43.682V42.6094V41.5368H32.9532H33.4579V42.8933ZM47.3321 42.1425C47.9693 42.4958 48.758 43.3286 49.0924 43.9974C49.4835 44.7861 49.5782 45.2088 49.5719 46.1426C49.5656 46.8177 49.5403 47.007 49.4015 47.436C49.1618 48.1616 48.8337 48.6852 48.2532 49.2657C47.6728 49.8462 47.1491 50.1742 46.4235 50.414C45.9945 50.5528 45.8052 50.578 45.1301 50.5843C44.2153 50.5907 43.7862 50.496 43.048 50.1301L42.5749 49.8966L42.5307 49.5559C42.4676 49.0007 42.1458 48.6789 41.5906 48.6158L41.2499 48.5717L41.0101 48.0985L40.7767 47.6253L41.2941 47.5937C41.6915 47.5685 41.8304 47.5811 41.8808 47.6505C41.9187 47.6947 42.0259 47.865 42.1269 48.0228C42.985 49.3414 44.7453 49.9408 46.2216 49.4045C46.7958 49.1963 47.1365 48.9818 47.5466 48.5717C49.2375 46.8808 48.7958 43.9974 46.6885 42.9564L46.209 42.7229L46.5056 42.3191C46.6696 42.0983 46.8273 41.9217 46.8589 41.9154C46.8904 41.9154 47.1049 42.0163 47.3321 42.1425ZM38.5053 44.5653V46.5842H38.0006H37.4959V44.5653V42.5463H38.0006H38.5053V44.5653ZM46.2279 43.8649C46.7201 44.1047 47.0986 44.5022 47.3573 45.0574C47.5403 45.4423 47.5592 45.5369 47.5592 46.0858C47.5592 46.6536 47.5466 46.7104 47.3258 47.1647C47.0418 47.7388 46.6759 48.0922 46.0891 48.3698C45.7043 48.5527 45.6096 48.5717 45.067 48.5717C44.5244 48.5717 44.4298 48.5527 44.0449 48.3698C43.4645 48.0985 43.0922 47.7388 42.8146 47.171C42.6064 46.7483 42.5812 46.6473 42.5559 46.0543L42.5307 45.4044L43.2121 45.0448C43.9314 44.6662 44.6128 44.2119 45.0355 43.8397C45.2563 43.6441 45.3194 43.6189 45.5592 43.6441C45.7043 43.6567 46.0071 43.7577 46.2279 43.8649ZM39.8303 47.8587C39.8745 48.0101 39.9628 48.2373 40.0259 48.3635L40.1458 48.6032H39.5779H39.0101L38.8839 48.3508C38.8082 48.2057 38.6378 47.9786 38.5053 47.8461L38.253 47.5937H38.9975H39.7483L39.8303 47.8587ZM41.5149 50.2247C41.4202 51.8083 40.5117 52.9945 39.0101 53.4992C38.5306 53.6633 37.4706 53.6633 36.9911 53.4992C35.4264 52.9693 34.4674 51.6443 34.4674 50.0102V49.6127H38.0069H41.5527L41.5149 50.2247Z" fill="white"/>
<path d="M42.4555 30.4956C42.058 30.5965 41.4902 30.9372 41.2126 31.2338C41.0738 31.3852 40.8656 31.7007 40.7583 31.9341C40.5753 32.319 40.5564 32.4136 40.5564 32.9562C40.5564 33.4799 40.5816 33.6061 40.7394 33.9531L40.9223 34.3506L40.1589 35.114L39.3955 35.8774L38.998 35.6945C38.651 35.5367 38.5248 35.5115 38.0011 35.5115C37.4585 35.5115 37.3639 35.5304 36.979 35.7134C36.4112 35.9784 36.0326 36.3443 35.7613 36.8869C35.6415 37.1267 35.5405 37.3664 35.5405 37.4106C35.5405 37.48 35.408 37.4989 34.9474 37.4989H34.3544L34.2786 37.3096C34.102 36.8806 33.4647 36.4894 32.9537 36.4894C32.1713 36.4894 31.4395 37.2213 31.4395 38.0037C31.4395 38.786 32.1713 39.5179 32.9537 39.5179C33.4647 39.5179 34.102 39.1267 34.2786 38.6977L34.3544 38.5084H34.9474C35.408 38.5084 35.5405 38.5273 35.5405 38.5967C35.5405 38.6409 35.6415 38.8807 35.7613 39.1204C36.0326 39.663 36.4112 40.029 36.979 40.294C37.3639 40.4769 37.4585 40.4958 38.0074 40.4958C38.5753 40.4958 38.6321 40.4832 39.0863 40.2624C39.6605 39.9785 40.0138 39.6125 40.2914 39.0258C40.4744 38.6409 40.4933 38.5463 40.4933 38.0037C40.4933 37.48 40.4681 37.3538 40.3103 37.0068L40.1274 36.6093L40.8908 35.8459L41.6542 35.0825L42.0517 35.2654C42.3987 35.4232 42.5249 35.4484 43.0486 35.4484C43.5912 35.4484 43.6858 35.4295 44.0707 35.2465C44.6575 34.9689 45.0234 34.6156 45.3073 34.0414C45.5281 33.5872 45.5408 33.5304 45.5408 32.9562C45.5408 32.3821 45.5281 32.3253 45.3073 31.871C44.8783 31.013 44.1212 30.5019 43.1874 30.4577C42.9224 30.4451 42.5943 30.464 42.4555 30.4956ZM43.5155 31.5177C44.0581 31.6817 44.5628 32.3758 44.5628 32.9562C44.5628 33.7386 43.8309 34.4705 43.0486 34.4705C42.6511 34.4705 42.3293 34.3253 42.0075 33.9973C41.364 33.36 41.364 32.5524 42.0075 31.9152C42.4492 31.4672 42.9224 31.3474 43.5155 31.5177ZM38.468 36.5651C39.0106 36.7292 39.5154 37.4232 39.5154 38.0037C39.5154 38.786 38.7835 39.5179 38.0011 39.5179C37.2188 39.5179 36.4869 38.786 36.4869 38.0037C36.4869 37.6062 36.632 37.2844 36.9601 36.9626C37.4018 36.5147 37.8749 36.3948 38.468 36.5651ZM33.3007 37.6567C33.6162 37.9658 33.3953 38.5084 32.9537 38.5084C32.695 38.5084 32.4489 38.2624 32.4489 38.0037C32.4489 37.745 32.695 37.4989 32.9537 37.4989C33.0736 37.4989 33.2061 37.5557 33.3007 37.6567Z" fill="white"/>
<path d="M42.7007 32.6092C42.5998 32.7038 42.543 32.8363 42.543 32.9562C42.543 33.0761 42.5998 33.2086 42.7007 33.3032C42.7953 33.4042 42.9278 33.4609 43.0477 33.4609C43.1676 33.4609 43.3001 33.4042 43.3947 33.3032C43.4957 33.2086 43.5525 33.0761 43.5525 32.9562C43.5525 32.8363 43.4957 32.7038 43.3947 32.6092C43.3001 32.5082 43.1676 32.4514 43.0477 32.4514C42.9278 32.4514 42.7953 32.5082 42.7007 32.6092Z" fill="white"/>
<path d="M37.6524 37.6565C37.3369 37.9657 37.5577 38.5083 37.9994 38.5083C38.1193 38.5083 38.2518 38.4515 38.3464 38.3506C38.4474 38.2559 38.5041 38.1234 38.5041 38.0036C38.5041 37.8837 38.4474 37.7512 38.3464 37.6565C38.2518 37.5556 38.1193 37.4988 37.9994 37.4988C37.8795 37.4988 37.747 37.5556 37.6524 37.6565Z" fill="white"/>
<path d="M24.6811 43.8145C23.7662 45.2782 23.0028 46.5022 22.9965 46.5338C22.9839 46.559 23.2867 46.5842 23.6716 46.5842H24.3719V48.6032V50.6222H24.8766H25.3814V48.0985V45.5747H25.0912C24.9334 45.5747 24.8136 45.5495 24.8262 45.5243C24.883 45.3729 26.353 43.051 26.3846 43.051C26.4161 43.051 27.9051 45.3855 27.9556 45.5243C27.9682 45.5495 27.8483 45.5747 27.6906 45.5747H27.4004V50.1175V54.6602H27.9051H28.4099V50.6222V46.5842H29.1039C29.4888 46.5842 29.7979 46.5716 29.7979 46.559C29.7979 46.4959 26.4477 41.1898 26.3972 41.1709C26.372 41.1645 25.5959 42.3507 24.6811 43.8145Z" fill="white"/>
<path d="M24.373 53.1459V54.6602H24.8778H25.3825V53.1459V51.6317H24.8778H24.373V53.1459Z" fill="white"/>
</g>
<defs>
<linearGradient id="paint0_linear_469_1784" x1="44.1641" y1="68.5107" x2="44.1672" y2="68.5107" gradientUnits="userSpaceOnUse">
<stop stop-color="#DD1F26"/>
<stop offset="1" stop-color="#E15C25"/>
</linearGradient>
<clipPath id="clip0_469_1784">
<rect width="74" height="74" fill="white"/>
</clipPath>
</defs>
</svg>
