<svg width="74" height="74" viewBox="0 0 74 74" fill="none" xmlns="http://www.w3.org/2000/svg">
<g clip-path="url(#clip0_741_180)">
<path d="M44.1641 68.5123L44.1672 68.5107H44.1656L44.1641 68.5123Z" fill="url(#paint0_linear_741_180)"/>
<path d="M69.9253 43.2712C70.8026 43.0168 72.1742 43.1137 72.2956 42.1251C72.4575 40.8243 71.0887 41.1018 70.2317 40.95C69.4714 40.8127 68.7155 40.6436 67.9596 40.489C70.0915 35.8539 70.1276 35.5157 69.616 35.4665C65.28 35.0474 67.6518 31.7795 67.1141 29.7619C68.6071 29.5133 70.0048 29.0594 71.1841 27.9914C70.4933 27.1892 69.1766 27.9914 68.7791 26.8351C68.0825 24.0023 64.5964 24.9923 63.3664 22.8865C63.3768 22.6893 63.371 22.4916 63.3491 22.2954C63.6887 21.9514 64.0284 21.606 64.368 21.2576L65.8018 21.0047C66.8959 20.6651 67.4567 19.5435 66.786 18.9625C65.3841 17.7455 63.7119 18.1921 62.2478 19.2414C58.8195 19.451 58.1055 16.3826 56.4665 14.4401L57.6618 12.7419C59.4121 12.1189 59.4121 10.0926 60.6464 9.0491C61.369 9.39019 62.1712 9.62722 62.5744 8.69789C62.9487 7.8307 62.4458 7.18754 61.5627 7.08492C59.9728 6.90137 58.9712 7.6934 58.5203 9.20375C55.9592 12.2779 52.9038 10.2155 50.0276 10.0218C48.3699 10.0218 46.6167 10.3903 45.3708 8.81351C45.392 8.2113 45.4132 7.61005 45.4344 7.00976C47.3654 5.07015 47.6024 2.86605 46.1412 0C45.5457 3.4832 43.3835 5.20312 40.4365 6.09054L34.6524 8.67765L33.4239 7.92176C30.9062 7.42746 30.4595 4.46746 28.2627 3.58582C27.5588 3.04383 26.6988 1.78785 25.9892 2.54519C24.8749 3.73902 26.6049 4.64234 26.9865 5.72488C26.9445 7.15863 28.0719 7.9073 28.8365 8.86843L27.3015 10.5392C25.8895 10.8789 24.5771 10.5623 23.3168 9.93652L23.1 9.81367C22.824 8.69933 22.811 7.47226 21.7241 6.71781C21.5897 4.9314 21.0014 3.38348 19.2873 2.56543C19.0156 2.4368 18.2756 2.67961 18.1628 2.93109C17.274 4.96609 19.5214 5.81594 19.955 7.37687C20.0244 7.61824 20.3886 7.77867 20.617 7.97812L19.9984 10.0247C19.1413 11.1116 17.6208 11.84 18.0602 13.6264C17.6902 14.5514 16.8331 14.508 16.0599 14.6381C15.8227 14.4619 15.5428 14.3521 15.2491 14.3202C14.671 12.5858 13.3846 10.7878 11.7644 11.9975C10.3509 13.0555 11.2961 15.0182 13.0493 15.9505C13.376 16.3696 13.7069 16.7887 14.0394 17.2093C14.0567 17.5764 14.0726 17.9392 14.0899 18.3063L12.3281 20.0523C11.6676 19.9641 11.0085 19.8774 10.3495 19.7863C9.11517 19.0839 7.53545 18.3193 6.83881 19.9988C6.20865 21.5178 7.77681 21.95 9.05591 22.1407C9.23995 22.8152 9.42495 23.4873 9.61091 24.1569C8.58474 25.6369 7.55713 27.116 6.52806 28.5941C5.47443 29.1895 3.26888 27.7919 3.32814 29.8442C3.35994 31.0511 5.36025 30.5394 6.49771 30.7273L7.46896 32.4487L4.69252 35.1442C3.75306 35.1211 2.61416 35.0358 2.15744 35.9102C1.62412 36.9349 2.55056 37.7732 3.3715 38.0782C6.19998 39.1073 5.25908 40.4991 3.90771 42.0152C1.76865 45.4507 7.20736 45.1082 6.75209 47.7011C6.3792 49.4355 2.63005 49.6725 4.64627 52.4706C6.07134 53.8567 7.73345 53.0256 9.31174 52.9678C9.88986 53.8596 11.1661 55.0057 10.9449 55.6026C9.45916 59.6596 12.4235 60.5701 14.9918 61.829C15.0944 62.8624 15.304 63.8033 16.6669 63.7166C17.8145 64.6329 15.3661 68.1522 18.3276 67.7635C18.595 67.8097 18.9462 67.7418 19.4101 67.5149C21.6301 66.256 23.6868 65.4293 23.6984 69.3345C23.6984 71.8089 25.2203 71.7106 26.7971 71.0458C28.0083 70.537 28.8003 69.0324 30.4451 69.56C31.8268 70.4561 33.7852 70.0557 34.8981 71.5516C37.4852 73.523 40.1012 76.0899 42.3819 71.2206C43.2491 70.4821 44.1712 69.7869 44.3187 68.5266L47.1153 69.4559C51.0437 74.0159 49.8614 66.9555 51.9514 67.3313L53.8129 67.4672C54.6367 68.7506 55.4692 70.7003 57.2571 69.3721C58.3483 68.5627 58.4307 66.7705 56.1948 66.4713C55.8306 65.1922 57.549 64.9538 57.5071 63.8365C58.5853 61.5717 61.6566 62.0183 62.8548 59.9111L62.875 59.9198C64.1946 60.7132 65.572 61.2509 67.1532 60.9242C68.4641 59.6538 68.9034 58.0466 68.954 56.2891C70.9225 53.8321 68.8413 53.7049 67.2384 53.3046C66.7253 51.9171 67.4263 50.7117 67.8007 49.4557C67.909 49.1912 68.0059 48.9224 68.0897 48.6492C69.5856 48.5957 71.3807 49.3112 72.271 47.1172C70.8257 46.2832 69.457 46.5839 68.1157 46.6171C67.4523 44.8105 68.5826 43.9837 69.9253 43.2712Z" fill="#00CAEB"/>
<path d="M60.8403 1.06667C60.927 0.867216 60.5614 0.208153 60.3518 0.183583C59.6118 0.0968643 59.3401 0.705341 59.2794 1.31382C59.2432 1.66792 59.46 2.04659 59.6393 2.68831C60.1755 1.9989 60.6134 1.5812 60.8403 1.06667Z" fill="#00CAEB"/>
<path d="M34.0318 26.8253L34.9157 25.9414L34.0318 26.8253C34.4002 27.1937 34.6071 27.6933 34.6071 28.2143V34.6429C34.6071 35.1638 34.4002 35.6634 34.0318 36.0318L34.9157 36.9157L34.0318 36.0318C33.6634 36.4002 33.1638 36.6071 32.6429 36.6071H26.2143C25.6933 36.6071 25.1937 36.4002 24.8253 36.0318L23.9414 36.9157L24.8253 36.0318C24.457 35.6634 24.25 35.1638 24.25 34.6429V28.2143C24.25 27.6933 24.457 27.1937 24.8253 26.8253C25.1937 26.457 25.6933 26.25 26.2143 26.25H32.6429C33.1638 26.25 33.6634 26.457 34.0318 26.8253ZM41.3929 28.2143C41.3929 27.6933 41.5998 27.1937 41.9682 26.8253L41.0843 25.9414L41.9682 26.8253C42.3366 26.457 42.8362 26.25 43.3571 26.25H49.7857C50.3067 26.25 50.8063 26.457 51.1747 26.8253C51.543 27.1937 51.75 27.6933 51.75 28.2143V34.6429C51.75 35.1638 51.543 35.6634 51.1747 36.0318C50.8063 36.4002 50.3067 36.6071 49.7857 36.6071H43.3571C42.8362 36.6071 42.3366 36.4002 41.9682 36.0318C41.5998 35.6634 41.3929 35.1638 41.3929 34.6429V28.2143ZM24.25 45.3571C24.25 44.8362 24.457 44.3366 24.8253 43.9682L23.9414 43.0843L24.8253 43.9682C25.1937 43.5998 25.6933 43.3929 26.2143 43.3929H32.6429C33.1638 43.3929 33.6634 43.5998 34.0318 43.9682C34.4002 44.3366 34.6071 44.8362 34.6071 45.3571V51.7857C34.6071 52.3067 34.4002 52.8063 34.0318 53.1747C33.6634 53.543 33.1638 53.75 32.6429 53.75H26.2143C25.6933 53.75 25.1937 53.543 24.8253 53.1747C24.457 52.8063 24.25 52.3067 24.25 51.7857V45.3571ZM41.3929 45.3571C41.3929 44.8362 41.5998 44.3366 41.9682 43.9682C42.3366 43.5998 42.8362 43.3929 43.3571 43.3929H49.7857C50.3067 43.3929 50.8063 43.5998 51.1747 43.9682C51.543 44.3366 51.75 44.8362 51.75 45.3571V51.7857C51.75 52.3067 51.543 52.8063 51.1747 53.1747C50.8063 53.543 50.3067 53.75 49.7857 53.75H43.3571C42.8362 53.75 42.3366 53.543 41.9682 53.1747C41.5998 52.8063 41.3929 52.3067 41.3929 51.7857V45.3571Z" stroke="white" stroke-width="2.5"/>
</g>
<defs>
<linearGradient id="paint0_linear_741_180" x1="44.1641" y1="68.5107" x2="44.1672" y2="68.5107" gradientUnits="userSpaceOnUse">
<stop stop-color="#DD1F26"/>
<stop offset="1" stop-color="#E15C25"/>
</linearGradient>
<clipPath id="clip0_741_180">
<rect width="74" height="74" fill="white"/>
</clipPath>
</defs>
</svg>
