<svg width="74" height="74" viewBox="0 0 74 74" fill="none" xmlns="http://www.w3.org/2000/svg">
<g clip-path="url(#clip0_741_205)">
<path d="M44.1641 68.5123L44.1672 68.5107H44.1656L44.1641 68.5123Z" fill="url(#paint0_linear_741_205)"/>
<path d="M69.9253 43.2712C70.8026 43.0168 72.1742 43.1137 72.2956 42.1251C72.4575 40.8243 71.0887 41.1018 70.2317 40.95C69.4714 40.8127 68.7155 40.6436 67.9596 40.489C70.0915 35.8539 70.1276 35.5157 69.616 35.4665C65.28 35.0474 67.6518 31.7795 67.1141 29.7619C68.6071 29.5133 70.0048 29.0594 71.1841 27.9914C70.4933 27.1892 69.1766 27.9914 68.7791 26.8351C68.0825 24.0023 64.5964 24.9923 63.3664 22.8865C63.3768 22.6893 63.371 22.4916 63.3491 22.2954C63.6887 21.9514 64.0284 21.606 64.368 21.2576L65.8018 21.0047C66.8959 20.6651 67.4567 19.5435 66.786 18.9625C65.3841 17.7455 63.7119 18.1921 62.2478 19.2414C58.8195 19.451 58.1055 16.3826 56.4665 14.4401L57.6618 12.7419C59.4121 12.1189 59.4121 10.0926 60.6464 9.0491C61.369 9.39019 62.1712 9.62722 62.5744 8.69789C62.9487 7.8307 62.4458 7.18754 61.5627 7.08492C59.9728 6.90137 58.9712 7.6934 58.5203 9.20375C55.9592 12.2779 52.9038 10.2155 50.0276 10.0218C48.3699 10.0218 46.6167 10.3903 45.3708 8.81351C45.392 8.2113 45.4132 7.61005 45.4344 7.00976C47.3654 5.07015 47.6024 2.86605 46.1412 0C45.5457 3.4832 43.3835 5.20312 40.4365 6.09054L34.6524 8.67765L33.4239 7.92176C30.9062 7.42746 30.4595 4.46746 28.2627 3.58582C27.5588 3.04383 26.6988 1.78785 25.9892 2.54519C24.8749 3.73902 26.6049 4.64234 26.9865 5.72488C26.9445 7.15863 28.0719 7.9073 28.8365 8.86843L27.3015 10.5392C25.8895 10.8789 24.5771 10.5623 23.3168 9.93652L23.1 9.81367C22.824 8.69933 22.811 7.47226 21.7241 6.71781C21.5897 4.9314 21.0014 3.38348 19.2873 2.56543C19.0156 2.4368 18.2756 2.67961 18.1628 2.93109C17.274 4.96609 19.5214 5.81594 19.955 7.37687C20.0244 7.61824 20.3886 7.77867 20.617 7.97812L19.9984 10.0247C19.1413 11.1116 17.6208 11.84 18.0602 13.6264C17.6902 14.5514 16.8331 14.508 16.0599 14.6381C15.8227 14.4619 15.5428 14.3521 15.2491 14.3202C14.671 12.5858 13.3846 10.7878 11.7644 11.9975C10.3509 13.0555 11.2961 15.0182 13.0493 15.9505C13.376 16.3696 13.7069 16.7887 14.0394 17.2093C14.0567 17.5764 14.0726 17.9392 14.0899 18.3063L12.3281 20.0523C11.6676 19.9641 11.0085 19.8774 10.3495 19.7863C9.11517 19.0839 7.53545 18.3193 6.83881 19.9988C6.20865 21.5178 7.77681 21.95 9.05591 22.1407C9.23995 22.8152 9.42495 23.4873 9.61091 24.1569C8.58474 25.6369 7.55713 27.116 6.52806 28.5941C5.47443 29.1895 3.26888 27.7919 3.32814 29.8442C3.35994 31.0511 5.36025 30.5394 6.49771 30.7273L7.46896 32.4487L4.69252 35.1442C3.75306 35.1211 2.61416 35.0358 2.15744 35.9102C1.62412 36.9349 2.55056 37.7732 3.3715 38.0782C6.19998 39.1073 5.25908 40.4991 3.90771 42.0152C1.76865 45.4507 7.20736 45.1082 6.75209 47.7011C6.3792 49.4355 2.63005 49.6725 4.64627 52.4706C6.07134 53.8567 7.73345 53.0256 9.31174 52.9678C9.88986 53.8596 11.1661 55.0057 10.9449 55.6026C9.45916 59.6596 12.4235 60.5701 14.9918 61.829C15.0944 62.8624 15.304 63.8033 16.6669 63.7166C17.8145 64.6329 15.3661 68.1522 18.3276 67.7635C18.595 67.8097 18.9462 67.7418 19.4101 67.5149C21.6301 66.256 23.6868 65.4293 23.6984 69.3345C23.6984 71.8089 25.2203 71.7106 26.7971 71.0458C28.0083 70.537 28.8003 69.0324 30.4451 69.56C31.8268 70.4561 33.7852 70.0557 34.8981 71.5516C37.4852 73.523 40.1012 76.0899 42.3819 71.2206C43.2491 70.4821 44.1712 69.7869 44.3187 68.5266L47.1153 69.4559C51.0437 74.0159 49.8614 66.9555 51.9514 67.3313L53.8129 67.4672C54.6367 68.7506 55.4692 70.7003 57.2571 69.3721C58.3483 68.5627 58.4307 66.7705 56.1948 66.4713C55.8306 65.1922 57.549 64.9538 57.5071 63.8365C58.5853 61.5717 61.6566 62.0183 62.8548 59.9111L62.875 59.9198C64.1946 60.7132 65.572 61.2509 67.1532 60.9242C68.4641 59.6538 68.9034 58.0466 68.954 56.2891C70.9225 53.8321 68.8413 53.7049 67.2384 53.3046C66.7253 51.9171 67.4263 50.7117 67.8007 49.4557C67.909 49.1912 68.0059 48.9224 68.0897 48.6492C69.5856 48.5957 71.3807 49.3112 72.271 47.1172C70.8257 46.2832 69.457 46.5839 68.1157 46.6171C67.4523 44.8105 68.5826 43.9837 69.9253 43.2712Z" fill="#FF4C4C"/>
<path d="M60.8403 1.06667C60.927 0.867216 60.5614 0.208153 60.3518 0.183583C59.6118 0.0968643 59.3401 0.705341 59.2794 1.31382C59.2432 1.66792 59.46 2.04659 59.6393 2.68831C60.1755 1.9989 60.6134 1.5812 60.8403 1.06667Z" fill="#FF4C4C"/>
<path d="M27.1083 24.0891C24.1386 24.6268 21.7378 26.9901 21.1313 29.9723C21 30.5913 21 30.7664 21 39.9945C21 49.2227 21 49.3977 21.1313 50.0167C21.669 52.6551 23.5634 54.7871 26.133 55.6499C27.1834 56 27.1396 56 34.242 56H40.7755L41.0444 55.8437C41.8196 55.3873 41.8446 54.1494 41.0881 53.6742L40.8505 53.5304L34.3796 53.4991C27.0396 53.4616 27.496 53.4929 26.3456 52.9365C25.2702 52.4113 24.5887 51.7298 24.0635 50.6544C23.4946 49.479 23.5321 50.2543 23.5321 39.9945C23.5321 29.7348 23.4946 30.51 24.0635 29.3346C24.5887 28.2593 25.2702 27.5778 26.3456 27.0526C27.521 26.4837 26.7395 26.5212 37.0367 26.5212H46.1023L46.6588 26.665C46.9589 26.74 47.4528 26.9276 47.7529 27.0839C48.772 27.609 49.4472 28.303 49.9474 29.3346C50.5038 30.485 50.4726 30.0161 50.5101 37.4437L50.5414 43.9834L50.7352 44.2272C51.2791 44.9087 52.2419 44.9087 52.7859 44.2272L52.9797 43.9834L52.9984 37.2999C53.011 30.7476 53.011 30.5976 52.8859 29.9723C52.2732 26.9713 49.8599 24.608 46.8588 24.0828C46.3774 24.0016 45.102 23.9891 36.9492 23.9953C29.1715 24.0016 27.5147 24.0141 27.1083 24.0891Z" fill="white"/>
<path d="M28.0771 30.3412C27.4956 30.635 27.2205 31.1415 27.2643 31.8667C27.2955 32.4106 27.5269 32.8108 27.9645 33.0859C28.2459 33.2547 28.3209 33.2734 28.8148 33.2734C29.3087 33.2734 29.3837 33.2547 29.6651 33.0859C29.8527 32.9671 30.0402 32.7795 30.159 32.592C30.3278 32.3106 30.3466 32.2356 30.3466 31.7417C30.3466 31.2477 30.3278 31.1727 30.159 30.8914C29.8714 30.4287 29.4775 30.2161 28.8836 30.1911C28.4709 30.1724 28.3647 30.1911 28.0771 30.3412Z" fill="white"/>
<path d="M33.3979 30.7789C33.0102 31.0102 32.8164 31.3728 32.8164 31.8668C32.8164 32.3669 33.0102 32.7296 33.4041 32.9609L33.6729 33.1172H39.7875H45.9021L46.171 32.9609C46.5649 32.7296 46.7587 32.3669 46.7587 31.8668C46.7587 31.3666 46.5649 31.004 46.171 30.7726L45.9021 30.6163H39.7813H33.6604L33.3979 30.7789Z" fill="white"/>
<path d="M27.8334 35.7806C27.4458 36.0119 27.252 36.3745 27.252 36.8685C27.252 37.3686 27.4458 37.7313 27.8397 37.9626L28.1085 38.1189H37.0053H45.9021L46.1709 37.9626C46.5648 37.7313 46.7586 37.3686 46.7586 36.8685C46.7586 36.3683 46.5648 36.0057 46.1709 35.7743L45.9021 35.618H36.999H28.096L27.8334 35.7806Z" fill="white"/>
<path d="M27.8334 40.7823C27.4458 41.0136 27.252 41.3763 27.252 41.8702C27.252 42.3703 27.4458 42.733 27.8397 42.9643L28.1085 43.1206H30.7532H33.3978L33.6666 42.9643C34.0605 42.733 34.2543 42.3703 34.2543 41.8702C34.2543 41.37 34.0605 41.0074 33.6666 40.7761L33.3978 40.6198H30.7469H28.096L27.8334 40.7823Z" fill="white"/>
<path d="M38.2123 40.7823C37.8434 41.0011 37.6309 41.3762 37.6309 41.8139C37.6309 42.3266 38.4186 46.1529 38.675 46.8906C39.0001 47.8285 39.444 48.66 40.0567 49.4665C40.4381 49.9667 44.9771 54.5433 45.5586 55.0059C46.4089 55.6874 47.3092 56 48.4471 56C49.5599 56 50.4602 55.6999 51.3043 55.0372C52.4047 54.1744 53.0111 52.8989 53.0111 51.4359C53.0111 50.2981 52.6985 49.3977 52.017 48.5475C51.4231 47.8034 46.7965 43.2644 46.2275 42.8643C45.5398 42.3766 44.6583 41.9202 43.908 41.6638C43.1577 41.4013 39.3314 40.6197 38.8188 40.6197C38.5624 40.6197 38.4061 40.6635 38.2123 40.7823ZM41.7135 43.7458C43.1327 44.0397 43.858 44.3398 44.7583 45.0025C45.3585 45.4464 50.0914 50.2168 50.2664 50.5606C50.3915 50.7982 50.4165 50.9358 50.4165 51.4359C50.4165 51.9361 50.3915 52.0737 50.2727 52.2987C49.8788 53.0365 49.2348 53.4366 48.4471 53.4366C47.5905 53.4366 47.5843 53.4304 44.6895 50.5231C43.2953 49.1164 42.0511 47.8222 41.9323 47.6534C41.3321 46.7969 41.0383 46.0591 40.7569 44.7024C40.6569 44.1897 40.5569 43.7145 40.5381 43.6333C40.5068 43.5145 40.5256 43.4957 40.6444 43.527C40.7257 43.5457 41.2008 43.6458 41.7135 43.7458Z" fill="white"/>
</g>
<defs>
<linearGradient id="paint0_linear_741_205" x1="44.1641" y1="68.5107" x2="44.1672" y2="68.5107" gradientUnits="userSpaceOnUse">
<stop stop-color="#DD1F26"/>
<stop offset="1" stop-color="#E15C25"/>
</linearGradient>
<clipPath id="clip0_741_205">
<rect width="74" height="74" fill="white"/>
</clipPath>
</defs>
</svg>
