<svg width="40" height="40" viewBox="0 0 40 40" fill="none" xmlns="http://www.w3.org/2000/svg">
<path d="M2.00781 0.710938C1.28125 0.882812 0.601562 1.4375 0.234375 2.15625L0.0390625 2.53906L0.015625 15.875L0 29.2109L0.164062 29.6641C0.390625 30.2812 1.03906 30.9219 1.67969 31.1797L2.14844 31.3672L9.03906 31.3906C14.3828 31.4062 15.9375 31.4297 15.9375 31.5078C15.9375 31.5625 15.8906 31.8828 15.8281 32.2266C15.5391 33.8828 14.7656 34.8906 13.5547 35.1953C13.4297 35.2266 12.7422 35.2734 12.0312 35.3047C10.6172 35.3594 10.3906 35.4219 9.92188 35.8828C9.78125 36.0234 9.57812 36.3203 9.46875 36.5547C9.00781 37.5625 9.53906 38.8203 10.6016 39.2188C11.0156 39.375 11.2188 39.375 20 39.375C28.7812 39.375 28.9844 39.375 29.3984 39.2188C30.1406 38.9375 30.6172 38.2891 30.6875 37.4531C30.7188 37.0547 30.6875 36.8984 30.5312 36.5547C30.4219 36.3203 30.2188 36.0234 30.0781 35.8828C29.6094 35.4219 29.3828 35.3594 27.9688 35.3047C27.2578 35.2734 26.5781 35.2266 26.4453 35.1953C25.2344 34.8906 24.4609 33.8828 24.1719 32.2266C24.1094 31.8828 24.0625 31.5625 24.0625 31.5078C24.0625 31.4297 25.6172 31.4062 30.9609 31.3906L37.8516 31.3672L38.3203 31.1797C38.9609 30.9219 39.6094 30.2812 39.8359 29.6641L40 29.2109L39.9844 15.875L39.9609 2.53906L39.7656 2.15625C39.4922 1.61719 38.9844 1.11719 38.4531 0.875L38.0078 0.664062L20.1562 0.648438C9.91406 0.648438 2.17969 0.671875 2.00781 0.710938ZM37.8594 2.17969C38.0391 2.25781 38.2656 2.44531 38.3672 2.58594L38.5547 2.85156L38.5781 13.7266L38.5938 24.6094H37.9688H37.3438V14.1562C37.3359 2.875 37.3672 3.53125 36.9219 3.35938C36.625 3.25 3.375 3.25 3.07812 3.35938C2.63281 3.53125 2.66406 2.875 2.65625 14.1562V24.6094H2.03125H1.40625L1.42188 13.7266L1.44531 2.85156L1.63281 2.58594C1.73438 2.44531 1.96094 2.25781 2.14062 2.17969C2.45312 2.03906 3.0625 2.03125 20 2.03125C36.9375 2.03125 37.5469 2.03906 37.8594 2.17969ZM35.9375 14.6484V24.6094H20H4.0625V14.6484V4.6875H20H35.9375V14.6484ZM38.5938 27.5078C38.5938 29.2266 38.5312 29.4375 37.9375 29.7734L37.6172 29.9609H20H2.38281L2.0625 29.7734C1.46875 29.4375 1.40625 29.2266 1.40625 27.5078V26.0156H20H38.5938V27.5078ZM22.7188 32.1016C22.8672 33.2344 23.2891 34.375 23.8047 35.0547L23.9922 35.3125H20H16.0078L16.1953 35.0547C16.7109 34.375 17.1328 33.2344 17.2812 32.1016L17.375 31.4062H20H22.625L22.7188 32.1016ZM28.9922 36.8203C29.1484 36.9375 29.2969 37.2188 29.2969 37.3828C29.2969 37.4531 29.1953 37.6172 29.0703 37.7422L28.8438 37.9688H20H11.1562L10.9297 37.7422C10.8047 37.6172 10.7031 37.4531 10.7031 37.3828C10.7031 37.2188 10.8516 36.9375 11.0078 36.8203C11.1875 36.6797 28.8125 36.6797 28.9922 36.8203Z" fill="white"/>
<path d="M9.10156 6.00784C9.01562 6.0469 8.875 6.15627 8.78906 6.25002C8.63281 6.4219 8.63281 6.53127 8.63281 13.0078V19.5938L8.82031 19.7969L9.00781 20H16.8359H24.6641L25.0078 21.1407C25.375 22.375 25.5 22.6172 25.8359 22.6797C26.1641 22.7422 26.4062 22.6094 26.9297 22.086L27.4219 21.6094L28.3047 22.4844C29.5391 23.7032 29.4453 23.711 30.9297 22.2266C32.0234 21.1485 32.0703 21.086 32.0703 20.7813C32.0703 20.4844 32.0156 20.4219 31.1875 19.586L30.3125 18.711L30.75 18.2813C31.2422 17.7969 31.4141 17.4844 31.3516 17.1641C31.2891 16.8282 31.0469 16.7032 29.8125 16.336L28.6719 15.9922V11.1719V6.35159L28.4688 6.16409L28.2656 5.97659L18.7656 5.96096C13.5391 5.95315 9.1875 5.97659 9.10156 6.00784ZM27.2656 8.32034V9.2969H18.6328H10V8.32034V7.34377H18.6328H27.2656V8.32034ZM27.2656 13.125C27.2656 14.4531 27.25 15.5469 27.2266 15.5469C27.2031 15.5469 26.4766 15.336 25.6094 15.0781C24 14.5938 23.7812 14.5703 23.5 14.8203C23.2266 15.0703 23.25 15.3282 23.7422 16.9453C24.0078 17.7969 24.2188 18.5235 24.2188 18.5469C24.2188 18.5703 21.0234 18.5938 17.1094 18.5938H10V14.6485V10.7031H18.6328H27.2656V13.125ZM26.6797 16.875C27.4141 17.0938 28.2969 17.3672 28.6562 17.4688L29.3047 17.6719L28.9922 18.0157C28.7109 18.3125 28.6719 18.4063 28.6719 18.711C28.6719 19.0625 28.6875 19.0938 29.5078 19.9297L30.3438 20.7891L29.9219 21.211L29.5 21.6328L28.6641 20.8203C27.8281 20 27.8203 20 27.4375 20C27.1016 20 27.0078 20.0391 26.6953 20.3125L26.3359 20.6328L26.1406 19.9844C26.0391 19.625 25.7656 18.7344 25.5469 18.0078C25.3281 17.2735 25.1328 16.6172 25.1094 16.5391C25.0703 16.4219 25.0938 16.3985 25.2109 16.4375C25.2891 16.461 25.9531 16.6563 26.6797 16.875Z" fill="white"/>
<path d="M11.7266 13.3672C11.3516 13.5156 11.3359 13.6016 11.3281 15.3359C11.3281 16.9609 11.3281 16.9609 11.5234 17.1484L11.7109 17.3438H14.6719C17.5313 17.3438 17.6328 17.3359 17.7969 17.1875C17.8906 17.1016 17.9844 16.9453 18.0156 16.8516C18.0391 16.75 18.0469 15.9922 18.0313 15.1719C18.0078 13.7344 18 13.6719 17.8281 13.5L17.6484 13.3203L14.7813 13.3047C13.0469 13.2969 11.8359 13.3203 11.7266 13.3672ZM16.6406 15.3125V15.9375H14.6875H12.7344V15.3125V14.6875H14.6875H16.6406V15.3125Z" fill="white"/>
<path d="M17.7731 27.3359C17.3044 27.5313 17.1716 28.125 17.5075 28.4844L17.6794 28.6719H19.9997H22.32L22.4919 28.4844C22.7497 28.2031 22.7419 27.7891 22.4763 27.5156L22.2653 27.3047L20.0934 27.2891C18.9059 27.2813 17.8591 27.3047 17.7731 27.3359Z" fill="white"/>
</svg>
