<svg width="74" height="74" viewBox="0 0 74 74" fill="none" xmlns="http://www.w3.org/2000/svg">
<g clip-path="url(#clip0_741_230)">
<path d="M44.1641 68.5123L44.1672 68.5107H44.1656L44.1641 68.5123Z" fill="url(#paint0_linear_741_230)"/>
<path d="M69.9253 43.2712C70.8026 43.0168 72.1742 43.1137 72.2956 42.1251C72.4575 40.8243 71.0887 41.1018 70.2317 40.95C69.4714 40.8127 68.7155 40.6436 67.9596 40.489C70.0915 35.8539 70.1276 35.5157 69.616 35.4665C65.28 35.0474 67.6518 31.7795 67.1141 29.7619C68.6071 29.5133 70.0048 29.0594 71.1841 27.9914C70.4933 27.1892 69.1766 27.9914 68.7791 26.8351C68.0825 24.0023 64.5964 24.9923 63.3664 22.8865C63.3768 22.6893 63.371 22.4916 63.3491 22.2954C63.6887 21.9514 64.0284 21.606 64.368 21.2576L65.8018 21.0047C66.8959 20.6651 67.4567 19.5435 66.786 18.9625C65.3841 17.7455 63.7119 18.1921 62.2478 19.2414C58.8195 19.451 58.1055 16.3826 56.4665 14.4401L57.6618 12.7419C59.4121 12.1189 59.4121 10.0926 60.6464 9.0491C61.369 9.39019 62.1712 9.62722 62.5744 8.69789C62.9487 7.8307 62.4458 7.18754 61.5627 7.08492C59.9728 6.90137 58.9712 7.6934 58.5203 9.20375C55.9592 12.2779 52.9038 10.2155 50.0276 10.0218C48.3699 10.0218 46.6167 10.3903 45.3708 8.81351C45.392 8.2113 45.4132 7.61005 45.4344 7.00976C47.3654 5.07015 47.6024 2.86605 46.1412 0C45.5457 3.4832 43.3835 5.20312 40.4365 6.09054L34.6524 8.67765L33.4239 7.92176C30.9062 7.42746 30.4595 4.46746 28.2627 3.58582C27.5588 3.04383 26.6988 1.78785 25.9892 2.54519C24.8749 3.73902 26.6049 4.64234 26.9865 5.72488C26.9445 7.15863 28.0719 7.9073 28.8365 8.86843L27.3015 10.5392C25.8895 10.8789 24.5771 10.5623 23.3168 9.93652L23.1 9.81367C22.824 8.69933 22.811 7.47226 21.7241 6.71781C21.5897 4.9314 21.0014 3.38348 19.2873 2.56543C19.0156 2.4368 18.2756 2.67961 18.1628 2.93109C17.274 4.96609 19.5214 5.81594 19.955 7.37687C20.0244 7.61824 20.3886 7.77867 20.617 7.97812L19.9984 10.0247C19.1413 11.1116 17.6208 11.84 18.0602 13.6264C17.6902 14.5514 16.8331 14.508 16.0599 14.6381C15.8227 14.4619 15.5428 14.3521 15.2491 14.3202C14.671 12.5858 13.3846 10.7878 11.7644 11.9975C10.3509 13.0555 11.2961 15.0182 13.0493 15.9505C13.376 16.3696 13.7069 16.7887 14.0394 17.2093C14.0567 17.5764 14.0726 17.9392 14.0899 18.3063L12.3281 20.0523C11.6676 19.9641 11.0085 19.8774 10.3495 19.7863C9.11517 19.0839 7.53545 18.3193 6.83881 19.9988C6.20865 21.5178 7.77681 21.95 9.05591 22.1407C9.23995 22.8152 9.42495 23.4873 9.61091 24.1569C8.58474 25.6369 7.55713 27.116 6.52806 28.5941C5.47443 29.1895 3.26888 27.7919 3.32814 29.8442C3.35994 31.0511 5.36025 30.5394 6.49771 30.7273L7.46896 32.4487L4.69252 35.1442C3.75306 35.1211 2.61416 35.0358 2.15744 35.9102C1.62412 36.9349 2.55056 37.7732 3.3715 38.0782C6.19998 39.1073 5.25908 40.4991 3.90771 42.0152C1.76865 45.4507 7.20736 45.1082 6.75209 47.7011C6.3792 49.4355 2.63005 49.6725 4.64627 52.4706C6.07134 53.8567 7.73345 53.0256 9.31174 52.9678C9.88986 53.8596 11.1661 55.0057 10.9449 55.6026C9.45916 59.6596 12.4235 60.5701 14.9918 61.829C15.0944 62.8624 15.304 63.8033 16.6669 63.7166C17.8145 64.6329 15.3661 68.1522 18.3276 67.7635C18.595 67.8097 18.9462 67.7418 19.4101 67.5149C21.6301 66.256 23.6868 65.4293 23.6984 69.3345C23.6984 71.8089 25.2203 71.7106 26.7971 71.0458C28.0083 70.537 28.8003 69.0324 30.4451 69.56C31.8268 70.4561 33.7852 70.0557 34.8981 71.5516C37.4852 73.523 40.1012 76.0899 42.3819 71.2206C43.2491 70.4821 44.1712 69.7869 44.3187 68.5266L47.1153 69.4559C51.0437 74.0159 49.8614 66.9555 51.9514 67.3313L53.8129 67.4672C54.6367 68.7506 55.4692 70.7003 57.2571 69.3721C58.3483 68.5627 58.4307 66.7705 56.1948 66.4713C55.8306 65.1922 57.549 64.9538 57.5071 63.8365C58.5853 61.5717 61.6566 62.0183 62.8548 59.9111L62.875 59.9198C64.1946 60.7132 65.572 61.2509 67.1532 60.9242C68.4641 59.6538 68.9034 58.0466 68.954 56.2891C70.9225 53.8321 68.8413 53.7049 67.2384 53.3046C66.7253 51.9171 67.4263 50.7117 67.8007 49.4557C67.909 49.1912 68.0059 48.9224 68.0897 48.6492C69.5856 48.5957 71.3807 49.3112 72.271 47.1172C70.8257 46.2832 69.457 46.5839 68.1157 46.6171C67.4523 44.8105 68.5826 43.9837 69.9253 43.2712Z" fill="#182E65"/>
<path d="M60.8403 1.06667C60.927 0.867216 60.5614 0.208153 60.3518 0.183583C59.6118 0.0968643 59.3401 0.705341 59.2794 1.31382C59.2432 1.66792 59.46 2.04659 59.6393 2.68831C60.1755 1.9989 60.6134 1.5812 60.8403 1.06667Z" fill="#27AE60"/>
<path d="M20.4381 23.1415C20.3385 23.2079 20.1925 23.3539 20.1261 23.4535C20.0066 23.6327 20 23.8053 20 26.0024C20 28.1994 20.0066 28.372 20.1261 28.5512C20.1925 28.6508 20.3385 28.7968 20.4381 28.8632C20.6173 28.9827 20.7899 28.9893 22.9869 28.9893C25.184 28.9893 25.3566 28.9827 25.5358 28.8632C25.9009 28.6176 25.9739 28.4251 25.9739 27.675V26.998L27.9851 27.0046C29.8901 27.0046 29.983 27.0113 29.8237 27.1175C27.3412 28.8167 25.5092 31.266 24.6198 34.0936C24.4207 34.7242 24.1485 36.0518 24.0822 36.7022C24.0357 37.1536 24.0357 37.1536 23.7635 37.2797C23.0467 37.5983 22.4227 38.3086 22.1904 39.0586C21.6926 40.6782 22.5157 42.3243 24.1021 42.8686C24.5999 43.0412 25.4893 43.0412 25.9872 42.8686C26.9032 42.5566 27.5935 41.8663 27.9054 40.957C28.078 40.4525 28.078 39.6361 27.8988 39.0586C27.6665 38.3152 26.9563 37.512 26.319 37.2731L26.1 37.1934L26.1465 36.8217C26.2925 35.5539 26.6576 34.3658 27.2682 33.1378C27.8391 32.0028 28.4298 31.1797 29.3591 30.2505C30.5207 29.0889 31.7685 28.2724 33.2156 27.7348C34.2776 27.3365 34.2643 27.3365 34.5298 27.7348C34.8285 28.1729 35.2002 28.4848 35.7312 28.7437C36.1494 28.9495 36.1959 28.9561 36.9924 28.9561C37.7889 28.9561 37.8354 28.9495 38.2535 28.7437C38.7845 28.4848 39.1562 28.1729 39.4549 27.7348C39.7204 27.3365 39.7072 27.3365 40.7692 27.7348C42.2162 28.2724 43.4641 29.0889 44.6257 30.2505C45.5549 31.1797 46.1457 32.0028 46.7165 33.1378C47.3272 34.3658 47.6923 35.5539 47.8383 36.8217L47.8847 37.1934L47.6657 37.2731C47.0285 37.512 46.3183 38.3152 46.0859 39.0586C45.5881 40.6782 46.4112 42.3243 47.9976 42.8686C48.7145 43.1142 49.8296 43.008 50.4469 42.623C51.416 42.0124 51.9271 41.1295 51.9271 40.0343C51.9271 38.8064 51.2766 37.7576 50.2212 37.2797C49.9491 37.1536 49.9491 37.1536 49.9026 36.7022C49.876 36.4566 49.7831 35.8858 49.6968 35.4278C49.053 32.182 47.1015 29.1752 44.4464 27.3432L43.9353 26.998H45.9731H48.0109V27.675C48.0109 28.4251 48.0839 28.6176 48.4489 28.8632C48.6282 28.9827 48.8007 28.9893 50.9978 28.9893C53.1949 28.9893 53.3674 28.9827 53.5467 28.8632C53.6462 28.7968 53.7923 28.6508 53.8586 28.5512C53.9781 28.372 53.9847 28.1994 53.9847 26.0024C53.9847 23.8053 53.9781 23.6327 53.8586 23.4535C53.7923 23.3539 53.6462 23.2079 53.5467 23.1415C53.3674 23.0221 53.1949 23.0154 50.9978 23.0154C48.8007 23.0154 48.6282 23.0221 48.4489 23.1415C48.0839 23.3871 48.0109 23.5796 48.0109 24.323V25.0067H43.9287H39.8532L39.7271 24.7213C39.5213 24.2766 39.2093 23.8982 38.7779 23.5796C37.2712 22.4711 35.021 23.042 34.2577 24.7213L34.1315 25.0067H30.056H25.9739V24.323C25.9739 23.5796 25.9009 23.3871 25.5358 23.1415C25.3566 23.0221 25.184 23.0154 22.9869 23.0154C20.7899 23.0154 20.6173 23.0221 20.4381 23.1415ZM23.9826 26.0024V26.998H22.9869H21.9913V26.0024V25.0067H22.9869H23.9826V26.0024ZM51.9934 26.0024V26.998H50.9978H50.0022V26.0024V25.0067H50.9978H51.9934V26.0024ZM37.4836 25.1992C37.769 25.3917 37.9216 25.6638 37.9216 26.0024C37.9216 26.3409 37.769 26.613 37.4836 26.8055C37.3641 26.8785 37.1716 26.9316 36.9924 26.9316C36.4614 26.9316 36.0631 26.5334 36.0631 26.0024C36.0631 25.4713 36.4614 25.0731 36.9924 25.0731C37.1716 25.0731 37.3641 25.1262 37.4836 25.1992ZM25.5358 39.2046C25.8212 39.3971 25.9739 39.6693 25.9739 40.0078C25.9739 40.5388 25.5756 40.9371 25.0446 40.9371C24.5136 40.9371 24.1153 40.5388 24.1153 40.0078C24.1153 39.4768 24.5136 39.0785 25.0446 39.0785C25.2238 39.0785 25.4163 39.1316 25.5358 39.2046ZM49.4313 39.2046C49.7167 39.3971 49.8694 39.6693 49.8694 40.0078C49.8694 40.5388 49.4711 40.9371 48.9401 40.9371C48.4091 40.9371 48.0109 40.5388 48.0109 40.0078C48.0109 39.8286 48.064 39.6361 48.137 39.5166C48.3295 39.2312 48.6016 39.0785 48.9401 39.0785C49.1193 39.0785 49.3118 39.1316 49.4313 39.2046Z" fill="white"/>
<path d="M36.4882 31.1464C36.3289 31.2327 35.3797 32.6067 32.2666 37.2729C30.0563 40.5851 28.1978 43.3928 28.138 43.5057C28.0185 43.738 27.9986 44.1562 28.0916 44.4084C28.1247 44.4947 28.3438 44.7735 28.5761 45.0257C30.2422 46.8444 31.3838 49.1211 31.7821 51.4244L31.8883 52.035L31.6228 52.2607C30.9856 52.8116 30.3351 53.94 30.1293 54.856C30.0696 55.1215 30.0231 55.5663 30.0231 55.8517C30.0231 56.4225 30.1227 56.6482 30.4612 56.8739C30.6471 56.9934 30.8926 57 36.9926 57C43.0926 57 43.3382 56.9934 43.5241 56.8739C43.8626 56.6482 43.9622 56.4225 43.9622 55.8517C43.9622 55.5663 43.9157 55.1215 43.856 54.856C43.6502 53.94 42.9997 52.8116 42.3625 52.2607L42.097 52.035L42.2032 51.4244C42.6015 49.1211 43.7431 46.8444 45.4092 45.0257C45.6415 44.7735 45.8605 44.4947 45.8937 44.4084C45.9867 44.1628 45.9668 43.738 45.8473 43.5123C45.6282 43.0875 37.8024 31.4052 37.6299 31.2526C37.4042 31.0402 36.8002 30.9871 36.4882 31.1464ZM35.997 38.2818V41.1294L35.7182 41.2555C34.9947 41.5808 34.3708 42.2843 34.1385 43.041C33.6406 44.6606 34.4637 46.3068 36.0501 46.851C36.767 47.0966 37.8821 46.9904 38.4994 46.6054C39.4685 45.9948 39.9796 45.112 39.9796 44.0168C39.9796 42.7822 39.3291 41.7401 38.2737 41.2555L37.9883 41.1294V38.2619V35.3945L40.8093 39.6293L43.6369 43.8641L43.1856 44.4283C41.7983 46.174 40.7761 48.298 40.3115 50.4022L40.1588 51.0726L39.9199 51.0195C39.6079 50.9465 34.3774 50.9465 34.0654 51.0195L33.8265 51.0726L33.6738 50.4022C33.2092 48.298 32.187 46.174 30.7997 44.4283L30.3484 43.8641L33.1561 39.6492C34.7027 37.326 35.9705 35.4277 35.9837 35.4277C35.9904 35.4277 35.997 36.7087 35.997 38.2818ZM37.4838 43.1871C37.7693 43.3796 37.9219 43.6517 37.9219 43.9902C37.9219 44.5212 37.5237 44.9195 36.9926 44.9195C36.6541 44.9195 36.382 44.7668 36.1895 44.4814C35.924 44.0765 36.07 43.4725 36.5015 43.1871C36.7537 43.0211 37.2316 43.0211 37.4838 43.1871ZM39.8402 53.1435C40.5903 53.4024 41.2076 53.9334 41.5726 54.6237L41.7784 55.0087H36.9926H32.2069L32.4127 54.6237C32.8707 53.7542 33.707 53.1634 34.6761 53.0174C34.8752 52.9842 36.0236 52.9709 37.225 52.9776C39.3158 52.9909 39.4353 52.9975 39.8402 53.1435Z" fill="white"/>
</g>
<defs>
<linearGradient id="paint0_linear_741_230" x1="44.1641" y1="68.5107" x2="44.1672" y2="68.5107" gradientUnits="userSpaceOnUse">
<stop stop-color="#DD1F26"/>
<stop offset="1" stop-color="#E15C25"/>
</linearGradient>
<clipPath id="clip0_741_230">
<rect width="74" height="74" fill="white"/>
</clipPath>
</defs>
</svg>
