<svg width="50" height="50" viewBox="0 0 50 50" fill="none" xmlns="http://www.w3.org/2000/svg">
<path d="M4.375 7.8125C4.375 6.90082 4.73716 6.02648 5.38182 5.38182C6.02648 4.73716 6.90082 4.375 7.8125 4.375H17.1875C18.0992 4.375 18.9735 4.73716 19.6182 5.38182C20.2628 6.02648 20.625 6.90082 20.625 7.8125V17.1875C20.625 18.0992 20.2628 18.9735 19.6182 19.6182C18.9735 20.2628 18.0992 20.625 17.1875 20.625H7.8125C6.90082 20.625 6.02648 20.2628 5.38182 19.6182C4.73716 18.9735 4.375 18.0992 4.375 17.1875V7.8125ZM29.375 7.8125C29.375 6.90082 29.7372 6.02648 30.3818 5.38182C31.0265 4.73716 31.9008 4.375 32.8125 4.375H42.1875C43.0992 4.375 43.9735 4.73716 44.6182 5.38182C45.2628 6.02648 45.625 6.90082 45.625 7.8125V17.1875C45.625 18.0992 45.2628 18.9735 44.6182 19.6182C43.9735 20.2628 43.0992 20.625 42.1875 20.625H32.8125C31.9008 20.625 31.0265 20.2628 30.3818 19.6182C29.7372 18.9735 29.375 18.0992 29.375 17.1875V7.8125ZM4.375 32.8125C4.375 31.9008 4.73716 31.0265 5.38182 30.3818C6.02648 29.7372 6.90082 29.375 7.8125 29.375H17.1875C18.0992 29.375 18.9735 29.7372 19.6182 30.3818C20.2628 31.0265 20.625 31.9008 20.625 32.8125V42.1875C20.625 43.0992 20.2628 43.9735 19.6182 44.6182C18.9735 45.2628 18.0992 45.625 17.1875 45.625H7.8125C6.90082 45.625 6.02648 45.2628 5.38182 44.6182C4.73716 43.9735 4.375 43.0992 4.375 42.1875V32.8125ZM29.375 32.8125C29.375 31.9008 29.7372 31.0265 30.3818 30.3818C31.0265 29.7372 31.9008 29.375 32.8125 29.375H42.1875C43.0992 29.375 43.9735 29.7372 44.6182 30.3818C45.2628 31.0265 45.625 31.9008 45.625 32.8125V42.1875C45.625 43.0992 45.2628 43.9735 44.6182 44.6182C43.9735 45.2628 43.0992 45.625 42.1875 45.625H32.8125C31.9008 45.625 31.0265 45.2628 30.3818 44.6182C29.7372 43.9735 29.375 43.0992 29.375 42.1875V32.8125Z" stroke="#A044FF" stroke-width="2.5"/>
</svg>
