<svg width="40" height="40" viewBox="0 0 40 40" fill="none" xmlns="http://www.w3.org/2000/svg">
<path d="M37.316 6.3679C36.952 5.5439 36.26 5.2439 35.392 5.2439C30.264 5.2559 25.14 5.2559 20.004 5.2559H4.732C3.204 5.2559 2.5 5.9479 2.5 7.4679V32.6919C2.5 33.2759 2.632 33.7919 3.06 34.2119C3.5 34.6519 4.06 34.7519 4.656 34.7519H35.436C36.712 34.7519 37.492 33.9919 37.492 32.7479C37.504 24.2559 37.504 15.7519 37.492 7.2479C37.492 6.9519 37.436 6.6319 37.316 6.3679ZM12.16 7.5559C12.776 7.5559 13.096 7.8639 13.096 8.4799C13.096 9.1079 12.808 9.4039 12.184 9.4159C11.544 9.4159 11.26 9.1399 11.26 8.5039C11.256 7.8559 11.532 7.5679 12.16 7.5559ZM8.948 7.5559C9.576 7.5559 9.852 7.8399 9.852 8.4919C9.852 9.1519 9.6 9.4039 8.948 9.4159C8.32 9.4159 8.024 9.1199 8.024 8.4919C8.024 7.8759 8.332 7.5679 8.948 7.5559ZM5.712 7.5559C6.316 7.5559 6.648 7.8639 6.656 8.4799C6.668 9.0959 6.36 9.4039 5.744 9.4159C5.096 9.4159 4.808 9.1399 4.796 8.5159C4.788 7.8879 5.096 7.5679 5.712 7.5559ZM36.58 32.5719C36.58 33.5079 36.272 33.8039 35.348 33.8039H4.612C3.732 33.8039 3.412 33.4959 3.412 32.6159V11.7359H36.576L36.58 32.5719ZM18.856 30.6239C20.184 30.3039 20.816 28.9159 20.196 27.6959C20.16 27.6239 20.152 27.4919 20.196 27.4319C20.716 26.7199 21.244 26.0199 21.776 25.3199C21.812 25.2759 21.908 25.2399 21.964 25.2559C22.528 25.3959 23.048 25.2879 23.552 24.9839C23.608 25.0239 23.656 25.0519 23.7 25.0839C24.392 25.6039 25.084 26.1199 25.768 26.6439C25.82 26.6839 25.84 26.7999 25.84 26.8799C25.84 27.1239 25.792 27.3719 25.82 27.6079C25.924 28.4559 26.548 29.1079 27.404 29.2919C28.2 29.4639 29.06 29.0879 29.496 28.3839C29.948 27.6519 29.9 26.7359 29.364 26.0719C29.268 25.9519 29.264 25.8719 29.332 25.7439C30.048 24.3239 30.76 22.8999 31.468 21.4719C31.54 21.3279 31.612 21.2759 31.788 21.2839C32.888 21.3319 33.824 20.3999 33.824 19.2839C33.824 18.1719 32.876 17.2279 31.784 17.2759C30.964 17.3119 30.336 17.6959 29.996 18.4479C29.668 19.1759 29.752 19.8839 30.248 20.5279C30.328 20.6319 30.364 20.7079 30.296 20.8439C29.568 22.2839 28.844 23.7319 28.112 25.1719C28.076 25.2399 27.964 25.3119 27.888 25.3119C27.504 25.3079 27.148 25.3839 26.816 25.5759C26.708 25.6399 26.644 25.6239 26.548 25.5519C25.884 25.0479 25.22 24.5479 24.548 24.0559C24.404 23.9479 24.356 23.8559 24.396 23.6679C24.7 22.2919 23.392 21.0159 22.02 21.3399C20.68 21.6559 20.048 23.0559 20.68 24.2839C20.712 24.3479 20.712 24.4719 20.672 24.5279C20.156 25.2319 19.632 25.9279 19.104 26.6199C19.06 26.6759 18.952 26.7039 18.876 26.7039C18.6 26.7079 18.32 26.6559 18.052 26.6959C16.968 26.8599 16.236 27.9559 16.448 29.0599C16.668 30.1439 17.792 30.8759 18.856 30.6239ZM9.636 25.5519C11.812 26.2839 13.824 25.4759 14.912 24.3039C14.904 24.2919 14.9 24.2759 14.888 24.2639L13.592 23.1399C12.78 22.4359 11.964 21.7359 11.156 21.0279C11.08 20.9599 11.016 20.8599 10.984 20.7599C10.604 19.6039 10.236 18.4479 9.86 17.2919C9.716 16.8479 9.572 16.4079 9.424 15.9519C7.688 16.6119 6.168 18.4159 6.164 20.7559C6.168 22.8719 7.588 24.8639 9.636 25.5519ZM11.724 20.7719C11.948 20.9639 12.168 21.1559 12.388 21.3479C13.1 21.9639 13.812 22.5799 14.528 23.1959C14.784 23.4199 15.044 23.6399 15.3 23.8599C17.4 21.1679 16.216 17.6359 13.98 16.3959C13.968 16.4079 13.956 16.4159 13.948 16.4279C13.196 17.8159 12.44 19.2079 11.684 20.5959C11.644 20.6799 11.668 20.7239 11.724 20.7719ZM13.472 16.1119C12.584 15.6039 10.976 15.4639 9.976 15.7919C10.432 17.2039 10.884 18.6119 11.348 20.0519C12.072 18.7159 12.772 17.4119 13.472 16.1119Z" fill="white"/>
</svg>
