<svg width="74" height="74" viewBox="0 0 74 74" fill="none" xmlns="http://www.w3.org/2000/svg">
<g clip-path="url(#clip0_741_155)">
<path d="M44.1641 68.5123L44.1672 68.5107H44.1656L44.1641 68.5123Z" fill="url(#paint0_linear_741_155)"/>
<path d="M69.9799 43.2712C70.8572 43.0168 72.2289 43.1137 72.3503 42.1251C72.5121 40.8243 71.1434 41.1018 70.2864 40.95C69.5261 40.8127 68.7702 40.6436 68.0143 40.489C70.1462 35.8539 70.1823 35.5157 69.6706 35.4665C65.3347 35.0474 67.7065 31.7795 67.1688 29.7619C68.6618 29.5133 70.0594 29.0594 71.2388 27.9914C70.548 27.1892 69.2313 27.9914 68.8338 26.8351C68.1372 24.0023 64.6511 24.9923 63.4211 22.8865C63.4315 22.6893 63.4257 22.4916 63.4038 22.2954C63.7434 21.9514 64.0831 21.606 64.4227 21.2576L65.8565 21.0047C66.9506 20.6651 67.5114 19.5435 66.8407 18.9625C65.4388 17.7455 63.7665 18.1921 62.3024 19.2414C58.8742 19.451 58.1602 16.3826 56.5212 14.4401L57.7165 12.7419C59.4667 12.1189 59.4667 10.0926 60.701 9.0491C61.4237 9.39019 62.2258 9.62722 62.6291 8.69789C63.0034 7.8307 62.5005 7.18754 61.6174 7.08492C60.0275 6.90137 59.0259 7.6934 58.575 9.20375C56.0139 12.2779 52.9585 10.2155 50.0823 10.0218C48.4246 10.0218 46.6714 10.3903 45.4255 8.81351C45.4467 8.2113 45.4679 7.61005 45.4891 7.00976C47.4201 5.07015 47.6571 2.86605 46.1959 0C45.6004 3.4832 43.4382 5.20312 40.4912 6.09054L34.7071 8.67765L33.4786 7.92176C30.9608 7.42746 30.5142 4.46746 28.3174 3.58582C27.6135 3.04383 26.7535 1.78785 26.0439 2.54519C24.9295 3.73902 26.6596 4.64234 27.0411 5.72488C26.9992 7.15863 28.1266 7.9073 28.8911 8.86843L27.3562 10.5392C25.9442 10.8789 24.6318 10.5623 23.3715 9.93652L23.1547 9.81367C22.8786 8.69933 22.8656 7.47226 21.7788 6.71781C21.6444 4.9314 21.0561 3.38348 19.342 2.56543C19.0703 2.4368 18.3303 2.67961 18.2175 2.93109C17.3286 4.96609 19.5761 5.81594 20.0097 7.37687C20.0791 7.61824 20.4433 7.77867 20.6717 7.97812L20.0531 10.0247C19.196 11.1116 17.6755 11.84 18.1149 13.6264C17.7449 14.5514 16.8878 14.508 16.1146 14.6381C15.8774 14.4619 15.5975 14.3521 15.3038 14.3202C14.7256 12.5858 13.4393 10.7878 11.8191 11.9975C10.4056 13.0555 11.3508 15.0182 13.104 15.9505C13.4306 16.3696 13.7616 16.7887 14.094 17.2093C14.1114 17.5764 14.1273 17.9392 14.1446 18.3063L12.3828 20.0523C11.7223 19.9641 11.0632 19.8774 10.4042 19.7863C9.16986 19.0839 7.59013 18.3193 6.89349 19.9988C6.26334 21.5178 7.8315 21.95 9.1106 22.1407C9.29464 22.8152 9.47964 23.4873 9.6656 24.1569C8.63943 25.6369 7.61181 27.116 6.58275 28.5941C5.52912 29.1895 3.32357 27.7919 3.38283 29.8442C3.41462 31.0511 5.41494 30.5394 6.5524 30.7273L7.52365 32.4487L4.7472 35.1442C3.80775 35.1211 2.66884 35.0358 2.21212 35.9102C1.6788 36.9349 2.60525 37.7732 3.42619 38.0782C6.25466 39.1073 5.31377 40.4991 3.9624 42.0152C1.82334 45.4507 7.26205 45.1082 6.80677 47.7011C6.43388 49.4355 2.68474 49.6725 4.70095 52.4706C6.12603 53.8567 7.78814 53.0256 9.36642 52.9678C9.94455 53.8596 11.2208 55.0057 10.9996 55.6026C9.51384 59.6596 12.4782 60.5701 15.0465 61.829C15.1491 62.8624 15.3587 63.8033 16.7216 63.7166C17.8692 64.6329 15.4208 68.1522 18.3823 67.7635C18.6497 67.8097 19.0009 67.7418 19.4648 67.5149C21.6848 66.256 23.7415 65.4293 23.7531 69.3345C23.7531 71.8089 25.275 71.7106 26.8518 71.0458C28.063 70.537 28.855 69.0324 30.4998 69.56C31.8815 70.4561 33.8399 70.0557 34.9528 71.5516C37.5399 73.523 40.1559 76.0899 42.4366 71.2206C43.3038 70.4821 44.2259 69.7869 44.3733 68.5266L47.17 69.4559C51.0984 74.0159 49.9161 66.9555 52.006 67.3313L53.8676 67.4672C54.6914 68.7506 55.5239 70.7003 57.3118 69.3721C58.403 68.5627 58.4854 66.7705 56.2495 66.4713C55.8853 65.1922 57.6037 64.9538 57.5618 63.8365C58.64 61.5717 61.7113 62.0183 62.9095 59.9111L62.9297 59.9198C64.2493 60.7132 65.6267 61.2509 67.2078 60.9242C68.5187 59.6538 68.9581 58.0466 69.0087 56.2891C70.9772 53.8321 68.896 53.7049 67.2931 53.3046C66.78 51.9171 67.481 50.7117 67.8553 49.4557C67.9637 49.1912 68.0606 48.9224 68.1444 48.6492C69.6403 48.5957 71.4354 49.3112 72.3257 47.1172C70.8804 46.2832 69.5117 46.5839 68.1704 46.6171C67.507 44.8105 68.6373 43.9837 69.9799 43.2712Z" fill="#FF7342"/>
<path d="M60.8403 1.06667C60.927 0.867216 60.5614 0.208153 60.3518 0.183583C59.6118 0.0968643 59.3401 0.705341 59.2794 1.31382C59.2432 1.66792 59.46 2.04659 59.6393 2.68831C60.1755 1.9989 60.6134 1.5812 60.8403 1.06667Z" fill="#FF7342"/>
<path d="M27.1764 24.1363C27.2529 24.5307 27.4436 24.9073 27.7489 25.2126C28.3598 25.8235 29.2549 25.9761 30.0082 25.6705C30.2591 25.5689 30.4945 25.4159 30.6982 25.2126C30.7898 25.1209 30.8678 25.0211 30.9388 24.918C30.9602 24.887 30.9787 24.8552 30.9979 24.8234C31.0212 24.7853 31.0482 24.7491 31.0689 24.7099C31.0641 24.7125 31.0589 24.7136 31.0541 24.7162C31.4754 23.9272 31.3631 22.9282 30.6982 22.2633C30.0329 21.598 29.0339 21.4857 28.2452 21.907C28.2478 21.9022 28.2489 21.897 28.2515 21.8922C28.2123 21.9129 28.1761 21.9399 28.1384 21.9632C28.1066 21.9828 28.0748 22.0012 28.0438 22.0223C27.9407 22.0933 27.8409 22.1712 27.7492 22.2629C27.5456 22.4665 27.393 22.7016 27.2913 22.9526C27.1897 23.2035 27.1387 23.4703 27.1387 23.7372C27.1383 23.8713 27.1509 24.0048 27.1764 24.1363Z" fill="white"/>
<path d="M32.2691 29.7298L38.7772 36.2383C39.5917 37.0525 40.9119 37.0525 41.7265 36.2383C41.7878 36.1769 41.8429 36.1119 41.895 36.0453C41.8902 36.0472 41.8854 36.0479 41.8806 36.0494C42.5274 35.2308 42.4823 34.0448 41.7265 33.289L35.2181 26.7809C34.6238 26.1866 33.7608 26.031 33.0209 26.3045C33.022 26.303 33.0223 26.3015 33.0235 26.3001C33.0146 26.3034 33.0057 26.3078 32.9968 26.3115C32.9669 26.323 32.9377 26.3363 32.9081 26.3492C32.8069 26.3932 32.7075 26.4438 32.6128 26.5048C32.597 26.5152 32.5822 26.527 32.5666 26.5377C32.4621 26.609 32.3615 26.6881 32.2691 26.7809C31.8618 27.1882 31.6582 27.7219 31.6582 28.2556C31.6582 28.5224 31.7092 28.7892 31.8108 29.0402C31.9128 29.2911 32.0655 29.5262 32.2691 29.7298Z" fill="white"/>
<path d="M40.5861 28.2457C40.9933 28.653 41.527 28.8567 42.0607 28.8567C42.3275 28.8567 42.5944 28.8057 42.8453 28.704C43.0963 28.6024 43.3317 28.4494 43.535 28.2457C43.535 28.2457 43.5354 28.2454 43.5354 28.245C43.6266 28.1537 43.7046 28.0543 43.7752 27.9515C43.8 27.9153 43.8207 27.878 43.8432 27.8407C43.8669 27.8007 43.895 27.7627 43.916 27.7217C43.9116 27.7239 43.9072 27.725 43.9027 27.7272C44.31 26.9418 44.1936 25.9554 43.535 25.2964L40.1178 21.8792C39.4588 21.2203 38.4724 21.1042 37.687 21.5115C37.6892 21.5071 37.6903 21.5026 37.6926 21.4982C37.6515 21.5192 37.6135 21.5473 37.5736 21.571C37.5362 21.5932 37.4989 21.6139 37.463 21.6386C37.3603 21.7092 37.2609 21.7872 37.1696 21.8785L37.1692 21.8789C36.8639 22.1841 36.6729 22.5607 36.5967 22.9551C36.4696 23.6122 36.6603 24.3189 37.1692 24.8278L40.5861 28.2457Z" fill="white"/>
<path d="M54.5458 39.741C54.5503 39.7432 54.5547 39.7444 54.5591 39.7466C54.5381 39.7055 54.51 39.6675 54.4859 39.6272C54.4638 39.5902 54.4431 39.5529 54.4183 39.5167C54.3477 39.4136 54.2697 39.3142 54.1781 39.2225C53.3639 38.4079 52.0433 38.4079 51.2291 39.2225L47.8119 42.6397C47.303 43.1486 47.1119 43.8553 47.2395 44.5124C47.316 44.9067 47.5067 45.2834 47.8119 45.5886C47.8119 45.589 47.8123 45.589 47.8123 45.589C47.904 45.6803 48.003 45.7583 48.1061 45.8289C48.142 45.8536 48.1797 45.8743 48.2166 45.8969C48.2566 45.9209 48.2946 45.9486 48.3356 45.9697C48.3334 45.9652 48.3323 45.9608 48.3301 45.9564C49.1155 46.3637 50.1019 46.2472 50.7609 45.5886L54.1781 42.1714C54.8371 41.5128 54.9531 40.5264 54.5458 39.741Z" fill="white"/>
<path d="M39.2471 42.7024C39.3236 43.0968 39.5143 43.4734 39.8196 43.7787C39.8196 43.7787 39.82 43.7787 39.82 43.779C39.8813 43.8404 39.946 43.8955 40.0125 43.9472C40.0107 43.9424 40.0099 43.9376 40.0085 43.9328C40.8271 44.5796 42.0131 44.5345 42.7689 43.7787L49.2773 37.2703C49.8716 36.6756 50.0272 35.813 49.7537 35.0731C49.7552 35.0742 49.7567 35.0749 49.7582 35.0756C49.7549 35.0668 49.7504 35.0583 49.7467 35.0494C49.7353 35.0191 49.7216 34.9903 49.7087 34.9603C49.6647 34.8591 49.614 34.76 49.5534 34.665C49.5431 34.6491 49.5312 34.6344 49.5205 34.6188C49.4496 34.5142 49.3701 34.4137 49.2773 34.3213C48.9721 34.016 48.5955 33.825 48.2011 33.7488C47.544 33.6217 46.8373 33.8124 46.3284 34.3213L39.82 40.8297C39.3107 41.3387 39.12 42.0453 39.2471 42.7024Z" fill="white"/>
<path d="M50.845 32.7525C50.9367 32.8441 51.0365 32.9221 51.1396 32.9931C51.1706 33.0145 51.2024 33.033 51.2342 33.0522C51.2723 33.0755 51.3085 33.1025 51.3473 33.1232C51.3447 33.1183 51.3436 33.1132 51.341 33.1084C52.1297 33.5297 53.1291 33.4173 53.794 32.7525C54.4592 32.0872 54.5716 31.0882 54.1502 30.2995C54.1551 30.3021 54.1602 30.3032 54.165 30.3058C54.1443 30.2666 54.1174 30.2304 54.0941 30.1927C54.0745 30.1609 54.056 30.1291 54.0346 30.0981C53.9636 29.995 53.8856 29.8952 53.794 29.8035C52.9798 28.9893 51.6592 28.9893 50.845 29.8035C50.0308 30.6177 50.0308 31.9383 50.845 32.7525Z" fill="white"/>
<path d="M46.2547 52.8982C45.6438 52.2872 44.7486 52.1346 43.9954 52.4402C43.7445 52.5419 43.5091 52.6949 43.3054 52.8982C43.2138 52.9898 43.1358 53.0896 43.0648 53.1927C43.0434 53.2238 43.0249 53.2556 43.0057 53.2873C42.9824 53.3254 42.9554 53.3616 42.9347 53.4008C42.9395 53.3982 42.9447 53.3971 42.9495 53.3945C42.5282 54.1832 42.6405 55.1826 43.3054 55.8475C43.9707 56.5127 44.9697 56.6251 45.7584 56.2038C45.7558 56.2086 45.7547 56.2137 45.7521 56.2185C45.7913 56.1978 45.8275 56.1709 45.8652 56.1476C45.897 56.128 45.9287 56.1095 45.9598 56.0885C46.0629 56.0175 46.1627 55.9395 46.2543 55.8478C47.0689 55.0329 47.0689 53.7127 46.2547 52.8982Z" fill="white"/>
<path d="M41.7367 48.3809L35.2283 41.8725C34.923 41.5672 34.5464 41.3761 34.1521 41.3C33.8893 41.249 33.6184 41.249 33.3556 41.3C32.9613 41.3765 32.5847 41.5672 32.2794 41.8725C32.218 41.9338 32.163 41.9989 32.1108 42.0654C32.1157 42.0635 32.1205 42.0628 32.1253 42.0613C31.4785 42.88 31.5239 44.066 32.2794 44.8218L38.7878 51.3302C39.3821 51.9245 40.2451 52.0801 40.985 51.8066C40.9839 51.8081 40.9832 51.8096 40.9824 51.811C40.9913 51.8077 41.0002 51.8033 41.009 51.7996C41.039 51.7881 41.0682 51.7748 41.0977 51.7615C41.199 51.7175 41.2984 51.6669 41.393 51.6063C41.4089 51.5959 41.4237 51.5841 41.4392 51.5734C41.5438 51.5024 41.6443 51.423 41.7367 51.3302C42.042 51.0249 42.2331 50.6483 42.3092 50.254C42.3857 49.8596 42.3473 49.4475 42.1947 49.0709C42.093 48.8196 41.9404 48.5845 41.7367 48.3809Z" fill="white"/>
<path d="M33.4184 49.8652C32.9095 49.3562 32.2028 49.1652 31.5457 49.2927C31.1513 49.3692 30.7747 49.5599 30.4695 49.8652C30.3778 49.9568 30.2998 50.0562 30.2292 50.1594C30.2045 50.1952 30.1838 50.2325 30.1616 50.2699C30.1376 50.3098 30.1095 50.3478 30.0884 50.3892C30.0928 50.387 30.0973 50.3859 30.1017 50.3837C29.6944 51.1691 29.8109 52.1555 30.4695 52.8145L33.8867 56.2317C34.5456 56.8907 35.5321 57.0067 36.3174 56.5994C36.3152 56.6039 36.3141 56.6083 36.3119 56.6127C36.3529 56.5917 36.391 56.5636 36.4309 56.5395C36.4682 56.5174 36.5052 56.4967 36.5414 56.4719C36.6445 56.4013 36.7439 56.3233 36.8356 56.2317C37.6498 55.4175 37.6498 54.0969 36.8356 53.2827L33.4184 49.8652Z" fill="white"/>
<path d="M23.7318 46.4344C23.6553 46.04 23.4646 45.6634 23.1593 45.3581C23.0676 45.2665 22.9678 45.1885 22.8647 45.1175C22.8337 45.0961 22.8019 45.078 22.7701 45.0584C22.732 45.0351 22.6958 45.0081 22.6566 44.9874C22.6592 44.9922 22.6603 44.9974 22.6629 45.0022C21.8742 44.5809 20.8749 44.6932 20.21 45.3585C19.5447 46.0237 19.4324 47.0227 19.8541 47.8114C19.8493 47.8089 19.8441 47.8077 19.8393 47.8052C19.86 47.8443 19.887 47.8806 19.9102 47.9186C19.9298 47.9504 19.9483 47.9822 19.9694 48.0132C20.0403 48.1164 20.1183 48.2161 20.21 48.3078C21.0245 49.122 22.3447 49.122 23.1593 48.3078C23.5666 47.9005 23.7702 47.3668 23.7702 46.8331C23.7698 46.6994 23.7573 46.5659 23.7318 46.4344Z" fill="white"/>
<path d="M34.6436 36.592C34.7456 36.3411 34.7962 36.0742 34.7962 35.8074C34.7962 35.674 34.7836 35.5405 34.7581 35.409C34.6816 35.0146 34.4909 34.638 34.1856 34.3327C34.1243 34.2714 34.0592 34.2163 33.9927 34.1642C33.9946 34.169 33.9953 34.1738 33.9968 34.1786C33.1782 33.5318 31.9922 33.5769 31.2363 34.3327L24.7279 40.8412C24.1336 41.4354 23.978 42.2984 24.2515 43.0383C24.25 43.0372 24.2486 43.0365 24.2471 43.0358C24.2504 43.0446 24.2552 43.0535 24.2585 43.0624C24.27 43.0923 24.2833 43.1215 24.2962 43.1507C24.3406 43.2523 24.3909 43.3514 24.4518 43.4464C24.4622 43.4623 24.474 43.477 24.4847 43.4926C24.5561 43.5972 24.6352 43.6977 24.7279 43.7905C25.5421 44.6047 26.8627 44.6047 27.6772 43.7905L34.1853 37.282C34.3893 37.0784 34.5419 36.843 34.6436 36.592Z" fill="white"/>
<path d="M19.5175 38.484C19.5397 38.5209 19.5604 38.5583 19.5852 38.5945C19.6558 38.6976 19.7337 38.797 19.8254 38.8887C20.1307 39.1939 20.5073 39.385 20.9016 39.4612C21.0332 39.4867 21.1666 39.4992 21.3 39.4992C21.5669 39.4992 21.8337 39.4482 22.0847 39.3466C22.3356 39.2449 22.5711 39.0919 22.7743 38.8887L26.1915 35.4715C27.0057 34.6573 27.0057 33.3367 26.1915 32.5225C26.0999 32.4309 26.0005 32.3529 25.8973 32.2823C25.8615 32.2575 25.8242 32.2368 25.7868 32.2147C25.7469 32.1906 25.7088 32.1626 25.6675 32.1415C25.6697 32.1459 25.6708 32.1504 25.673 32.1548C24.8876 31.7475 23.9012 31.8636 23.2422 32.5225L19.825 35.9397C19.1661 36.5987 19.05 37.5851 19.4573 38.3705C19.4529 38.3683 19.4484 38.3672 19.444 38.365C19.4654 38.4056 19.4935 38.4441 19.5175 38.484Z" fill="white"/>
</g>
<defs>
<linearGradient id="paint0_linear_741_155" x1="44.1641" y1="68.5107" x2="44.1672" y2="68.5107" gradientUnits="userSpaceOnUse">
<stop stop-color="#DD1F26"/>
<stop offset="1" stop-color="#E15C25"/>
</linearGradient>
<clipPath id="clip0_741_155">
<rect width="74" height="74" fill="white"/>
</clipPath>
</defs>
</svg>
