<svg width="74" height="74" viewBox="0 0 74 74" fill="none" xmlns="http://www.w3.org/2000/svg">
<g clip-path="url(#clip0_741_255)">
<path d="M44.1641 68.5123L44.1672 68.5107H44.1656L44.1641 68.5123Z" fill="url(#paint0_linear_741_255)"/>
<path d="M69.9253 43.2712C70.8026 43.0168 72.1742 43.1137 72.2956 42.1251C72.4575 40.8243 71.0887 41.1018 70.2317 40.95C69.4714 40.8127 68.7155 40.6436 67.9596 40.489C70.0915 35.8539 70.1276 35.5157 69.616 35.4665C65.28 35.0474 67.6518 31.7795 67.1141 29.7619C68.6071 29.5133 70.0048 29.0594 71.1841 27.9914C70.4933 27.1892 69.1766 27.9914 68.7791 26.8351C68.0825 24.0023 64.5964 24.9923 63.3664 22.8865C63.3768 22.6893 63.371 22.4916 63.3491 22.2954C63.6887 21.9514 64.0284 21.606 64.368 21.2576L65.8018 21.0047C66.8959 20.6651 67.4567 19.5435 66.786 18.9625C65.3841 17.7455 63.7119 18.1921 62.2478 19.2414C58.8195 19.451 58.1055 16.3826 56.4665 14.4401L57.6618 12.7419C59.4121 12.1189 59.4121 10.0926 60.6464 9.0491C61.369 9.39019 62.1712 9.62722 62.5744 8.69789C62.9487 7.8307 62.4458 7.18754 61.5627 7.08492C59.9728 6.90137 58.9712 7.6934 58.5203 9.20375C55.9592 12.2779 52.9038 10.2155 50.0276 10.0218C48.3699 10.0218 46.6167 10.3903 45.3708 8.81351C45.392 8.2113 45.4132 7.61005 45.4344 7.00976C47.3654 5.07015 47.6024 2.86605 46.1412 0C45.5457 3.4832 43.3835 5.20312 40.4365 6.09054L34.6524 8.67765L33.4239 7.92176C30.9062 7.42746 30.4595 4.46746 28.2627 3.58582C27.5588 3.04383 26.6988 1.78785 25.9892 2.54519C24.8749 3.73902 26.6049 4.64234 26.9865 5.72488C26.9445 7.15863 28.0719 7.9073 28.8365 8.86843L27.3015 10.5392C25.8895 10.8789 24.5771 10.5623 23.3168 9.93652L23.1 9.81367C22.824 8.69933 22.811 7.47226 21.7241 6.71781C21.5897 4.9314 21.0014 3.38348 19.2873 2.56543C19.0156 2.4368 18.2756 2.67961 18.1628 2.93109C17.274 4.96609 19.5214 5.81594 19.955 7.37687C20.0244 7.61824 20.3886 7.77867 20.617 7.97812L19.9984 10.0247C19.1413 11.1116 17.6208 11.84 18.0602 13.6264C17.6902 14.5514 16.8331 14.508 16.0599 14.6381C15.8227 14.4619 15.5428 14.3521 15.2491 14.3202C14.671 12.5858 13.3846 10.7878 11.7644 11.9975C10.3509 13.0555 11.2961 15.0182 13.0493 15.9505C13.376 16.3696 13.7069 16.7887 14.0394 17.2093C14.0567 17.5764 14.0726 17.9392 14.0899 18.3063L12.3281 20.0523C11.6676 19.9641 11.0085 19.8774 10.3495 19.7863C9.11517 19.0839 7.53545 18.3193 6.83881 19.9988C6.20865 21.5178 7.77681 21.95 9.05591 22.1407C9.23995 22.8152 9.42495 23.4873 9.61091 24.1569C8.58474 25.6369 7.55713 27.116 6.52806 28.5941C5.47443 29.1895 3.26888 27.7919 3.32814 29.8442C3.35994 31.0511 5.36025 30.5394 6.49771 30.7273L7.46896 32.4487L4.69252 35.1442C3.75306 35.1211 2.61416 35.0358 2.15744 35.9102C1.62412 36.9349 2.55056 37.7732 3.3715 38.0782C6.19998 39.1073 5.25908 40.4991 3.90771 42.0152C1.76865 45.4507 7.20736 45.1082 6.75209 47.7011C6.3792 49.4355 2.63005 49.6725 4.64627 52.4706C6.07134 53.8567 7.73345 53.0256 9.31174 52.9678C9.88986 53.8596 11.1661 55.0057 10.9449 55.6026C9.45916 59.6596 12.4235 60.5701 14.9918 61.829C15.0944 62.8624 15.304 63.8033 16.6669 63.7166C17.8145 64.6329 15.3661 68.1522 18.3276 67.7635C18.595 67.8097 18.9462 67.7418 19.4101 67.5149C21.6301 66.256 23.6868 65.4293 23.6984 69.3345C23.6984 71.8089 25.2203 71.7106 26.7971 71.0458C28.0083 70.537 28.8003 69.0324 30.4451 69.56C31.8268 70.4561 33.7852 70.0557 34.8981 71.5516C37.4852 73.523 40.1012 76.0899 42.3819 71.2206C43.2491 70.4821 44.1712 69.7869 44.3187 68.5266L47.1153 69.4559C51.0437 74.0159 49.8614 66.9555 51.9514 67.3313L53.8129 67.4672C54.6367 68.7506 55.4692 70.7003 57.2571 69.3721C58.3483 68.5627 58.4307 66.7705 56.1948 66.4713C55.8306 65.1922 57.549 64.9538 57.5071 63.8365C58.5853 61.5717 61.6566 62.0183 62.8548 59.9111L62.875 59.9198C64.1946 60.7132 65.572 61.2509 67.1532 60.9242C68.4641 59.6538 68.9034 58.0466 68.954 56.2891C70.9225 53.8321 68.8413 53.7049 67.2384 53.3046C66.7253 51.9171 67.4263 50.7117 67.8007 49.4557C67.909 49.1912 68.0059 48.9224 68.0897 48.6492C69.5856 48.5957 71.3807 49.3112 72.271 47.1172C70.8257 46.2832 69.457 46.5839 68.1157 46.6171C67.4523 44.8105 68.5826 43.9837 69.9253 43.2712Z" fill="#A044FF"/>
<path d="M60.8403 1.06667C60.927 0.867216 60.5614 0.208153 60.3518 0.183583C59.6118 0.0968643 59.3401 0.705341 59.2794 1.31382C59.2432 1.66792 59.46 2.04659 59.6393 2.68831C60.1755 1.9989 60.6134 1.5812 60.8403 1.06667Z" fill="#A044FF"/>
<path d="M53.8256 26.0666C53.4824 25.2847 52.83 25 52.0116 25C47.1767 25.0114 42.3457 25.0114 37.5033 25.0114H23.1044C21.6638 25.0114 21 25.668 21 27.1103V51.0453C21 51.5994 21.1245 52.0891 21.528 52.4876C21.9428 52.9051 22.4708 53 23.0327 53H52.0531C53.2561 53 53.9915 52.2788 53.9915 51.0984C54.0028 43.0404 54.0028 34.971 53.9915 26.9016C53.9915 26.6207 53.9387 26.3171 53.8256 26.0666ZM30.1077 27.1938C30.6885 27.1938 30.9902 27.4861 30.9902 28.0706C30.9902 28.6665 30.7187 28.9474 30.1304 28.9588C29.527 28.9588 29.2592 28.6969 29.2592 28.0934C29.2554 27.4785 29.5156 27.2052 30.1077 27.1938ZM27.0794 27.1938C27.6715 27.1938 27.9317 27.4633 27.9317 28.082C27.9317 28.7083 27.6941 28.9474 27.0794 28.9588C26.4873 28.9588 26.2082 28.6779 26.2082 28.082C26.2082 27.4975 26.4986 27.2052 27.0794 27.1938ZM24.0284 27.1938C24.5978 27.1938 24.9109 27.4861 24.9184 28.0706C24.9297 28.6551 24.6393 28.9474 24.0585 28.9588C23.4476 28.9588 23.1761 28.6969 23.1647 28.1048C23.1572 27.5089 23.4476 27.2052 24.0284 27.1938ZM53.1317 50.9314C53.1317 51.8196 52.8413 52.1004 51.9701 52.1004H22.9913C22.1616 52.1004 21.8599 51.8082 21.8599 50.9732V31.1602H53.1279L53.1317 50.9314ZM36.4209 49.083C37.673 48.7793 38.2689 47.4622 37.6843 46.3046C37.6504 46.2363 37.6428 46.111 37.6843 46.0541C38.1746 45.3785 38.6724 44.7142 39.174 44.05C39.2079 44.0083 39.2984 43.9741 39.3512 43.9893C39.883 44.1221 40.3733 44.0197 40.8485 43.7312C40.9013 43.7691 40.9465 43.7957 40.988 43.8261C41.6404 44.3195 42.2929 44.8091 42.9378 45.3064C42.9868 45.3443 43.0057 45.4544 43.0057 45.5303C43.0057 45.7618 42.9604 45.9972 42.9868 46.2211C43.0849 47.0258 43.6732 47.6444 44.4802 47.819C45.2307 47.9822 46.0416 47.6255 46.4526 46.9574C46.8788 46.2628 46.8335 45.3937 46.3282 44.7636C46.2377 44.6497 46.2339 44.5738 46.298 44.4524C46.9731 43.1049 47.6444 41.7537 48.3119 40.3987C48.3798 40.262 48.4477 40.2127 48.6136 40.2203C49.6507 40.2658 50.5332 39.3815 50.5332 38.3225C50.5332 37.2673 49.6394 36.3716 48.6098 36.4171C47.8367 36.4513 47.2446 36.8156 46.9241 37.5292C46.6148 38.22 46.694 38.8918 47.1617 39.5029C47.2371 39.6016 47.271 39.6737 47.2069 39.8028C46.5205 41.1692 45.8379 42.5432 45.1478 43.9096C45.1138 43.9741 45.0082 44.0424 44.9366 44.0424C44.5745 44.0386 44.2389 44.1108 43.9259 44.2929C43.824 44.3537 43.7637 44.3385 43.6732 44.2702C43.0471 43.7919 42.4211 43.3175 41.7875 42.8506C41.6518 42.7481 41.6065 42.6608 41.6442 42.4824C41.9308 41.1768 40.6976 39.966 39.404 40.2734C38.1407 40.5733 37.5448 41.9017 38.1407 43.067C38.1708 43.1277 38.1708 43.2454 38.1331 43.2985C37.6466 43.9665 37.1526 44.6269 36.6548 45.2836C36.6133 45.3367 36.5114 45.3633 36.4398 45.3633C36.1796 45.3671 35.9156 45.3177 35.6629 45.3557C34.6409 45.5113 33.9507 46.5513 34.1506 47.5989C34.358 48.6275 35.4178 49.3221 36.4209 49.083ZM27.728 44.2702C29.7796 44.9648 31.6766 44.198 32.7024 43.0859C32.6949 43.0746 32.6911 43.0594 32.6798 43.048L31.4579 41.9814C30.6923 41.3134 29.9229 40.6492 29.1611 39.9774C29.0895 39.9128 29.0291 39.8179 28.999 39.7231C28.6407 38.6261 28.2937 37.5292 27.9392 36.4323C27.8035 36.011 27.6677 35.5935 27.5282 35.1608C25.8914 35.787 24.4583 37.4988 24.4545 39.7193C24.4583 41.7271 25.7971 43.6173 27.728 44.2702ZM29.6967 39.7344C29.9079 39.9166 30.1153 40.0988 30.3227 40.281C30.994 40.8655 31.6653 41.45 32.3404 42.0346C32.5817 42.2471 32.8269 42.4559 33.0682 42.6646C35.0482 40.1102 33.9319 36.7587 31.8237 35.5821C31.8124 35.5935 31.8011 35.6011 31.7935 35.6124C31.0845 36.9295 30.3717 38.2504 29.659 39.5674C29.6212 39.6471 29.6439 39.6889 29.6967 39.7344ZM31.3447 35.3126C30.5075 34.8306 28.9914 34.6977 28.0486 35.0089C28.4785 36.3488 28.9047 37.6848 29.3422 39.0512C30.0248 37.7835 30.6848 36.5462 31.3447 35.3126Z" fill="white"/>
</g>
<defs>
<linearGradient id="paint0_linear_741_255" x1="44.1641" y1="68.5107" x2="44.1672" y2="68.5107" gradientUnits="userSpaceOnUse">
<stop stop-color="#DD1F26"/>
<stop offset="1" stop-color="#E15C25"/>
</linearGradient>
<clipPath id="clip0_741_255">
<rect width="74" height="74" fill="white"/>
</clipPath>
</defs>
</svg>
