<svg width="66" height="66" viewBox="0 0 66 66" fill="none" xmlns="http://www.w3.org/2000/svg">
<path d="M46.0284 38.2122C49.1166 30.7159 45.5432 22.1354 38.0468 19.0472C30.5505 15.9589 21.97 19.5324 18.8818 27.0287C15.7935 34.5251 19.367 43.1056 26.8634 46.1938C34.3597 49.282 42.9402 45.7086 46.0284 38.2122Z" fill="#E9004F"/>
<path d="M32.4597 47.3301C30.5297 47.3351 28.6178 46.9577 26.8345 46.2197C25.0511 45.4816 23.4317 44.3975 22.0697 43.0301C20.3678 41.326 19.1103 39.2302 18.4076 36.9267C17.7049 34.6231 17.5786 32.1822 18.0397 29.8184C18.5008 27.4546 19.5353 25.2402 21.0522 23.3696C22.5691 21.499 24.5221 20.0295 26.7397 19.0901C28.9729 18.1467 31.4048 17.7704 33.8187 17.9945C36.2326 18.2186 38.5536 19.0362 40.575 20.3746C42.5964 21.7129 44.2554 23.5304 45.4042 25.6652C46.5531 27.8 47.1562 30.1858 47.1597 32.6101C47.1558 35.5028 46.3003 38.3304 44.6997 40.74C43.0992 43.1497 40.8246 45.0348 38.1597 46.1601C36.3568 46.9265 34.4187 47.3243 32.4597 47.3301Z" fill="#E9004F"/>
<path d="M30.3697 65.46C30.2897 65.46 30.2197 62.75 30.2197 59.46C30.2197 56.17 30.2897 53.4 30.3697 53.4C30.5305 55.4158 30.5839 57.4386 30.5297 59.46C30.5821 61.4614 30.5287 63.4642 30.3697 65.46Z" fill="#E9004F"/>
<path d="M30.3702 65.48C30.3702 65.48 30.2902 65.48 30.2502 63.69C30.2502 62.55 30.2002 61.03 30.2002 59.41C30.2002 57.79 30.2002 56.27 30.2502 55.12C30.2502 53.34 30.3402 53.34 30.3702 53.34C30.4002 53.34 30.4502 53.34 30.5002 55.12C30.5002 56.27 30.5002 57.79 30.5002 59.41C30.5002 61.03 30.5002 62.55 30.5002 63.69C30.4502 65.48 30.4002 65.48 30.3702 65.48ZM30.3702 53.38C30.3002 53.6 30.2302 55.9 30.2302 59.38C30.2302 62.86 30.3002 65.18 30.3702 65.38C30.4402 65.15 30.5102 62.85 30.5102 59.38C30.5102 55.91 30.4402 53.61 30.3702 53.38Z" fill="#E9004F"/>
<path d="M21.9103 49.94C21.9803 49.94 20.6003 52.51 18.8303 55.59C17.8058 57.4767 16.6843 59.3091 15.4703 61.08C15.4003 61.08 16.7803 58.51 18.5603 55.43C20.3403 52.35 21.8403 49.89 21.9103 49.94Z" fill="#E9004F"/>
<path d="M15.4797 61.1C15.4797 61.1 15.4097 61.1 16.3197 59.39C16.8997 58.32 17.6997 56.91 18.5597 55.39C19.4197 53.87 20.2397 52.52 20.8697 51.48C21.7597 50.01 21.8697 49.89 21.8697 49.89C21.8697 49.89 21.9397 49.89 21.0297 51.6C20.4397 52.67 19.6497 54.08 18.7897 55.6C17.2697 58.23 15.5697 61.06 15.4297 61.1H15.4797ZM21.8997 49.96C21.7197 50.14 20.4297 52.22 18.5697 55.44C16.7097 58.66 15.5697 60.81 15.4897 61.06C15.6697 60.88 16.9497 58.8 18.8097 55.58C20.6697 52.36 21.8297 50.21 21.8997 49.96Z" fill="#E9004F"/>
<path d="M13.2297 44.53C12.1569 45.5834 11.0107 46.5592 9.79968 47.45C8.65607 48.4255 7.44653 49.321 6.17969 50.13C7.25574 49.0803 8.4017 48.1048 9.60969 47.21C10.749 46.2292 11.9589 45.3334 13.2297 44.53Z" fill="#E9004F"/>
<path d="M6.18016 50.15C6.18016 50.15 6.18016 50.09 7.18016 49.23C7.83016 48.67 8.70016 47.96 9.65016 47.23C10.7993 46.2584 12.0083 45.36 13.2702 44.54C12.1894 45.5877 11.0438 46.5663 9.84016 47.47C8.90016 48.21 8.00016 48.91 7.32016 49.41C6.97694 49.7092 6.59314 49.9583 6.18016 50.15ZM13.1802 44.55C11.9343 45.3719 10.7357 46.2633 9.59016 47.22C8.39272 48.1208 7.24753 49.0891 6.16016 50.12C7.41388 49.3012 8.61615 48.4062 9.76016 47.44C10.9638 46.5426 12.1156 45.5777 13.2102 44.55H13.1802Z" fill="#E9004F"/>
<path d="M45.0296 59.5C44.8523 59.0169 44.7217 58.518 44.6396 58.01C44.4296 57.08 44.1296 55.81 43.7596 54.41C43.3896 53.01 42.9996 51.77 42.7596 50.86C42.5754 50.3811 42.4381 49.8854 42.3496 49.38C42.604 49.8275 42.8117 50.3 42.9696 50.79C43.2996 51.68 43.7196 52.93 44.0896 54.33C44.4596 55.73 44.7396 57.03 44.8996 57.96C44.9972 58.4673 45.0408 58.9835 45.0296 59.5Z" fill="#E9004F"/>
<path d="M45.0298 59.51C44.9798 59.51 44.9198 59.29 44.6298 58.01C44.4298 57.15 44.1198 55.84 43.7398 54.42C43.3598 53 42.9598 51.69 42.7398 50.86C42.3698 49.65 42.2898 49.39 42.3398 49.37C42.3898 49.35 42.3898 49.37 42.5598 49.75C42.7298 50.13 42.8198 50.38 42.9798 50.75C43.2098 51.36 43.6598 52.63 44.1098 54.3C44.5598 55.97 44.7998 57.3 44.9098 57.93C45.0203 58.4359 45.0773 58.9521 45.0798 59.47L45.0298 59.51ZM42.3098 49.4C42.3098 49.51 42.4998 50.1 42.7298 50.84C42.9898 51.66 43.3798 52.94 43.7298 54.39C44.0798 55.84 44.4198 57.12 44.6198 57.98C44.7138 58.476 44.8339 58.9667 44.9798 59.45C44.963 58.9457 44.9028 58.4439 44.7998 57.95C44.6898 57.31 44.4498 55.95 43.9998 54.32C43.5498 52.69 43.0998 51.38 42.8698 50.77C42.7198 50.2977 42.5291 49.8393 42.2998 49.4H42.3098Z" fill="#E9004F"/>
<path d="M59.9097 48.93C58.3978 47.8144 56.9489 46.6159 55.5697 45.34C54.1202 44.1442 52.738 42.8689 51.4297 41.52C52.9416 42.6356 54.3905 43.8341 55.7697 45.11C57.2163 46.3093 58.5982 47.5844 59.9097 48.93Z" fill="#E9004F"/>
<path d="M59.9003 48.95C59.7503 48.95 57.5603 47.1 55.5603 45.35C54.4303 44.35 53.3703 43.42 52.5603 42.7C51.3403 41.57 51.3703 41.53 51.3903 41.51C52.898 42.6345 54.3466 43.8361 55.7303 45.11C56.8603 46.11 57.9203 47.04 58.7303 47.76C59.9503 48.89 59.9203 48.93 59.9003 48.95ZM51.4503 41.54C51.5603 41.72 53.1303 43.19 55.5803 45.33C58.0303 47.47 59.6903 48.83 59.8903 48.91C59.7803 48.73 58.2203 47.27 55.7603 45.12C53.3003 42.97 51.6503 41.61 51.4503 41.54Z" fill="#E9004F"/>
<path d="M65.6098 34.4101C65.0141 34.3679 64.4224 34.281 63.8398 34.1501C62.7498 33.9701 61.2498 33.7401 59.5798 33.5501C57.9098 33.3601 56.3898 33.2401 55.2898 33.1701C54.6935 33.166 54.0984 33.1158 53.5098 33.0201C54.1028 32.9383 54.7026 32.9182 55.2998 32.9601C56.4098 32.9601 57.9398 33.0501 59.6198 33.2401C61.0508 33.4002 62.4727 33.6338 63.8798 33.9401C64.4705 34.0395 65.05 34.1969 65.6098 34.4101Z" fill="#E9004F"/>
<path d="M65.5603 34.43C65.4303 34.43 65.0703 34.37 64.1903 34.23L63.8403 34.1699C62.3503 33.9199 60.9203 33.7199 59.5803 33.5599C58.2403 33.3999 56.8003 33.29 55.2903 33.19H54.9403C53.7303 33.11 53.4903 33.09 53.5003 33.04C54.0968 32.9611 54.6994 32.9377 55.3003 32.97C56.0603 32.97 57.6403 33.03 59.6203 33.26C61.0552 33.4158 62.4807 33.6495 63.8903 33.96C64.481 34.0594 65.0605 34.2169 65.6203 34.43C65.6203 34.43 65.6103 34.43 65.5603 34.43ZM53.5603 33.02C53.6603 33.02 54.2203 33.09 54.9603 33.14H55.3103C56.8303 33.23 58.3103 33.36 59.6003 33.51C60.8903 33.66 62.3803 33.87 63.8603 34.12L64.2103 34.18C64.9203 34.3 65.4503 34.3799 65.5903 34.3799C65.0301 34.1949 64.459 34.0446 63.8803 33.93C61.0575 33.331 58.1851 32.9962 55.3003 32.93C54.7123 32.9212 54.1243 32.9513 53.5403 33.02H53.5603Z" fill="#E9004F"/>
<path d="M65.6304 20.13C65.6304 20.21 62.4704 21.0601 58.5304 22.0201C54.5904 22.9801 51.3804 23.6901 51.3604 23.6101C51.3404 23.5301 54.5204 22.6801 58.4604 21.7201C62.4004 20.7601 65.6104 20.05 65.6304 20.13Z" fill="#E9004F"/>
<path d="M51.3896 23.61C51.3896 23.61 51.3896 23.53 53.4596 22.98C54.7996 22.62 56.5896 22.17 58.4596 21.7C60.3296 21.23 62.1596 20.82 63.4596 20.52C65.5796 20.05 65.5897 20.1 65.5997 20.13C65.5997 20.13 65.5997 20.2 63.5197 20.76C62.1797 21.12 60.3897 21.57 58.5197 22.03C56.6497 22.49 54.8196 22.92 53.4596 23.22C52.7774 23.3882 52.0863 23.5184 51.3896 23.61ZM65.5997 20.12C65.3097 20.12 62.5996 20.71 58.4596 21.71C54.3196 22.71 51.6496 23.44 51.3896 23.58C51.6796 23.58 54.3896 22.99 58.5296 21.98C62.6696 20.97 65.3397 20.27 65.5997 20.14V20.12Z" fill="#E9004F"/>
<path d="M49.0303 3.48999C49.1003 3.53999 47.5803 5.96 45.6403 8.91C43.7003 11.86 42.0303 14.2 42.0303 14.16C42.0303 14.12 43.4803 11.68 45.4303 8.73999C46.5422 6.93118 47.7437 5.179 49.0303 3.48999Z" fill="#E9004F"/>
<path d="M42.0298 14.17C42.0298 14.03 43.7598 11.27 45.4298 8.73999C46.3798 7.31999 47.2798 5.98999 47.9598 4.98999C49.0298 3.46999 49.0798 3.46999 49.1098 3.48999C49.1098 3.48999 49.1798 3.48999 48.1698 5.12999C47.5298 6.12999 46.6598 7.49999 45.7198 8.92999C44.7798 10.36 43.8798 11.68 43.1898 12.67C42.1598 14.05 42.0298 14.17 42.0298 14.17ZM49.0298 3.51999C48.8398 3.67999 47.4398 5.65999 45.3998 8.74999C43.3598 11.84 42.0798 13.9 42.0098 14.13C42.1998 13.97 43.5898 11.99 45.6298 8.89999C47.6698 5.80999 48.9498 3.74999 49.0298 3.51999Z" fill="#E9004F"/>
<path d="M32.58 0.0200195C32.6256 0.685909 32.6256 1.35413 32.58 2.02002C32.58 3.27002 32.58 5.02002 32.58 6.88002C32.58 8.74002 32.5801 10.49 32.6301 11.73C32.6814 12.3957 32.6814 13.0643 32.6301 13.73C32.5109 13.0697 32.444 12.4009 32.43 11.73C32.35 10.49 32.29 8.73002 32.29 6.87002C32.29 5.01002 32.35 3.25002 32.42 2.00002C32.4146 1.33658 32.4681 0.673971 32.58 0.0200195Z" fill="#E9004F"/>
<path d="M32.5903 13.77C32.5903 13.77 32.5403 13.77 32.4903 13.22C32.4903 12.85 32.4103 12.34 32.3803 11.75C32.3203 10.92 32.2403 9.17 32.2303 6.89C32.2203 4.61 32.3103 2.89 32.3603 2.02C32.3603 1.43 32.4403 0.919999 32.4803 0.549999C32.5303 0.0199993 32.5603 0 32.5703 0C32.5703 0 32.6303 0.19 32.5703 2C32.5703 3.17 32.5703 5 32.5703 6.86C32.5703 8.72 32.5703 10.4 32.6203 11.63V11.71C32.6203 13.56 32.6203 13.71 32.6203 13.71L32.5903 13.77ZM32.5903 0.0499992C32.4864 0.711987 32.4263 1.3801 32.4103 2.05C32.3603 2.89 32.2703 4.64 32.2703 6.92C32.2703 9.2 32.3603 10.92 32.4203 11.78C32.443 12.4495 32.5031 13.1172 32.6003 13.78C32.6003 13.61 32.6003 12.53 32.6003 11.78V11.71C32.6003 10.47 32.5503 8.78 32.5503 6.93C32.5503 5.08 32.5503 3.24 32.5503 2.07C32.5903 1.3 32.6103 0.219999 32.5803 0.0499992H32.5903Z" fill="#E9004F"/>
<path d="M20.1095 15.54C20.0395 15.54 18.4895 13.19 16.6495 10.19C14.8095 7.18996 13.3895 4.71996 13.4595 4.66996C13.5295 4.61996 15.0795 7.01996 16.9195 10.03C18.7595 13.04 20.1795 15.5 20.1095 15.54Z" fill="#E9004F"/>
<path d="M20.1099 15.6099C20.1099 15.6099 19.9399 15.4899 19.0299 14.0699C18.3799 13.0699 17.5299 11.6999 16.6399 10.2499C15.0699 7.66994 13.4099 4.85994 13.4499 4.71994C13.4899 4.57994 13.4499 4.71994 13.4499 4.71994C13.4499 4.71994 13.5099 4.71994 14.5299 6.25994C15.1899 7.25994 16.0299 8.62994 16.9199 10.0799C17.8099 11.5299 18.6299 12.9099 19.2299 13.9499C20.1699 15.5799 20.1299 15.5999 20.1099 15.6199V15.6099ZM13.4799 4.74994C13.5399 4.97994 14.7399 7.07994 16.6699 10.2299C18.5999 13.3799 19.9099 15.3999 20.0899 15.5699C20.0299 15.3299 18.8299 13.2299 16.9099 10.0899C14.9899 6.94994 13.6599 4.85993 13.4799 4.69993V4.74994Z" fill="#E9004F"/>
<path d="M12.6596 21.87C12.1316 21.8555 11.6075 21.7748 11.0996 21.63C10.0996 21.43 8.82961 21.11 7.40961 20.69C5.98961 20.27 4.69961 19.82 3.78961 19.47C3.28675 19.3123 2.80359 19.0976 2.34961 18.83C2.86788 18.9331 3.37639 19.0803 3.86961 19.27C4.78961 19.56 6.06961 19.97 7.48961 20.39C8.90961 20.81 10.2096 21.16 11.1496 21.39C11.665 21.5092 12.17 21.6697 12.6596 21.87Z" fill="#E9004F"/>
<path d="M12.6101 21.9H12.2301C11.9401 21.9 11.5501 21.78 11.1001 21.68C10.4501 21.55 9.1001 21.24 7.4001 20.74C5.7001 20.24 4.4001 19.74 3.7901 19.53L2.7201 19.09C2.3201 18.91 2.3301 18.89 2.3301 18.87C2.3301 18.85 2.55009 18.87 3.87009 19.29C4.61009 19.53 6.0001 19.97 7.5001 20.41C9.0001 20.85 10.1001 21.16 11.1501 21.41C12.4901 21.77 12.6901 21.84 12.6801 21.89C12.6801 21.89 12.6701 21.9 12.6101 21.9ZM2.37009 18.84C2.83045 19.0824 3.30848 19.2896 3.80009 19.46C4.42009 19.7 5.7001 20.17 7.4101 20.67C9.1201 21.17 10.4601 21.48 11.1001 21.61C11.5966 21.7326 12.1012 21.8195 12.6101 21.87C12.1251 21.6966 11.631 21.5497 11.1301 21.43C10.0701 21.14 8.8401 20.81 7.4701 20.43C6.1001 20.05 4.5801 19.55 3.8401 19.31C3.2801 19.1 2.50009 18.85 2.37009 18.84Z" fill="#E9004F"/>
<path d="M9.40976 33.15C7.86193 33.4586 6.29504 33.6624 4.71976 33.76C3.15763 33.9589 1.58451 34.0591 0.00976562 34.06C1.55414 33.7509 3.11775 33.5471 4.68977 33.45C6.25522 33.2508 7.83168 33.1506 9.40976 33.15Z" fill="#E9004F"/>
</svg>
