<svg width="50" height="50" viewBox="0 0 50 50" fill="none" xmlns="http://www.w3.org/2000/svg">
<path d="M40.3219 4.30664C38.9059 6.57227 37.734 8.4668 37.7145 8.51562C37.6949 8.55469 38.1637 8.59375 38.7594 8.59375H39.8434V9.375V10.1562H40.6246H41.4059V8.59375V7.03125H40.9566C40.7125 7.03125 40.527 6.99219 40.5465 6.95312C40.6344 6.71875 42.9098 3.125 42.9586 3.125C43.0074 3.125 45.3121 6.73828 45.3902 6.95312C45.4098 6.99219 45.2242 7.03125 44.9801 7.03125H44.5309V14.0625V21.0938H45.3121H46.0934V14.8438V8.59375H47.1676C47.7633 8.59375 48.2418 8.57422 48.2418 8.55469C48.2418 8.45703 43.0563 0.244141 42.9781 0.214844C42.9391 0.205078 41.7379 2.04102 40.3219 4.30664Z" fill="#E9004F"/>
<path d="M8.59375 1.70898C8.59375 2.56836 8.57422 2.66602 8.34961 2.88086C7.94922 3.29102 7.67578 3.20312 6.89453 2.44141L6.20117 1.76758L3.98438 3.97461L1.76758 6.19141L2.44141 6.89453C3.20312 7.67578 3.29102 7.94922 2.88086 8.34961C2.66602 8.57422 2.56836 8.59375 1.70898 8.59375H0.78125V11.7188V14.8438H1.70898C2.56836 14.8438 2.66602 14.8633 2.88086 15.0879C3.29102 15.4883 3.20312 15.7617 2.44141 16.543L1.76758 17.2363L3.97461 19.4531L6.19141 21.6699L6.89453 20.9961C7.64648 20.2637 7.91016 20.166 8.30078 20.4883C8.49609 20.6445 8.54492 20.8203 8.65234 21.9336C8.87695 24.1211 9.36523 25.8594 10.2539 27.6465C11.6992 30.5176 13.9062 32.7344 16.9336 34.3262L17.9492 34.873L17.9883 36.084C18.0176 37.3926 18.0859 37.5781 18.6914 38.0273C18.9355 38.2129 19.1211 38.2324 20.8105 38.2617L22.6562 38.291V38.623C22.6562 38.9453 22.6758 38.9551 23.125 39.0234C23.7109 39.1016 24.1992 39.3066 24.4922 39.5801L24.7266 39.7949L21.8457 39.8438C19.1211 39.8926 18.9453 39.9023 18.6914 40.0977C18.0664 40.5566 18.0176 40.7129 18.0273 42.168C18.0371 43.3301 18.0762 43.6133 18.291 44.2871C18.4375 44.7168 18.7109 45.3516 18.916 45.7031C19.3945 46.5137 20.6738 47.793 21.4844 48.2715C23.2715 49.3066 25.5664 49.4824 27.5586 48.7305C28.3008 48.457 29.4238 47.7051 30.0293 47.0801C30.293 46.8066 30.5957 46.582 30.6934 46.582C31.1035 46.582 31.6699 46.8262 32.0703 47.1875C32.5293 47.5879 32.7441 48.0273 32.8516 48.75L32.9199 49.2188H35.9375H38.9551L39.0234 48.75C39.1309 48.0176 39.3457 47.5879 39.8047 47.1777C40.7422 46.3574 41.7578 46.3965 43.0176 47.3145C43.2129 47.4512 43.3301 47.3438 45.3418 45.332L47.4609 43.2129L47.1191 42.7344C46.3867 41.6992 46.4062 40.6836 47.1875 39.8047C47.5879 39.3457 48.0273 39.1309 48.7598 39.0234L49.2188 38.9551V35.9375V32.9199L48.7598 32.8516C48.0176 32.7441 47.5879 32.5293 47.1777 32.0703C46.3574 31.1328 46.3965 30.1172 47.3145 28.8574C47.4512 28.6621 47.3438 28.5449 45.332 26.543L43.2129 24.4238L42.6465 24.8047C42.0801 25.1953 41.4258 25.3711 40.9766 25.2539L40.752 25.1953L40.9668 24.2871C41.3477 22.7344 41.4062 21.6406 41.4062 16.5527V11.7188H40.625H39.8438V12.8613V14.0137L39.3945 13.2227C38.3789 11.416 36.7285 9.58008 35.0488 8.37891C33.2812 7.10938 30.9082 6.08398 28.8574 5.70312C27.666 5.48828 23.8867 5.40039 22.3242 5.56641L21.1719 5.68359L19.1992 3.7207L17.2363 1.76758L16.543 2.44141C15.7617 3.20312 15.4883 3.29102 15.0879 2.88086C14.8633 2.66602 14.8438 2.56836 14.8438 1.70898V0.78125H11.7188H8.59375V1.70898ZM13.3203 2.74414C13.5742 4.35547 15.4102 5.17578 16.8066 4.30664L17.2656 4.02344L18.3105 5.07812C18.8867 5.6543 19.3164 6.15234 19.2773 6.17188C19.2285 6.20117 19.0137 6.2793 18.7988 6.34766C18.584 6.41602 17.9395 6.68945 17.373 6.95312L16.3379 7.44141L15.7129 6.93359C13.1348 4.85352 9.62891 5.00977 7.32422 7.32422C4.90234 9.74609 4.86328 13.5742 7.22656 16.0156C7.62695 16.4258 8.69141 17.2363 8.95508 17.334C8.96484 17.334 8.91602 17.6953 8.83789 18.1152C8.75977 18.5449 8.70117 18.9062 8.69141 18.916C8.69141 18.9258 8.55469 18.8867 8.38867 18.8281C7.92969 18.6719 7.1582 18.7988 6.63086 19.1309L6.17188 19.4141L5.09766 18.3203L4.02344 17.2363L4.30664 16.8066C4.79492 16.0449 4.78516 15.0488 4.26758 14.2773C3.97461 13.8379 3.29102 13.3984 2.77344 13.3203L2.34375 13.2617V11.7188V10.1758L2.77344 10.1172C4.3457 9.88281 5.17578 7.97852 4.30664 6.63086L4.02344 6.20117L5.09766 5.11719L6.17188 4.02344L6.63086 4.30664C8.02734 5.17578 9.86328 4.35547 10.1172 2.74414L10.1855 2.34375H11.7188H13.252L13.3203 2.74414ZM12.6074 7.12891C13.2422 7.25586 14.1895 7.68555 14.6387 8.07617L14.9609 8.34961L14.3652 8.82812L13.7598 9.29688L13.1543 8.97461C12.5977 8.67188 12.4805 8.64258 11.7188 8.65234C10.7422 8.65234 10.1465 8.88672 9.52148 9.52148C8.89648 10.1367 8.65234 10.7422 8.65234 11.6699C8.64258 12.6172 8.92578 13.3203 9.57031 13.9453L9.99023 14.3457L9.72656 15.0391C9.57031 15.4199 9.39453 15.7227 9.31641 15.7227C9.24805 15.7227 8.90625 15.459 8.56445 15.1367C6.61133 13.3105 6.52344 10.4199 8.36914 8.48633C9.47266 7.33398 11.0254 6.83594 12.6074 7.12891ZM28.8574 7.30469C31.6406 7.91992 33.8184 9.10156 35.8008 11.0742C37.8125 13.0957 39.0527 15.4199 39.6191 18.2324C39.8535 19.4238 39.8535 22.0801 39.6191 23.2715C39.0625 26.0449 37.6465 28.6621 35.6543 30.6152L35.1562 31.0938V26.0938V21.0938H32.8125H30.4688V28.9062V36.7188H28.9062H27.3438V32.8125V28.9062H25H22.6562V32.8125V36.7188H21.0938H19.5312V32.0312V27.3438H17.1875H14.8438V29.2188V31.0938L14.3457 30.6152C8.94531 25.3418 8.75977 16.7578 13.9355 11.3184C16.1328 9.01367 18.9844 7.55859 22.168 7.12891C22.5195 7.08008 23.9648 7.06055 25.3906 7.08008C27.5293 7.09961 28.1348 7.13867 28.8574 7.30469ZM12.3047 10.3027L12.5879 10.4492L11.9824 11.2109C11.6504 11.6211 11.2402 12.168 11.084 12.4219C10.918 12.6855 10.7617 12.8906 10.7227 12.8906C10.6055 12.8906 10.2539 12.3242 10.1953 12.0215C9.95117 10.8105 11.25 9.75586 12.3047 10.3027ZM33.5938 27.4414V32.2266L33.2324 32.4512C33.0273 32.5781 32.6758 32.7832 32.4512 32.9004L32.0312 33.1055V27.8809V22.6562H32.8125H33.5938V27.4414ZM44.209 27.6562L45.4102 28.8574L45.2051 29.4922C44.6484 31.2402 45.5371 33.252 47.1875 34.0137L47.6562 34.2285V35.9375V37.6465L47.1875 37.8613C45.5371 38.623 44.6484 40.6348 45.2051 42.3828L45.4102 43.0176L44.209 44.209L43.0176 45.4102L42.3828 45.2051C40.6348 44.6484 38.623 45.5371 37.8613 47.1875L37.6465 47.6562H35.9375H34.2285L34.0137 47.1875C33.6523 46.416 33.0859 45.8496 32.2461 45.4395C31.8359 45.2441 31.4746 45.0684 31.4648 45.0586C31.4453 45.0391 31.5137 44.7852 31.6309 44.4824C31.748 44.1797 31.8359 43.8477 31.8359 43.75C31.8359 43.5059 31.8164 43.5059 32.4902 43.7988C34.4922 44.6875 37.041 44.7461 39.0527 43.9355C44.082 41.9336 46.0547 35.957 43.2031 31.377C42.5684 30.3516 41.4551 29.2578 40.4102 28.6133C39.9316 28.3301 39.5508 28.0762 39.5508 28.0664C39.5508 28.0469 39.6875 27.7539 39.8535 27.4121L40.1562 26.7969H41.1523C41.8262 26.7969 42.2656 26.748 42.5293 26.6309C42.7441 26.5527 42.9395 26.4746 42.9688 26.4746C42.998 26.4648 43.5547 27.002 44.209 27.6562ZM17.9688 31.0059V33.1055L17.5586 32.9004C17.3242 32.7832 16.9727 32.5781 16.7773 32.4512L16.4062 32.2266V30.5664V28.9062H17.1875H17.9688V31.0059ZM39.4434 29.8438C40.4297 30.3906 41.6504 31.6797 42.168 32.7148C42.7734 33.9355 42.9199 34.5898 42.9102 36.0352C42.9004 37.0801 42.8613 37.373 42.6465 38.0371C42.2754 39.1602 41.7676 39.9707 40.8691 40.8691C39.9707 41.7676 39.1602 42.2754 38.0371 42.6465C37.373 42.8613 37.0801 42.9004 36.0352 42.9102C34.6191 42.9199 33.9551 42.7734 32.8125 42.207L32.0801 41.8457L32.0117 41.3184C31.9141 40.459 31.416 39.9609 30.5566 39.8633L30.0293 39.7949L29.6582 39.0625L29.2969 38.3301L30.0977 38.2812C30.7129 38.2422 30.9277 38.2617 31.0059 38.3691C31.0645 38.4375 31.2305 38.7012 31.3867 38.9453C32.7148 40.9863 35.4395 41.9141 37.7246 41.084C38.6133 40.7617 39.1406 40.4297 39.7754 39.7949C42.3926 37.1777 41.709 32.7148 38.4473 31.1035L37.7051 30.7422L38.1641 30.1172C38.418 29.7754 38.6621 29.502 38.7109 29.4922C38.7598 29.4922 39.0918 29.6484 39.4434 29.8438ZM25.7812 33.5938V36.7188H25H24.2188V33.5938V30.4688H25H25.7812V33.5938ZM37.7344 32.5098C38.4961 32.8809 39.082 33.4961 39.4824 34.3555C39.7656 34.9512 39.7949 35.0977 39.7949 35.9473C39.7949 36.8262 39.7754 36.9141 39.4336 37.6172C38.9941 38.5059 38.4277 39.0527 37.5195 39.4824C36.9238 39.7656 36.7773 39.7949 35.9375 39.7949C35.0977 39.7949 34.9512 39.7656 34.3555 39.4824C33.457 39.0625 32.8809 38.5059 32.4512 37.627C32.1289 36.9727 32.0898 36.8164 32.0508 35.8984L32.0117 34.8926L33.0664 34.3359C34.1797 33.75 35.2344 33.0469 35.8887 32.4707C36.2305 32.168 36.3281 32.1289 36.6992 32.168C36.9238 32.1875 37.3926 32.3438 37.7344 32.5098ZM27.832 38.6914C27.9004 38.9258 28.0371 39.2773 28.1348 39.4727L28.3203 39.8438H27.4414H26.5625L26.3672 39.4531C26.25 39.2285 25.9863 38.877 25.7812 38.6719L25.3906 38.2812H26.543H27.7051L27.832 38.6914ZM30.4395 42.3535C30.293 44.8047 28.8867 46.6406 26.5625 47.4219C25.8203 47.6758 24.1797 47.6758 23.4375 47.4219C21.0156 46.6016 19.5312 44.5508 19.5312 42.0215V41.4062H25.0098H30.498L30.4395 42.3535Z" fill="#E9004F"/>
<path d="M31.8945 11.8164C31.2793 11.9727 30.4004 12.5 29.9707 12.959C29.7559 13.1934 29.4336 13.6816 29.2676 14.043C28.9844 14.6387 28.9551 14.7852 28.9551 15.625C28.9551 16.4355 28.9941 16.6309 29.2383 17.168L29.5215 17.7832L28.3398 18.9648L27.1582 20.1465L26.543 19.8633C26.0059 19.6191 25.8105 19.5801 25 19.5801C24.1602 19.5801 24.0137 19.6094 23.418 19.8926C22.5391 20.3027 21.9531 20.8691 21.5332 21.709C21.3477 22.0801 21.1914 22.4512 21.1914 22.5195C21.1914 22.627 20.9863 22.6562 20.2734 22.6562H19.3555L19.2383 22.3633C18.9648 21.6992 17.9785 21.0938 17.1875 21.0938C15.9766 21.0938 14.8438 22.2266 14.8438 23.4375C14.8438 24.6484 15.9766 25.7812 17.1875 25.7812C17.9785 25.7812 18.9648 25.1758 19.2383 24.5117L19.3555 24.2188H20.2734C20.9863 24.2188 21.1914 24.248 21.1914 24.3555C21.1914 24.4238 21.3477 24.7949 21.5332 25.166C21.9531 26.0059 22.5391 26.5723 23.418 26.9824C24.0137 27.2656 24.1602 27.2949 25.0098 27.2949C25.8887 27.2949 25.9766 27.2754 26.6797 26.9336C27.5684 26.4941 28.1152 25.9277 28.5449 25.0195C28.8281 24.4238 28.8574 24.2773 28.8574 23.4375C28.8574 22.627 28.8184 22.4316 28.5742 21.8945L28.291 21.2793L29.4727 20.0977L30.6543 18.916L31.2695 19.1992C31.8066 19.4434 32.002 19.4824 32.8125 19.4824C33.6523 19.4824 33.7988 19.4531 34.3945 19.1699C35.3027 18.7402 35.8691 18.1934 36.3086 17.3047C36.6504 16.6016 36.6699 16.5137 36.6699 15.625C36.6699 14.7363 36.6504 14.6484 36.3086 13.9453C35.6445 12.6172 34.4727 11.8262 33.0273 11.7578C32.6172 11.7383 32.1094 11.7676 31.8945 11.8164ZM33.5352 13.3984C34.375 13.6523 35.1562 14.7266 35.1562 15.625C35.1562 16.8359 34.0234 17.9688 32.8125 17.9688C32.1973 17.9688 31.6992 17.7441 31.2012 17.2363C30.2051 16.25 30.2051 15 31.2012 14.0137C31.8848 13.3203 32.6172 13.1348 33.5352 13.3984ZM25.7227 21.2109C26.5625 21.4648 27.3438 22.5391 27.3438 23.4375C27.3438 24.6484 26.2109 25.7812 25 25.7812C23.7891 25.7812 22.6562 24.6484 22.6562 23.4375C22.6562 22.8223 22.8809 22.3242 23.3887 21.8262C24.0723 21.1328 24.8047 20.9473 25.7227 21.2109ZM17.7246 22.9004C18.2129 23.3789 17.8711 24.2188 17.1875 24.2188C16.7871 24.2188 16.4062 23.8379 16.4062 23.4375C16.4062 23.0371 16.7871 22.6562 17.1875 22.6562C17.373 22.6562 17.5781 22.7441 17.7246 22.9004Z" fill="#E9004F"/>
<path d="M32.2754 15.0879C32.1191 15.2344 32.0312 15.4395 32.0312 15.625C32.0312 15.8105 32.1191 16.0156 32.2754 16.1621C32.4219 16.3184 32.627 16.4062 32.8125 16.4062C32.998 16.4062 33.2031 16.3184 33.3496 16.1621C33.5059 16.0156 33.5938 15.8105 33.5938 15.625C33.5938 15.4395 33.5059 15.2344 33.3496 15.0879C33.2031 14.9316 32.998 14.8438 32.8125 14.8438C32.627 14.8438 32.4219 14.9316 32.2754 15.0879Z" fill="#E9004F"/>
<path d="M24.4632 22.9004C23.9749 23.3789 24.3167 24.2188 25.0003 24.2188C25.1859 24.2188 25.3909 24.1309 25.5374 23.9746C25.6937 23.8281 25.7816 23.623 25.7816 23.4375C25.7816 23.252 25.6937 23.0469 25.5374 22.9004C25.3909 22.7441 25.1859 22.6562 25.0003 22.6562C24.8148 22.6562 24.6097 22.7441 24.4632 22.9004Z" fill="#E9004F"/>
<path d="M4.38438 32.4316C2.96836 34.6973 1.78672 36.5918 1.77696 36.6406C1.75742 36.6797 2.22617 36.7188 2.82188 36.7188H3.90586V39.8438V42.9688H4.68711H5.46836V39.0625V35.1562H5.01914C4.775 35.1562 4.58946 35.1172 4.60899 35.0781C4.69688 34.8438 6.97227 31.25 7.0211 31.25C7.06992 31.25 9.37461 34.8633 9.45274 35.0781C9.47227 35.1172 9.28672 35.1562 9.04258 35.1562H8.59336V42.1875V49.2188H9.37461H10.1559V42.9688V36.7188H11.2301C11.8258 36.7188 12.3043 36.6992 12.3043 36.6797C12.3043 36.582 7.11875 28.3691 7.04063 28.3398C7.00157 28.3301 5.80039 30.166 4.38438 32.4316Z" fill="#E9004F"/>
<path d="M3.90625 46.875V49.2188H4.6875H5.46875V46.875V44.5312H4.6875H3.90625V46.875Z" fill="#E9004F"/>
</svg>
