<svg width="50" height="50" viewBox="0 0 50 50" fill="none" xmlns="http://www.w3.org/2000/svg">
<path d="M46.645 7.95993C46.19 6.92993 45.325 6.55493 44.24 6.55493C37.83 6.56993 31.425 6.56993 25.005 6.56993H5.915C4.005 6.56993 3.125 7.43493 3.125 9.33493V40.8649C3.125 41.5949 3.29 42.2399 3.825 42.7649C4.375 43.3149 5.075 43.4399 5.82 43.4399H44.295C45.89 43.4399 46.865 42.4899 46.865 40.9349C46.88 30.3199 46.88 19.6899 46.865 9.05993C46.865 8.68993 46.795 8.28993 46.645 7.95993ZM15.2 9.44493C15.97 9.44493 16.37 9.82993 16.37 10.5999C16.37 11.3849 16.01 11.7549 15.23 11.7699C14.43 11.7699 14.075 11.4249 14.075 10.6299C14.07 9.81993 14.415 9.45993 15.2 9.44493ZM11.185 9.44493C11.97 9.44493 12.315 9.79993 12.315 10.6149C12.315 11.4399 12 11.7549 11.185 11.7699C10.4 11.7699 10.03 11.3999 10.03 10.6149C10.03 9.84493 10.415 9.45993 11.185 9.44493ZM7.14 9.44493C7.895 9.44493 8.31 9.82993 8.32 10.5999C8.335 11.3699 7.95 11.7549 7.18 11.7699C6.37 11.7699 6.01 11.4249 5.995 10.6449C5.985 9.85993 6.37 9.45993 7.14 9.44493ZM45.725 40.7149C45.725 41.8849 45.34 42.2549 44.185 42.2549H5.765C4.665 42.2549 4.265 41.8699 4.265 40.7699V14.6699H45.72L45.725 40.7149ZM23.57 38.2799C25.23 37.8799 26.02 36.1449 25.245 34.6199C25.2 34.5299 25.19 34.3649 25.245 34.2899C25.895 33.3999 26.555 32.5249 27.22 31.6499C27.265 31.5949 27.385 31.5499 27.455 31.5699C28.16 31.7449 28.81 31.6099 29.44 31.2299C29.51 31.2799 29.57 31.3149 29.625 31.3549C30.49 32.0049 31.355 32.6499 32.21 33.3049C32.275 33.3549 32.3 33.4999 32.3 33.5999C32.3 33.9049 32.24 34.2149 32.275 34.5099C32.405 35.5699 33.185 36.3849 34.255 36.6149C35.25 36.8299 36.325 36.3599 36.87 35.4799C37.435 34.5649 37.375 33.4199 36.705 32.5899C36.585 32.4399 36.58 32.3399 36.665 32.1799C37.56 30.4049 38.45 28.6249 39.335 26.8399C39.425 26.6599 39.515 26.5949 39.735 26.6049C41.11 26.6649 42.28 25.4999 42.28 24.1049C42.28 22.7149 41.095 21.5349 39.73 21.5949C38.705 21.6399 37.92 22.1199 37.495 23.0599C37.085 23.9699 37.19 24.8549 37.81 25.6599C37.91 25.7899 37.955 25.8849 37.87 26.0549C36.96 27.8549 36.055 29.6649 35.14 31.4649C35.095 31.5499 34.955 31.6399 34.86 31.6399C34.38 31.6349 33.935 31.7299 33.52 31.9699C33.385 32.0499 33.305 32.0299 33.185 31.9399C32.355 31.3099 31.525 30.6849 30.685 30.0699C30.505 29.9349 30.445 29.8199 30.495 29.5849C30.875 27.8649 29.24 26.2699 27.525 26.6749C25.85 27.0699 25.06 28.8199 25.85 30.3549C25.89 30.4349 25.89 30.5899 25.84 30.6599C25.195 31.5399 24.54 32.4099 23.88 33.2749C23.825 33.3449 23.69 33.3799 23.595 33.3799C23.25 33.3849 22.9 33.3199 22.565 33.3699C21.21 33.5749 20.295 34.9449 20.56 36.3249C20.835 37.6799 22.24 38.5949 23.57 38.2799ZM12.045 31.9399C14.765 32.8549 17.28 31.8449 18.64 30.3799C18.63 30.3649 18.625 30.3449 18.61 30.3299L16.99 28.9249C15.975 28.0449 14.955 27.1699 13.945 26.2849C13.85 26.1999 13.77 26.0749 13.73 25.9499C13.255 24.5049 12.795 23.0599 12.325 21.6149C12.145 21.0599 11.965 20.5099 11.78 19.9399C9.61 20.7649 7.71 23.0199 7.705 25.9449C7.71 28.5899 9.485 31.0799 12.045 31.9399ZM14.655 25.9649C14.935 26.2049 15.21 26.4449 15.485 26.6849C16.375 27.4549 17.265 28.2249 18.16 28.9949C18.48 29.2749 18.805 29.5499 19.125 29.8249C21.75 26.4599 20.27 22.0449 17.475 20.4949C17.46 20.5099 17.445 20.5199 17.435 20.5349C16.495 22.2699 15.55 24.0099 14.605 25.7449C14.555 25.8499 14.585 25.9049 14.655 25.9649ZM16.84 20.1399C15.73 19.5049 13.72 19.3299 12.47 19.7399C13.04 21.5049 13.605 23.2649 14.185 25.0649C15.09 23.3949 15.965 21.7649 16.84 20.1399Z" fill="#E9004F"/>
</svg>
