<svg width="50" height="50" viewBox="0 0 50 50" fill="none" xmlns="http://www.w3.org/2000/svg">
<path d="M2.50977 0.888672C1.60156 1.10352 0.751953 1.79688 0.292969 2.69531L0.0488281 3.17383L0.0195312 19.8438L0 36.5137L0.205078 37.0801C0.488281 37.8516 1.29883 38.6523 2.09961 38.9746L2.68555 39.209L11.2988 39.2383C17.9785 39.2578 19.9219 39.2871 19.9219 39.3848C19.9219 39.4531 19.8633 39.8535 19.7852 40.2832C19.4238 42.3535 18.457 43.6133 16.9434 43.9941C16.7871 44.0332 15.9277 44.0918 15.0391 44.1309C13.2715 44.1992 12.9883 44.2773 12.4023 44.8535C12.2266 45.0293 11.9727 45.4004 11.8359 45.6934C11.2598 46.9531 11.9238 48.5254 13.252 49.0234C13.7695 49.2188 14.0234 49.2188 25 49.2188C35.9766 49.2188 36.2305 49.2188 36.748 49.0234C37.6758 48.6719 38.2715 47.8613 38.3594 46.8164C38.3984 46.3184 38.3594 46.123 38.1641 45.6934C38.0273 45.4004 37.7734 45.0293 37.5977 44.8535C37.0117 44.2773 36.7285 44.1992 34.9609 44.1309C34.0723 44.0918 33.2227 44.0332 33.0566 43.9941C31.543 43.6133 30.5762 42.3535 30.2148 40.2832C30.1367 39.8535 30.0781 39.4531 30.0781 39.3848C30.0781 39.2871 32.0215 39.2578 38.7012 39.2383L47.3145 39.209L47.9004 38.9746C48.7012 38.6523 49.5117 37.8516 49.7949 37.0801L50 36.5137L49.9805 19.8438L49.9512 3.17383L49.707 2.69531C49.3652 2.02148 48.7305 1.39648 48.0664 1.09375L47.5098 0.830078L25.1953 0.810547C12.3926 0.810547 2.72461 0.839844 2.50977 0.888672ZM47.3242 2.72461C47.5488 2.82227 47.832 3.05664 47.959 3.23242L48.1934 3.56445L48.2227 17.1582L48.2422 30.7617H47.4609H46.6797V17.6953C46.6699 3.59375 46.709 4.41406 46.1523 4.19922C45.7812 4.0625 4.21875 4.0625 3.84766 4.19922C3.29102 4.41406 3.33008 3.59375 3.32031 17.6953V30.7617H2.53906H1.75781L1.77734 17.1582L1.80664 3.56445L2.04102 3.23242C2.16797 3.05664 2.45117 2.82227 2.67578 2.72461C3.06641 2.54883 3.82812 2.53906 25 2.53906C46.1719 2.53906 46.9336 2.54883 47.3242 2.72461ZM44.9219 18.3105V30.7617H25H5.07812V18.3105V5.85938H25H44.9219V18.3105ZM48.2422 34.3848C48.2422 36.5332 48.1641 36.7969 47.4219 37.2168L47.0215 37.4512H25H2.97852L2.57812 37.2168C1.83594 36.7969 1.75781 36.5332 1.75781 34.3848V32.5195H25H48.2422V34.3848ZM28.3984 40.127C28.584 41.543 29.1113 42.9688 29.7559 43.8184L29.9902 44.1406H25H20.0098L20.2441 43.8184C20.8887 42.9688 21.416 41.543 21.6016 40.127L21.7188 39.2578H25H28.2812L28.3984 40.127ZM36.2402 46.0254C36.4355 46.1719 36.6211 46.5234 36.6211 46.7285C36.6211 46.8164 36.4941 47.0215 36.3379 47.1777L36.0547 47.4609H25H13.9453L13.6621 47.1777C13.5059 47.0215 13.3789 46.8164 13.3789 46.7285C13.3789 46.5234 13.5645 46.1719 13.7598 46.0254C13.9844 45.8496 36.0156 45.8496 36.2402 46.0254Z" fill="#E9004F"/>
<path d="M11.377 7.50974C11.2695 7.55856 11.0938 7.69528 10.9863 7.81247C10.791 8.02731 10.791 8.16403 10.791 16.2597V24.4922L11.0254 24.7461L11.2598 25H21.0449H30.8301L31.2598 26.4258C31.7188 27.9687 31.875 28.2715 32.2949 28.3496C32.7051 28.4277 33.0078 28.2617 33.6621 27.6074L34.2773 27.0117L35.3809 28.1054C36.9238 29.6289 36.8066 29.6386 38.6621 27.7832C40.0293 26.4355 40.0879 26.3574 40.0879 25.9765C40.0879 25.6054 40.0195 25.5273 38.9844 24.4824L37.8906 23.3886L38.4375 22.8515C39.0527 22.2461 39.2676 21.8554 39.1895 21.455C39.1113 21.0351 38.8086 20.8789 37.2656 20.4199L35.8398 19.9902V13.9648V7.93942L35.5859 7.70505L35.332 7.47067L23.457 7.45114C16.9238 7.44138 11.4844 7.47067 11.377 7.50974ZM34.082 10.4004V11.6211H23.291H12.5V10.4004V9.17966H23.291H34.082V10.4004ZM34.082 16.4062C34.082 18.0664 34.0625 19.4336 34.0332 19.4336C34.0039 19.4336 33.0957 19.1699 32.0117 18.8476C30 18.2422 29.7266 18.2129 29.375 18.5254C29.0332 18.8379 29.0625 19.1601 29.6777 21.1816C30.0098 22.2461 30.2734 23.1543 30.2734 23.1836C30.2734 23.2129 26.2793 23.2422 21.3867 23.2422H12.5V18.3105V13.3789H23.291H34.082V16.4062ZM33.3496 21.0937C34.2676 21.3672 35.3711 21.709 35.8203 21.8359L36.6309 22.0898L36.2402 22.5195C35.8887 22.8906 35.8398 23.0078 35.8398 23.3886C35.8398 23.8281 35.8594 23.8672 36.8848 24.9121L37.9297 25.9863L37.4023 26.5136L36.875 27.041L35.8301 26.0254C34.7852 25 34.7754 25 34.2969 25C33.877 25 33.7598 25.0488 33.3691 25.3906L32.9199 25.791L32.6758 24.9804C32.5488 24.5312 32.207 23.4179 31.9336 22.5097C31.6602 21.5918 31.416 20.7715 31.3867 20.6738C31.3379 20.5273 31.3672 20.498 31.5137 20.5468C31.6113 20.5761 32.4414 20.8203 33.3496 21.0937Z" fill="#E9004F"/>
<path d="M14.6582 16.709C14.1895 16.8945 14.1699 17.0019 14.1602 19.1699C14.1602 21.2012 14.1602 21.2012 14.4043 21.4355L14.6387 21.6797H18.3398C21.9141 21.6797 22.041 21.6699 22.2461 21.4844C22.3633 21.377 22.4805 21.1816 22.5195 21.0645C22.5488 20.9375 22.5586 19.9902 22.5391 18.9648C22.5098 17.168 22.5 17.0898 22.2852 16.875L22.0605 16.6504L18.4766 16.6309C16.3086 16.6211 14.7949 16.6504 14.6582 16.709ZM20.8008 19.1406V19.9219H18.3594H15.918V19.1406V18.3594H18.3594H20.8008V19.1406Z" fill="#E9004F"/>
<path d="M22.2164 34.1699C21.6305 34.4141 21.4645 35.1563 21.8844 35.6055L22.0992 35.8398H24.9996H27.9L28.1149 35.6055C28.4371 35.2539 28.4274 34.7363 28.0953 34.3945L27.8317 34.1309L25.1168 34.1113C23.6324 34.1016 22.3238 34.1309 22.2164 34.1699Z" fill="#E9004F"/>
</svg>
