<svg width="110" height="110" viewBox="0 0 110 110" fill="none" xmlns="http://www.w3.org/2000/svg">
<circle cx="55" cy="55" r="54.5" stroke="#676767"/>
<path d="M84.9297 29.4791C84.7997 27.0958 82.9042 25.2005 80.5209 25.0704C75.7117 24.8077 66.3011 25.0633 57.3025 29.7176C52.7152 32.0904 47.8637 36.1133 43.9919 40.7548C43.9442 40.812 43.8978 40.8696 43.8505 40.9269L35.0637 41.6056C33.6174 41.7174 32.3292 42.4755 31.5292 43.6853L25.5346 52.7523C24.928 53.6699 24.8315 54.8182 25.2765 55.8241C25.7216 56.83 26.6361 57.531 27.723 57.6994L35.1258 58.846C35.0997 58.9899 35.0735 59.1336 35.0494 59.2776C34.803 60.7518 35.2914 62.2675 36.3562 63.3321L46.6678 73.6438C47.5505 74.5265 48.7434 75.0132 49.9656 75.0132C50.2174 75.0132 50.4705 74.9925 50.7224 74.9504C50.8663 74.9264 51.0101 74.9001 51.154 74.874L52.3006 82.2769C52.469 83.3638 53.17 84.2785 54.1757 84.7234C54.5942 84.9086 55.037 85 55.4779 85C56.097 84.9999 56.7118 84.8196 57.2476 84.4654L66.3146 78.4707C67.5245 77.6707 68.2825 76.3824 68.3941 74.9362L69.0728 66.1496C69.1301 66.1023 69.1878 66.0559 69.245 66.0082C73.8867 62.1364 77.9097 57.2849 80.2824 52.6975C84.937 43.6986 85.1921 34.2879 84.9297 29.4791ZM64.3757 75.538L55.7026 81.2723L54.5851 74.0577C58.2507 72.9799 61.8768 71.2537 65.3314 68.9413L64.8892 74.6653C64.8617 75.0223 64.6744 75.3405 64.3757 75.538ZM49.1537 71.1579L38.842 60.8462C38.5789 60.583 38.4573 60.2133 38.5169 59.8572C38.8235 58.024 39.2998 56.279 39.8895 54.6351L55.3615 70.107C53.3872 70.8143 51.6187 71.2361 50.1427 71.4829C49.786 71.5422 49.4167 71.4209 49.1537 71.1579ZM35.3346 45.1108L41.0585 44.6687C38.7459 48.1232 37.0197 51.7493 35.9419 55.415L28.7274 54.2976L34.4619 45.6243C34.6594 45.3255 34.9776 45.1383 35.3346 45.1108ZM66.9933 63.3083C64.1535 65.677 61.3969 67.3903 58.8561 68.63L41.3692 51.1432C42.9932 47.8264 44.9752 45.0644 46.6915 43.0068C50.2745 38.7113 54.7308 35.0058 58.9178 32.8402C67.1765 28.5683 75.8778 28.3383 80.3295 28.5806C80.9187 28.6127 81.3874 29.0814 81.4195 29.6707C81.6622 34.1224 81.4316 42.8236 77.1598 51.0823C74.9943 55.2692 71.2887 59.7253 66.9933 63.3083Z" fill="#676767"/>
<path d="M66.1004 52.6844C68.3506 52.6842 70.6018 51.8276 72.3149 50.1144C73.975 48.4545 74.8891 46.2474 74.8891 43.8999C74.8891 41.5524 73.9749 39.3453 72.3149 37.6853C68.8881 34.2584 63.3123 34.2587 59.8858 37.6853C58.2257 39.3453 57.3115 41.5524 57.3115 43.8999C57.3115 46.2474 58.2258 48.4545 59.8858 50.1144C61.5993 51.8279 63.8493 52.6847 66.1004 52.6844ZM62.3714 40.1711C63.3994 39.143 64.7498 38.629 66.1001 38.629C67.4506 38.629 68.8009 39.143 69.8289 40.1711C70.8249 41.1671 71.3733 42.4913 71.3733 43.8998C71.3733 45.3082 70.8249 46.6326 69.8289 47.6285C67.773 49.6846 64.4274 49.6845 62.3713 47.6285C61.3754 46.6326 60.8268 45.3083 60.8268 43.8999C60.8268 42.4914 61.3755 41.1671 62.3714 40.1711Z" fill="#676767"/>
<path d="M26.7939 74.4456C27.2438 74.4456 27.6937 74.274 28.0368 73.9307L33.7758 68.1917C34.4623 67.5052 34.4623 66.3923 33.7758 65.7058C33.0894 65.0193 31.9764 65.0193 31.2899 65.7058L25.551 71.4448C24.8645 72.1313 24.8645 73.2442 25.551 73.9307C25.8941 74.2739 26.344 74.4456 26.7939 74.4456Z" fill="#676767"/>
<path d="M39.0344 70.9653C38.3481 70.2788 37.235 70.2788 36.5485 70.9653L25.5149 81.999C24.8284 82.6855 24.8284 83.7985 25.5149 84.4849C25.8581 84.8282 26.3079 84.9997 26.7578 84.9997C27.2076 84.9997 27.6575 84.8282 28.0006 84.4848L39.0343 73.4512C39.7209 72.7647 39.7209 71.6518 39.0344 70.9653Z" fill="#676767"/>
<path d="M41.8086 76.2248L36.0696 81.9638C35.3831 82.6503 35.3831 83.7632 36.0696 84.4497C36.4128 84.793 36.8627 84.9646 37.3124 84.9646C37.7622 84.9646 38.2122 84.7931 38.5553 84.4497L44.2944 78.7107C44.9808 78.0242 44.9808 76.9113 44.2944 76.2248C43.608 75.5383 42.4949 75.5383 41.8086 76.2248Z" fill="#676767"/>
</svg>
