<svg width="110" height="110" viewBox="0 0 110 110" fill="none" xmlns="http://www.w3.org/2000/svg">
<circle cx="55" cy="55" r="54.5" stroke="#676767"/>
<path d="M79.8894 34.7229C79.0629 31.8516 76.4471 29.8387 73.3871 29.8387C72.7861 29.8387 72.1958 29.9171 71.621 30.0729C70.2148 27.0023 67.1481 25 63.7097 25C58.9077 25 55 28.9068 55 33.7097C55 34.06 55.0242 34.4084 55.0658 34.7548C53.7177 34.9668 52.5255 35.6413 51.6526 36.6129H29.8387C27.1706 36.6129 25 38.7835 25 41.4516V68.5484C25 71.2164 27.1706 73.3871 29.8387 73.3871H41.8213L39.8858 77.2581H38.5484C35.8803 77.2581 33.7097 79.4287 33.7097 82.0968V85H68.5484V82.0968C68.5484 79.4287 66.3777 77.2581 63.7097 77.2581H62.3723L60.4368 73.3871H72.4194C75.0874 73.3871 77.2581 71.2164 77.2581 68.5484V46.2903H79.1935C82.3958 46.2903 85 43.6861 85 40.4839C85 37.5177 82.7635 35.0684 79.8894 34.7229ZM60.7813 46.2903C61.4132 47.1265 61.7742 48.1368 61.7742 49.1935C61.7742 51.8616 59.6035 54.0323 56.9355 54.0323C54.2674 54.0323 52.0968 51.8616 52.0968 49.1935C52.0968 47.8803 52.6165 46.6561 53.5377 45.7503C54.2781 46.0939 55.0997 46.2903 55.9677 46.2903H56.9355H60.7813ZM56.9355 55.9677C60.671 55.9677 63.7097 52.9281 63.7097 49.1935C63.7097 48.1794 63.4803 47.1903 63.0535 46.2903H67.5806V51.341L65.6945 51.8123L65.1777 52.0106L64.7268 53.1129L65.981 55.2023L62.9442 58.24L60.8558 56.9858L59.6752 57.4658L59.0829 59.8387H54.7881L54.3168 57.9526L54.1203 57.4348L53.0152 56.9858L50.9268 58.24L47.89 55.2023L49.1442 53.1129L48.6603 51.9323L46.2903 51.341V47.0461L48.6574 46.4548L49.1442 45.2742L47.89 43.1848L48.6545 42.4194H50.5C50.8019 43.269 51.2926 44.0297 51.9274 44.6452C50.799 45.8819 50.1613 47.4806 50.1613 49.1935C50.1613 52.9281 53.2 55.9677 56.9355 55.9677ZM46.6929 44.951L44.3548 45.5345V52.8526L46.6929 53.4361L45.4532 55.5032L50.6277 60.6768L52.6929 59.4371L53.2765 61.7742H60.5945L61.1781 59.4361L63.2432 60.6758L68.4177 55.5023L67.1781 53.4352L69.5161 52.8526V46.2903H71.4516V67.5806H30.8065V42.4194H45.9177L45.4523 42.8839L46.6929 44.951ZM66.6129 82.0968V83.0645H35.6452V82.0968C35.6452 80.4961 36.9477 79.1935 38.5484 79.1935H63.7097C65.3103 79.1935 66.6129 80.4961 66.6129 82.0968ZM60.2084 77.2581H42.0497L43.9852 73.3871H58.2729L60.2084 77.2581ZM75.3226 68.5484C75.3226 70.149 74.02 71.4516 72.4194 71.4516H29.8387C28.2381 71.4516 26.9355 70.149 26.9355 68.5484V41.4516C26.9355 39.851 28.2381 38.5484 29.8387 38.5484H50.5C50.2852 39.1552 50.1613 39.8045 50.1613 40.4839H30.8065C29.739 40.4839 28.871 41.3519 28.871 42.4194V67.5806C28.871 68.6481 29.739 69.5161 30.8065 69.5161H71.4516C72.519 69.5161 73.3871 68.6481 73.3871 67.5806V46.2903H75.3226V68.5484ZM79.1935 44.3548H55.9677C53.8329 44.3548 52.0968 42.6187 52.0968 40.4839C52.0968 38.349 53.8329 36.6129 55.9677 36.6129C58.1026 36.6129 59.8387 38.349 59.8387 40.4839H61.7742C61.7742 37.6455 59.7255 35.2803 57.0294 34.779C56.9732 34.4268 56.9355 34.0697 56.9355 33.7097C56.9355 29.9752 59.9742 26.9355 63.7097 26.9355C66.6419 26.9355 69.2268 28.809 70.1423 31.5952L70.4742 32.6074L71.4497 32.1806C72.0661 31.9116 72.7184 31.7742 73.3871 31.7742C75.4155 31.7742 77.1652 33.0168 77.8784 34.8332C75.309 35.4313 73.3871 37.7345 73.3871 40.4839H75.3226C75.3226 38.349 77.0587 36.6129 79.1935 36.6129C81.3284 36.6129 83.0645 38.349 83.0645 40.4839C83.0645 42.6187 81.3284 44.3548 79.1935 44.3548ZM54.0323 49.1935C54.0323 50.7942 55.3348 52.0968 56.9355 52.0968C58.5361 52.0968 59.8387 50.7942 59.8387 49.1935C59.8387 47.5929 58.5361 46.2903 56.9355 46.2903C55.3348 46.2903 54.0323 47.5929 54.0323 49.1935ZM56.9355 48.2258C57.4687 48.2258 57.9032 48.6594 57.9032 49.1935C57.9032 49.7277 57.4687 50.1613 56.9355 50.1613C56.4023 50.1613 55.9677 49.7277 55.9677 49.1935C55.9677 48.6594 56.4023 48.2258 56.9355 48.2258ZM34.6774 46.2903H32.7419V44.3548H34.6774V46.2903ZM38.5484 46.2903H36.6129V44.3548H38.5484V46.2903ZM42.4194 46.2903H40.4839V44.3548H42.4194V46.2903ZM42.4194 50.1613H32.7419V48.2258H42.4194V50.1613ZM42.4194 54.0323H32.7419V52.0968H42.4194V54.0323ZM42.4194 57.9032H32.7419V55.9677H42.4194V57.9032ZM42.4194 61.7742H32.7419V59.8387H42.4194V61.7742ZM32.7419 63.7097H50.1613V65.6452H32.7419V63.7097ZM54.0323 65.6452H52.0968V63.7097H54.0323V65.6452ZM57.9032 65.6452H55.9677V63.7097H57.9032V65.6452Z" fill="#676767"/>
</svg>
