<svg width="110" height="110" viewBox="0 0 110 110" fill="none" xmlns="http://www.w3.org/2000/svg">
<circle cx="55" cy="55" r="54.5" stroke="#676767"/>
<path d="M55.3127 42.6014H64.5912C65.3991 42.6014 66.0562 41.9443 66.0562 41.1365V31.819C66.0562 31.0112 65.3991 30.3541 64.5912 30.3541H55.3127C54.5048 30.3541 53.8477 31.0112 53.8477 31.819V34.0236C53.8477 34.5091 54.2411 34.9025 54.7267 34.9025C55.2122 34.9025 55.6057 34.5091 55.6057 34.0236V32.112H64.2982V40.8436H55.6057V38.2525C55.6057 37.7669 55.2122 37.3735 54.7267 37.3735C54.2411 37.3735 53.8477 37.7669 53.8477 38.2525V41.1366C53.8477 41.9443 54.5048 42.6014 55.3127 42.6014Z" fill="#676767"/>
<path d="M38.9415 41.1809H50.9161C51.4017 41.1809 51.7951 40.7875 51.7951 40.302C51.7951 39.8165 51.4017 39.4231 50.9161 39.4231H38.9415C38.4559 39.4231 38.0625 39.8165 38.0625 40.302C38.0625 40.7875 38.4561 41.1809 38.9415 41.1809Z" fill="#676767"/>
<path d="M58.9811 47.7323C58.9811 47.2468 58.5876 46.8534 58.1021 46.8534H46.0186C45.5331 46.8534 45.1396 47.2468 45.1396 47.7323C45.1396 48.2178 45.5331 48.6112 46.0186 48.6112H58.1021C58.5875 48.6112 58.9811 48.2177 58.9811 47.7323Z" fill="#676767"/>
<path d="M38.9415 37.3567H50.9161C51.4017 37.3567 51.7951 36.9633 51.7951 36.4778C51.7951 35.9923 51.4017 35.5989 50.9161 35.5989H38.9415C38.4559 35.5989 38.0625 35.9923 38.0625 36.4778C38.0625 36.9633 38.4561 37.3567 38.9415 37.3567Z" fill="#676767"/>
<path d="M38.9415 33.5326H50.9161C51.4017 33.5326 51.7951 33.1392 51.7951 32.6537C51.7951 32.1682 51.4017 31.7748 50.9161 31.7748H38.9415C38.4559 31.7748 38.0625 32.1682 38.0625 32.6537C38.0625 33.1392 38.4561 33.5326 38.9415 33.5326Z" fill="#676767"/>
<path d="M38.9415 58.3357H56.9733C57.4588 58.3357 57.8523 57.9423 57.8523 57.4568C57.8523 56.9713 57.4588 56.5779 56.9733 56.5779H38.9415C38.4559 56.5779 38.0625 56.9713 38.0625 57.4568C38.0625 57.9423 38.4561 58.3357 38.9415 58.3357Z" fill="#676767"/>
<path d="M38.9415 53.4187H53.2021C53.6877 53.4187 54.0811 53.0253 54.0811 52.5398C54.0811 52.0543 53.6877 51.6609 53.2021 51.6609H38.9415C38.4559 51.6609 38.0625 52.0543 38.0625 52.5398C38.0625 53.0253 38.4561 53.4187 38.9415 53.4187Z" fill="#676767"/>
<path d="M65.2318 51.6609H57.0128C56.5272 51.6609 56.1338 52.0543 56.1338 52.5398C56.1338 53.0253 56.5272 53.4187 57.0128 53.4187H65.2318C65.7173 53.4187 66.1108 53.0253 66.1108 52.5398C66.1108 52.0543 65.7172 51.6609 65.2318 51.6609Z" fill="#676767"/>
<path d="M83.9804 79.3671C83.9697 79.3565 83.9587 79.3463 83.9476 79.3364L78.5385 74.5238C79.3931 72.9668 79.8809 71.2222 79.9457 69.4039C79.9629 68.9187 79.5837 68.5115 79.0986 68.4941C78.6125 68.4797 78.2062 68.8561 78.1888 69.3412C78.0556 74.5186 73.67 78.7831 68.4817 78.7313C63.1257 78.7313 58.7682 74.3596 58.7682 68.9861C58.687 63.72 63.2221 59.1663 68.4817 59.2409C72.579 59.2409 76.2565 61.8407 77.6328 65.7101C77.7954 66.1673 78.2986 66.4067 78.7554 66.2438C79.2128 66.0811 79.4517 65.5785 79.2891 65.1212C77.821 60.9933 74.1336 58.0901 69.8665 57.5681V26.4649C69.8665 25.6571 69.2094 25 68.4015 25H35.718C34.9102 25 34.253 25.6571 34.253 26.4649V29.6439H31.0916C30.2837 29.6439 29.6266 30.3009 29.6266 31.1087V34.2876H26.465C25.6571 34.2876 25 34.9447 25 35.7525V79.5984C25 80.4062 25.6571 81.0633 26.465 81.0633H54.4538C55.2617 81.0633 55.9188 80.4062 55.9188 79.5984V76.4194H59.7347C61.8406 78.9074 64.9802 80.4893 68.4818 80.4893C70.406 80.4893 72.2636 80.0136 73.9165 79.1199L79.3667 84.0009C80.6627 85.2847 82.7626 85.3556 84.0629 84.0724C85.3642 82.8289 85.2855 80.597 83.9804 79.3671ZM36.011 26.7578H68.1085V57.4904C64.3727 57.6122 60.9777 59.5545 58.9489 62.5877H55.3799C54.8944 62.5877 54.5009 62.9811 54.5009 63.4666C54.5009 63.9521 54.8944 64.3455 55.3799 64.3455H57.9825C57.8648 64.6132 57.7564 64.8863 57.6584 65.1655C57.2283 66.3907 57.0103 67.6763 57.0103 68.9861C57.0103 69.3339 57.0267 69.6778 57.0569 70.0178H44.8281C46.0345 68.8621 46.7884 67.2349 46.7884 65.4334V64.3456H51.57C52.0556 64.3456 52.449 63.9522 52.449 63.4667C52.449 62.9812 52.0556 62.5878 51.57 62.5878H45.9094C45.4238 62.5878 45.0304 62.9812 45.0304 63.4667V65.4334C45.0304 67.9613 42.9829 70.0178 40.4664 70.0178H36.011V26.7578ZM31.3846 74.6615V62.6471C31.3846 62.1616 30.9911 61.7682 30.5056 61.7682C30.02 61.7682 29.6266 62.1616 29.6266 62.6471V74.9544C29.6266 75.7622 30.2837 76.4193 31.0916 76.4193H54.1608V79.3053H26.758V36.0455H29.6266V58.9321C29.6266 59.4176 30.02 59.811 30.5056 59.811C30.9911 59.811 31.3846 59.4176 31.3846 58.9321V31.4017H34.2532V70.8968C34.2532 71.3823 34.6466 71.7757 35.1322 71.7757H57.3522C57.6072 72.7984 57.9988 73.7673 58.5068 74.6616H31.3846V74.6615ZM82.8255 82.8237C82.2173 83.43 81.1854 83.3682 80.5569 82.7068L75.4449 78.1286C76.234 77.5242 76.9617 76.7978 77.5669 76.0121L82.7606 80.6332C83.36 81.2102 83.4295 82.2421 82.8255 82.8237Z" fill="#676767"/>
<path d="M68.4817 61.4738C64.4256 61.4161 60.9274 64.9265 60.9891 68.9862C60.9891 73.1285 64.3503 76.4983 68.4817 76.4983C72.613 76.4983 75.9741 73.1285 75.9741 68.9862C75.9741 64.8439 72.613 61.4738 68.4817 61.4738ZM68.4817 74.7404C65.3197 74.7404 62.7471 72.1591 62.7471 68.986C62.699 65.8768 65.3766 63.1876 68.4817 63.2316C71.6436 63.2316 74.2161 65.8129 74.2161 68.986C74.2161 72.1591 71.6437 74.7404 68.4817 74.7404Z" fill="#676767"/>
</svg>
