<svg id="Layer_1" data-name="Layer 1" xmlns="http://www.w3.org/2000/svg" xmlns:xlink="http://www.w3.org/1999/xlink" viewBox="0 0 351.22 203.2"><defs><style>.cls-1{fill:#fff;}.cls-2{fill:none;}.cls-3{fill:#231f20;}.cls-4{fill:url(#linear-gradient);}</style><linearGradient id="linear-gradient" x1="66.97" y1="48.69" x2="304.3" y2="48.69" gradientUnits="userSpaceOnUse"><stop offset="0" stop-color="#c3996b"/><stop offset="1" stop-color="#603813"/></linearGradient></defs><title>hasca-logo-siyah</title><path class="cls-1" d="M26,206a1,1,0,0,0-.61.2l-6.86,6v-5.39a.77.77,0,0,0-.26-.58.83.83,0,0,0-1.17,0,.81.81,0,0,0-.23.57v14.48a.79.79,0,0,0,.25.58.87.87,0,0,0,.57.22.86.86,0,0,0,.57-.21.78.78,0,0,0,.27-.59v-6.89l8-7a.78.78,0,0,0,.28-.6.81.81,0,0,0-.21-.55A.85.85,0,0,0,26,206Z" transform="translate(-16.84 -21.66)"/><path class="cls-1" d="M21,213.52a.85.85,0,0,0-.56-.32.71.71,0,0,0-.58.15.75.75,0,0,0-.35.5.74.74,0,0,0,.15.64l5.64,7.28a.81.81,0,0,0,.66.32.72.72,0,0,0,.47-.15.77.77,0,0,0,.35-.54.78.78,0,0,0-.17-.6Z" transform="translate(-16.84 -21.66)"/><path class="cls-1" d="M51.23,206a.77.77,0,0,0-.82.7v9.65a3.57,3.57,0,0,1-.34,1.58,4.14,4.14,0,0,1-.92,1.31,4.27,4.27,0,0,1-1.38.88,4.64,4.64,0,0,1-3.4,0,4.27,4.27,0,0,1-1.38-.88,4.17,4.17,0,0,1-.93-1.31,3.93,3.93,0,0,1-.33-1.58v-9.53a.78.78,0,0,0-.27-.59.87.87,0,0,0-1.15,0,.78.78,0,0,0-.24.57v9.55a5.52,5.52,0,0,0,.45,2.2,5.81,5.81,0,0,0,1.3,1.84,6.18,6.18,0,0,0,1.94,1.24,6.3,6.3,0,0,0,6.56-1.24,5.68,5.68,0,0,0,1.31-1.84,5.51,5.51,0,0,0,.47-2.3v-9.43a.78.78,0,0,0-.27-.59A.9.9,0,0,0,51.23,206Z" transform="translate(-16.84 -21.66)"/><path class="cls-1" d="M76.9,213.86a5.44,5.44,0,0,0,.46-2.21,5.35,5.35,0,0,0-.46-2.19,5.62,5.62,0,0,0-1.31-1.85,6,6,0,0,0-1.94-1.23,6.48,6.48,0,0,0-4.59,0,6,6,0,0,0-1.94,1.23,5.47,5.47,0,0,0-1.76,4v9.54a.79.79,0,0,0,.26.59.83.83,0,0,0,1.17,0,.81.81,0,0,0,.23-.57v-9.54a3.7,3.7,0,0,1,.34-1.57,4.07,4.07,0,0,1,1-1.29,4.21,4.21,0,0,1,1.39-.88,4.62,4.62,0,0,1,3.39,0,4.27,4.27,0,0,1,1.38.88,4.13,4.13,0,0,1,.93,1.3,3.85,3.85,0,0,1,.33,1.57,3.94,3.94,0,0,1-.33,1.59,4.13,4.13,0,0,1-.93,1.3,4.48,4.48,0,0,1-1.38.89,4.71,4.71,0,0,1-1.78.35.78.78,0,0,0-.75.49.77.77,0,0,0,.2.92L76,221.77a.79.79,0,0,0,.56.23.76.76,0,0,0,.61-.27.79.79,0,0,0,0-1.12l0,0-3.9-3.49a6.21,6.21,0,0,0,2.39-1.4A5.6,5.6,0,0,0,76.9,213.86Z" transform="translate(-16.84 -21.66)"/><path class="cls-1" d="M101.82,206a.77.77,0,0,0-.82.7v9.65a3.57,3.57,0,0,1-.34,1.58,4.14,4.14,0,0,1-.92,1.31,4.27,4.27,0,0,1-1.38.88,4.64,4.64,0,0,1-3.4,0,4.27,4.27,0,0,1-1.38-.88,4.17,4.17,0,0,1-.93-1.31,3.93,3.93,0,0,1-.33-1.58v-9.53a.78.78,0,0,0-.27-.59.87.87,0,0,0-1.15,0,.78.78,0,0,0-.24.57v9.55a5.52,5.52,0,0,0,.45,2.2,5.81,5.81,0,0,0,1.3,1.84,6.3,6.3,0,0,0,1.94,1.24,6.25,6.25,0,0,0,6.53-1.24,6,6,0,0,0,1.32-1.84,5.69,5.69,0,0,0,.46-2.3v-9.43a.78.78,0,0,0-.27-.59A.93.93,0,0,0,101.82,206Z" transform="translate(-16.84 -21.66)"/><path class="cls-1" d="M126.59,206.07a.75.75,0,0,0-.62-.1.85.85,0,0,0-.51.36l-4,6.14-4-6.17a.91.91,0,0,0-.5-.33.71.71,0,0,0-.6.09.82.82,0,0,0-.4.49.74.74,0,0,0,.11.63l4.57,7v7a.83.83,0,0,0,.23.58.82.82,0,0,0,.59.24.86.86,0,0,0,.59-.23.83.83,0,0,0,.25-.59v-7l4.57-7a.8.8,0,0,0,.09-.62A.83.83,0,0,0,126.59,206.07Z" transform="translate(-16.84 -21.66)"/><path class="cls-1" d="M142.32,210.08a4.25,4.25,0,0,1,2.31-2.18,4.51,4.51,0,0,1,1.7-.33h3.07a.86.86,0,0,0,.59-.23.79.79,0,0,0,0-1.13l0-.05a.91.91,0,0,0-.57-.21h-3.1a6.36,6.36,0,0,0-2.28.43,5.86,5.86,0,0,0-3.26,3.08,5.44,5.44,0,0,0-.46,2.21v4.65a5.44,5.44,0,0,0,.46,2.21,5.86,5.86,0,0,0,3.26,3.08,6.42,6.42,0,0,0,2.3.42h3.08a.85.85,0,0,0,.57-.22.78.78,0,0,0,.24-.58.81.81,0,0,0-.23-.57.79.79,0,0,0-.58-.25h-3.1a4.32,4.32,0,0,1-1.7-.32,4.61,4.61,0,0,1-1.39-.88,4,4,0,0,1-.94-1.31,3.93,3.93,0,0,1-.33-1.58v-1.55h4.22a.79.79,0,0,0,.58-.25.8.8,0,0,0,0-1.13.78.78,0,0,0-.59-.24H142v-1.48A4,4,0,0,1,142.32,210.08Z" transform="translate(-16.84 -21.66)"/><path class="cls-1" d="M184.14,207.63a6.05,6.05,0,0,0-1.95-1.24,6.4,6.4,0,0,0-4.6,0,5.9,5.9,0,0,0-2.94,2.38,5.76,5.76,0,0,0-1-1.14,6.14,6.14,0,0,0-1.93-1.24,6.4,6.4,0,0,0-4.6,0,6,6,0,0,0-3.25,3.09,5.51,5.51,0,0,0-.46,2.19v9.58a.78.78,0,0,0,.27.59.88.88,0,0,0,1.14,0,.79.79,0,0,0,.25-.58v-9.59a3.94,3.94,0,0,1,.33-1.59,4.25,4.25,0,0,1,2.31-2.18,4.64,4.64,0,0,1,3.4,0,4.21,4.21,0,0,1,1.39.88,4.13,4.13,0,0,1,.93,1.3,3.64,3.64,0,0,1,.34,1.59v9.58a.78.78,0,0,0,.27.59.88.88,0,0,0,1.14,0,.79.79,0,0,0,.25-.58v-9.59a3.94,3.94,0,0,1,.33-1.59,4.33,4.33,0,0,1,.94-1.3,4.21,4.21,0,0,1,1.39-.88,4.64,4.64,0,0,1,3.4,0,4.25,4.25,0,0,1,2.31,2.18,3.94,3.94,0,0,1,.33,1.59v9.58a.78.78,0,0,0,.27.59.86.86,0,0,0,.57.21.89.89,0,0,0,.58-.22.78.78,0,0,0,.24-.58v-9.58a5.5,5.5,0,0,0-.45-2.19A5.81,5.81,0,0,0,184.14,207.63Z" transform="translate(-16.84 -21.66)"/><path class="cls-1" d="M199.42,210.66a.81.81,0,0,0-.23.57v10a.78.78,0,0,0,.24.58.87.87,0,0,0,1.15,0,.78.78,0,0,0,.27-.59v-10a.79.79,0,0,0-.26-.59A.84.84,0,0,0,199.42,210.66Z" transform="translate(-16.84 -21.66)"/><path class="cls-1" d="M199.43,207.2a.76.76,0,0,0-.24.57v.63a.75.75,0,0,0,.24.58.8.8,0,0,0,.58.22.89.89,0,0,0,.56-.2.78.78,0,0,0,.28-.6v-.63a.76.76,0,0,0-.27-.58A.87.87,0,0,0,199.43,207.2Z" transform="translate(-16.84 -21.66)"/><path class="cls-1" d="M223.84,212.77a6,6,0,0,0-4-1.57,2.18,2.18,0,0,1-1.35-.43,1.7,1.7,0,0,1-.69-1.22,1.54,1.54,0,0,1,.32-1.17l.13-.16a1.82,1.82,0,0,1,.58-.45,2.09,2.09,0,0,1,.73-.2A2,2,0,0,1,221,208a.87.87,0,0,0,.58.18.79.79,0,0,0,.57-.28.8.8,0,0,0,.19-.59.75.75,0,0,0-.32-.58,4,4,0,0,0-1.25-.62,3.85,3.85,0,0,0-1.35-.12,3.54,3.54,0,0,0-1.32.35,3.86,3.86,0,0,0-1.12.85l-.11.15h0a3.27,3.27,0,0,0-.7,2.39,3.2,3.2,0,0,0,.4,1.28,3.64,3.64,0,0,0,3.29,1.81,3.94,3.94,0,0,1,1.55.31,4.12,4.12,0,0,1,1.28.82,3.78,3.78,0,0,1,.87,1.22,3.36,3.36,0,0,1,.31,1.46,3.29,3.29,0,0,1-.31,1.45,3.89,3.89,0,0,1-.87,1.22,4.16,4.16,0,0,1-5.69,0,4.06,4.06,0,0,1-.87-1.22,3.63,3.63,0,0,1-.31-1.52.81.81,0,0,0-.23-.57.84.84,0,0,0-1.43.64,5.31,5.31,0,0,0,.43,2.08,5.53,5.53,0,0,0,1.24,1.75,5.68,5.68,0,0,0,1.84,1.18,6,6,0,0,0,1.63.35l-.72,2.48,1.43.41.84-2.93a6.62,6.62,0,0,0,1.16-.31,5.62,5.62,0,0,0,1.85-1.18,5.23,5.23,0,0,0,1.24-5.92A5.37,5.37,0,0,0,223.84,212.77Z" transform="translate(-16.84 -21.66)"/><path class="cls-1" d="M246,213.17h-7.83a.79.79,0,0,0-.58.25.82.82,0,0,0-.24.57.79.79,0,0,0,.25.58h0a.8.8,0,0,0,.57.22H246a.8.8,0,0,0,.58-.22.78.78,0,0,0,.24-.58.82.82,0,0,0-.82-.82Z" transform="translate(-16.84 -21.66)"/><path class="cls-1" d="M264.32,213.52a.85.85,0,0,0-.56-.32.71.71,0,0,0-.58.15.75.75,0,0,0-.35.5.78.78,0,0,0,.15.64l5.59,7.24a.81.81,0,0,0,.66.32.67.67,0,0,0,.47-.15.77.77,0,0,0,.35-.54.78.78,0,0,0-.17-.6Z" transform="translate(-16.84 -21.66)"/><path class="cls-1" d="M269.32,206a1,1,0,0,0-.61.2l-6.86,6v-5.39a.77.77,0,0,0-.26-.58.83.83,0,0,0-1.17,0,.81.81,0,0,0-.23.57v14.48a.79.79,0,0,0,.25.58.87.87,0,0,0,.57.22.86.86,0,0,0,.57-.21.78.78,0,0,0,.27-.59v-6.89l8-7a.78.78,0,0,0,.28-.6.81.81,0,0,0-.21-.55A.85.85,0,0,0,269.32,206Z" transform="translate(-16.84 -21.66)"/><path class="cls-1" d="M293.63,207.61a6,6,0,0,0-1.94-1.23,6.45,6.45,0,0,0-4.58,0,5.86,5.86,0,0,0-3.26,3.08,5.44,5.44,0,0,0-.46,2.21v9.56a.78.78,0,0,0,.27.59.88.88,0,0,0,1.14,0,.79.79,0,0,0,.25-.58v-9.57a3.94,3.94,0,0,1,.33-1.59,4,4,0,0,1,.94-1.31,4.21,4.21,0,0,1,1.39-.88,4.64,4.64,0,0,1,3.4,0,4.26,4.26,0,0,1,2.31,2.18,3.94,3.94,0,0,1,.33,1.59v9.56a.78.78,0,0,0,.27.59.86.86,0,0,0,.57.21.87.87,0,0,0,.57-.22.79.79,0,0,0,.25-.58v-9.55a5.5,5.5,0,0,0-1.78-4.06Z" transform="translate(-16.84 -21.66)"/><path class="cls-1" d="M288.83,215.87a.77.77,0,0,0-.26.58v4.78a.79.79,0,0,0,.26.59.83.83,0,0,0,.58.23.75.75,0,0,0,.58-.24.78.78,0,0,0,.24-.58v-4.78a.78.78,0,0,0-.24-.57A.83.83,0,0,0,288.83,215.87Z" transform="translate(-16.84 -21.66)"/><path class="cls-1" d="M318.63,206a.77.77,0,0,0-.82.7v6.41h-7.49v-6.29a.78.78,0,0,0-.27-.59.88.88,0,0,0-1.14,0,.78.78,0,0,0-.24.57v14.48a.78.78,0,0,0,.24.58.88.88,0,0,0,1.14,0,.78.78,0,0,0,.27-.59v-6.55h7.45v6.55a.76.76,0,0,0,.72.8h.1a.86.86,0,0,0,.57-.21.78.78,0,0,0,.27-.59V206.77a.78.78,0,0,0-.27-.59A.94.94,0,0,0,318.63,206Z" transform="translate(-16.84 -21.66)"/><path class="cls-1" d="M344.32,206a.86.86,0,0,0-.63,0,.77.77,0,0,0-.43.47l-4.45,12.3-4.44-12.28A.83.83,0,0,0,334,206a1,1,0,0,0-1.11.41.79.79,0,0,0,0,.64L338,221.5h0v.38l.76.13h.53v0h.12v-.13h.07v-.28L344.74,207a.83.83,0,0,0,0-.58A.7.7,0,0,0,344.32,206Z" transform="translate(-16.84 -21.66)"/><path class="cls-1" d="M367.24,220.41h-3.08a4.27,4.27,0,0,1-1.69-.32,4.73,4.73,0,0,1-1.4-.88,3.92,3.92,0,0,1-.93-1.31,3.57,3.57,0,0,1-.34-1.58v-1.55H364a.78.78,0,0,0,.59-.25.81.81,0,0,0,.23-.57.76.76,0,0,0-.72-.8H359.8v-1.48a3.64,3.64,0,0,1,.34-1.59,4.1,4.1,0,0,1,.92-1.3,4.52,4.52,0,0,1,3.08-1.21h3.08a.83.83,0,0,0,.58-.23.79.79,0,0,0,0-1.18.91.91,0,0,0-.57-.21h-3.08a6.36,6.36,0,0,0-2.28.43,6,6,0,0,0-3.26,3.08,5.61,5.61,0,0,0-.46,2.21v4.65a5.61,5.61,0,0,0,.46,2.21,6,6,0,0,0,3.26,3.08,6.42,6.42,0,0,0,2.3.42h3.08a.8.8,0,0,0,.82-.78v0a.82.82,0,0,0-.82-.82Z" transform="translate(-16.84 -21.66)"/><path d="M94.3,89.66H95V87.79H79.31v1.87H80c3.35,0,4.33.45,4.33,3.41v32.36c-3.46-3.2-9.53-4.41-15.41-5.59l-.73-.15c-6.6-1.31-12.83-2.56-13.88-6.47V93.07c0-2.94,1-3.41,4.33-3.41h.68V87.79H43.64v1.87h.68c3.3,0,4.32.47,4.32,3.41v62.35c0,2.94-1,3.41-4.32,3.41h-.68v1.87H59.31v-1.87h-.68c-3.31,0-4.33-.47-4.33-3.41V117.94c3.28,2.59,8.84,3.66,13.81,4.62,6.79,1.25,15.25,2.81,16.21,8.33v24.53c0,3-1,3.41-4.33,3.41h-.68v1.87H95v-1.87H94.3c-3.3,0-4.33-.47-4.33-3.41V93.07C90,90.13,91,89.66,94.3,89.66Z" transform="translate(-16.84 -21.66)"/><path class="cls-2" d="M103.88,142c0,11,5.64,17.31,15.47,17.31,21.84,0,23.54-27.57,23.54-36v-7.08C132.87,116.33,103.88,118.65,103.88,142Z" transform="translate(-16.84 -21.66)"/><path d="M160.06,152.59v.68a5.65,5.65,0,0,1-6,6.07c-1.66,0-5.56,0-5.56-13.94V107.48c0-10.21-6.06-21.12-23.06-21.12-8.28,0-19.44,3.48-23.63,13.29l-.29.69,5.84,1.85.22-.62c3.23-9.17,11.8-12.42,18.16-12.42,15.17,0,17.11,10.72,17.11,20.07V114c-17,.09-44.67,4-44.67,28.07,0,12,8.49,20.1,21.13,20.1,10.63,0,18.57-5.29,23.61-15.72.56,10.43,4.16,15.72,10.73,15.72a8.7,8.7,0,0,0,9.06-8.86v-.68Zm-17.17-29.27c0,8.45-1.7,36-23.54,36-9.83,0-15.47-6.31-15.47-17.31,0-23.38,29-25.7,39-25.79Z" transform="translate(-16.84 -21.66)"/><path d="M189.86,121.37c-8.1-5.24-15.76-10.19-15.76-18.8,0-9.77,6.42-13.34,12.4-13.42,6.36.09,11.3,5.17,11.49,11.81l.06,2,5.2-7.3-.19-.37c-2.81-5.5-8.91-8.85-16.35-9h-.31c-10.9.1-18,6.75-18,16.93,0,11.42,9.32,17.3,18.33,23,7.71,4.87,15,9.47,15,17.07,0,3.74-1.16,16-16.08,16a16.23,16.23,0,0,1-11.86-4.56A16.6,16.6,0,0,1,169.3,143c0-4.63,1.84-9.09,5.46-13.25l.51-.59L170,125.7l-.39.45a23.63,23.63,0,0,0-5.79,15.9c.32,11.82,9.3,20.08,21.84,20.08,15.95,0,21.74-11.17,21.74-18.67C207.43,132.73,198.5,127,189.86,121.37Z" transform="translate(-16.84 -21.66)"/><path d="M275.37,135.52v.68c0,11.14-9,23.14-28.65,23.14-15.36,0-30.91-12.06-30.91-35.1s15.55-35.09,30.91-35.09c19.92,0,25.08,13.28,27.24,23.28l.11.53h2.66V87.79H275l-.63.1,0,.64a4.09,4.09,0,0,1-4.43,4,7.62,7.62,0,0,1-3.85-1.13,37.93,37.93,0,0,0-19.35-5c-20.9,0-37.27,16.64-37.27,37.88s16.37,37.89,37.27,37.89c18.87,0,31.55-10.42,31.55-25.93v-.68Z" transform="translate(-16.84 -21.66)"/><path d="M346.42,152.59v.68a5.65,5.65,0,0,1-6,6.07c-1.67,0-5.56,0-5.56-13.94V107.48c0-10.21-6.06-21.12-23.06-21.12-8.28,0-19.44,3.48-23.63,13.29l-.29.69,5.84,1.85.22-.62c3.23-9.17,11.8-12.42,18.16-12.42,15.16,0,17.11,10.72,17.11,20.07V114c-17,.09-44.67,4-44.67,28.07,0,12,8.49,20.1,21.12,20.1,10.64,0,18.57-5.29,23.62-15.72.55,10.43,4.15,15.72,10.73,15.72a8.7,8.7,0,0,0,9.06-8.86v-.68Zm-17.17-36.35v7.08c0,8.45-1.7,36-23.55,36-9.83,0-15.47-6.31-15.47-17.31C290.23,118.65,319.23,116.33,329.25,116.24Z" transform="translate(-16.84 -21.66)"/><path class="cls-3" d="M349.47,96.41a7.22,7.22,0,1,1,7.21-7.22A7.22,7.22,0,0,1,349.47,96.41Zm0-14.09a6.88,6.88,0,1,0,6.87,6.87A6.88,6.88,0,0,0,349.47,82.32Z" transform="translate(-16.84 -21.66)"/><path class="cls-3" d="M346.5,87.43v-.05a3,3,0,0,1,1-2.2,3.28,3.28,0,0,1,1.06-.67,3.45,3.45,0,0,1,2.53,0,3.18,3.18,0,0,1,1.06.67,3.23,3.23,0,0,1,.72,1,2.89,2.89,0,0,1,.25,1.19,2.84,2.84,0,0,1-.25,1.2,3.12,3.12,0,0,1-.72,1,3.31,3.31,0,0,1-1.77.88L353,92.86a.18.18,0,0,1,.07.15.19.19,0,0,1-.07.16.2.2,0,0,1-.17.08.21.21,0,0,1-.15-.07l-3.05-2.74a.18.18,0,0,1-.06-.23.21.21,0,0,1,.21-.15,2.87,2.87,0,0,0,1.1-.21,2.71,2.71,0,0,0,1.5-1.42,2.5,2.5,0,0,0,.22-1.05,2.46,2.46,0,0,0-.22-1,2.8,2.8,0,0,0-.6-.84,3,3,0,0,0-.9-.57,3,3,0,0,0-2.2,0,2.83,2.83,0,0,0-.89.57,2.67,2.67,0,0,0-.61.84,2.46,2.46,0,0,0-.22,1h0V93a.25.25,0,0,1-.06.16.26.26,0,0,1-.17.07.24.24,0,0,1-.16-.07.23.23,0,0,1-.08-.16V87.44Z" transform="translate(-16.84 -21.66)"/><rect class="cls-3" x="241.72" y="166.82" width="8.49" height="3.52" transform="translate(-0.95 336.63) rotate(-73.93)"/><path d="M64,182.72a.76.76,0,0,0-.48.15l-5.37,4.72v-4.24a.61.61,0,0,0-.2-.45.65.65,0,0,0-.91,0,.62.62,0,0,0-.18.44v11.33a.61.61,0,0,0,.19.45.64.64,0,0,0,.45.17.72.72,0,0,0,.44-.16.59.59,0,0,0,.21-.46v-5.39l6.24-5.46a.59.59,0,0,0,.22-.47.56.56,0,0,0-.17-.43A.64.64,0,0,0,64,182.72Z" transform="translate(-16.84 -21.66)"/><path d="M60.08,188.63a.64.64,0,0,0-.44-.25.6.6,0,0,0-.46.11.65.65,0,0,0-.27.4.58.58,0,0,0,.12.5l4.37,5.66a.65.65,0,0,0,.52.25.5.5,0,0,0,.36-.12.6.6,0,0,0,.28-.42.68.68,0,0,0-.13-.47Z" transform="translate(-16.84 -21.66)"/><path d="M83.7,182.71a.6.6,0,0,0-.64.63v7.46A3,3,0,0,1,82.8,192a3.12,3.12,0,0,1-.73,1,3.44,3.44,0,0,1-1.08.69,3.57,3.57,0,0,1-2.65,0,3.49,3.49,0,0,1-1.09-.69,3.25,3.25,0,0,1-.72-1,3,3,0,0,1-.26-1.24v-7.46a.59.59,0,0,0-.21-.46.68.68,0,0,0-.9,0,.64.64,0,0,0-.19.45v7.46a4.3,4.3,0,0,0,.35,1.72,4.51,4.51,0,0,0,1,1.44,4.59,4.59,0,0,0,1.52,1,4.76,4.76,0,0,0,1.8.34,4.71,4.71,0,0,0,1.79-.34,4.67,4.67,0,0,0,2.54-2.4,4.32,4.32,0,0,0,.37-1.8v-7.39a.6.6,0,0,0-.22-.46A.66.66,0,0,0,83.7,182.71Z" transform="translate(-16.84 -21.66)"/><path d="M103.77,188.9a4.21,4.21,0,0,0,0-3.45,4.58,4.58,0,0,0-2.54-2.4,5,5,0,0,0-3.59,0,4.8,4.8,0,0,0-1.52,1,4.55,4.55,0,0,0-1,1.45,4.32,4.32,0,0,0-.35,1.71v7.46a.65.65,0,0,0,.2.46.67.67,0,0,0,.92,0,.64.64,0,0,0,.18-.45v-7.46a3,3,0,0,1,.26-1.23,3.35,3.35,0,0,1,1.81-1.71,3.67,3.67,0,0,1,2.65,0,3.44,3.44,0,0,1,1.08.69,3.23,3.23,0,0,1,.73,1,3,3,0,0,1,.26,1.23,3,3,0,0,1-.26,1.24,3.23,3.23,0,0,1-.73,1,3.46,3.46,0,0,1-2.41.94.62.62,0,0,0-.59.39.61.61,0,0,0,.16.72l4,3.61a.64.64,0,0,0,.44.18.62.62,0,0,0,.48-.21.65.65,0,0,0,.18-.44.57.57,0,0,0-.21-.45l-3.05-2.74a4.66,4.66,0,0,0,1.87-1.09A4.36,4.36,0,0,0,103.77,188.9Z" transform="translate(-16.84 -21.66)"/><path d="M123.26,182.71a.6.6,0,0,0-.64.63v7.46a3,3,0,0,1-.26,1.24,3.12,3.12,0,0,1-.73,1,3.33,3.33,0,0,1-1.08.69,3.57,3.57,0,0,1-2.65,0,3.33,3.33,0,0,1-1.08-.69,3.12,3.12,0,0,1-.73-1,3,3,0,0,1-.26-1.24v-7.46a.59.59,0,0,0-.21-.46.68.68,0,0,0-.9,0,.64.64,0,0,0-.19.45v7.46a4.14,4.14,0,0,0,.36,1.72,4.33,4.33,0,0,0,1,1.44,4.8,4.8,0,0,0,3.32,1.31,4.67,4.67,0,0,0,1.79-.34,4.59,4.59,0,0,0,1.52-1,4.42,4.42,0,0,0,1-1.43,4.32,4.32,0,0,0,.37-1.8v-7.39a.6.6,0,0,0-.22-.46A.66.66,0,0,0,123.26,182.71Z" transform="translate(-16.84 -21.66)"/><path d="M142.63,182.81a.61.61,0,0,0-.49-.09.72.72,0,0,0-.4.28l-3.11,4.81L135.5,183a.73.73,0,0,0-.39-.26.61.61,0,0,0-.48.08.6.6,0,0,0-.3.38.53.53,0,0,0,.09.49l3.57,5.51v5.45a.64.64,0,0,0,.18.45.6.6,0,0,0,.46.19.65.65,0,0,0,.65-.64v-5.45l3.58-5.52a.62.62,0,0,0,.07-.48A.61.61,0,0,0,142.63,182.81Z" transform="translate(-16.84 -21.66)"/><path d="M154.91,185.94a3.37,3.37,0,0,1,.72-1,3.56,3.56,0,0,1,1.08-.69A3.5,3.5,0,0,1,158,184h2.41a.63.63,0,0,0,.45-.18.65.65,0,0,0,.2-.46.59.59,0,0,0-.21-.46.66.66,0,0,0-.44-.17H158a5.06,5.06,0,0,0-1.78.33,4.59,4.59,0,0,0-1.52,1,4.65,4.65,0,0,0-1,1.44,4.29,4.29,0,0,0-.36,1.73v3.64a4.29,4.29,0,0,0,.36,1.73,4.54,4.54,0,0,0,1,1.44,4.59,4.59,0,0,0,1.52,1,4.92,4.92,0,0,0,1.8.33h2.4a.63.63,0,0,0,.45-.18.6.6,0,0,0,.19-.45.6.6,0,0,0-.18-.44.61.61,0,0,0-.46-.2h-2.4a3.46,3.46,0,0,1-1.33-.25,3.61,3.61,0,0,1-1.09-.69,3.35,3.35,0,0,1-.73-1,3.06,3.06,0,0,1-.26-1.24v-1.18H158a.68.68,0,0,0,.46-.19.64.64,0,0,0,.18-.45.59.59,0,0,0-.64-.62h-3.3v-1.2A2.9,2.9,0,0,1,154.91,185.94Z" transform="translate(-16.84 -21.66)"/><path d="M187.63,184a4.75,4.75,0,0,0-1.52-1,5,5,0,0,0-3.6,0,4.74,4.74,0,0,0-2.26,1.87,4.77,4.77,0,0,0-2.25-1.87,5,5,0,0,0-3.59,0,4.75,4.75,0,0,0-1.52,1,4.58,4.58,0,0,0-1,1.45,4.2,4.2,0,0,0-.36,1.71v7.5a.62.62,0,0,0,.21.46.7.7,0,0,0,.9,0,.64.64,0,0,0,.19-.45v-7.5a2.9,2.9,0,0,1,.26-1.24,3.37,3.37,0,0,1,.72-1,3.49,3.49,0,0,1,1.09-.69,3.67,3.67,0,0,1,2.65,0,3.61,3.61,0,0,1,1.09.69,3.19,3.19,0,0,1,.73,1,2.9,2.9,0,0,1,.26,1.24v7.5a.63.63,0,0,0,.22.46.68.68,0,0,0,.89,0,.64.64,0,0,0,.19-.45v-7.5a3.06,3.06,0,0,1,.26-1.24,3.35,3.35,0,0,1,.73-1,3.61,3.61,0,0,1,1.09-.69,3.7,3.7,0,0,1,2.66,0,3.44,3.44,0,0,1,1.08.69,3.2,3.2,0,0,1,.72,1,2.91,2.91,0,0,1,.27,1.24v7.5a.62.62,0,0,0,.21.46.7.7,0,0,0,.44.16.66.66,0,0,0,.45-.17.61.61,0,0,0,.19-.45v-7.5a4.31,4.31,0,0,0-1.37-3.16Z" transform="translate(-16.84 -21.66)"/><path d="M199.58,186.39a.64.64,0,0,0-.18.45v7.84a.65.65,0,0,0,.19.45.68.68,0,0,0,.45.17.73.73,0,0,0,.45-.16.62.62,0,0,0,.21-.46v-7.84a.63.63,0,0,0-.2-.46A.67.67,0,0,0,199.58,186.39Z" transform="translate(-16.84 -21.66)"/><path d="M199.59,183.69a.61.61,0,0,0-.19.44v.5a.62.62,0,0,0,.19.45.67.67,0,0,0,.45.18.64.64,0,0,0,.44-.17.6.6,0,0,0,.22-.46v-.5a.6.6,0,0,0-.21-.45A.67.67,0,0,0,199.59,183.69Z" transform="translate(-16.84 -21.66)"/><path d="M218.68,188a4.76,4.76,0,0,0-1.44-.89,5,5,0,0,0-1.69-.34,1.66,1.66,0,0,1-1.06-.33,1.34,1.34,0,0,1-.53-1,1.23,1.23,0,0,1,.24-.91l.11-.12a1.33,1.33,0,0,1,.45-.36,1.92,1.92,0,0,1,.57-.15,1.49,1.49,0,0,1,.59.06,1.41,1.41,0,0,1,.52.26.68.68,0,0,0,.46.14.63.63,0,0,0,.44-.22.61.61,0,0,0,.15-.46.56.56,0,0,0-.25-.45,2.82,2.82,0,0,0-1-.49,3,3,0,0,0-2.09.18,2.82,2.82,0,0,0-.87.67l-.08.11h0a2.58,2.58,0,0,0-.45.81,2.67,2.67,0,0,0-.11,1.06,2.73,2.73,0,0,0,.32,1,2.84,2.84,0,0,0,.7.81,3,3,0,0,0,1.87.61,3.07,3.07,0,0,1,1.21.24,3.11,3.11,0,0,1,1,.64,3,3,0,0,1,.67.95,2.61,2.61,0,0,1,.25,1.15,2.56,2.56,0,0,1-.25,1.13,3,3,0,0,1-.67.95,3.31,3.31,0,0,1-1,.65,3.37,3.37,0,0,1-2.44,0,3.43,3.43,0,0,1-1-.65,3,3,0,0,1-.67-.95,2.64,2.64,0,0,1-.25-1.19.63.63,0,0,0-.18-.45.66.66,0,0,0-.91,0,.64.64,0,0,0-.21.52,4.09,4.09,0,0,0,.34,1.62,4.23,4.23,0,0,0,1,1.37,4.48,4.48,0,0,0,1.44.92,4.58,4.58,0,0,0,1.27.28l-.56,1.94,1.11.32.67-2.3a4.13,4.13,0,0,0,.9-.24,4.42,4.42,0,0,0,1.45-.92,4.18,4.18,0,0,0,1-1.37,4.08,4.08,0,0,0,0-3.26A4.33,4.33,0,0,0,218.68,188Z" transform="translate(-16.84 -21.66)"/><path d="M236,188.36h-6.12a.63.63,0,0,0-.64.64.6.6,0,0,0,.19.45h0a.63.63,0,0,0,.45.18H236a.63.63,0,0,0,.45-.18.6.6,0,0,0,.19-.45.6.6,0,0,0-.18-.44A.61.61,0,0,0,236,188.36Z" transform="translate(-16.84 -21.66)"/><path d="M250.35,188.63a.64.64,0,0,0-.44-.25.58.58,0,0,0-.45.11.66.66,0,0,0-.28.4.65.65,0,0,0,.12.5l4.37,5.66a.65.65,0,0,0,.52.25.51.51,0,0,0,.37-.12.62.62,0,0,0,.27-.42.63.63,0,0,0-.13-.47Z" transform="translate(-16.84 -21.66)"/><path d="M254.22,182.72a.73.73,0,0,0-.47.15l-5.37,4.72v-4.24a.58.58,0,0,0-.21-.45.65.65,0,0,0-.91,0,.62.62,0,0,0-.18.44v11.33a.65.65,0,0,0,.19.45.66.66,0,0,0,.45.17.7.7,0,0,0,.44-.16.6.6,0,0,0,.22-.46v-5.39l6.23-5.46a.59.59,0,0,0,.22-.47.6.6,0,0,0-.16-.43A.66.66,0,0,0,254.22,182.72Z" transform="translate(-16.84 -21.66)"/><path d="M273.26,184a4.8,4.8,0,0,0-1.52-1,5.1,5.1,0,0,0-3.59,0,4.8,4.8,0,0,0-1.52,1,4.62,4.62,0,0,0-1,1.44,4.29,4.29,0,0,0-.36,1.73v7.48a.59.59,0,0,0,.21.46.67.67,0,0,0,.89,0,.58.58,0,0,0,.19-.45v-7.48a3.06,3.06,0,0,1,.26-1.24,3.3,3.3,0,0,1,1.83-1.71,3.67,3.67,0,0,1,2.65,0,3.44,3.44,0,0,1,1.08.69,3.23,3.23,0,0,1,.73,1,3.06,3.06,0,0,1,.26,1.24v7.48a.59.59,0,0,0,.21.46.67.67,0,0,0,.44.17.61.61,0,0,0,.45-.18.58.58,0,0,0,.19-.45v-7.48a4.29,4.29,0,0,0-.36-1.73A4.51,4.51,0,0,0,273.26,184Z" transform="translate(-16.84 -21.66)"/><path d="M269.5,190.47a.61.61,0,0,0-.2.45v3.74a.63.63,0,0,0,.2.46.65.65,0,0,0,.91,0,.63.63,0,0,0,.18-.45v-3.74a.6.6,0,0,0-.18-.44A.65.65,0,0,0,269.5,190.47Z" transform="translate(-16.84 -21.66)"/><path d="M292.8,182.71a.6.6,0,0,0-.64.63v4.93h-5.82v-4.93a.59.59,0,0,0-.21-.46.68.68,0,0,0-.9,0,.64.64,0,0,0-.19.45v11.32a.61.61,0,0,0,.2.45.67.67,0,0,0,.89,0,.59.59,0,0,0,.21-.46v-5.12h5.82v5.12a.6.6,0,0,0,.64.63.68.68,0,0,0,.45-.17.59.59,0,0,0,.21-.46V183.34a.59.59,0,0,0-.21-.46A.68.68,0,0,0,292.8,182.71Z" transform="translate(-16.84 -21.66)"/><path d="M312.87,182.75a.67.67,0,0,0-.5,0,.56.56,0,0,0-.33.36l-3.46,9.6-3.47-9.61a.6.6,0,0,0-.33-.35.62.62,0,0,0-.46,0,.61.61,0,0,0-.42.82L308,194.84v0h0l0,.3.6.1H309v0h.09l0-.1h.05v-.22l4.09-11.36a.69.69,0,0,0,0-.45A.57.57,0,0,0,312.87,182.75Z" transform="translate(-16.84 -21.66)"/><path d="M330.81,194h-2.4a3.46,3.46,0,0,1-1.33-.25,3.61,3.61,0,0,1-1.09-.69,3.35,3.35,0,0,1-.73-1,3.06,3.06,0,0,1-.26-1.24v-1.18h3.3a.68.68,0,0,0,.46-.19.64.64,0,0,0,.18-.45.59.59,0,0,0-.64-.62H325v-1.2a2.9,2.9,0,0,1,.26-1.24,3.37,3.37,0,0,1,.72-1,3.49,3.49,0,0,1,1.09-.69,3.41,3.41,0,0,1,1.32-.25h2.41a.63.63,0,0,0,.45-.18.62.62,0,0,0,.21-.46.6.6,0,0,0-.22-.46.66.66,0,0,0-.44-.17h-2.41a5.06,5.06,0,0,0-1.78.33,4.59,4.59,0,0,0-1.52,1,4.65,4.65,0,0,0-1,1.44,4.29,4.29,0,0,0-.36,1.73v3.64a4.29,4.29,0,0,0,.36,1.73,4.54,4.54,0,0,0,1,1.44,4.59,4.59,0,0,0,1.52,1,5,5,0,0,0,1.8.33h2.4a.63.63,0,0,0,.45-.18.61.61,0,0,0,.2-.45.67.67,0,0,0-.65-.64Z" transform="translate(-16.84 -21.66)"/><path class="cls-4" d="M304.27,68.16,303.79,67c-.15-.37-.42-.83-.71-1.39-.15-.28-.34-.55-.53-.85s-.39-.64-.64-1l-.77-1-.94-1.08a30.15,30.15,0,0,0-2.34-2.28,34.49,34.49,0,0,0-6.73-4.5,45.08,45.08,0,0,0-4.35-2c-1.57-.58-3.22-1.17-5-1.63a55.3,55.3,0,0,0-11.64-1.83,46.56,46.56,0,0,0-13.37,1.24c-.36.09-.72.22-1.08.31a32.44,32.44,0,0,0-1.29-7.1A29.4,29.4,0,0,0,242.63,28a35,35,0,0,0-9.31-4.39c-.83-.23-1.66-.47-2.49-.68l-2.52-.53-.63-.09c-1.22-.17-3.23-.4-4.46-.51l-.66,0-.69,0-1.22,0-2-.05-2.61,0c-1,.07-2,0-3,.14l-2.54.23-1.27.11-1.27.18-2.53.37c-.84.12-1.68.31-2.51.47A93.64,93.64,0,0,0,193,25.78a123.48,123.48,0,0,0-18.73,8c-12,6.27-23.07,13.83-34.22,20.68a186.22,186.22,0,0,1-16.92,9.45c-2.85,1.43-5.78,2.63-8.7,3.78s-5.92,2-8.88,2.79c-8.53,2.36-13.9,1.89-17,1a9.41,9.41,0,0,1-6-5.16l0-.05a21.8,21.8,0,0,1-1.27-3.7,10.33,10.33,0,0,1,0-3.51l.3.07a15.85,15.85,0,0,0,5.14,0,11.92,11.92,0,0,0,2.66-.8,8.62,8.62,0,0,0,2.47-1.57A5.55,5.55,0,0,0,93.46,54a3.72,3.72,0,0,0-.06-1.72,3.21,3.21,0,0,0-.36-.83,2.4,2.4,0,0,0-.28-.37,1.39,1.39,0,0,0-.32-.32l-.36-.29a3.84,3.84,0,0,0-.4-.21,3,3,0,0,0-.85-.3,5.3,5.3,0,0,0-1.78-.11,6,6,0,0,0-.81.12L88,50l-.1,0-.13,0-.41.12-.81.25-.79.33a11.2,11.2,0,0,0-5.26,4.7,12.4,12.4,0,0,0-1.08,2.69,17.75,17.75,0,0,1-2.2-.75,16.16,16.16,0,0,1-6.16-4.54,18.19,18.19,0,0,1-2.88-4.93c-.07-.18-.14-.36-.2-.53s-.12-.34-.17-.51c-.1-.33-.21-.63-.29-.92-.14-.57-.28-1.06-.36-1.45-.15-.8-.23-1.21-.23-1.21l.21,1.21c.07.4.21.88.34,1.47.07.29.17.59.27.92,0,.17.1.34.16.51s.13.36.2.54A18.14,18.14,0,0,0,71,53a16.35,16.35,0,0,0,6.14,4.79,16.81,16.81,0,0,0,2.23.82A12.69,12.69,0,0,0,79,62.81a13.32,13.32,0,0,0,3,7.35,12.88,12.88,0,0,0,1.78,1.76,9.26,9.26,0,0,0,3.68,1.84c2.63.65,7.65,1.2,15.83-.47l.41-.08c.8-.15,1.55-.35,2.33-.53A83.94,83.94,0,0,0,115.28,70c3-1.12,6-2.33,9-3.69s5.87-2.8,8.79-4.31,5.78-3.12,8.64-4.75c11.48-6.49,22.79-13.58,34.67-19.27a130.72,130.72,0,0,1,18.2-7.22,88.05,88.05,0,0,1,9.37-2.26c.79-.14,1.57-.32,2.36-.43l2.37-.33,1.18-.16,1.19-.11,2.37-.2c.79-.08,1.56-.06,2.34-.1h4.68l1.31,0,.53,0,.58,0a43.25,43.25,0,0,1,9,1.46,28.75,28.75,0,0,1,14.71,9,26.94,26.94,0,0,1,4.38,7.41A28.57,28.57,0,0,1,252.62,52l-.19.07-.83.32-.83.33-.87.38a38.77,38.77,0,0,0-6.69,3.67l-.81.56-.78.61c-.53.39-1,.85-1.53,1.29l-.19.16-.12.12-.08.08-.34.35c-.22.23-.44.44-.68.73l-.68.82-.61.85a10.67,10.67,0,0,0-2,4.92h0a9.11,9.11,0,0,0,.06,3.33h0a6.77,6.77,0,0,0,2.36,3.92,5.82,5.82,0,0,0,4.57,1.14,9.8,9.8,0,0,0,4.19-1.91,17.74,17.74,0,0,0,3.2-3.16c.36-.43.68-.87,1-1.32s.68-1,.92-1.38l.33-.52.15-.24.07-.12a.68.68,0,0,0,.09-.16l.52-1c.18-.31.33-.71.5-1a10.94,10.94,0,0,0,.45-1.09c.14-.36.29-.72.41-1.08a28.64,28.64,0,0,0,1.14-4.51c.16-1.07.26-2.14.32-3.22.63-.14,1.27-.3,1.89-.41A60.29,60.29,0,0,1,270,53.74a58,58,0,0,1,19.76,4.15,37.38,37.38,0,0,1,6.61,3.5,26.32,26.32,0,0,1,4.29,3.51,22.66,22.66,0,0,1,2.24,2.63l.71,1a.38.38,0,0,0,.54.1A.4.4,0,0,0,304.27,68.16ZM82.11,56.3a9.53,9.53,0,0,1,4.31-4.23l.68-.33.71-.25.36-.13c-.06,0,0,0,0,0l.1,0,.19,0a4.74,4.74,0,0,1,.74-.14,3.27,3.27,0,0,1,2.46.5,2.21,2.21,0,0,1,.76,2.17A4.44,4.44,0,0,1,91.2,56a9.45,9.45,0,0,1-4.63,2.33,15.18,15.18,0,0,1-5.19.16h0A11.13,11.13,0,0,1,82.11,56.3Zm170.58,1.49a27.46,27.46,0,0,1-.77,4.14,18.77,18.77,0,0,1-.66,2c-.13.32-.22.62-.39,1l-.48,1a.31.31,0,0,0,0,.09l-.07.11-.13.23-.31.55c-.2.36-.56.94-.78,1.29s-.54.85-.85,1.24c-.39.56-.85,1.06-1.29,1.58a15.46,15.46,0,0,1-1.46,1.35,7.62,7.62,0,0,1-3.33,1.65,4.11,4.11,0,0,1-3.26-.74,4.26,4.26,0,0,1-.62-.58c-.09-.11-.17-.23-.26-.35a2.25,2.25,0,0,1-.24-.36,4.3,4.3,0,0,1-.3-.65,7.12,7.12,0,0,1-.37-1.71,11.92,11.92,0,0,1,.36-3.06,10.08,10.08,0,0,1,1.57-3l.56-.71.61-.62a8.81,8.81,0,0,1,.69-.64l.36-.31.09-.08s.09-.09.06-.05l.66-.5q.5-.36,1-.69l.76-.49.79-.44a37.55,37.55,0,0,1,6.47-2.78l.81-.26c.27-.09.57-.17.85-.25l.1,0C252.79,56.36,252.74,57.07,252.69,57.79Z" transform="translate(-16.84 -21.66)"/></svg>