<svg id="Layer_1" data-name="Layer 1" xmlns="http://www.w3.org/2000/svg" xmlns:xlink="http://www.w3.org/1999/xlink" viewBox="0 0 400.32 224.87"><defs><style>.cls-1{fill:#fff;}.cls-2{fill:none;}.cls-3{fill:url(#linear-gradient);}</style><linearGradient id="linear-gradient" x1="38.52" y1="48.79" x2="342.02" y2="48.79" gradientUnits="userSpaceOnUse"><stop offset="0" stop-color="#c3996b"/><stop offset="1" stop-color="#603813"/></linearGradient></defs><title>hasca-logo</title><path class="cls-1" d="M73.46,101.19h.87v-2.4h-20v2.4h.87c4.29,0,5.54.57,5.54,4.36v41.38c-4.43-4.09-12.18-5.64-19.7-7.15l-.94-.18c-8.43-1.69-16.4-3.28-17.75-8.29V105.55c0-3.76,1.31-4.36,5.53-4.36h.87v-2.4h-20v2.4h.87c4.22,0,5.53.6,5.53,4.36v79.73c0,3.75-1.31,4.36-5.53,4.36H8.68V192h20v-2.39h-.87c-4.22,0-5.53-.61-5.53-4.36V137.36c4.2,3.3,11.31,4.67,17.66,5.9,8.69,1.6,19.5,3.59,20.73,10.65v31.37c0,3.78-1.25,4.36-5.54,4.36h-.87V192h20v-2.39h-.87c-4.22,0-5.53-.61-5.53-4.36V105.55C67.93,101.79,69.24,101.19,73.46,101.19Z" transform="translate(-8.68 -14.23)"/><path class="cls-2" d="M85.71,168.15c0,14.07,7.21,22.14,19.78,22.14,27.94,0,30.11-35.25,30.11-46.06v-9.06C122.79,135.3,85.71,138.26,85.71,168.15Z" transform="translate(-8.68 -14.23)"/><path class="cls-1" d="M157.56,181.66v.87c0,5.73-4.11,7.76-7.62,7.76-2.13,0-7.11,0-7.11-17.82V124c0-13-7.75-27-29.49-27-10.59,0-24.86,4.46-30.21,17l-.38.88,7.47,2.38.28-.8c4.13-11.73,15.09-15.89,23.23-15.89,19.39,0,21.87,13.72,21.87,25.67v6.06c-21.74.12-57.12,5.07-57.12,35.89,0,15.38,10.86,25.71,27,25.71,13.61,0,23.75-6.76,30.21-20.1.7,13.34,5.31,20.1,13.71,20.1S161,187.09,161,182.53v-.87Zm-22-37.43c0,10.81-2.17,46.06-30.11,46.06-12.57,0-19.78-8.07-19.78-22.14,0-29.89,37.08-32.85,49.89-33Z" transform="translate(-8.68 -14.23)"/><path class="cls-1" d="M195.67,141.74c-10.37-6.7-20.15-13-20.15-24,0-12.49,8.2-17.06,15.85-17.17,8.13.13,14.45,6.62,14.7,15.11l.07,2.58,6.65-9.33-.24-.47c-3.59-7-11.4-11.32-20.91-11.46h-.4c-13.94.14-23,8.64-23,21.66,0,14.6,11.92,22.13,23.44,29.41,9.86,6.22,19.17,12.1,19.17,21.82,0,4.8-1.48,20.44-20.56,20.44-6.15,0-11.39-2-15.17-5.83a21.19,21.19,0,0,1-5.79-15.13c0-5.91,2.34-11.61,7-16.94l.66-.76-6.71-4.35-.49.57a30.23,30.23,0,0,0-7.4,20.33c.4,15.12,11.89,25.68,27.93,25.68,20.39,0,27.79-14.28,27.79-23.87C218.13,156.26,206.71,148.88,195.67,141.74Z" transform="translate(-8.68 -14.23)"/><path class="cls-1" d="M305,159.83v.87c0,14.25-11.47,29.59-36.64,29.59-19.64,0-39.52-15.42-39.52-44.88s19.88-44.88,39.52-44.88c25.47,0,32.08,17,34.83,29.77l.15.69h3.4V98.79h-2.18l-.81.13,0,.82c-.25,3.73-3.1,5.07-5.67,5.07a9.71,9.71,0,0,1-4.92-1.45A48.5,48.5,0,0,0,268.38,97c-26.73,0-47.67,21.28-47.67,48.45s20.94,48.45,47.67,48.45c24.13,0,40.34-13.33,40.34-33.16v-.87Z" transform="translate(-8.68 -14.23)"/><path class="cls-1" d="M395.87,181.66v.87c0,5.73-4.1,7.76-7.62,7.76-2.13,0-7.11,0-7.11-17.82V124c0-13-7.74-27-29.49-27-10.59,0-24.85,4.46-30.21,17l-.38.88,7.47,2.38.28-.8c4.13-11.73,15.1-15.89,23.23-15.89,19.39,0,21.87,13.72,21.87,25.67v6.06c-21.74.12-57.11,5.07-57.11,35.89,0,15.38,10.85,25.71,27,25.71,13.6,0,23.74-6.76,30.2-20.1.7,13.34,5.31,20.1,13.71,20.1s11.59-6.77,11.59-11.33v-.87Zm-22-46.49v9.06c0,10.81-2.17,46.06-30.1,46.06-12.58,0-19.79-8.07-19.79-22.14C324,138.26,361.1,135.3,373.91,135.17Z" transform="translate(-8.68 -14.23)"/><path class="cls-1" d="M399.77,109.82a9.23,9.23,0,1,1,9.23-9.23A9.24,9.24,0,0,1,399.77,109.82Zm0-18a8.79,8.79,0,1,0,8.8,8.79A8.8,8.8,0,0,0,399.77,91.8Z" transform="translate(-8.68 -14.23)"/><path class="cls-1" d="M396,98.33v-.06a4,4,0,0,1,.31-1.52,4.1,4.1,0,0,1,.91-1.29,4.17,4.17,0,0,1,1.37-.86,4.47,4.47,0,0,1,3.22,0,4.15,4.15,0,0,1,2.28,2.15,3.82,3.82,0,0,1,0,3.06,3.91,3.91,0,0,1-.92,1.29,4.15,4.15,0,0,1-2.26,1.12l3.41,3.06a.24.24,0,0,1,.09.2.23.23,0,0,1-.09.19.23.23,0,0,1-.22.1.25.25,0,0,1-.19-.08l-3.9-3.5a.24.24,0,0,1-.08-.3.27.27,0,0,1,.28-.19,3.64,3.64,0,0,0,1.4-.27,3.7,3.7,0,0,0,1.15-.73,3.65,3.65,0,0,0,.77-1.09,3.19,3.19,0,0,0,.28-1.34,3.1,3.1,0,0,0-.28-1.32,3.61,3.61,0,0,0-.77-1.08,3.72,3.72,0,0,0-1.15-.74,3.83,3.83,0,0,0-1.4-.26,3.88,3.88,0,0,0-1.41.26,3.72,3.72,0,0,0-1.15.74,3.61,3.61,0,0,0-.77,1.08,3.1,3.1,0,0,0-.28,1.32v7.21a.29.29,0,0,1-.09.21.24.24,0,0,1-.2.08.32.32,0,0,1-.22-.08.29.29,0,0,1-.09-.21V98.33Z" transform="translate(-8.68 -14.23)"/><rect class="cls-1" x="261.98" y="199.86" width="10.85" height="4.51" transform="translate(-9.49 388.92) rotate(-73.93)"/><path class="cls-1" d="M34.65,220.19a1,1,0,0,0-.61.2l-6.86,6V221a.78.78,0,0,0-.26-.58.84.84,0,0,0-1.17,0,.83.83,0,0,0-.23.57v14.48a.77.77,0,0,0,.25.58.83.83,0,0,0,.57.22.87.87,0,0,0,.57-.21.8.8,0,0,0,.27-.59v-6.89l8-7a.76.76,0,0,0,.28-.6.78.78,0,0,0-.21-.55A.83.83,0,0,0,34.65,220.19Z" transform="translate(-8.68 -14.23)"/><path class="cls-1" d="M29.7,227.75a.83.83,0,0,0-.56-.32.73.73,0,0,0-.58.15.77.77,0,0,0-.35.5.75.75,0,0,0,.15.64L34,236a.81.81,0,0,0,.66.32.73.73,0,0,0,.47-.15.77.77,0,0,0,.35-.54.79.79,0,0,0-.17-.6Z" transform="translate(-8.68 -14.23)"/><path class="cls-1" d="M59.91,220.18a.76.76,0,0,0-.82.8v9.55a3.68,3.68,0,0,1-.34,1.58,4,4,0,0,1-.92,1.31,4.4,4.4,0,0,1-1.38.88,4.64,4.64,0,0,1-3.4,0,4.29,4.29,0,0,1-1.38-.88,4.22,4.22,0,0,1-.93-1.31,3.82,3.82,0,0,1-.33-1.58V221a.8.8,0,0,0-.27-.59.88.88,0,0,0-1.15,0,.78.78,0,0,0-.24.57v9.55a5.48,5.48,0,0,0,.45,2.2,5.83,5.83,0,0,0,1.3,1.84,6.3,6.3,0,0,0,1.94,1.24,6.16,6.16,0,0,0,2.31.43A6.08,6.08,0,0,0,59,234.57a5.7,5.7,0,0,0,1.31-1.84,5.46,5.46,0,0,0,.47-2.3V221a.78.78,0,0,0-.27-.59A.93.93,0,0,0,59.91,220.18Z" transform="translate(-8.68 -14.23)"/><path class="cls-1" d="M85.58,228.09a5.37,5.37,0,0,0,.46-2.21,5.31,5.31,0,0,0-.46-2.19,5.64,5.64,0,0,0-1.31-1.85,5.92,5.92,0,0,0-1.94-1.23,6.43,6.43,0,0,0-4.59,0,5.82,5.82,0,0,0-1.94,1.23,5.48,5.48,0,0,0-1.76,4v9.54a.8.8,0,0,0,.26.59.83.83,0,0,0,1.17,0,.79.79,0,0,0,.23-.57v-9.54a3.75,3.75,0,0,1,.34-1.57A4,4,0,0,1,77,223a4.33,4.33,0,0,1,1.39-.88,4.62,4.62,0,0,1,3.39,0,4.29,4.29,0,0,1,1.38.88,4.13,4.13,0,0,1,.93,1.3,3.74,3.74,0,0,1,.33,1.57,3.87,3.87,0,0,1-.33,1.59,4.18,4.18,0,0,1-.93,1.3,4.49,4.49,0,0,1-1.38.89A4.59,4.59,0,0,1,80,230a.78.78,0,0,0-.75.49.77.77,0,0,0,.2.92L84.64,236a.82.82,0,0,0,.56.23.73.73,0,0,0,.61-.27.79.79,0,0,0,0-1.14l-3.9-3.49a6.09,6.09,0,0,0,2.39-1.4A5.64,5.64,0,0,0,85.58,228.09Z" transform="translate(-8.68 -14.23)"/><path class="cls-1" d="M110.5,220.18a.76.76,0,0,0-.82.8v9.55a3.68,3.68,0,0,1-.34,1.58,4,4,0,0,1-.92,1.31,4.4,4.4,0,0,1-1.38.88,4.64,4.64,0,0,1-3.4,0,4.29,4.29,0,0,1-1.38-.88,4.22,4.22,0,0,1-.93-1.31,3.82,3.82,0,0,1-.33-1.58V221a.8.8,0,0,0-.27-.59.88.88,0,0,0-1.15,0,.78.78,0,0,0-.24.57v9.55a5.48,5.48,0,0,0,.45,2.2,5.83,5.83,0,0,0,1.3,1.84,6.3,6.3,0,0,0,1.94,1.24,6.2,6.2,0,0,0,2.31.43,6.08,6.08,0,0,0,4.22-1.67,5.89,5.89,0,0,0,1.32-1.84,5.62,5.62,0,0,0,.46-2.3V221a.78.78,0,0,0-.27-.59A.91.91,0,0,0,110.5,220.18Z" transform="translate(-8.68 -14.23)"/><path class="cls-1" d="M135.27,220.3a.76.76,0,0,0-.62-.1.85.85,0,0,0-.51.36l-4,6.14-4-6.17a.89.89,0,0,0-.5-.33.72.72,0,0,0-.6.09.81.81,0,0,0-.4.49.73.73,0,0,0,.11.63l4.57,7v7a.85.85,0,0,0,.23.58.81.81,0,0,0,.59.24.88.88,0,0,0,.59-.23.83.83,0,0,0,.25-.59v-7l4.57-7a.8.8,0,0,0,.09-.62A.82.82,0,0,0,135.27,220.3Z" transform="translate(-8.68 -14.23)"/><path class="cls-1" d="M151,224.31a4.26,4.26,0,0,1,2.31-2.18,4.4,4.4,0,0,1,1.7-.33h3.07a.86.86,0,0,0,.59-.23.8.8,0,0,0,0-1.18.89.89,0,0,0-.57-.21H155a6.28,6.28,0,0,0-2.28.43,5.87,5.87,0,0,0-3.26,3.08,5.37,5.37,0,0,0-.46,2.21v4.65a5.41,5.41,0,0,0,.46,2.21,5.87,5.87,0,0,0,3.26,3.08,6.34,6.34,0,0,0,2.3.42h3.08a.82.82,0,0,0,.57-.22.8.8,0,0,0,.24-.58.83.83,0,0,0-.23-.57.79.79,0,0,0-.58-.25H155a4.4,4.4,0,0,1-1.7-.32,4.51,4.51,0,0,1-1.39-.88,4.09,4.09,0,0,1-.94-1.31,3.82,3.82,0,0,1-.33-1.58V229h4.22a.77.77,0,0,0,.58-.25.8.8,0,0,0-.58-1.37h-4.22V225.9A3.87,3.87,0,0,1,151,224.31Z" transform="translate(-8.68 -14.23)"/><path class="cls-1" d="M192.82,221.86a6.05,6.05,0,0,0-1.95-1.24,6.35,6.35,0,0,0-4.6,0,6.05,6.05,0,0,0-2,1.24,6.18,6.18,0,0,0-.94,1.14,5.64,5.64,0,0,0-.95-1.14,6,6,0,0,0-1.93-1.24,6.35,6.35,0,0,0-4.6,0,6.12,6.12,0,0,0-1.94,1.24,6,6,0,0,0-1.31,1.85,5.48,5.48,0,0,0-.46,2.19v9.58a.76.76,0,0,0,.27.59.87.87,0,0,0,1.14,0,.81.81,0,0,0,.25-.58V225.9a3.87,3.87,0,0,1,.33-1.59,4.26,4.26,0,0,1,2.31-2.18,4.64,4.64,0,0,1,3.4,0,4.33,4.33,0,0,1,1.39.88,4,4,0,0,1,.93,1.3,3.72,3.72,0,0,1,.34,1.59v9.58a.76.76,0,0,0,.27.59.87.87,0,0,0,1.14,0,.81.81,0,0,0,.25-.58V225.9a3.87,3.87,0,0,1,.33-1.59,4.16,4.16,0,0,1,.94-1.3,4.33,4.33,0,0,1,1.39-.88,4.64,4.64,0,0,1,3.4,0,4.26,4.26,0,0,1,2.31,2.18,3.87,3.87,0,0,1,.33,1.59v9.58a.76.76,0,0,0,.27.59.86.86,0,0,0,.57.21.87.87,0,0,0,.58-.22.8.8,0,0,0,.24-.58V225.9a5.47,5.47,0,0,0-.45-2.19A5.76,5.76,0,0,0,192.82,221.86Z" transform="translate(-8.68 -14.23)"/><path class="cls-1" d="M208.1,224.89a.83.83,0,0,0-.23.57v10a.8.8,0,0,0,.24.58.88.88,0,0,0,1.15,0,.8.8,0,0,0,.27-.59v-10a.8.8,0,0,0-.26-.59A.84.84,0,0,0,208.1,224.89Z" transform="translate(-8.68 -14.23)"/><path class="cls-1" d="M208.11,221.43a.76.76,0,0,0-.24.57v.63a.77.77,0,0,0,.24.58.81.81,0,0,0,.58.22.85.85,0,0,0,.56-.2.79.79,0,0,0,.28-.6V222a.75.75,0,0,0-.27-.58A.87.87,0,0,0,208.11,221.43Z" transform="translate(-8.68 -14.23)"/><path class="cls-1" d="M232.52,227a6,6,0,0,0-4-1.57,2.16,2.16,0,0,1-1.35-.43,1.7,1.7,0,0,1-.69-1.22,1.54,1.54,0,0,1,.32-1.17l.13-.16a1.71,1.71,0,0,1,.58-.45,2.15,2.15,0,0,1,.73-.2,2,2,0,0,1,1.42.41.86.86,0,0,0,.58.18.82.82,0,0,0,.57-.28.77.77,0,0,0,.19-.59.73.73,0,0,0-.32-.58,4,4,0,0,0-1.25-.62,3.87,3.87,0,0,0-1.35-.12,3.59,3.59,0,0,0-1.32.35,3.7,3.7,0,0,0-1.12.85l-.11.15h0a3.27,3.27,0,0,0-.7,2.39,3.25,3.25,0,0,0,.4,1.28,3.63,3.63,0,0,0,3.29,1.81,4,4,0,0,1,1.55.31,4.13,4.13,0,0,1,1.28.82,3.78,3.78,0,0,1,.87,1.22,3.42,3.42,0,0,1,.31,1.46,3.37,3.37,0,0,1-.31,1.45,3.89,3.89,0,0,1-.87,1.22,4.13,4.13,0,0,1-1.28.82,4.18,4.18,0,0,1-3.13,0,4.25,4.25,0,0,1-1.28-.82,4.06,4.06,0,0,1-.87-1.22,3.62,3.62,0,0,1-.31-1.52.79.79,0,0,0-.23-.57.84.84,0,0,0-1.43.64,5.23,5.23,0,0,0,.43,2.08,5.48,5.48,0,0,0,1.24,1.75,5.79,5.79,0,0,0,1.84,1.18,6,6,0,0,0,1.63.35l-.72,2.48,1.43.41.84-2.93a6.62,6.62,0,0,0,1.16-.31,5.72,5.72,0,0,0,1.85-1.18,5.29,5.29,0,0,0,1.24-1.75,5.27,5.27,0,0,0,0-4.17A5.43,5.43,0,0,0,232.52,227Z" transform="translate(-8.68 -14.23)"/><path class="cls-1" d="M254.72,227.4h-7.83a.78.78,0,0,0-.58.25.8.8,0,0,0-.24.57.81.81,0,0,0,.25.58h0a.8.8,0,0,0,.57.22h7.83a.82.82,0,0,0,.58-.22.8.8,0,0,0,.24-.58.83.83,0,0,0-.23-.57A.82.82,0,0,0,254.72,227.4Z" transform="translate(-8.68 -14.23)"/><path class="cls-1" d="M273,227.75a.83.83,0,0,0-.56-.32.73.73,0,0,0-.58.15.77.77,0,0,0-.35.5.79.79,0,0,0,.15.64l5.59,7.24a.81.81,0,0,0,.66.32.7.7,0,0,0,.47-.15.77.77,0,0,0,.35-.54.79.79,0,0,0-.17-.6Z" transform="translate(-8.68 -14.23)"/><path class="cls-1" d="M278,220.19a1,1,0,0,0-.61.2l-6.86,6V221a.78.78,0,0,0-.26-.58.84.84,0,0,0-1.17,0,.83.83,0,0,0-.23.57v14.48a.77.77,0,0,0,.25.58.83.83,0,0,0,.57.22.87.87,0,0,0,.57-.21.8.8,0,0,0,.27-.59v-6.89l8-7a.76.76,0,0,0,.28-.6.78.78,0,0,0-.21-.55A.83.83,0,0,0,278,220.19Z" transform="translate(-8.68 -14.23)"/><path class="cls-1" d="M302.31,221.84a5.82,5.82,0,0,0-1.94-1.23,6.4,6.4,0,0,0-4.58,0,5.87,5.87,0,0,0-3.26,3.08,5.37,5.37,0,0,0-.46,2.21v9.56a.76.76,0,0,0,.27.59.87.87,0,0,0,1.14,0,.79.79,0,0,0,.25-.58V225.9a3.87,3.87,0,0,1,.33-1.59A4.16,4.16,0,0,1,295,223a4.33,4.33,0,0,1,1.39-.88,4.64,4.64,0,0,1,3.4,0,4.4,4.4,0,0,1,1.38.88,4.3,4.3,0,0,1,.93,1.3,3.87,3.87,0,0,1,.33,1.59v9.56a.76.76,0,0,0,.27.59.86.86,0,0,0,.57.21.83.83,0,0,0,.57-.22.79.79,0,0,0,.25-.58V225.9a5.5,5.5,0,0,0-.46-2.21A5.82,5.82,0,0,0,302.31,221.84Z" transform="translate(-8.68 -14.23)"/><path class="cls-1" d="M297.51,230.1a.78.78,0,0,0-.26.58v4.78a.79.79,0,0,0,.26.59.83.83,0,0,0,.58.23.77.77,0,0,0,.58-.24.8.8,0,0,0,.24-.58v-4.78a.78.78,0,0,0-.24-.57A.83.83,0,0,0,297.51,230.1Z" transform="translate(-8.68 -14.23)"/><path class="cls-1" d="M327.31,220.18a.76.76,0,0,0-.82.8v6.31H319V221a.76.76,0,0,0-.27-.59.87.87,0,0,0-1.14,0,.78.78,0,0,0-.24.57v14.48a.8.8,0,0,0,.24.58.88.88,0,0,0,1.14,0,.75.75,0,0,0,.27-.59v-6.55h7.45v6.55a.76.76,0,0,0,.82.8.86.86,0,0,0,.57-.21.76.76,0,0,0,.27-.59V221a.78.78,0,0,0-.27-.59A.91.91,0,0,0,327.31,220.18Z" transform="translate(-8.68 -14.23)"/><path class="cls-1" d="M353,220.23a.86.86,0,0,0-.63,0,.76.76,0,0,0-.43.47L347.49,233l-4.44-12.28a.83.83,0,0,0-.42-.46.76.76,0,0,0-.59,0,.73.73,0,0,0-.52.41.79.79,0,0,0,0,.64l5.2,14.42,0,0h0l0,.38.76.13.53,0v-.05h.12l0-.13h.07v-.28l5.22-14.52a.88.88,0,0,0,0-.58A.69.69,0,0,0,353,220.23Z" transform="translate(-8.68 -14.23)"/><path class="cls-1" d="M375.92,234.64h-3.08a4.31,4.31,0,0,1-1.69-.32,4.68,4.68,0,0,1-1.4-.88,3.92,3.92,0,0,1-.93-1.31,3.68,3.68,0,0,1-.34-1.58V229h4.22a.78.78,0,0,0,.59-.25.79.79,0,0,0,.23-.57.76.76,0,0,0-.82-.8h-4.22V225.9a3.72,3.72,0,0,1,.34-1.59,4.1,4.1,0,0,1,.92-1.3,4.51,4.51,0,0,1,3.08-1.21h3.08a.83.83,0,0,0,.58-.23.79.79,0,0,0,.26-.59.81.81,0,0,0-.27-.59.91.91,0,0,0-.57-.21h-3.08a6.28,6.28,0,0,0-2.28.43,6,6,0,0,0-3.26,3.08,5.54,5.54,0,0,0-.46,2.21v4.65a5.57,5.57,0,0,0,.46,2.21,6,6,0,0,0,3.26,3.08,6.34,6.34,0,0,0,2.3.42h3.08a.8.8,0,0,0,.82-.8.83.83,0,0,0-.23-.57A.82.82,0,0,0,375.92,234.64Z" transform="translate(-8.68 -14.23)"/><path class="cls-3" d="M342,73.7l-.62-1.45c-.19-.48-.54-1.07-.91-1.77-.19-.37-.43-.71-.68-1.1s-.49-.81-.81-1.22l-1-1.32-1.2-1.38a36.6,36.6,0,0,0-3-2.92,43.24,43.24,0,0,0-8.6-5.75,58.68,58.68,0,0,0-5.56-2.55,65.39,65.39,0,0,0-6.38-2.08,70.25,70.25,0,0,0-14.88-2.34,59.37,59.37,0,0,0-17.1,1.58c-.45.12-.91.28-1.37.41a41.51,41.51,0,0,0-1.66-9.09,38.77,38.77,0,0,0-5.67-11.36,39.19,39.19,0,0,0-9.41-9,45,45,0,0,0-11.9-5.61c-1.06-.28-2.12-.6-3.18-.86l-3.23-.68-.8-.11c-1.57-.23-4.13-.52-5.7-.65l-.84-.08-.88,0-1.57,0-2.55-.06-3.33,0c-1.26.1-2.59.05-3.85.18l-3.25.29-1.63.15-1.61.23-3.24.46c-1.08.16-2.15.4-3.22.61a120.11,120.11,0,0,0-12.66,3.3,158,158,0,0,0-24,10.22c-15.35,8-29.5,17.68-43.75,26.44a243.8,243.8,0,0,1-21.64,12.09c-3.65,1.83-7.39,3.36-11.12,4.83s-7.58,2.52-11.37,3.57c-10.9,3-17.77,2.41-21.75,1.25a12,12,0,0,1-7.72-6.6l0-.06a27.24,27.24,0,0,1-1.63-4.73,13.26,13.26,0,0,1,0-4.49l.39.08a20.13,20.13,0,0,0,6.57,0,15.94,15.94,0,0,0,3.4-1,11.24,11.24,0,0,0,3.16-2,7,7,0,0,0,2.08-3.44,4.74,4.74,0,0,0-.07-2.21,4.48,4.48,0,0,0-.46-1.06,4.06,4.06,0,0,0-.36-.46,2,2,0,0,0-.41-.42l-.47-.36a3.15,3.15,0,0,0-.51-.28A4.24,4.24,0,0,0,69,50.41a7.17,7.17,0,0,0-2.27-.13,6.27,6.27,0,0,0-1.05.16l-.25,0-.12,0-.18,0-.51.15-1,.32-1,.42a14.3,14.3,0,0,0-6.73,6,15.86,15.86,0,0,0-1.38,3.44,22.22,22.22,0,0,1-2.82-1,20.85,20.85,0,0,1-7.87-5.81,22.73,22.73,0,0,1-3.68-6.31c-.09-.23-.18-.46-.27-.67s-.14-.44-.21-.65c-.13-.42-.27-.81-.37-1.18-.18-.74-.36-1.35-.45-1.86l-.3-1.54s.09.53.27,1.54c.08.51.26,1.13.43,1.88.08.37.22.76.34,1.18q.11.31.21.66c.08.22.16.45.25.68a23.41,23.41,0,0,0,3.59,6.42,21.14,21.14,0,0,0,7.86,6.13,21.79,21.79,0,0,0,2.85,1.05,16.21,16.21,0,0,0-.41,5.39,17.18,17.18,0,0,0,3.9,9.41,18,18,0,0,0,2.28,2.25,11.73,11.73,0,0,0,4.71,2.34c3.35.84,9.77,1.54,20.24-.6l.52-.1c1-.19,2-.45,3-.68A108.13,108.13,0,0,0,100.3,76c3.85-1.43,7.7-3,11.47-4.72s7.52-3.59,11.25-5.52,7.39-4,11-6.06c14.68-8.31,29.14-17.38,44.34-24.65a167.7,167.7,0,0,1,23.26-9.23,112.43,112.43,0,0,1,12-2.9c1-.17,2-.4,3-.55l3-.42,1.51-.21,1.52-.13,3-.25c1-.11,2-.08,3-.13h6l1.69.05.67,0,.74.06a54.88,54.88,0,0,1,11.51,1.86,36.84,36.84,0,0,1,18.82,11.56,34.71,34.71,0,0,1,5.6,9.47A37.57,37.57,0,0,1,275.92,53l-.24.09-1.06.4c-.35.15-.7.27-1.06.43l-1.11.48a51.27,51.27,0,0,0-8.56,4.7l-1,.71-1,.78c-.69.5-1.32,1.09-2,1.65l-.24.21a1.82,1.82,0,0,0-.15.15l-.11.11-.43.44a11.63,11.63,0,0,0-.87.94l-.87,1-.78,1.08a13.57,13.57,0,0,0-2.52,6.29h0a11.7,11.7,0,0,0,.09,4.25h0a8.55,8.55,0,0,0,3,5,7.46,7.46,0,0,0,5.85,1.46,12.51,12.51,0,0,0,5.36-2.44,23.06,23.06,0,0,0,4.09-4c.46-.54.87-1.11,1.28-1.69s.87-1.26,1.17-1.75l.42-.68.2-.3.09-.15a1.44,1.44,0,0,0,.11-.2l.67-1.23c.23-.39.42-.89.64-1.34s.42-.92.58-1.38.36-.92.52-1.39a37.48,37.48,0,0,0,1.45-5.77c.2-1.36.34-2.74.42-4.12.8-.18,1.61-.38,2.41-.51a76.06,76.06,0,0,1,15.84-1,74.07,74.07,0,0,1,25.28,5.3A47.8,47.8,0,0,1,331.85,65a34,34,0,0,1,5.49,4.49,30.47,30.47,0,0,1,2.86,3.36l.9,1.29a.5.5,0,0,0,.7.13A.51.51,0,0,0,342,73.7ZM57.88,58.53a12.17,12.17,0,0,1,5.51-5.41l.87-.42.91-.33.45-.16.07,0,.13,0,.24-.06a5.49,5.49,0,0,1,1-.19,4.23,4.23,0,0,1,3.15.64,2.84,2.84,0,0,1,1,2.79A5.73,5.73,0,0,1,69.5,58.2a12.12,12.12,0,0,1-5.92,3,19.07,19.07,0,0,1-6.63.21l0,0A13.65,13.65,0,0,1,57.88,58.53ZM276,60.43a34.86,34.86,0,0,1-1,5.3c-.26.84-.51,1.73-.84,2.51-.18.4-.29.78-.51,1.21l-.61,1.25a.38.38,0,0,1-.05.11l-.08.15-.17.29-.4.7c-.26.47-.71,1.21-1,1.65a17.83,17.83,0,0,1-1.09,1.59c-.5.72-1.08,1.36-1.64,2a17.81,17.81,0,0,1-1.87,1.72,9.93,9.93,0,0,1-4.27,2.12,5.22,5.22,0,0,1-4.15-1,5.69,5.69,0,0,1-.81-.74c-.11-.14-.22-.3-.33-.45a3,3,0,0,1-.3-.46,5.07,5.07,0,0,1-.38-.82,9.13,9.13,0,0,1-.48-2.2,15.14,15.14,0,0,1,.46-3.91,13.08,13.08,0,0,1,2-3.8l.72-.91L260,66a11.63,11.63,0,0,1,.87-.8l.47-.41.11-.1s.12-.11.08-.06l.85-.64c.41-.3.83-.6,1.26-.88l1-.63,1-.56a46.61,46.61,0,0,1,8.28-3.55l1-.34,1.09-.32.12,0C276.14,58.6,276.08,59.52,276,60.43Z" transform="translate(-8.68 -14.23)"/></svg>