<svg width="153" height="182" viewBox="0 0 153 182" fill="none" xmlns="http://www.w3.org/2000/svg">
<path d="M42.1806 177.37C37.9139 172.633 33.6493 167.898 29.3866 163.164C27.0756 160.598 22.5616 163.655 24.9066 166.257C29.1699 170.994 33.4346 175.729 37.7006 180.463C40.0116 183.028 44.5286 179.974 42.1806 177.37Z" fill="#A044FF"/>
<path d="M88.7782 162.686L71.1632 174.43C68.2472 176.374 71.3352 180.857 74.2562 178.91L91.8732 167.166C94.7872 165.222 91.7012 160.738 88.7782 162.686Z" fill="#A044FF"/>
<path d="M62.6173 153.984L53.8103 141.065C51.8373 138.172 47.3483 141.256 49.3283 144.16C52.2616 148.465 55.1979 152.772 58.1373 157.079C60.1113 159.971 64.5973 156.887 62.6173 153.984Z" fill="#A044FF"/>
<path d="M110.576 122.491C105.884 124.851 101.191 127.21 96.4971 129.569C93.4111 131.12 95.2031 136.269 98.3361 134.694C103.028 132.334 107.72 129.976 112.412 127.619C115.502 126.066 113.709 120.918 110.576 122.491Z" fill="#A044FF"/>
<path d="M121.056 155.793L115.77 141.113C114.587 137.821 109.455 139.643 110.645 142.95L115.931 157.63C117.115 160.923 122.245 159.101 121.056 155.793Z" fill="#A044FF"/>
<path d="M148.661 116.864C145.436 119.133 141.626 120.425 137.686 120.588C134.186 120.762 134.598 126.188 138.096 126.017C142.998 125.779 147.733 124.159 151.754 121.344C154.629 119.35 151.547 114.859 148.661 116.864Z" fill="#A044FF"/>
<path d="M137.098 86.462C131.296 87.1738 125.429 87.1879 119.623 86.504C116.161 86.09 115.094 91.43 118.576 91.846C124.863 92.6161 131.219 92.6302 137.508 91.888C140.976 91.475 140.585 86.044 137.098 86.462Z" fill="#A044FF"/>
<path d="M76.0933 100.696C75.3773 97.321 69.9393 97.684 70.6663 101.106C71.7519 106.076 71.898 111.206 71.0973 116.23C70.5403 119.688 75.8833 120.742 76.4413 117.279C77.3576 111.778 77.2396 106.154 76.0933 100.696Z" fill="#A044FF"/>
<path d="M45.4928 115.822C40.0128 116.801 34.5318 117.78 29.0498 118.758C25.6338 119.37 26.0078 124.803 29.4598 124.187L45.9028 121.251C49.3178 120.64 48.9438 115.206 45.4928 115.822Z" fill="#A044FF"/>
<path d="M23.3216 88.265L10.9886 84.741C7.61557 83.779 6.59557 89.129 9.94157 90.085L22.2716 93.609C25.6456 94.571 26.6686 89.221 23.3216 88.265Z" fill="#A044FF"/>
<path d="M11.2932 118.489C7.77118 123.188 4.24951 127.888 0.728178 132.589C-1.36382 135.38 2.75018 138.946 4.85718 136.136L15.4222 122.036C17.5142 119.245 13.4002 115.679 11.2932 118.489Z" fill="#A044FF"/>
<path d="M56.6497 75.8791L41.9617 77.5681C38.4887 77.9681 38.8817 83.3991 42.3717 82.9971L57.0597 81.3061C60.5307 80.9071 60.1377 75.4781 56.6497 75.8791Z" fill="#A044FF"/>
<path d="M11.9632 154.374L2.51321 166.074C0.313207 168.799 4.43321 172.357 6.64021 169.623L16.0902 157.923C18.2922 155.198 14.1702 151.643 11.9632 154.374Z" fill="#A044FF"/>
<path d="M91.9597 70.612L84.3317 59.452C82.3537 56.561 77.8677 59.645 79.8517 62.545L87.4797 73.707C89.4547 76.598 93.9407 73.514 91.9597 70.612Z" fill="#A044FF"/>
<path d="M100.227 93.276C98.0605 97.9408 96.9514 103.027 96.979 108.17C96.979 111.67 102.406 111.248 102.406 107.762C102.412 103.578 103.339 99.4473 105.121 95.662C106.599 92.482 101.705 90.094 100.227 93.276Z" fill="#A044FF"/>
<path d="M144.018 51.3801C140.69 52.9454 137.362 54.5121 134.035 56.0801C130.896 57.5561 132.695 62.7011 135.872 61.2051C139.201 59.6397 142.529 58.0731 145.855 56.5051C148.994 55.0291 147.195 49.8841 144.018 51.3801Z" fill="#A044FF"/>
<path d="M15.5012 53.742L12.0072 30.842C11.4822 27.399 6.04921 27.781 6.57821 31.25L10.0722 54.156C10.5982 57.594 16.0292 57.213 15.5012 53.742Z" fill="#A044FF"/>
<path d="M37.6984 52.89C32.9811 55.598 28.2641 58.3046 23.5474 61.01C20.5104 62.752 23.6134 67.227 26.6404 65.49L40.7914 57.372C43.8304 55.628 40.7264 51.153 37.6984 52.89Z" fill="#A044FF"/>
<path d="M47.5658 21.215L34.0308 11.272C31.2228 9.20704 27.6538 13.322 30.4838 15.399L44.0168 25.344C46.8268 27.409 50.3948 23.295 47.5658 21.215Z" fill="#A044FF"/>
<path d="M63.3249 44.5969C60.7782 48.7049 58.2315 52.8136 55.6849 56.9229C53.8349 59.903 58.7479 62.261 60.5789 59.308L68.2189 46.982C70.0669 44 65.1559 41.6449 63.3249 44.5969Z" fill="#A044FF"/>
<path d="M88.4548 21.275C84.1311 16.2545 79.2462 11.7461 73.8958 7.83798C71.0768 5.79198 67.5068 9.90499 70.3468 11.967C75.3467 15.5681 79.919 19.7284 83.9748 24.367C86.2458 26.982 90.7548 23.925 88.4548 21.275Z" fill="#A044FF"/>
<path d="M107.052 33.9649C103.333 38.0749 99.6139 42.1859 95.8959 46.2979C93.5399 48.8979 97.6719 52.4449 100.023 49.8449L111.181 37.5149C113.534 34.9099 109.403 31.3649 107.052 33.9649Z" fill="#A044FF"/>
<path d="M137.822 18.318C134.888 12.64 131.955 6.963 129.022 1.287C127.422 -1.813 122.949 1.3 124.542 4.38C127.475 10.058 130.408 15.735 133.342 21.411C134.944 24.514 139.411 21.398 137.822 18.318Z" fill="#A044FF"/>
<path d="M141.694 35.005L126.445 40.925C123.189 42.189 125.005 47.325 128.282 46.05L143.531 40.13C146.79 38.867 144.974 33.733 141.694 35.005Z" fill="#A044FF"/>
<path d="M119.559 73.156C117.083 70.4712 115.389 67.1609 114.659 63.583C114.338 62.139 112.439 61.504 111.178 61.941C110.509 62.1988 109.965 62.7042 109.659 63.3523C109.353 64.0005 109.308 64.7416 109.534 65.422C110.569 69.8919 112.809 73.9928 116.012 77.279C118.412 79.832 121.945 75.679 119.559 73.156Z" fill="#A044FF"/>
</svg>
