<svg width="475" height="303" viewBox="0 0 475 303" fill="none" xmlns="http://www.w3.org/2000/svg">
<g opacity="0.2" clip-path="url(#clip0_82_297)">
<path d="M-117.141 292.47L-118 292.316C-117.94 291.98 -111.738 258.328 -88.7942 223.825C-75.316 203.555 -58.7809 186.954 -39.6488 174.487C-15.7337 158.902 12.3235 149.767 43.7426 147.34C54.6922 146.494 65.7424 145.709 76.4312 144.949C199.976 136.175 316.671 127.888 373.283 18.4867C405.164 -43.1256 470.761 -93.8149 520.177 -125.489C573.7 -159.794 620.294 -179.803 620.758 -180L621.102 -179.201C620.637 -179.003 574.099 -159.018 520.635 -124.748C471.315 -93.1344 405.849 -42.5526 374.058 18.8851C348.112 69.0238 308.966 101.225 250.859 120.222C199.24 137.1 139.617 141.335 76.4921 145.818C65.8066 146.576 54.7565 147.361 43.8103 148.207C-27.0042 153.681 -66.9925 192.612 -88.0688 224.307C-110.911 258.661 -117.082 292.135 -117.141 292.47Z" fill="#27AE60"/>
<path d="M-99.922 318.682L-100.791 318.614C-100.762 318.232 -97.5501 280.026 -76.5813 242.511C-64.2567 220.462 -48.3025 202.957 -29.1604 190.483C-5.23342 174.89 23.8103 167.165 57.0101 167.513C191.651 168.955 317.781 159.23 380.502 26.5614C394.464 -3.11174 416.746 -30.9841 446.731 -56.2795C470.705 -76.5073 499.632 -95.1414 532.703 -111.666C589.005 -139.798 638.483 -152.218 638.975 -152.339L639.186 -151.496C638.694 -151.374 589.295 -138.973 533.078 -110.881C481.221 -84.9672 412.795 -40.0254 381.292 26.9316C353.276 86.1911 310.636 125.243 250.934 146.317C192.635 166.895 123.271 169.079 56.9994 168.383C56.2871 168.376 55.5698 168.371 54.8644 168.371C-18.6201 168.371 -56.7326 208.801 -75.8045 242.908C-96.6896 280.26 -99.8913 318.302 -99.922 318.682Z" fill="#27AE60"/>
<path d="M-82.7057 344.901H-83.5781C-83.5781 344.089 -82.9987 263.134 -33.1513 217.691C-7.14073 193.979 27.6559 183.883 70.2716 187.69C241.945 203.027 333.908 158.677 387.721 34.6346C401.562 2.49979 424.349 -25.8718 455.449 -49.696C480.317 -68.7432 510.524 -84.9413 545.232 -97.8386C604.313 -119.793 656.672 -124.621 657.193 -124.666L657.272 -123.8C656.75 -123.754 604.49 -118.933 545.517 -97.0163C491.127 -76.8022 419.738 -37.4935 388.522 34.9795C359.909 100.932 319.377 144.543 264.607 168.3C215.547 189.585 153.774 196.021 70.1929 188.557C27.8242 184.77 -6.74213 194.793 -32.5638 218.334C-82.1297 263.52 -82.7057 344.093 -82.7057 344.901Z" fill="#27AE60"/>
<path d="M-66.3629 371.182C-66.4224 370.258 -71.6229 278.259 -20.4926 231.972C4.896 208.987 39.8939 200.883 83.5302 207.869C247.34 234.12 337.569 186.27 394.942 42.7071C408.663 8.11255 431.956 -20.762 464.172 -43.1116C489.931 -60.9796 521.42 -74.7399 557.761 -84.0071C619.618 -99.7807 674.858 -97.0082 675.407 -96.9841L675.359 -96.1143C674.814 -96.1484 619.684 -98.9021 557.956 -83.1592C501.032 -68.6394 426.683 -34.9622 395.753 43.0285C380.985 79.9844 364.412 109.763 345.089 134.068C325.579 158.607 303.726 176.995 278.281 190.281C228.613 216.214 166.681 222.075 83.3901 208.729C40.0383 201.779 5.27769 209.818 -19.9069 232.616C-70.7288 278.625 -65.5525 370.207 -65.4927 371.128L-66.3629 371.182Z" fill="#27AE60"/>
<path d="M-49.1491 397.459C-49.1798 397.201 -52.0967 371.218 -48.527 339.8C-45.2282 310.774 -35.5584 271.033 -8.22346 246.548C16.695 224.225 52.0266 218.004 96.7826 228.049C180.906 246.937 242.774 241.684 291.493 211.522C336.866 183.43 372.033 132.354 402.163 50.7802C415.762 13.7225 439.558 -15.6516 472.892 -36.5249C499.544 -53.2139 532.314 -64.5332 570.292 -70.17C634.924 -79.7597 693.032 -69.3955 693.613 -69.2918L693.456 -68.4354C692.877 -68.5423 634.885 -78.8814 570.397 -69.3052C510.938 -60.4782 433.626 -32.4274 402.981 51.0792C372.78 132.845 337.501 184.062 291.953 212.26C243.025 242.55 180.947 247.837 96.5915 228.899C52.1285 218.918 17.0564 225.069 -7.63934 247.193C-34.7678 271.491 -44.3748 311.009 -47.6584 339.878C-51.2214 371.203 -48.3127 397.103 -48.2836 397.361L-49.1491 397.459Z" fill="#27AE60"/>
<path d="M-31.9331 423.731C-31.9789 423.444 -36.4708 394.685 -34.3304 360.487C-32.3521 328.884 -24.1442 286.036 3.7272 261.376C28.2897 239.642 64.0591 235.218 110.035 248.231C195.861 272.519 257.849 267.847 305.11 233.535C346.593 203.416 377.778 151.175 409.386 58.8493C422.863 19.3316 447.165 -10.5419 481.615 -29.939C509.158 -45.4476 543.208 -54.3255 582.819 -56.3282C650.206 -59.7362 711.202 -41.7797 711.812 -41.5963L711.56 -40.764C710.953 -40.9439 650.103 -58.8614 582.842 -55.4587C520.847 -52.321 440.572 -29.8934 410.211 59.1296C378.542 151.638 347.262 204.006 305.624 234.238C258.127 268.72 195.904 273.434 109.796 249.066C64.1268 236.142 28.6335 240.504 4.30474 262.027C-23.3436 286.489 -31.4919 329.101 -33.4599 360.541C-35.5949 394.644 -31.1168 423.31 -31.0707 423.595L-31.9331 423.731Z" fill="#27AE60"/>
<path d="M-14.7175 450C-14.7787 449.686 -20.8807 418.163 -20.2194 381.215C-19.6077 347.069 -12.9282 301.167 15.4171 276.412C39.7104 255.196 75.9994 252.501 123.282 268.411C196.308 292.979 250.063 294.447 292.452 273.03C350.581 243.659 383.055 172.389 416.609 66.9205C430.455 23.3937 456.59 -7.6232 494.287 -25.2704C544.036 -48.5594 605.482 -44.2257 648.271 -36.4859C694.607 -28.1057 729.652 -14.0395 730 -13.8986L729.672 -13.0935C729.325 -13.2347 694.349 -27.2699 648.097 -35.6333C605.442 -43.3443 544.196 -47.6711 494.655 -24.4821C457.188 -6.94179 431.21 23.8983 417.44 67.1824C383.818 172.869 351.247 244.297 292.848 273.807C250.237 295.338 196.268 293.884 123.003 269.237C76.0385 253.433 40.0341 256.073 15.993 277.067C-12.1137 301.613 -18.7387 347.26 -19.347 381.231C-20.0063 418.088 -13.9235 449.52 -13.862 449.834L-14.7175 450Z" fill="#27AE60"/>
</g>
<defs>
<clipPath id="clip0_82_297">
<rect width="475" height="303" fill="white"/>
</clipPath>
</defs>
</svg>
