<svg width="157" height="160" viewBox="0 0 157 160" fill="none" xmlns="http://www.w3.org/2000/svg">
<g opacity="0.4">
<circle cx="18.6327" cy="75.054" r="2" transform="rotate(41.2008 18.6327 75.054)" fill="#27AE60"/>
<circle cx="34.4413" cy="56.9963" r="2" transform="rotate(41.2008 34.4413 56.9963)" fill="#27AE60"/>
<circle cx="50.2499" cy="38.9386" r="2" transform="rotate(41.2008 50.2499 38.9386)" fill="#27AE60"/>
<circle cx="66.0585" cy="20.8809" r="2" transform="rotate(41.2008 66.0585 20.8809)" fill="#27AE60"/>
<circle cx="81.8671" cy="2.82313" r="2" transform="rotate(41.2008 81.8671 2.82313)" fill="#27AE60"/>
<circle cx="36.6894" cy="90.8629" r="2" transform="rotate(41.2008 36.6894 90.8629)" fill="#27AE60"/>
<circle cx="52.498" cy="72.8051" r="2" transform="rotate(41.2008 52.498 72.8051)" fill="#27AE60"/>
<circle cx="68.3065" cy="54.7474" r="2" transform="rotate(41.2008 68.3065 54.7474)" fill="#27AE60"/>
<circle cx="84.1151" cy="36.6896" r="2" transform="rotate(41.2008 84.1151 36.6896)" fill="#27AE60"/>
<circle cx="99.9257" cy="18.6319" r="2" transform="rotate(41.2008 99.9257 18.6319)" fill="#27AE60"/>
<circle cx="54.748" cy="106.672" r="2" transform="rotate(41.2008 54.748 106.672)" fill="#27AE60"/>
<circle cx="70.5565" cy="88.614" r="2" transform="rotate(41.2008 70.5565 88.614)" fill="#27AE60"/>
<circle cx="86.3651" cy="70.5562" r="2" transform="rotate(41.2008 86.3651 70.5562)" fill="#27AE60"/>
<circle cx="102.174" cy="52.4985" r="2" transform="rotate(41.2008 102.174 52.4985)" fill="#27AE60"/>
<circle cx="117.982" cy="34.4407" r="2" transform="rotate(41.2008 117.982 34.4407)" fill="#27AE60"/>
<circle cx="72.8046" cy="122.48" r="2" transform="rotate(41.2008 72.8046 122.48)" fill="#27AE60"/>
<circle cx="88.6132" cy="104.423" r="2" transform="rotate(41.2008 88.6132 104.423)" fill="#27AE60"/>
<circle cx="104.422" cy="86.365" r="2" transform="rotate(41.2008 104.422 86.365)" fill="#27AE60"/>
<circle cx="120.232" cy="68.3073" r="2" transform="rotate(41.2008 120.232 68.3073)" fill="#27AE60"/>
<circle cx="136.041" cy="50.2495" r="2" transform="rotate(41.2008 136.041 50.2495)" fill="#27AE60"/>
<circle cx="90.8632" cy="138.289" r="2" transform="rotate(41.2008 90.8632 138.289)" fill="#27AE60"/>
<circle cx="106.672" cy="120.232" r="2" transform="rotate(41.2008 106.672 120.232)" fill="#27AE60"/>
<circle cx="122.48" cy="102.174" r="2" transform="rotate(41.2008 122.48 102.174)" fill="#27AE60"/>
<circle cx="138.289" cy="84.1161" r="2" transform="rotate(41.2008 138.289 84.1161)" fill="#27AE60"/>
<circle cx="154.098" cy="66.0584" r="2" transform="rotate(41.2008 154.098 66.0584)" fill="#27AE60"/>
<circle cx="2.82218" cy="93.1118" r="2" transform="rotate(41.2008 2.82218 93.1118)" fill="#27AE60"/>
<circle cx="20.8808" cy="108.921" r="2" transform="rotate(41.2008 20.8808 108.921)" fill="#27AE60"/>
<circle cx="38.9394" cy="124.729" r="2" transform="rotate(41.2008 38.9394 124.729)" fill="#27AE60"/>
<circle cx="56.996" cy="140.538" r="2" transform="rotate(41.2008 56.996 140.538)" fill="#27AE60"/>
<circle cx="75.0546" cy="156.347" r="2" transform="rotate(41.2008 75.0546 156.347)" fill="#27AE60"/>
</g>
</svg>
