<svg width="56" height="60" viewBox="0 0 56 60" fill="none" xmlns="http://www.w3.org/2000/svg">
<path d="M55.2349 14.0625C53.6177 9.23438 49.5395 4.83984 44.3599 2.34375C40.7153 0.585937 37.5396 -0.0937512 33.4849 0.0351549C30.3911 0.128905 28.2349 0.64453 25.7388 1.88672C19.8911 4.80469 17.1841 9.78516 17.3481 17.2734L17.395 19.1367L16.4575 19.3008C8.74658 20.5898 2.24268 27.3281 0.625489 35.6836C0.320801 37.2539 0.344238 39.9961 0.684082 41.6016C1.35205 44.8008 2.72314 47.5547 5.02002 50.2852C6.3208 51.8438 8.79346 54.0469 9.41455 54.2109C9.81299 54.3047 10.2817 54.0703 10.5395 53.6484C10.9966 52.8984 10.9263 52.7695 9.09814 50.9531C7.87939 49.7344 7.19971 48.9492 6.63721 48.1055C3.87158 43.9102 2.99268 39.082 4.15283 34.4414C5.46533 29.1797 9.00439 25.1484 14.1724 23.0273C14.9458 22.7109 17.4185 22.0313 17.7935 22.0313C17.9575 22.0313 18.0395 22.1953 18.145 22.7109C18.3677 23.707 19.0474 25.7461 19.5864 27.0469C22.3989 33.8438 27.2974 38.9414 32.4536 40.4648C37.4224 41.9297 41.2661 40.1953 42.1333 36.0938C42.5903 33.9609 41.9692 31.6055 40.4224 29.5547C39.5435 28.3828 36.813 25.7227 35.3716 24.6445C31.1645 21.4922 26.4419 19.582 21.6958 19.1133C21.0981 19.0547 20.5708 18.9727 20.5239 18.9375C20.3833 18.7852 20.4302 14.3906 20.5942 13.5352C21.3208 9.75 23.1724 6.85547 26.1372 4.88672C28.7739 3.14062 31.6099 2.36719 34.9614 2.49609C37.8208 2.60156 40.2114 3.19922 42.9185 4.48828C47.5708 6.70312 51.3325 10.3711 53.5122 14.8242C54.0747 15.9844 54.2505 16.1719 54.7427 16.1719C55.0942 16.1719 55.6567 15.7148 55.6567 15.4453C55.6567 15.3633 55.4692 14.7422 55.2349 14.0625ZM39.6138 35.8125C39.2153 36.6797 38.0083 37.4297 36.3325 37.8633C33.602 38.5664 31.481 37.6406 28.1177 34.3125C24.9653 31.1953 22.6802 27.2109 21.1333 22.1016C21.063 21.9023 21.1099 21.8906 21.7427 21.9609C26.3833 22.5234 32.4067 25.6055 36.4263 29.4727C38.0552 31.043 39.0513 32.4609 39.6138 34.0195C39.8833 34.793 39.8833 35.2148 39.6138 35.8125Z" fill="#27AE60"/>
<path d="M14.5598 55.1953C14.4426 53.1563 13.8333 49.4883 13.5051 48.832C13.2825 48.375 12.8606 48.2344 12.3567 48.4453C11.7942 48.6797 11.6653 48.9961 11.759 49.9102C12.0286 52.8281 12.0754 53.7891 12.0051 55.418L11.9231 57.2109L11.0208 57.1406C8.9231 56.9648 7.80982 56.8008 6.38013 56.4609C4.75123 56.0859 3.97779 56.0742 3.42701 56.4258C2.47779 57.0586 3.00513 58.5352 4.36451 59.0391C5.39576 59.4258 9.05201 59.9063 11.4895 59.9648C13.8801 60.0352 14.0325 60 14.4075 59.3789C14.6067 59.0508 14.6419 58.8047 14.6184 57.4219C14.6067 56.5547 14.5833 55.5469 14.5598 55.1953Z" fill="#27AE60"/>
</svg>
