<svg width="593" height="400" viewBox="0 0 593 400" fill="none" xmlns="http://www.w3.org/2000/svg">
<g opacity="0.2" clip-path="url(#clip0_380_5418)">
<path d="M0.858643 389.47L0 389.316C0.0595409 388.98 6.26214 355.328 29.2058 320.825C42.684 300.555 59.2191 283.954 78.3512 271.487C102.266 255.902 130.324 246.767 161.743 244.34C172.692 243.494 183.742 242.709 194.431 241.949C317.976 233.175 434.671 224.888 491.283 115.487C523.164 53.8744 588.761 3.18513 638.177 -28.4891C691.7 -62.7943 738.294 -82.8029 738.758 -83L739.102 -82.2014C738.637 -82.0027 692.099 -62.018 638.635 -27.7477C589.315 3.8656 523.849 54.4474 492.058 115.885C466.112 166.024 426.966 198.225 368.859 217.222C317.24 234.1 257.617 238.335 194.492 242.818C183.807 243.576 172.756 244.361 161.81 245.207C90.9958 250.681 51.0075 289.612 29.9312 321.307C7.08851 355.661 0.918497 389.135 0.858643 389.47Z" fill="#27AE60"/>
<path d="M18.078 415.682L17.209 415.614C17.2378 415.232 20.4499 377.026 41.4187 339.511C53.7433 317.462 69.6975 299.957 88.8396 287.483C112.767 271.89 141.81 264.165 175.01 264.513C309.651 265.955 435.781 256.23 498.502 123.561C512.464 93.8883 534.746 66.0159 564.731 40.7205C588.705 20.4927 617.632 1.85855 650.703 -14.6658C707.005 -42.798 756.483 -55.218 756.975 -55.3386L757.186 -54.4963C756.694 -54.3741 707.295 -41.9726 651.078 -13.8809C599.221 12.0328 530.795 56.9746 499.292 123.932C471.276 183.191 428.636 222.243 368.934 243.317C310.635 263.895 241.271 266.079 174.999 265.383C174.287 265.376 173.57 265.371 172.864 265.371C99.3799 265.371 61.2674 305.801 42.1955 339.908C21.3104 377.26 18.1087 415.302 18.078 415.682Z" fill="#27AE60"/>
<path d="M35.2943 441.901H34.4219C34.4219 441.089 35.0013 360.134 84.8487 314.691C110.859 290.979 145.656 280.883 188.272 284.69C359.945 300.027 451.908 255.677 505.721 131.635C519.562 99.4998 542.349 71.1282 573.449 47.304C598.317 28.2568 628.524 12.0587 663.232 -0.838638C722.313 -22.7926 774.672 -27.6206 775.193 -27.6662L775.272 -26.7998C774.75 -26.7539 722.49 -21.9328 663.517 -0.0163212C609.127 20.1978 537.738 59.5065 506.522 131.979C477.909 197.932 437.377 241.543 382.607 265.3C333.547 286.585 271.774 293.021 188.193 285.557C145.824 281.77 111.258 291.793 85.4362 315.334C35.8703 360.52 35.2943 441.093 35.2943 441.901Z" fill="#27AE60"/>
<path d="M51.6371 468.182C51.5776 467.258 46.3771 375.259 97.5074 328.972C122.896 305.987 157.894 297.883 201.53 304.869C365.34 331.12 455.569 283.27 512.942 139.707C526.663 105.113 549.956 76.238 582.172 53.8884C607.931 36.0204 639.42 22.2601 675.761 12.9929C737.618 -2.78069 792.858 -0.00819694 793.407 0.01586L793.359 0.885658C792.814 0.851604 737.684 -1.90213 675.956 13.8408C619.032 28.3606 544.683 62.0378 513.753 140.029C498.985 176.984 482.412 206.763 463.089 231.068C443.579 255.607 421.726 273.995 396.281 287.281C346.613 313.214 284.681 319.075 201.39 305.729C158.038 298.779 123.278 306.818 98.0931 329.616C47.2712 375.625 52.4475 467.207 52.5073 468.128L51.6371 468.182Z" fill="#27AE60"/>
<path d="M68.8509 494.459C68.8202 494.201 65.9033 468.218 69.473 436.8C72.7718 407.774 82.4416 368.033 109.777 343.548C134.695 321.225 170.027 315.004 214.783 325.049C298.906 343.937 360.774 338.684 409.493 308.522C454.866 280.43 490.033 229.354 520.163 147.78C533.762 110.723 557.558 81.3484 590.892 60.4751C617.544 43.7861 650.314 32.4668 688.292 26.83C752.924 17.2403 811.032 27.6045 811.613 27.7082L811.456 28.5646C810.877 28.4577 752.885 18.1186 688.397 27.6948C628.938 36.5218 551.626 64.5726 520.981 148.079C490.78 229.845 455.501 281.062 409.953 309.26C361.025 339.55 298.947 344.837 214.591 325.899C170.128 315.918 135.056 322.069 110.361 344.193C83.2322 368.491 73.6252 408.009 70.3416 436.878C66.7786 468.203 69.6873 494.103 69.7164 494.361L68.8509 494.459Z" fill="#27AE60"/>
<path d="M86.0669 520.731C86.0211 520.444 81.5292 491.685 83.6696 457.487C85.6479 425.884 93.8558 383.036 121.727 358.376C146.29 336.642 182.059 332.218 228.035 345.231C313.861 369.519 375.849 364.847 423.11 330.535C464.593 300.416 495.778 248.175 527.386 155.849C540.863 116.332 565.165 86.4581 599.615 67.061C627.158 51.5524 661.208 42.6745 700.819 40.6718C768.206 37.2638 829.202 55.2203 829.812 55.4037L829.56 56.236C828.953 56.0561 768.103 38.1386 700.842 41.5413C638.847 44.679 558.572 67.1066 528.211 156.13C496.542 248.638 465.262 301.006 423.624 331.238C376.127 365.72 313.904 370.434 227.796 346.066C182.127 333.142 146.633 337.504 122.305 359.027C94.6564 383.489 86.5081 426.101 84.5401 457.541C82.4051 491.644 86.8832 520.31 86.9293 520.595L86.0669 520.731Z" fill="#27AE60"/>
<path d="M103.282 547C103.221 546.686 97.1193 515.163 97.7806 478.215C98.3923 444.069 105.072 398.167 133.417 373.412C157.71 352.196 193.999 349.501 241.282 365.411C314.308 389.979 368.063 391.447 410.452 370.03C468.581 340.659 501.055 269.389 534.609 163.921C548.455 120.394 574.59 89.3768 612.287 71.7296C662.036 48.4406 723.482 52.7743 766.271 60.5141C812.607 68.8944 847.652 82.9605 848 83.1014L847.672 83.9065C847.325 83.7653 812.349 69.7301 766.097 61.3667C723.442 53.6557 662.196 49.3289 612.655 72.5179C575.188 90.0582 549.21 120.898 535.44 164.182C501.818 269.869 469.247 341.297 410.848 370.807C368.237 392.338 314.268 390.884 241.003 366.237C194.039 350.433 158.034 353.073 133.993 374.067C105.886 398.613 99.2613 444.26 98.653 478.231C97.9937 515.088 104.077 546.52 104.138 546.834L103.282 547Z" fill="#27AE60"/>
</g>
<defs>
<clipPath id="clip0_380_5418">
<rect width="593" height="400" fill="white"/>
</clipPath>
</defs>
</svg>
