<svg width="368" height="396" viewBox="0 0 368 396" fill="none" xmlns="http://www.w3.org/2000/svg">
<g clip-path="url(#clip0_745_858)">
<path d="M1.79198 209.151C2.78112 209.151 3.58298 208.349 3.58298 207.36C3.58298 206.371 2.78112 205.569 1.79198 205.569C0.802835 205.569 0.000976562 206.371 0.000976562 207.36C0.000976562 208.349 0.802835 209.151 1.79198 209.151Z" fill="#EEEEEE"/>
<path d="M1.79198 190.28C2.78112 190.28 3.58298 189.478 3.58298 188.489C3.58298 187.5 2.78112 186.698 1.79198 186.698C0.802835 186.698 0.000976562 187.5 0.000976562 188.489C0.000976562 189.478 0.802835 190.28 1.79198 190.28Z" fill="#EEEEEE"/>
<path d="M1.7924 148.956C1.2734 148.956 0.809398 149.18 0.482398 149.533C0.356398 150.134 0.229398 150.734 0.108398 151.338C0.353398 152.036 1.0114 152.539 1.7924 152.539C2.7814 152.539 3.5834 151.737 3.5834 150.748C3.5824 149.758 2.7804 148.956 1.7924 148.956Z" fill="#EEEEEE"/>
<path d="M1.792 167.827C1.653 167.827 1.519 167.846 1.389 167.876C1.357 167.883 1.327 167.896 1.295 167.905C1.196 167.934 1.101 167.969 1.009 168.013C0.983 168.026 0.957 168.041 0.931 168.055C0.835 168.108 0.744 168.169 0.66 168.239C0.646 168.251 0.632 168.261 0.619 168.274C0.243 168.603 0 169.08 0 169.618C0 170.173 0.258 170.663 0.654 170.991C0.672 171.006 0.689 171.021 0.708 171.035C0.846 171.141 0.997 171.227 1.163 171.289C1.19 171.299 1.218 171.306 1.245 171.314C1.417 171.37 1.598 171.407 1.789 171.408C1.79 171.408 1.791 171.409 1.792 171.409C2.781 171.409 3.583 170.607 3.583 169.618C3.582 168.629 2.78 167.827 1.792 167.827Z" fill="#EEEEEE"/>
<path d="M1.792 224.44C1.791 224.44 1.79 224.44 1.789 224.44C1.598 224.44 1.418 224.478 1.245 224.534C1.218 224.543 1.19 224.549 1.163 224.559C0.998 224.621 0.846 224.707 0.708 224.813C0.689 224.827 0.672 224.842 0.654 224.857C0.258 225.186 0 225.676 0 226.231C0 226.769 0.243 227.247 0.619 227.575C0.633 227.587 0.647 227.598 0.66 227.609C0.744 227.679 0.834 227.739 0.931 227.793C0.957 227.808 0.983 227.823 1.01 227.836C1.101 227.88 1.196 227.915 1.294 227.944C1.326 227.954 1.356 227.966 1.389 227.974C1.519 228.004 1.653 228.023 1.792 228.023C2.781 228.023 3.583 227.221 3.583 226.232C3.582 225.242 2.78 224.44 1.792 224.44Z" fill="#EEEEEE"/>
<path d="M26.081 114.797C27.0702 114.797 27.872 113.995 27.872 113.006C27.872 112.017 27.0702 111.215 26.081 111.215C25.0919 111.215 24.29 112.017 24.29 113.006C24.29 113.995 25.0919 114.797 26.081 114.797Z" fill="#EEEEEE"/>
<path d="M26.081 133.668C27.0702 133.668 27.872 132.866 27.872 131.877C27.872 130.888 27.0702 130.086 26.081 130.086C25.0919 130.086 24.29 130.888 24.29 131.877C24.29 132.866 25.0919 133.668 26.081 133.668Z" fill="#EEEEEE"/>
<path d="M26.081 95.926C27.0702 95.926 27.872 95.1241 27.872 94.135C27.872 93.1459 27.0702 92.344 26.081 92.344C25.0919 92.344 24.29 93.1459 24.29 94.135C24.29 95.1241 25.0919 95.926 26.081 95.926Z" fill="#EEEEEE"/>
<path d="M26.081 209.151C27.0702 209.151 27.872 208.349 27.872 207.36C27.872 206.371 27.0702 205.569 26.081 205.569C25.0919 205.569 24.29 206.371 24.29 207.36C24.29 208.349 25.0919 209.151 26.081 209.151Z" fill="#EEEEEE"/>
<path d="M26.081 228.022C27.0702 228.022 27.872 227.22 27.872 226.231C27.872 225.242 27.0702 224.44 26.081 224.44C25.0919 224.44 24.29 225.242 24.29 226.231C24.29 227.22 25.0919 228.022 26.081 228.022Z" fill="#EEEEEE"/>
<path d="M26.081 152.539C27.0702 152.539 27.872 151.737 27.872 150.748C27.872 149.759 27.0702 148.957 26.081 148.957C25.0919 148.957 24.29 149.759 24.29 150.748C24.29 151.737 25.0919 152.539 26.081 152.539Z" fill="#EEEEEE"/>
<path d="M26.081 190.28C27.0702 190.28 27.872 189.478 27.872 188.489C27.872 187.5 27.0702 186.698 26.081 186.698C25.0919 186.698 24.29 187.5 24.29 188.489C24.29 189.478 25.0919 190.28 26.081 190.28Z" fill="#EEEEEE"/>
<path d="M26.081 171.409C27.0702 171.409 27.872 170.607 27.872 169.618C27.872 168.629 27.0702 167.827 26.081 167.827C25.0919 167.827 24.29 168.629 24.29 169.618C24.29 170.607 25.0919 171.409 26.081 171.409Z" fill="#EEEEEE"/>
<path d="M50.3701 152.539C51.3592 152.539 52.1611 151.737 52.1611 150.748C52.1611 149.759 51.3592 148.957 50.3701 148.957C49.381 148.957 48.5791 149.759 48.5791 150.748C48.5791 151.737 49.381 152.539 50.3701 152.539Z" fill="#EEEEEE"/>
<path d="M50.3701 190.28C51.3592 190.28 52.1611 189.478 52.1611 188.489C52.1611 187.5 51.3592 186.698 50.3701 186.698C49.381 186.698 48.5791 187.5 48.5791 188.489C48.5791 189.478 49.381 190.28 50.3701 190.28Z" fill="#EEEEEE"/>
<path d="M50.3701 171.409C51.3592 171.409 52.1611 170.607 52.1611 169.618C52.1611 168.629 51.3592 167.827 50.3701 167.827C49.381 167.827 48.5791 168.629 48.5791 169.618C48.5791 170.607 49.381 171.409 50.3701 171.409Z" fill="#EEEEEE"/>
<path d="M50.3701 95.926C51.3592 95.926 52.1611 95.1241 52.1611 94.135C52.1611 93.1459 51.3592 92.344 50.3701 92.344C49.381 92.344 48.5791 93.1459 48.5791 94.135C48.5791 95.1241 49.381 95.926 50.3701 95.926Z" fill="#EEEEEE"/>
<path d="M50.3701 133.668C51.3592 133.668 52.1611 132.866 52.1611 131.877C52.1611 130.888 51.3592 130.086 50.3701 130.086C49.381 130.086 48.5791 130.888 48.5791 131.877C48.5791 132.866 49.381 133.668 50.3701 133.668Z" fill="#EEEEEE"/>
<path d="M50.3701 209.151C51.3592 209.151 52.1611 208.349 52.1611 207.36C52.1611 206.371 51.3592 205.569 50.3701 205.569C49.381 205.569 48.5791 206.371 48.5791 207.36C48.5791 208.349 49.381 209.151 50.3701 209.151Z" fill="#EEEEEE"/>
<path d="M50.3701 114.797C51.3592 114.797 52.1611 113.995 52.1611 113.006C52.1611 112.017 51.3592 111.215 50.3701 111.215C49.381 111.215 48.5791 112.017 48.5791 113.006C48.5791 113.995 49.381 114.797 50.3701 114.797Z" fill="#EEEEEE"/>
<path d="M49.1885 57.729C49.5045 58.009 49.9155 58.185 50.3715 58.185C51.3605 58.185 52.1625 57.383 52.1625 56.394C52.1625 55.923 51.9775 55.498 51.6795 55.178C50.8395 56.018 50.0115 56.873 49.1885 57.729Z" fill="#EEEEEE"/>
<path d="M50.3701 77.0549C51.3592 77.0549 52.1611 76.253 52.1611 75.2639C52.1611 74.2748 51.3592 73.4729 50.3701 73.4729C49.381 73.4729 48.5791 74.2748 48.5791 75.2639C48.5791 76.253 49.381 77.0549 50.3701 77.0549Z" fill="#EEEEEE"/>
<path d="M50.3701 228.022C51.3592 228.022 52.1611 227.22 52.1611 226.231C52.1611 225.242 51.3592 224.44 50.3701 224.44C49.381 224.44 48.5791 225.242 48.5791 226.231C48.5791 227.22 49.381 228.022 50.3701 228.022Z" fill="#EEEEEE"/>
<path d="M74.6601 152.539C75.6493 152.539 76.4511 151.737 76.4511 150.748C76.4511 149.759 75.6493 148.957 74.6601 148.957C73.671 148.957 72.8691 149.759 72.8691 150.748C72.8691 151.737 73.671 152.539 74.6601 152.539Z" fill="#EEEEEE"/>
<path d="M74.6601 190.28C75.6493 190.28 76.4511 189.478 76.4511 188.489C76.4511 187.5 75.6493 186.698 74.6601 186.698C73.671 186.698 72.8691 187.5 72.8691 188.489C72.8691 189.478 73.671 190.28 74.6601 190.28Z" fill="#EEEEEE"/>
<path d="M74.6601 171.409C75.6493 171.409 76.4511 170.607 76.4511 169.618C76.4511 168.629 75.6493 167.827 74.6601 167.827C73.671 167.827 72.8691 168.629 72.8691 169.618C72.8691 170.607 73.671 171.409 74.6601 171.409Z" fill="#EEEEEE"/>
<path d="M74.6601 114.797C75.6493 114.797 76.4511 113.995 76.4511 113.006C76.4511 112.017 75.6493 111.215 74.6601 111.215C73.671 111.215 72.8691 112.017 72.8691 113.006C72.8691 113.995 73.671 114.797 74.6601 114.797Z" fill="#EEEEEE"/>
<path d="M74.6601 58.184C75.6493 58.184 76.4511 57.3822 76.4511 56.3931C76.4511 55.4039 75.6493 54.6021 74.6601 54.6021C73.671 54.6021 72.8691 55.4039 72.8691 56.3931C72.8691 57.3822 73.671 58.184 74.6601 58.184Z" fill="#EEEEEE"/>
<path d="M74.6601 77.0549C75.6493 77.0549 76.4511 76.253 76.4511 75.2639C76.4511 74.2748 75.6493 73.4729 74.6601 73.4729C73.671 73.4729 72.8691 74.2748 72.8691 75.2639C72.8691 76.253 73.671 77.0549 74.6601 77.0549Z" fill="#EEEEEE"/>
<path d="M74.6601 95.926C75.6493 95.926 76.4511 95.1241 76.4511 94.135C76.4511 93.1459 75.6493 92.344 74.6601 92.344C73.671 92.344 72.8691 93.1459 72.8691 94.135C72.8691 95.1241 73.671 95.926 74.6601 95.926Z" fill="#EEEEEE"/>
<path d="M74.6601 133.668C75.6493 133.668 76.4511 132.866 76.4511 131.877C76.4511 130.888 75.6493 130.086 74.6601 130.086C73.671 130.086 72.8691 130.888 72.8691 131.877C72.8691 132.866 73.671 133.668 74.6601 133.668Z" fill="#EEEEEE"/>
<path d="M74.6601 228.022C75.6493 228.022 76.4511 227.22 76.4511 226.231C76.4511 225.242 75.6493 224.44 74.6601 224.44C73.671 224.44 72.8691 225.242 72.8691 226.231C72.8691 227.22 73.671 228.022 74.6601 228.022Z" fill="#EEEEEE"/>
<path d="M74.6601 209.151C75.6493 209.151 76.4511 208.349 76.4511 207.36C76.4511 206.371 75.6493 205.569 74.6601 205.569C73.671 205.569 72.8691 206.371 72.8691 207.36C72.8691 208.349 73.671 209.151 74.6601 209.151Z" fill="#EEEEEE"/>
<path d="M74.6602 35.731C74.5812 35.731 74.5062 35.745 74.4302 35.754C73.9662 36.091 73.5012 36.427 73.0402 36.768C72.9332 36.998 72.8682 37.252 72.8682 37.523C72.8682 38.512 73.6702 39.314 74.6592 39.314C75.6482 39.314 76.4502 38.512 76.4502 37.523C76.4512 36.533 75.6482 35.731 74.6602 35.731Z" fill="#EEEEEE"/>
<path d="M98.9492 228.022C99.9383 228.022 100.74 227.22 100.74 226.231C100.74 225.242 99.9383 224.44 98.9492 224.44C97.9601 224.44 97.1582 225.242 97.1582 226.231C97.1582 227.22 97.9601 228.022 98.9492 228.022Z" fill="#EEEEEE"/>
<path d="M98.9492 209.151C99.9383 209.151 100.74 208.349 100.74 207.36C100.74 206.371 99.9383 205.569 98.9492 205.569C97.9601 205.569 97.1582 206.371 97.1582 207.36C97.1582 208.349 97.9601 209.151 98.9492 209.151Z" fill="#EEEEEE"/>
<path d="M98.9492 95.926C99.9383 95.926 100.74 95.1241 100.74 94.135C100.74 93.1459 99.9383 92.344 98.9492 92.344C97.9601 92.344 97.1582 93.1459 97.1582 94.135C97.1582 95.1241 97.9601 95.926 98.9492 95.926Z" fill="#EEEEEE"/>
<path d="M98.9492 77.0549C99.9383 77.0549 100.74 76.253 100.74 75.2639C100.74 74.2748 99.9383 73.4729 98.9492 73.4729C97.9601 73.4729 97.1582 74.2748 97.1582 75.2639C97.1582 76.253 97.9601 77.0549 98.9492 77.0549Z" fill="#EEEEEE"/>
<path d="M98.9492 114.797C99.9383 114.797 100.74 113.995 100.74 113.006C100.74 112.017 99.9383 111.215 98.9492 111.215C97.9601 111.215 97.1582 112.017 97.1582 113.006C97.1582 113.995 97.9601 114.797 98.9492 114.797Z" fill="#EEEEEE"/>
<path d="M98.9492 190.28C99.9383 190.28 100.74 189.478 100.74 188.489C100.74 187.5 99.9383 186.698 98.9492 186.698C97.9601 186.698 97.1582 187.5 97.1582 188.489C97.1582 189.478 97.9601 190.28 98.9492 190.28Z" fill="#EEEEEE"/>
<path d="M98.9492 171.409C99.9383 171.409 100.74 170.607 100.74 169.618C100.74 168.629 99.9383 167.827 98.9492 167.827C97.9601 167.827 97.1582 168.629 97.1582 169.618C97.1582 170.607 97.9601 171.409 98.9492 171.409Z" fill="#EEEEEE"/>
<path d="M98.9492 152.539C99.9383 152.539 100.74 151.737 100.74 150.748C100.74 149.759 99.9383 148.957 98.9492 148.957C97.9601 148.957 97.1582 149.759 97.1582 150.748C97.1582 151.737 97.9601 152.539 98.9492 152.539Z" fill="#EEEEEE"/>
<path d="M98.9492 133.668C99.9383 133.668 100.74 132.866 100.74 131.877C100.74 130.888 99.9383 130.086 98.9492 130.086C97.9601 130.086 97.1582 130.888 97.1582 131.877C97.1582 132.866 97.9601 133.668 98.9492 133.668Z" fill="#EEEEEE"/>
<path d="M98.9492 58.184C99.9383 58.184 100.74 57.3822 100.74 56.3931C100.74 55.4039 99.9383 54.6021 98.9492 54.6021C97.9601 54.6021 97.1582 55.4039 97.1582 56.3931C97.1582 57.3822 97.9601 58.184 98.9492 58.184Z" fill="#EEEEEE"/>
<path d="M98.9492 39.313C99.9383 39.313 100.74 38.5111 100.74 37.522C100.74 36.5328 99.9383 35.731 98.9492 35.731C97.9601 35.731 97.1582 36.5328 97.1582 37.522C97.1582 38.5111 97.9601 39.313 98.9492 39.313Z" fill="#EEEEEE"/>
<path d="M123.239 209.151C124.228 209.151 125.03 208.349 125.03 207.36C125.03 206.371 124.228 205.569 123.239 205.569C122.25 205.569 121.448 206.371 121.448 207.36C121.448 208.349 122.25 209.151 123.239 209.151Z" fill="#EEEEEE"/>
<path d="M123.239 190.28C124.228 190.28 125.03 189.478 125.03 188.489C125.03 187.5 124.228 186.698 123.239 186.698C122.25 186.698 121.448 187.5 121.448 188.489C121.448 189.478 122.25 190.28 123.239 190.28Z" fill="#EEEEEE"/>
<path d="M123.239 228.022C124.228 228.022 125.03 227.22 125.03 226.231C125.03 225.242 124.228 224.44 123.239 224.44C122.25 224.44 121.448 225.242 121.448 226.231C121.448 227.22 122.25 228.022 123.239 228.022Z" fill="#EEEEEE"/>
<path d="M123.239 152.539C124.228 152.539 125.03 151.737 125.03 150.748C125.03 149.759 124.228 148.957 123.239 148.957C122.25 148.957 121.448 149.759 121.448 150.748C121.448 151.737 122.25 152.539 123.239 152.539Z" fill="#EEEEEE"/>
<path d="M123.239 171.409C124.228 171.409 125.03 170.607 125.03 169.618C125.03 168.629 124.228 167.827 123.239 167.827C122.25 167.827 121.448 168.629 121.448 169.618C121.448 170.607 122.25 171.409 123.239 171.409Z" fill="#EEEEEE"/>
<path d="M123.239 133.668C124.228 133.668 125.03 132.866 125.03 131.877C125.03 130.888 124.228 130.086 123.239 130.086C122.25 130.086 121.448 130.888 121.448 131.877C121.448 132.866 122.25 133.668 123.239 133.668Z" fill="#EEEEEE"/>
<path d="M123.239 58.184C124.228 58.184 125.03 57.3822 125.03 56.3931C125.03 55.4039 124.228 54.6021 123.239 54.6021C122.25 54.6021 121.448 55.4039 121.448 56.3931C121.448 57.3822 122.25 58.184 123.239 58.184Z" fill="#EEEEEE"/>
<path d="M123.239 20.4431C124.228 20.4431 125.03 19.6412 125.03 18.6521C125.03 17.6629 124.228 16.8611 123.239 16.8611C122.25 16.8611 121.448 17.6629 121.448 18.6521C121.448 19.6412 122.25 20.4431 123.239 20.4431Z" fill="#EEEEEE"/>
<path d="M123.239 39.313C124.228 39.313 125.03 38.5111 125.03 37.522C125.03 36.5328 124.228 35.731 123.239 35.731C122.25 35.731 121.448 36.5328 121.448 37.522C121.448 38.5111 122.25 39.313 123.239 39.313Z" fill="#EEEEEE"/>
<path d="M123.239 114.797C124.228 114.797 125.03 113.995 125.03 113.006C125.03 112.017 124.228 111.215 123.239 111.215C122.25 111.215 121.448 112.017 121.448 113.006C121.448 113.995 122.25 114.797 123.239 114.797Z" fill="#EEEEEE"/>
<path d="M123.239 77.0549C124.228 77.0549 125.03 76.253 125.03 75.2639C125.03 74.2748 124.228 73.4729 123.239 73.4729C122.25 73.4729 121.448 74.2748 121.448 75.2639C121.448 76.253 122.25 77.0549 123.239 77.0549Z" fill="#EEEEEE"/>
<path d="M123.239 95.926C124.228 95.926 125.03 95.1241 125.03 94.135C125.03 93.1459 124.228 92.344 123.239 92.344C122.25 92.344 121.448 93.1459 121.448 94.135C121.448 95.1241 122.25 95.926 123.239 95.926Z" fill="#EEEEEE"/>
<path d="M147.528 152.539C148.517 152.539 149.319 151.737 149.319 150.748C149.319 149.759 148.517 148.957 147.528 148.957C146.539 148.957 145.737 149.759 145.737 150.748C145.737 151.737 146.539 152.539 147.528 152.539Z" fill="#EEEEEE"/>
<path d="M147.528 133.668C148.517 133.668 149.319 132.866 149.319 131.877C149.319 130.888 148.517 130.086 147.528 130.086C146.539 130.086 145.737 130.888 145.737 131.877C145.737 132.866 146.539 133.668 147.528 133.668Z" fill="#EEEEEE"/>
<path d="M147.528 20.4431C148.517 20.4431 149.319 19.6412 149.319 18.6521C149.319 17.6629 148.517 16.8611 147.528 16.8611C146.539 16.8611 145.737 17.6629 145.737 18.6521C145.737 19.6412 146.539 20.4431 147.528 20.4431Z" fill="#EEEEEE"/>
<path d="M147.528 114.797C148.517 114.797 149.319 113.995 149.319 113.006C149.319 112.017 148.517 111.215 147.528 111.215C146.539 111.215 145.737 112.017 145.737 113.006C145.737 113.995 146.539 114.797 147.528 114.797Z" fill="#EEEEEE"/>
<path d="M147.528 190.28C148.517 190.28 149.319 189.478 149.319 188.489C149.319 187.5 148.517 186.698 147.528 186.698C146.539 186.698 145.737 187.5 145.737 188.489C145.737 189.478 146.539 190.28 147.528 190.28Z" fill="#EEEEEE"/>
<path d="M147.528 77.0549C148.517 77.0549 149.319 76.253 149.319 75.2639C149.319 74.2748 148.517 73.4729 147.528 73.4729C146.539 73.4729 145.737 74.2748 145.737 75.2639C145.737 76.253 146.539 77.0549 147.528 77.0549Z" fill="#EEEEEE"/>
<path d="M147.528 58.184C148.517 58.184 149.319 57.3822 149.319 56.3931C149.319 55.4039 148.517 54.6021 147.528 54.6021C146.539 54.6021 145.737 55.4039 145.737 56.3931C145.737 57.3822 146.539 58.184 147.528 58.184Z" fill="#EEEEEE"/>
<path d="M147.528 95.926C148.517 95.926 149.319 95.1241 149.319 94.135C149.319 93.1459 148.517 92.344 147.528 92.344C146.539 92.344 145.737 93.1459 145.737 94.135C145.737 95.1241 146.539 95.926 147.528 95.926Z" fill="#EEEEEE"/>
<path d="M147.528 209.151C148.517 209.151 149.319 208.349 149.319 207.36C149.319 206.371 148.517 205.569 147.528 205.569C146.539 205.569 145.737 206.371 145.737 207.36C145.737 208.349 146.539 209.151 147.528 209.151Z" fill="#EEEEEE"/>
<path d="M147.528 171.409C148.517 171.409 149.319 170.607 149.319 169.618C149.319 168.629 148.517 167.827 147.528 167.827C146.539 167.827 145.737 168.629 145.737 169.618C145.737 170.607 146.539 171.409 147.528 171.409Z" fill="#EEEEEE"/>
<path d="M147.528 228.022C148.517 228.022 149.319 227.22 149.319 226.231C149.319 225.242 148.517 224.44 147.528 224.44C146.539 224.44 145.737 225.242 145.737 226.231C145.737 227.22 146.539 228.022 147.528 228.022Z" fill="#EEEEEE"/>
<path d="M147.528 39.313C148.517 39.313 149.319 38.5111 149.319 37.522C149.319 36.5328 148.517 35.731 147.528 35.731C146.539 35.731 145.737 36.5328 145.737 37.522C145.737 38.5111 146.539 39.313 147.528 39.313Z" fill="#EEEEEE"/>
<path d="M171.817 1.57198C172.288 1.57198 172.75 1.38098 173.083 1.04798C173.327 0.803982 173.492 0.490982 173.565 0.156982C172.42 0.226982 171.278 0.299982 170.139 0.390982C170.228 0.635982 170.364 0.862982 170.55 1.04898C170.884 1.38098 171.346 1.57198 171.817 1.57198Z" fill="#EEEEEE"/>
<path d="M171.817 190.28C172.807 190.28 173.608 189.478 173.608 188.489C173.608 187.5 172.807 186.698 171.817 186.698C170.828 186.698 170.026 187.5 170.026 188.489C170.026 189.478 170.828 190.28 171.817 190.28Z" fill="#EEEEEE"/>
<path d="M171.817 171.409C172.807 171.409 173.608 170.607 173.608 169.618C173.608 168.629 172.807 167.827 171.817 167.827C170.828 167.827 170.026 168.629 170.026 169.618C170.026 170.607 170.828 171.409 171.817 171.409Z" fill="#EEEEEE"/>
<path d="M171.817 152.539C172.807 152.539 173.608 151.737 173.608 150.748C173.608 149.759 172.807 148.957 171.817 148.957C170.828 148.957 170.026 149.759 170.026 150.748C170.026 151.737 170.828 152.539 171.817 152.539Z" fill="#EEEEEE"/>
<path d="M171.817 209.151C172.807 209.151 173.608 208.349 173.608 207.36C173.608 206.371 172.807 205.569 171.817 205.569C170.828 205.569 170.026 206.371 170.026 207.36C170.026 208.349 170.828 209.151 171.817 209.151Z" fill="#EEEEEE"/>
<path d="M171.817 228.022C172.807 228.022 173.608 227.22 173.608 226.231C173.608 225.242 172.807 224.44 171.817 224.44C170.828 224.44 170.026 225.242 170.026 226.231C170.026 227.22 170.828 228.022 171.817 228.022Z" fill="#EEEEEE"/>
<path d="M171.817 20.4431C172.807 20.4431 173.608 19.6412 173.608 18.6521C173.608 17.6629 172.807 16.8611 171.817 16.8611C170.828 16.8611 170.026 17.6629 170.026 18.6521C170.026 19.6412 170.828 20.4431 171.817 20.4431Z" fill="#EEEEEE"/>
<path d="M171.817 39.313C172.807 39.313 173.608 38.5111 173.608 37.522C173.608 36.5328 172.807 35.731 171.817 35.731C170.828 35.731 170.026 36.5328 170.026 37.522C170.026 38.5111 170.828 39.313 171.817 39.313Z" fill="#EEEEEE"/>
<path d="M171.817 77.0549C172.807 77.0549 173.608 76.253 173.608 75.2639C173.608 74.2748 172.807 73.4729 171.817 73.4729C170.828 73.4729 170.026 74.2748 170.026 75.2639C170.026 76.253 170.828 77.0549 171.817 77.0549Z" fill="#EEEEEE"/>
<path d="M171.817 95.926C172.807 95.926 173.608 95.1241 173.608 94.135C173.608 93.1459 172.807 92.344 171.817 92.344C170.828 92.344 170.026 93.1459 170.026 94.135C170.026 95.1241 170.828 95.926 171.817 95.926Z" fill="#EEEEEE"/>
<path d="M171.817 114.797C172.807 114.797 173.608 113.995 173.608 113.006C173.608 112.017 172.807 111.215 171.817 111.215C170.828 111.215 170.026 112.017 170.026 113.006C170.026 113.995 170.828 114.797 171.817 114.797Z" fill="#EEEEEE"/>
<path d="M171.817 133.668C172.807 133.668 173.608 132.866 173.608 131.877C173.608 130.888 172.807 130.086 171.817 130.086C170.828 130.086 170.026 130.888 170.026 131.877C170.026 132.866 170.828 133.668 171.817 133.668Z" fill="#EEEEEE"/>
<path d="M171.817 58.184C172.807 58.184 173.608 57.3822 173.608 56.3931C173.608 55.4039 172.807 54.6021 171.817 54.6021C170.828 54.6021 170.026 55.4039 170.026 56.3931C170.026 57.3822 170.828 58.184 171.817 58.184Z" fill="#EEEEEE"/>
<path d="M196.107 1.572C196.578 1.572 197.04 1.381 197.373 1.048C197.605 0.816 197.763 0.52 197.841 0.204C196.676 0.128 195.509 0.055 194.338 0C194.388 0.393 194.56 0.766 194.841 1.048C195.173 1.381 195.635 1.572 196.107 1.572Z" fill="#EEEEEE"/>
<path d="M196.106 171.409C197.096 171.409 197.897 170.607 197.897 169.618C197.897 168.629 197.096 167.827 196.106 167.827C195.117 167.827 194.315 168.629 194.315 169.618C194.315 170.607 195.117 171.409 196.106 171.409Z" fill="#EEEEEE"/>
<path d="M196.106 152.539C197.096 152.539 197.897 151.737 197.897 150.748C197.897 149.759 197.096 148.957 196.106 148.957C195.117 148.957 194.315 149.759 194.315 150.748C194.315 151.737 195.117 152.539 196.106 152.539Z" fill="#EEEEEE"/>
<path d="M196.106 114.797C197.096 114.797 197.897 113.995 197.897 113.006C197.897 112.017 197.096 111.215 196.106 111.215C195.117 111.215 194.315 112.017 194.315 113.006C194.315 113.995 195.117 114.797 196.106 114.797Z" fill="#EEEEEE"/>
<path d="M196.106 95.926C197.096 95.926 197.897 95.1241 197.897 94.135C197.897 93.1459 197.096 92.344 196.106 92.344C195.117 92.344 194.315 93.1459 194.315 94.135C194.315 95.1241 195.117 95.926 196.106 95.926Z" fill="#EEEEEE"/>
<path d="M196.106 77.0549C197.096 77.0549 197.897 76.253 197.897 75.2639C197.897 74.2748 197.096 73.4729 196.106 73.4729C195.117 73.4729 194.315 74.2748 194.315 75.2639C194.315 76.253 195.117 77.0549 196.106 77.0549Z" fill="#EEEEEE"/>
<path d="M196.106 209.151C197.096 209.151 197.897 208.349 197.897 207.36C197.897 206.371 197.096 205.569 196.106 205.569C195.117 205.569 194.315 206.371 194.315 207.36C194.315 208.349 195.117 209.151 196.106 209.151Z" fill="#EEEEEE"/>
<path d="M196.106 190.28C197.096 190.28 197.897 189.478 197.897 188.489C197.897 187.5 197.096 186.698 196.106 186.698C195.117 186.698 194.315 187.5 194.315 188.489C194.315 189.478 195.117 190.28 196.106 190.28Z" fill="#EEEEEE"/>
<path d="M196.106 228.022C197.096 228.022 197.897 227.22 197.897 226.231C197.897 225.242 197.096 224.44 196.106 224.44C195.117 224.44 194.315 225.242 194.315 226.231C194.315 227.22 195.117 228.022 196.106 228.022Z" fill="#EEEEEE"/>
<path d="M196.106 58.184C197.096 58.184 197.897 57.3822 197.897 56.3931C197.897 55.4039 197.096 54.6021 196.106 54.6021C195.117 54.6021 194.315 55.4039 194.315 56.3931C194.315 57.3822 195.117 58.184 196.106 58.184Z" fill="#EEEEEE"/>
<path d="M196.106 133.668C197.096 133.668 197.897 132.866 197.897 131.877C197.897 130.888 197.096 130.086 196.106 130.086C195.117 130.086 194.315 130.888 194.315 131.877C194.315 132.866 195.117 133.668 196.106 133.668Z" fill="#EEEEEE"/>
<path d="M196.106 39.313C197.096 39.313 197.897 38.5111 197.897 37.522C197.897 36.5328 197.096 35.731 196.106 35.731C195.117 35.731 194.315 36.5328 194.315 37.522C194.315 38.5111 195.117 39.313 196.106 39.313Z" fill="#EEEEEE"/>
<path d="M196.106 20.4431C197.096 20.4431 197.897 19.6412 197.897 18.6521C197.897 17.6629 197.096 16.8611 196.106 16.8611C195.117 16.8611 194.315 17.6629 194.315 18.6521C194.315 19.6412 195.117 20.4431 196.106 20.4431Z" fill="#EEEEEE"/>
<path d="M220.396 228.022C221.386 228.022 222.187 227.22 222.187 226.231C222.187 225.242 221.386 224.44 220.396 224.44C219.407 224.44 218.605 225.242 218.605 226.231C218.605 227.22 219.407 228.022 220.396 228.022Z" fill="#EEEEEE"/>
<path d="M220.396 152.539C221.386 152.539 222.187 151.737 222.187 150.748C222.187 149.759 221.386 148.957 220.396 148.957C219.407 148.957 218.605 149.759 218.605 150.748C218.605 151.737 219.407 152.539 220.396 152.539Z" fill="#EEEEEE"/>
<path d="M220.396 209.151C221.386 209.151 222.187 208.349 222.187 207.36C222.187 206.371 221.386 205.569 220.396 205.569C219.407 205.569 218.605 206.371 218.605 207.36C218.605 208.349 219.407 209.151 220.396 209.151Z" fill="#EEEEEE"/>
<path d="M220.396 171.409C221.386 171.409 222.187 170.607 222.187 169.618C222.187 168.629 221.386 167.827 220.396 167.827C219.407 167.827 218.605 168.629 218.605 169.618C218.605 170.607 219.407 171.409 220.396 171.409Z" fill="#EEEEEE"/>
<path d="M220.396 133.668C221.386 133.668 222.187 132.866 222.187 131.877C222.187 130.888 221.386 130.086 220.396 130.086C219.407 130.086 218.605 130.888 218.605 131.877C218.605 132.866 219.407 133.668 220.396 133.668Z" fill="#EEEEEE"/>
<path d="M220.396 190.28C221.386 190.28 222.187 189.478 222.187 188.489C222.187 187.5 221.386 186.698 220.396 186.698C219.407 186.698 218.605 187.5 218.605 188.489C218.605 189.478 219.407 190.28 220.396 190.28Z" fill="#EEEEEE"/>
<path d="M220.396 58.184C221.386 58.184 222.187 57.3822 222.187 56.3931C222.187 55.4039 221.386 54.6021 220.396 54.6021C219.407 54.6021 218.605 55.4039 218.605 56.3931C218.605 57.3822 219.407 58.184 220.396 58.184Z" fill="#EEEEEE"/>
<path d="M220.396 20.4431C221.386 20.4431 222.187 19.6412 222.187 18.6521C222.187 17.6629 221.386 16.8611 220.396 16.8611C219.407 16.8611 218.605 17.6629 218.605 18.6521C218.605 19.6412 219.407 20.4431 220.396 20.4431Z" fill="#EEEEEE"/>
<path d="M220.396 114.797C221.386 114.797 222.187 113.995 222.187 113.006C222.187 112.017 221.386 111.215 220.396 111.215C219.407 111.215 218.605 112.017 218.605 113.006C218.605 113.995 219.407 114.797 220.396 114.797Z" fill="#EEEEEE"/>
<path d="M220.396 39.313C221.386 39.313 222.187 38.5111 222.187 37.522C222.187 36.5328 221.386 35.731 220.396 35.731C219.407 35.731 218.605 36.5328 218.605 37.522C218.605 38.5111 219.407 39.313 220.396 39.313Z" fill="#EEEEEE"/>
<path d="M220.396 77.0549C221.386 77.0549 222.187 76.253 222.187 75.2639C222.187 74.2748 221.386 73.4729 220.396 73.4729C219.407 73.4729 218.605 74.2748 218.605 75.2639C218.605 76.253 219.407 77.0549 220.396 77.0549Z" fill="#EEEEEE"/>
<path d="M220.396 95.926C221.386 95.926 222.187 95.1241 222.187 94.135C222.187 93.1459 221.386 92.344 220.396 92.344C219.407 92.344 218.605 93.1459 218.605 94.135C218.605 95.1241 219.407 95.926 220.396 95.926Z" fill="#EEEEEE"/>
<path d="M244.685 20.4431C245.674 20.4431 246.476 19.6412 246.476 18.6521C246.476 17.6629 245.674 16.8611 244.685 16.8611C243.695 16.8611 242.894 17.6629 242.894 18.6521C242.894 19.6412 243.695 20.4431 244.685 20.4431Z" fill="#EEEEEE"/>
<path d="M244.685 77.0549C245.674 77.0549 246.476 76.253 246.476 75.2639C246.476 74.2748 245.674 73.4729 244.685 73.4729C243.695 73.4729 242.894 74.2748 242.894 75.2639C242.894 76.253 243.695 77.0549 244.685 77.0549Z" fill="#EEEEEE"/>
<path d="M244.685 58.184C245.674 58.184 246.476 57.3822 246.476 56.3931C246.476 55.4039 245.674 54.6021 244.685 54.6021C243.695 54.6021 242.894 55.4039 242.894 56.3931C242.894 57.3822 243.695 58.184 244.685 58.184Z" fill="#EEEEEE"/>
<path d="M244.685 39.313C245.674 39.313 246.476 38.5111 246.476 37.522C246.476 36.5328 245.674 35.731 244.685 35.731C243.695 35.731 242.894 36.5328 242.894 37.522C242.894 38.5111 243.695 39.313 244.685 39.313Z" fill="#EEEEEE"/>
<path d="M244.685 133.668C245.674 133.668 246.476 132.866 246.476 131.877C246.476 130.888 245.674 130.086 244.685 130.086C243.695 130.086 242.894 130.888 242.894 131.877C242.894 132.866 243.695 133.668 244.685 133.668Z" fill="#EEEEEE"/>
<path d="M244.685 228.022C245.674 228.022 246.476 227.22 246.476 226.231C246.476 225.242 245.674 224.44 244.685 224.44C243.695 224.44 242.894 225.242 242.894 226.231C242.894 227.22 243.695 228.022 244.685 228.022Z" fill="#EEEEEE"/>
<path d="M244.685 114.797C245.674 114.797 246.476 113.995 246.476 113.006C246.476 112.017 245.674 111.215 244.685 111.215C243.695 111.215 242.894 112.017 242.894 113.006C242.894 113.995 243.695 114.797 244.685 114.797Z" fill="#EEEEEE"/>
<path d="M244.685 95.926C245.674 95.926 246.476 95.1241 246.476 94.135C246.476 93.1459 245.674 92.344 244.685 92.344C243.695 92.344 242.894 93.1459 242.894 94.135C242.894 95.1241 243.695 95.926 244.685 95.926Z" fill="#EEEEEE"/>
<path d="M244.685 209.151C245.674 209.151 246.476 208.349 246.476 207.36C246.476 206.371 245.674 205.569 244.685 205.569C243.695 205.569 242.894 206.371 242.894 207.36C242.894 208.349 243.695 209.151 244.685 209.151Z" fill="#EEEEEE"/>
<path d="M244.685 190.28C245.674 190.28 246.476 189.478 246.476 188.489C246.476 187.5 245.674 186.698 244.685 186.698C243.695 186.698 242.894 187.5 242.894 188.489C242.894 189.478 243.695 190.28 244.685 190.28Z" fill="#EEEEEE"/>
<path d="M244.685 171.409C245.674 171.409 246.476 170.607 246.476 169.618C246.476 168.629 245.674 167.827 244.685 167.827C243.695 167.827 242.894 168.629 242.894 169.618C242.894 170.607 243.695 171.409 244.685 171.409Z" fill="#EEEEEE"/>
<path d="M244.685 152.539C245.674 152.539 246.476 151.737 246.476 150.748C246.476 149.759 245.674 148.957 244.685 148.957C243.695 148.957 242.894 149.759 242.894 150.748C242.894 151.737 243.695 152.539 244.685 152.539Z" fill="#EEEEEE"/>
<path d="M268.975 171.409C269.964 171.409 270.766 170.607 270.766 169.618C270.766 168.629 269.964 167.827 268.975 167.827C267.985 167.827 267.184 168.629 267.184 169.618C267.184 170.607 267.985 171.409 268.975 171.409Z" fill="#EEEEEE"/>
<path d="M268.975 133.668C269.964 133.668 270.766 132.866 270.766 131.877C270.766 130.888 269.964 130.086 268.975 130.086C267.985 130.086 267.184 130.888 267.184 131.877C267.184 132.866 267.985 133.668 268.975 133.668Z" fill="#EEEEEE"/>
<path d="M268.975 152.539C269.964 152.539 270.766 151.737 270.766 150.748C270.766 149.759 269.964 148.957 268.975 148.957C267.985 148.957 267.184 149.759 267.184 150.748C267.184 151.737 267.985 152.539 268.975 152.539Z" fill="#EEEEEE"/>
<path d="M268.975 95.926C269.964 95.926 270.766 95.1241 270.766 94.135C270.766 93.1459 269.964 92.344 268.975 92.344C267.985 92.344 267.184 93.1459 267.184 94.135C267.184 95.1241 267.985 95.926 268.975 95.926Z" fill="#EEEEEE"/>
<path d="M268.975 114.797C269.964 114.797 270.766 113.995 270.766 113.006C270.766 112.017 269.964 111.215 268.975 111.215C267.985 111.215 267.184 112.017 267.184 113.006C267.184 113.995 267.985 114.797 268.975 114.797Z" fill="#EEEEEE"/>
<path d="M268.975 77.0549C269.964 77.0549 270.766 76.253 270.766 75.2639C270.766 74.2748 269.964 73.4729 268.975 73.4729C267.985 73.4729 267.184 74.2748 267.184 75.2639C267.184 76.253 267.985 77.0549 268.975 77.0549Z" fill="#EEEEEE"/>
<path d="M268.975 39.313C269.964 39.313 270.766 38.5111 270.766 37.522C270.766 36.5328 269.964 35.731 268.975 35.731C267.985 35.731 267.184 36.5328 267.184 37.522C267.184 38.5111 267.985 39.313 268.975 39.313Z" fill="#EEEEEE"/>
<path d="M268.975 20.4429C269.474 20.4429 269.924 20.2379 270.249 19.9089C269.239 19.3999 268.229 18.8899 267.209 18.3989C267.197 18.4819 267.184 18.5649 267.184 18.6519C267.183 19.6409 267.985 20.4429 268.975 20.4429Z" fill="#EEEEEE"/>
<path d="M268.975 58.184C269.964 58.184 270.766 57.3822 270.766 56.3931C270.766 55.4039 269.964 54.6021 268.975 54.6021C267.985 54.6021 267.184 55.4039 267.184 56.3931C267.184 57.3822 267.985 58.184 268.975 58.184Z" fill="#EEEEEE"/>
<path d="M268.975 190.28C269.964 190.28 270.766 189.478 270.766 188.489C270.766 187.5 269.964 186.698 268.975 186.698C267.985 186.698 267.184 187.5 267.184 188.489C267.184 189.478 267.985 190.28 268.975 190.28Z" fill="#EEEEEE"/>
<path d="M268.975 209.151C269.964 209.151 270.766 208.349 270.766 207.36C270.766 206.371 269.964 205.569 268.975 205.569C267.985 205.569 267.184 206.371 267.184 207.36C267.184 208.349 267.985 209.151 268.975 209.151Z" fill="#EEEEEE"/>
<path d="M268.975 228.022C269.964 228.022 270.766 227.22 270.766 226.231C270.766 225.242 269.964 224.44 268.975 224.44C267.985 224.44 267.184 225.242 267.184 226.231C267.184 227.22 267.985 228.022 268.975 228.022Z" fill="#EEEEEE"/>
<path d="M293.264 77.0549C294.253 77.0549 295.055 76.253 295.055 75.2639C295.055 74.2748 294.253 73.4729 293.264 73.4729C292.275 73.4729 291.473 74.2748 291.473 75.2639C291.473 76.253 292.275 77.0549 293.264 77.0549Z" fill="#EEEEEE"/>
<path d="M293.264 228.022C294.253 228.022 295.055 227.22 295.055 226.231C295.055 225.242 294.253 224.44 293.264 224.44C292.275 224.44 291.473 225.242 291.473 226.231C291.473 227.22 292.275 228.022 293.264 228.022Z" fill="#EEEEEE"/>
<path d="M293.264 209.151C294.253 209.151 295.055 208.349 295.055 207.36C295.055 206.371 294.253 205.569 293.264 205.569C292.275 205.569 291.473 206.371 291.473 207.36C291.473 208.349 292.275 209.151 293.264 209.151Z" fill="#EEEEEE"/>
<path d="M293.264 114.797C294.253 114.797 295.055 113.995 295.055 113.006C295.055 112.017 294.253 111.215 293.264 111.215C292.275 111.215 291.473 112.017 291.473 113.006C291.473 113.995 292.275 114.797 293.264 114.797Z" fill="#EEEEEE"/>
<path d="M293.264 58.184C294.253 58.184 295.055 57.3822 295.055 56.3931C295.055 55.4039 294.253 54.6021 293.264 54.6021C292.275 54.6021 291.473 55.4039 291.473 56.3931C291.473 57.3822 292.275 58.184 293.264 58.184Z" fill="#EEEEEE"/>
<path d="M293.264 190.28C294.253 190.28 295.055 189.478 295.055 188.489C295.055 187.5 294.253 186.698 293.264 186.698C292.275 186.698 291.473 187.5 291.473 188.489C291.473 189.478 292.275 190.28 293.264 190.28Z" fill="#EEEEEE"/>
<path d="M293.264 39.313C294.253 39.313 295.055 38.5111 295.055 37.522C295.055 36.5328 294.253 35.731 293.264 35.731C292.275 35.731 291.473 36.5328 291.473 37.522C291.473 38.5111 292.275 39.313 293.264 39.313Z" fill="#EEEEEE"/>
<path d="M293.264 95.926C294.253 95.926 295.055 95.1241 295.055 94.135C295.055 93.1459 294.253 92.344 293.264 92.344C292.275 92.344 291.473 93.1459 291.473 94.135C291.473 95.1241 292.275 95.926 293.264 95.926Z" fill="#EEEEEE"/>
<path d="M293.264 152.539C294.253 152.539 295.055 151.737 295.055 150.748C295.055 149.759 294.253 148.957 293.264 148.957C292.275 148.957 291.473 149.759 291.473 150.748C291.473 151.737 292.275 152.539 293.264 152.539Z" fill="#EEEEEE"/>
<path d="M293.264 133.668C294.253 133.668 295.055 132.866 295.055 131.877C295.055 130.888 294.253 130.086 293.264 130.086C292.275 130.086 291.473 130.888 291.473 131.877C291.473 132.866 292.275 133.668 293.264 133.668Z" fill="#EEEEEE"/>
<path d="M293.264 171.409C294.253 171.409 295.055 170.607 295.055 169.618C295.055 168.629 294.253 167.827 293.264 167.827C292.275 167.827 291.473 168.629 291.473 169.618C291.473 170.607 292.275 171.409 293.264 171.409Z" fill="#EEEEEE"/>
<path d="M317.553 171.409C318.542 171.409 319.344 170.607 319.344 169.618C319.344 168.629 318.542 167.827 317.553 167.827C316.564 167.827 315.762 168.629 315.762 169.618C315.762 170.607 316.564 171.409 317.553 171.409Z" fill="#EEEEEE"/>
<path d="M317.553 152.539C318.542 152.539 319.344 151.737 319.344 150.748C319.344 149.759 318.542 148.957 317.553 148.957C316.564 148.957 315.762 149.759 315.762 150.748C315.762 151.737 316.564 152.539 317.553 152.539Z" fill="#EEEEEE"/>
<path d="M317.553 95.926C318.542 95.926 319.344 95.1241 319.344 94.135C319.344 93.1459 318.542 92.344 317.553 92.344C316.564 92.344 315.762 93.1459 315.762 94.135C315.762 95.1241 316.564 95.926 317.553 95.926Z" fill="#EEEEEE"/>
<path d="M317.553 58.184C318.542 58.184 319.344 57.3822 319.344 56.3931C319.344 55.4039 318.542 54.6021 317.553 54.6021C316.564 54.6021 315.762 55.4039 315.762 56.3931C315.762 57.3822 316.564 58.184 317.553 58.184Z" fill="#EEEEEE"/>
<path d="M317.553 77.0549C318.542 77.0549 319.344 76.253 319.344 75.2639C319.344 74.2748 318.542 73.4729 317.553 73.4729C316.564 73.4729 315.762 74.2748 315.762 75.2639C315.762 76.253 316.564 77.0549 317.553 77.0549Z" fill="#EEEEEE"/>
<path d="M317.553 133.668C318.542 133.668 319.344 132.866 319.344 131.877C319.344 130.888 318.542 130.086 317.553 130.086C316.564 130.086 315.762 130.888 315.762 131.877C315.762 132.866 316.564 133.668 317.553 133.668Z" fill="#EEEEEE"/>
<path d="M317.553 228.022C318.542 228.022 319.344 227.22 319.344 226.231C319.344 225.242 318.542 224.44 317.553 224.44C316.564 224.44 315.762 225.242 315.762 226.231C315.762 227.22 316.564 228.022 317.553 228.022Z" fill="#EEEEEE"/>
<path d="M317.553 114.797C318.542 114.797 319.344 113.995 319.344 113.006C319.344 112.017 318.542 111.215 317.553 111.215C316.564 111.215 315.762 112.017 315.762 113.006C315.762 113.995 316.564 114.797 317.553 114.797Z" fill="#EEEEEE"/>
<path d="M317.553 209.151C318.542 209.151 319.344 208.349 319.344 207.36C319.344 206.371 318.542 205.569 317.553 205.569C316.564 205.569 315.762 206.371 315.762 207.36C315.762 208.349 316.564 209.151 317.553 209.151Z" fill="#EEEEEE"/>
<path d="M317.553 190.28C318.542 190.28 319.344 189.478 319.344 188.489C319.344 187.5 318.542 186.698 317.553 186.698C316.564 186.698 315.762 187.5 315.762 188.489C315.762 189.478 316.564 190.28 317.553 190.28Z" fill="#EEEEEE"/>
<path d="M341.843 133.668C342.832 133.668 343.634 132.866 343.634 131.877C343.634 130.888 342.832 130.086 341.843 130.086C340.854 130.086 340.052 130.888 340.052 131.877C340.052 132.866 340.854 133.668 341.843 133.668Z" fill="#EEEEEE"/>
<path d="M341.843 171.409C342.832 171.409 343.634 170.607 343.634 169.618C343.634 168.629 342.832 167.827 341.843 167.827C340.854 167.827 340.052 168.629 340.052 169.618C340.052 170.607 340.854 171.409 341.843 171.409Z" fill="#EEEEEE"/>
<path d="M341.843 228.022C342.832 228.022 343.634 227.22 343.634 226.231C343.634 225.242 342.832 224.44 341.843 224.44C340.854 224.44 340.052 225.242 340.052 226.231C340.052 227.22 340.854 228.022 341.843 228.022Z" fill="#EEEEEE"/>
<path d="M341.843 190.28C342.832 190.28 343.634 189.478 343.634 188.489C343.634 187.5 342.832 186.698 341.843 186.698C340.854 186.698 340.052 187.5 340.052 188.489C340.052 189.478 340.854 190.28 341.843 190.28Z" fill="#EEEEEE"/>
<path d="M341.843 95.926C342.832 95.926 343.634 95.1241 343.634 94.135C343.634 93.1459 342.832 92.344 341.843 92.344C340.854 92.344 340.052 93.1459 340.052 94.135C340.052 95.1241 340.854 95.926 341.843 95.926Z" fill="#EEEEEE"/>
<path d="M341.843 114.797C342.832 114.797 343.634 113.995 343.634 113.006C343.634 112.017 342.832 111.215 341.843 111.215C340.854 111.215 340.052 112.017 340.052 113.006C340.052 113.995 340.854 114.797 341.843 114.797Z" fill="#EEEEEE"/>
<path d="M341.843 152.539C342.832 152.539 343.634 151.737 343.634 150.748C343.634 149.759 342.832 148.957 341.843 148.957C340.854 148.957 340.052 149.759 340.052 150.748C340.052 151.737 340.854 152.539 341.843 152.539Z" fill="#EEEEEE"/>
<path d="M341.843 209.151C342.832 209.151 343.634 208.349 343.634 207.36C343.634 206.371 342.832 205.569 341.843 205.569C340.854 205.569 340.052 206.371 340.052 207.36C340.052 208.349 340.854 209.151 341.843 209.151Z" fill="#EEEEEE"/>
<path d="M366.132 171.409C367.121 171.409 367.923 170.607 367.923 169.618C367.923 168.629 367.121 167.827 366.132 167.827C365.143 167.827 364.341 168.629 364.341 169.618C364.341 170.607 365.143 171.409 366.132 171.409Z" fill="#EEEEEE"/>
<path d="M366.132 152.539C367.121 152.539 367.923 151.737 367.923 150.748C367.923 149.759 367.121 148.957 366.132 148.957C365.143 148.957 364.341 149.759 364.341 150.748C364.341 151.737 365.143 152.539 366.132 152.539Z" fill="#EEEEEE"/>
<path d="M366.132 190.28C367.121 190.28 367.923 189.478 367.923 188.489C367.923 187.5 367.121 186.698 366.132 186.698C365.143 186.698 364.341 187.5 364.341 188.489C364.341 189.478 365.143 190.28 366.132 190.28Z" fill="#EEEEEE"/>
<path d="M366.132 228.022C367.121 228.022 367.923 227.22 367.923 226.231C367.923 225.242 367.121 224.44 366.132 224.44C365.143 224.44 364.341 225.242 364.341 226.231C364.341 227.22 365.143 228.022 366.132 228.022Z" fill="#EEEEEE"/>
<path d="M366.132 209.151C367.121 209.151 367.923 208.349 367.923 207.36C367.923 206.371 367.121 205.569 366.132 205.569C365.143 205.569 364.341 206.371 364.341 207.36C364.341 208.349 365.143 209.151 366.132 209.151Z" fill="#EEEEEE"/>
<path d="M366.097 133.664C365.768 132.583 365.427 131.507 365.079 130.434C364.634 130.76 364.341 131.282 364.341 131.877C364.341 132.854 365.124 133.645 366.097 133.664Z" fill="#EEEEEE"/>
<path d="M1.7924 243.31C1.0114 243.31 0.353398 243.813 0.108398 244.511C0.229398 245.114 0.356398 245.715 0.482398 246.316C0.809398 246.668 1.2734 246.892 1.7924 246.892C2.7814 246.892 3.5834 246.09 3.5834 245.101C3.5824 244.112 2.7804 243.31 1.7924 243.31Z" fill="#EEEEEE"/>
<path d="M26.081 284.634C27.0702 284.634 27.872 283.832 27.872 282.843C27.872 281.854 27.0702 281.052 26.081 281.052C25.0919 281.052 24.29 281.854 24.29 282.843C24.29 283.832 25.0919 284.634 26.081 284.634Z" fill="#EEEEEE"/>
<path d="M26.081 265.763C27.0702 265.763 27.872 264.961 27.872 263.972C27.872 262.983 27.0702 262.181 26.081 262.181C25.0919 262.181 24.29 262.983 24.29 263.972C24.29 264.961 25.0919 265.763 26.081 265.763Z" fill="#EEEEEE"/>
<path d="M26.081 303.505C27.0702 303.505 27.872 302.703 27.872 301.714C27.872 300.725 27.0702 299.923 26.081 299.923C25.0919 299.923 24.29 300.725 24.29 301.714C24.29 302.703 25.0919 303.505 26.081 303.505Z" fill="#EEEEEE"/>
<path d="M26.081 246.892C27.0702 246.892 27.872 246.09 27.872 245.101C27.872 244.112 27.0702 243.31 26.081 243.31C25.0919 243.31 24.29 244.112 24.29 245.101C24.29 246.09 25.0919 246.892 26.081 246.892Z" fill="#EEEEEE"/>
<path d="M50.3701 246.892C51.3592 246.892 52.1611 246.09 52.1611 245.101C52.1611 244.112 51.3592 243.31 50.3701 243.31C49.381 243.31 48.5791 244.112 48.5791 245.101C48.5791 246.09 49.381 246.892 50.3701 246.892Z" fill="#EEEEEE"/>
<path d="M50.3701 303.505C51.3592 303.505 52.1611 302.703 52.1611 301.714C52.1611 300.725 51.3592 299.923 50.3701 299.923C49.381 299.923 48.5791 300.725 48.5791 301.714C48.5791 302.703 49.381 303.505 50.3701 303.505Z" fill="#EEEEEE"/>
<path d="M50.3701 265.763C51.3592 265.763 52.1611 264.961 52.1611 263.972C52.1611 262.983 51.3592 262.181 50.3701 262.181C49.381 262.181 48.5791 262.983 48.5791 263.972C48.5791 264.961 49.381 265.763 50.3701 265.763Z" fill="#EEEEEE"/>
<path d="M50.3701 284.634C51.3592 284.634 52.1611 283.832 52.1611 282.843C52.1611 281.854 51.3592 281.052 50.3701 281.052C49.381 281.052 48.5791 281.854 48.5791 282.843C48.5791 283.832 49.381 284.634 50.3701 284.634Z" fill="#EEEEEE"/>
<path d="M50.3695 337.665C49.9145 337.665 49.5025 337.84 49.1865 338.12C50.0105 338.977 50.8375 339.831 51.6775 340.672C51.9755 340.352 52.1605 339.927 52.1605 339.456C52.1605 338.466 51.3585 337.665 50.3695 337.665Z" fill="#EEEEEE"/>
<path d="M50.3701 322.376C51.3592 322.376 52.1611 321.574 52.1611 320.585C52.1611 319.596 51.3592 318.794 50.3701 318.794C49.381 318.794 48.5791 319.596 48.5791 320.585C48.5791 321.574 49.381 322.376 50.3701 322.376Z" fill="#EEEEEE"/>
<path d="M74.6601 246.892C75.6493 246.892 76.4511 246.09 76.4511 245.101C76.4511 244.112 75.6493 243.31 74.6601 243.31C73.671 243.31 72.8691 244.112 72.8691 245.101C72.8691 246.09 73.671 246.892 74.6601 246.892Z" fill="#EEEEEE"/>
<path d="M74.6601 284.634C75.6493 284.634 76.4511 283.832 76.4511 282.843C76.4511 281.854 75.6493 281.052 74.6601 281.052C73.671 281.052 72.8691 281.854 72.8691 282.843C72.8691 283.832 73.671 284.634 74.6601 284.634Z" fill="#EEEEEE"/>
<path d="M74.6601 341.247C75.6493 341.247 76.4511 340.445 76.4511 339.456C76.4511 338.467 75.6493 337.665 74.6601 337.665C73.671 337.665 72.8691 338.467 72.8691 339.456C72.8691 340.445 73.671 341.247 74.6601 341.247Z" fill="#EEEEEE"/>
<path d="M74.6601 322.376C75.6493 322.376 76.4511 321.574 76.4511 320.585C76.4511 319.596 75.6493 318.794 74.6601 318.794C73.671 318.794 72.8691 319.596 72.8691 320.585C72.8691 321.574 73.671 322.376 74.6601 322.376Z" fill="#EEEEEE"/>
<path d="M74.6601 303.505C75.6493 303.505 76.4511 302.703 76.4511 301.714C76.4511 300.725 75.6493 299.923 74.6601 299.923C73.671 299.923 72.8691 300.725 72.8691 301.714C72.8691 302.703 73.671 303.505 74.6601 303.505Z" fill="#EEEEEE"/>
<path d="M74.6601 265.763C75.6493 265.763 76.4511 264.961 76.4511 263.972C76.4511 262.983 75.6493 262.181 74.6601 262.181C73.671 262.181 72.8691 262.983 72.8691 263.972C72.8691 264.961 73.671 265.763 74.6601 265.763Z" fill="#EEEEEE"/>
<path d="M74.6601 356.535C73.6711 356.535 72.8691 357.337 72.8691 358.326C72.8691 358.596 72.9331 358.85 73.0411 359.08C73.5021 359.421 73.9671 359.757 74.4311 360.093C74.5071 360.103 74.5821 360.116 74.6611 360.116C75.6501 360.116 76.4521 359.314 76.4521 358.325C76.4511 357.337 75.6481 356.535 74.6601 356.535Z" fill="#EEEEEE"/>
<path d="M98.9492 303.505C99.9383 303.505 100.74 302.703 100.74 301.714C100.74 300.725 99.9383 299.923 98.9492 299.923C97.9601 299.923 97.1582 300.725 97.1582 301.714C97.1582 302.703 97.9601 303.505 98.9492 303.505Z" fill="#EEEEEE"/>
<path d="M98.9492 322.376C99.9383 322.376 100.74 321.574 100.74 320.585C100.74 319.596 99.9383 318.794 98.9492 318.794C97.9601 318.794 97.1582 319.596 97.1582 320.585C97.1582 321.574 97.9601 322.376 98.9492 322.376Z" fill="#EEEEEE"/>
<path d="M98.9492 284.634C99.9383 284.634 100.74 283.832 100.74 282.843C100.74 281.854 99.9383 281.052 98.9492 281.052C97.9601 281.052 97.1582 281.854 97.1582 282.843C97.1582 283.832 97.9601 284.634 98.9492 284.634Z" fill="#EEEEEE"/>
<path d="M98.9492 246.892C99.9383 246.892 100.74 246.09 100.74 245.101C100.74 244.112 99.9383 243.31 98.9492 243.31C97.9601 243.31 97.1582 244.112 97.1582 245.101C97.1582 246.09 97.9601 246.892 98.9492 246.892Z" fill="#EEEEEE"/>
<path d="M98.9492 265.763C99.9383 265.763 100.74 264.961 100.74 263.972C100.74 262.983 99.9383 262.181 98.9492 262.181C97.9601 262.181 97.1582 262.983 97.1582 263.972C97.1582 264.961 97.9601 265.763 98.9492 265.763Z" fill="#EEEEEE"/>
<path d="M98.9492 341.247C99.9383 341.247 100.74 340.445 100.74 339.456C100.74 338.467 99.9383 337.665 98.9492 337.665C97.9601 337.665 97.1582 338.467 97.1582 339.456C97.1582 340.445 97.9601 341.247 98.9492 341.247Z" fill="#EEEEEE"/>
<path d="M98.9492 360.117C99.9383 360.117 100.74 359.315 100.74 358.326C100.74 357.337 99.9383 356.535 98.9492 356.535C97.9601 356.535 97.1582 357.337 97.1582 358.326C97.1582 359.315 97.9601 360.117 98.9492 360.117Z" fill="#EEEEEE"/>
<path d="M123.239 246.892C124.228 246.892 125.03 246.09 125.03 245.101C125.03 244.112 124.228 243.31 123.239 243.31C122.25 243.31 121.448 244.112 121.448 245.101C121.448 246.09 122.25 246.892 123.239 246.892Z" fill="#EEEEEE"/>
<path d="M123.239 265.763C124.228 265.763 125.03 264.961 125.03 263.972C125.03 262.983 124.228 262.181 123.239 262.181C122.25 262.181 121.448 262.983 121.448 263.972C121.448 264.961 122.25 265.763 123.239 265.763Z" fill="#EEEEEE"/>
<path d="M123.239 341.247C124.228 341.247 125.03 340.445 125.03 339.456C125.03 338.467 124.228 337.665 123.239 337.665C122.25 337.665 121.448 338.467 121.448 339.456C121.448 340.445 122.25 341.247 123.239 341.247Z" fill="#EEEEEE"/>
<path d="M123.239 378.988C124.228 378.988 125.03 378.186 125.03 377.197C125.03 376.208 124.228 375.406 123.239 375.406C122.25 375.406 121.448 376.208 121.448 377.197C121.448 378.186 122.25 378.988 123.239 378.988Z" fill="#EEEEEE"/>
<path d="M123.239 360.117C124.228 360.117 125.03 359.315 125.03 358.326C125.03 357.337 124.228 356.535 123.239 356.535C122.25 356.535 121.448 357.337 121.448 358.326C121.448 359.315 122.25 360.117 123.239 360.117Z" fill="#EEEEEE"/>
<path d="M123.239 284.634C124.228 284.634 125.03 283.832 125.03 282.843C125.03 281.854 124.228 281.052 123.239 281.052C122.25 281.052 121.448 281.854 121.448 282.843C121.448 283.832 122.25 284.634 123.239 284.634Z" fill="#EEEEEE"/>
<path d="M123.239 322.376C124.228 322.376 125.03 321.574 125.03 320.585C125.03 319.596 124.228 318.794 123.239 318.794C122.25 318.794 121.448 319.596 121.448 320.585C121.448 321.574 122.25 322.376 123.239 322.376Z" fill="#EEEEEE"/>
<path d="M123.239 303.505C124.228 303.505 125.03 302.703 125.03 301.714C125.03 300.725 124.228 299.923 123.239 299.923C122.25 299.923 121.448 300.725 121.448 301.714C121.448 302.703 122.25 303.505 123.239 303.505Z" fill="#EEEEEE"/>
<path d="M147.528 246.892C148.517 246.892 149.319 246.09 149.319 245.101C149.319 244.112 148.517 243.31 147.528 243.31C146.539 243.31 145.737 244.112 145.737 245.101C145.737 246.09 146.539 246.892 147.528 246.892Z" fill="#EEEEEE"/>
<path d="M147.528 265.763C148.517 265.763 149.319 264.961 149.319 263.972C149.319 262.983 148.517 262.181 147.528 262.181C146.539 262.181 145.737 262.983 145.737 263.972C145.737 264.961 146.539 265.763 147.528 265.763Z" fill="#EEEEEE"/>
<path d="M147.528 378.988C148.517 378.988 149.319 378.186 149.319 377.197C149.319 376.208 148.517 375.406 147.528 375.406C146.539 375.406 145.737 376.208 145.737 377.197C145.737 378.186 146.539 378.988 147.528 378.988Z" fill="#EEEEEE"/>
<path d="M147.528 284.634C148.517 284.634 149.319 283.832 149.319 282.843C149.319 281.854 148.517 281.052 147.528 281.052C146.539 281.052 145.737 281.854 145.737 282.843C145.737 283.832 146.539 284.634 147.528 284.634Z" fill="#EEEEEE"/>
<path d="M147.528 322.376C148.517 322.376 149.319 321.574 149.319 320.585C149.319 319.596 148.517 318.794 147.528 318.794C146.539 318.794 145.737 319.596 145.737 320.585C145.737 321.574 146.539 322.376 147.528 322.376Z" fill="#EEEEEE"/>
<path d="M147.528 341.247C148.517 341.247 149.319 340.445 149.319 339.456C149.319 338.467 148.517 337.665 147.528 337.665C146.539 337.665 145.737 338.467 145.737 339.456C145.737 340.445 146.539 341.247 147.528 341.247Z" fill="#EEEEEE"/>
<path d="M147.528 303.505C148.517 303.505 149.319 302.703 149.319 301.714C149.319 300.725 148.517 299.923 147.528 299.923C146.539 299.923 145.737 300.725 145.737 301.714C145.737 302.703 146.539 303.505 147.528 303.505Z" fill="#EEEEEE"/>
<path d="M147.528 360.117C148.517 360.117 149.319 359.315 149.319 358.326C149.319 357.337 148.517 356.535 147.528 356.535C146.539 356.535 145.737 357.337 145.737 358.326C145.737 359.315 146.539 360.117 147.528 360.117Z" fill="#EEEEEE"/>
<path d="M171.817 394.277C171.345 394.277 170.884 394.468 170.55 394.802C170.364 394.988 170.228 395.215 170.139 395.46C171.277 395.551 172.42 395.623 173.565 395.694C173.492 395.359 173.326 395.046 173.083 394.803C172.75 394.468 172.289 394.277 171.817 394.277Z" fill="#EEEEEE"/>
<path d="M171.817 246.892C172.807 246.892 173.608 246.09 173.608 245.101C173.608 244.112 172.807 243.31 171.817 243.31C170.828 243.31 170.026 244.112 170.026 245.101C170.026 246.09 170.828 246.892 171.817 246.892Z" fill="#EEEEEE"/>
<path d="M171.817 378.988C172.807 378.988 173.608 378.186 173.608 377.197C173.608 376.208 172.807 375.406 171.817 375.406C170.828 375.406 170.026 376.208 170.026 377.197C170.026 378.186 170.828 378.988 171.817 378.988Z" fill="#EEEEEE"/>
<path d="M171.817 360.117C172.807 360.117 173.608 359.315 173.608 358.326C173.608 357.337 172.807 356.535 171.817 356.535C170.828 356.535 170.026 357.337 170.026 358.326C170.026 359.315 170.828 360.117 171.817 360.117Z" fill="#EEEEEE"/>
<path d="M171.817 322.376C172.807 322.376 173.608 321.574 173.608 320.585C173.608 319.596 172.807 318.794 171.817 318.794C170.828 318.794 170.026 319.596 170.026 320.585C170.026 321.574 170.828 322.376 171.817 322.376Z" fill="#EEEEEE"/>
<path d="M171.817 303.505C172.807 303.505 173.608 302.703 173.608 301.714C173.608 300.725 172.807 299.923 171.817 299.923C170.828 299.923 170.026 300.725 170.026 301.714C170.026 302.703 170.828 303.505 171.817 303.505Z" fill="#EEEEEE"/>
<path d="M171.817 284.634C172.807 284.634 173.608 283.832 173.608 282.843C173.608 281.854 172.807 281.052 171.817 281.052C170.828 281.052 170.026 281.854 170.026 282.843C170.026 283.832 170.828 284.634 171.817 284.634Z" fill="#EEEEEE"/>
<path d="M171.817 265.763C172.807 265.763 173.608 264.961 173.608 263.972C173.608 262.983 172.807 262.181 171.817 262.181C170.828 262.181 170.026 262.983 170.026 263.972C170.026 264.961 170.828 265.763 171.817 265.763Z" fill="#EEEEEE"/>
<path d="M171.817 341.247C172.807 341.247 173.608 340.445 173.608 339.456C173.608 338.467 172.807 337.665 171.817 337.665C170.828 337.665 170.026 338.467 170.026 339.456C170.026 340.445 170.828 341.247 171.817 341.247Z" fill="#EEEEEE"/>
<path d="M196.107 394.277C195.635 394.277 195.174 394.468 194.84 394.802C194.559 395.083 194.387 395.457 194.337 395.85C195.508 395.795 196.675 395.722 197.84 395.646C197.762 395.33 197.604 395.034 197.372 394.802C197.039 394.468 196.578 394.277 196.107 394.277Z" fill="#EEEEEE"/>
<path d="M196.106 246.892C197.096 246.892 197.897 246.09 197.897 245.101C197.897 244.112 197.096 243.31 196.106 243.31C195.117 243.31 194.315 244.112 194.315 245.101C194.315 246.09 195.117 246.892 196.106 246.892Z" fill="#EEEEEE"/>
<path d="M196.106 284.634C197.096 284.634 197.897 283.832 197.897 282.843C197.897 281.854 197.096 281.052 196.106 281.052C195.117 281.052 194.315 281.854 194.315 282.843C194.315 283.832 195.117 284.634 196.106 284.634Z" fill="#EEEEEE"/>
<path d="M196.106 303.505C197.096 303.505 197.897 302.703 197.897 301.714C197.897 300.725 197.096 299.923 196.106 299.923C195.117 299.923 194.315 300.725 194.315 301.714C194.315 302.703 195.117 303.505 196.106 303.505Z" fill="#EEEEEE"/>
<path d="M196.106 322.376C197.096 322.376 197.897 321.574 197.897 320.585C197.897 319.596 197.096 318.794 196.106 318.794C195.117 318.794 194.315 319.596 194.315 320.585C194.315 321.574 195.117 322.376 196.106 322.376Z" fill="#EEEEEE"/>
<path d="M196.106 341.247C197.096 341.247 197.897 340.445 197.897 339.456C197.897 338.467 197.096 337.665 196.106 337.665C195.117 337.665 194.315 338.467 194.315 339.456C194.315 340.445 195.117 341.247 196.106 341.247Z" fill="#EEEEEE"/>
<path d="M196.106 265.763C197.096 265.763 197.897 264.961 197.897 263.972C197.897 262.983 197.096 262.181 196.106 262.181C195.117 262.181 194.315 262.983 194.315 263.972C194.315 264.961 195.117 265.763 196.106 265.763Z" fill="#EEEEEE"/>
<path d="M196.106 360.117C197.096 360.117 197.897 359.315 197.897 358.326C197.897 357.337 197.096 356.535 196.106 356.535C195.117 356.535 194.315 357.337 194.315 358.326C194.315 359.315 195.117 360.117 196.106 360.117Z" fill="#EEEEEE"/>
<path d="M196.106 378.988C197.096 378.988 197.897 378.186 197.897 377.197C197.897 376.208 197.096 375.406 196.106 375.406C195.117 375.406 194.315 376.208 194.315 377.197C194.315 378.186 195.117 378.988 196.106 378.988Z" fill="#EEEEEE"/>
<path d="M220.396 246.892C221.386 246.892 222.187 246.09 222.187 245.101C222.187 244.112 221.386 243.31 220.396 243.31C219.407 243.31 218.605 244.112 218.605 245.101C218.605 246.09 219.407 246.892 220.396 246.892Z" fill="#EEEEEE"/>
<path d="M220.396 265.763C221.386 265.763 222.187 264.961 222.187 263.972C222.187 262.983 221.386 262.181 220.396 262.181C219.407 262.181 218.605 262.983 218.605 263.972C218.605 264.961 219.407 265.763 220.396 265.763Z" fill="#EEEEEE"/>
<path d="M220.396 341.247C221.386 341.247 222.187 340.445 222.187 339.456C222.187 338.467 221.386 337.665 220.396 337.665C219.407 337.665 218.605 338.467 218.605 339.456C218.605 340.445 219.407 341.247 220.396 341.247Z" fill="#EEEEEE"/>
<path d="M220.396 378.988C221.386 378.988 222.187 378.186 222.187 377.197C222.187 376.208 221.386 375.406 220.396 375.406C219.407 375.406 218.605 376.208 218.605 377.197C218.605 378.186 219.407 378.988 220.396 378.988Z" fill="#EEEEEE"/>
<path d="M220.396 284.634C221.386 284.634 222.187 283.832 222.187 282.843C222.187 281.854 221.386 281.052 220.396 281.052C219.407 281.052 218.605 281.854 218.605 282.843C218.605 283.832 219.407 284.634 220.396 284.634Z" fill="#EEEEEE"/>
<path d="M220.396 360.117C221.386 360.117 222.187 359.315 222.187 358.326C222.187 357.337 221.386 356.535 220.396 356.535C219.407 356.535 218.605 357.337 218.605 358.326C218.605 359.315 219.407 360.117 220.396 360.117Z" fill="#EEEEEE"/>
<path d="M220.396 322.376C221.386 322.376 222.187 321.574 222.187 320.585C222.187 319.596 221.386 318.794 220.396 318.794C219.407 318.794 218.605 319.596 218.605 320.585C218.605 321.574 219.407 322.376 220.396 322.376Z" fill="#EEEEEE"/>
<path d="M220.396 303.505C221.386 303.505 222.187 302.703 222.187 301.714C222.187 300.725 221.386 299.923 220.396 299.923C219.407 299.923 218.605 300.725 218.605 301.714C218.605 302.703 219.407 303.505 220.396 303.505Z" fill="#EEEEEE"/>
<path d="M244.685 378.988C245.674 378.988 246.476 378.186 246.476 377.197C246.476 376.208 245.674 375.406 244.685 375.406C243.695 375.406 242.894 376.208 242.894 377.197C242.894 378.186 243.695 378.988 244.685 378.988Z" fill="#EEEEEE"/>
<path d="M244.685 322.376C245.674 322.376 246.476 321.574 246.476 320.585C246.476 319.596 245.674 318.794 244.685 318.794C243.695 318.794 242.894 319.596 242.894 320.585C242.894 321.574 243.695 322.376 244.685 322.376Z" fill="#EEEEEE"/>
<path d="M244.685 341.247C245.674 341.247 246.476 340.445 246.476 339.456C246.476 338.467 245.674 337.665 244.685 337.665C243.695 337.665 242.894 338.467 242.894 339.456C242.894 340.445 243.695 341.247 244.685 341.247Z" fill="#EEEEEE"/>
<path d="M244.685 360.117C245.674 360.117 246.476 359.315 246.476 358.326C246.476 357.337 245.674 356.535 244.685 356.535C243.695 356.535 242.894 357.337 242.894 358.326C242.894 359.315 243.695 360.117 244.685 360.117Z" fill="#EEEEEE"/>
<path d="M244.685 265.763C245.674 265.763 246.476 264.961 246.476 263.972C246.476 262.983 245.674 262.181 244.685 262.181C243.695 262.181 242.894 262.983 242.894 263.972C242.894 264.961 243.695 265.763 244.685 265.763Z" fill="#EEEEEE"/>
<path d="M244.685 284.634C245.674 284.634 246.476 283.832 246.476 282.843C246.476 281.854 245.674 281.052 244.685 281.052C243.695 281.052 242.894 281.854 242.894 282.843C242.894 283.832 243.695 284.634 244.685 284.634Z" fill="#EEEEEE"/>
<path d="M244.685 303.505C245.674 303.505 246.476 302.703 246.476 301.714C246.476 300.725 245.674 299.923 244.685 299.923C243.695 299.923 242.894 300.725 242.894 301.714C242.894 302.703 243.695 303.505 244.685 303.505Z" fill="#EEEEEE"/>
<path d="M244.685 246.892C245.674 246.892 246.476 246.09 246.476 245.101C246.476 244.112 245.674 243.31 244.685 243.31C243.695 243.31 242.894 244.112 242.894 245.101C242.894 246.09 243.695 246.892 244.685 246.892Z" fill="#EEEEEE"/>
<path d="M268.975 265.763C269.964 265.763 270.766 264.961 270.766 263.972C270.766 262.983 269.964 262.181 268.975 262.181C267.985 262.181 267.184 262.983 267.184 263.972C267.184 264.961 267.985 265.763 268.975 265.763Z" fill="#EEEEEE"/>
<path d="M268.975 246.892C269.964 246.892 270.766 246.09 270.766 245.101C270.766 244.112 269.964 243.31 268.975 243.31C267.985 243.31 267.184 244.112 267.184 245.101C267.184 246.09 267.985 246.892 268.975 246.892Z" fill="#EEEEEE"/>
<path d="M268.975 303.505C269.964 303.505 270.766 302.703 270.766 301.714C270.766 300.725 269.964 299.923 268.975 299.923C267.985 299.923 267.184 300.725 267.184 301.714C267.184 302.703 267.985 303.505 268.975 303.505Z" fill="#EEEEEE"/>
<path d="M268.975 284.634C269.964 284.634 270.766 283.832 270.766 282.843C270.766 281.854 269.964 281.052 268.975 281.052C267.985 281.052 267.184 281.854 267.184 282.843C267.184 283.832 267.985 284.634 268.975 284.634Z" fill="#EEEEEE"/>
<path d="M268.975 322.376C269.964 322.376 270.766 321.574 270.766 320.585C270.766 319.596 269.964 318.794 268.975 318.794C267.985 318.794 267.184 319.596 267.184 320.585C267.184 321.574 267.985 322.376 268.975 322.376Z" fill="#EEEEEE"/>
<path d="M268.975 360.117C269.964 360.117 270.766 359.315 270.766 358.326C270.766 357.337 269.964 356.535 268.975 356.535C267.985 356.535 267.184 357.337 267.184 358.326C267.184 359.315 267.985 360.117 268.975 360.117Z" fill="#EEEEEE"/>
<path d="M267.183 377.197C267.183 377.284 267.197 377.366 267.208 377.45C268.228 376.958 269.238 376.449 270.248 375.94C269.923 375.611 269.473 375.406 268.974 375.406C267.985 375.406 267.183 376.208 267.183 377.197Z" fill="#EEEEEE"/>
<path d="M268.975 341.247C269.964 341.247 270.766 340.445 270.766 339.456C270.766 338.467 269.964 337.665 268.975 337.665C267.985 337.665 267.184 338.467 267.184 339.456C267.184 340.445 267.985 341.247 268.975 341.247Z" fill="#EEEEEE"/>
<path d="M293.264 322.376C294.253 322.376 295.055 321.574 295.055 320.585C295.055 319.596 294.253 318.794 293.264 318.794C292.275 318.794 291.473 319.596 291.473 320.585C291.473 321.574 292.275 322.376 293.264 322.376Z" fill="#EEEEEE"/>
<path d="M293.264 284.634C294.253 284.634 295.055 283.832 295.055 282.843C295.055 281.854 294.253 281.052 293.264 281.052C292.275 281.052 291.473 281.854 291.473 282.843C291.473 283.832 292.275 284.634 293.264 284.634Z" fill="#EEEEEE"/>
<path d="M293.264 341.247C294.253 341.247 295.055 340.445 295.055 339.456C295.055 338.467 294.253 337.665 293.264 337.665C292.275 337.665 291.473 338.467 291.473 339.456C291.473 340.445 292.275 341.247 293.264 341.247Z" fill="#EEEEEE"/>
<path d="M293.264 360.117C294.253 360.117 295.055 359.315 295.055 358.326C295.055 357.337 294.253 356.535 293.264 356.535C292.275 356.535 291.473 357.337 291.473 358.326C291.473 359.315 292.275 360.117 293.264 360.117Z" fill="#EEEEEE"/>
<path d="M293.264 303.505C294.253 303.505 295.055 302.703 295.055 301.714C295.055 300.725 294.253 299.923 293.264 299.923C292.275 299.923 291.473 300.725 291.473 301.714C291.473 302.703 292.275 303.505 293.264 303.505Z" fill="#EEEEEE"/>
<path d="M293.264 246.892C294.253 246.892 295.055 246.09 295.055 245.101C295.055 244.112 294.253 243.31 293.264 243.31C292.275 243.31 291.473 244.112 291.473 245.101C291.473 246.09 292.275 246.892 293.264 246.892Z" fill="#EEEEEE"/>
<path d="M293.264 265.763C294.253 265.763 295.055 264.961 295.055 263.972C295.055 262.983 294.253 262.181 293.264 262.181C292.275 262.181 291.473 262.983 291.473 263.972C291.473 264.961 292.275 265.763 293.264 265.763Z" fill="#EEEEEE"/>
<path d="M317.553 246.892C318.542 246.892 319.344 246.09 319.344 245.101C319.344 244.112 318.542 243.31 317.553 243.31C316.564 243.31 315.762 244.112 315.762 245.101C315.762 246.09 316.564 246.892 317.553 246.892Z" fill="#EEEEEE"/>
<path d="M317.553 303.505C318.542 303.505 319.344 302.703 319.344 301.714C319.344 300.725 318.542 299.923 317.553 299.923C316.564 299.923 315.762 300.725 315.762 301.714C315.762 302.703 316.564 303.505 317.553 303.505Z" fill="#EEEEEE"/>
<path d="M317.553 341.247C318.542 341.247 319.344 340.445 319.344 339.456C319.344 338.467 318.542 337.665 317.553 337.665C316.564 337.665 315.762 338.467 315.762 339.456C315.762 340.445 316.564 341.247 317.553 341.247Z" fill="#EEEEEE"/>
<path d="M317.553 322.376C318.542 322.376 319.344 321.574 319.344 320.585C319.344 319.596 318.542 318.794 317.553 318.794C316.564 318.794 315.762 319.596 315.762 320.585C315.762 321.574 316.564 322.376 317.553 322.376Z" fill="#EEEEEE"/>
<path d="M317.553 265.763C318.542 265.763 319.344 264.961 319.344 263.972C319.344 262.983 318.542 262.181 317.553 262.181C316.564 262.181 315.762 262.983 315.762 263.972C315.762 264.961 316.564 265.763 317.553 265.763Z" fill="#EEEEEE"/>
<path d="M317.553 284.634C318.542 284.634 319.344 283.832 319.344 282.843C319.344 281.854 318.542 281.052 317.553 281.052C316.564 281.052 315.762 281.854 315.762 282.843C315.762 283.832 316.564 284.634 317.553 284.634Z" fill="#EEEEEE"/>
<path d="M341.843 265.763C342.832 265.763 343.634 264.961 343.634 263.972C343.634 262.983 342.832 262.181 341.843 262.181C340.854 262.181 340.052 262.983 340.052 263.972C340.052 264.961 340.854 265.763 341.843 265.763Z" fill="#EEEEEE"/>
<path d="M341.843 303.505C342.832 303.505 343.634 302.703 343.634 301.714C343.634 300.725 342.832 299.923 341.843 299.923C340.854 299.923 340.052 300.725 340.052 301.714C340.052 302.703 340.854 303.505 341.843 303.505Z" fill="#EEEEEE"/>
<path d="M341.843 284.634C342.832 284.634 343.634 283.832 343.634 282.843C343.634 281.854 342.832 281.052 341.843 281.052C340.854 281.052 340.052 281.854 340.052 282.843C340.052 283.832 340.854 284.634 341.843 284.634Z" fill="#EEEEEE"/>
<path d="M341.843 246.892C342.832 246.892 343.634 246.09 343.634 245.101C343.634 244.112 342.832 243.31 341.843 243.31C340.854 243.31 340.052 244.112 340.052 245.101C340.052 246.09 340.854 246.892 341.843 246.892Z" fill="#EEEEEE"/>
<path d="M366.132 246.892C367.121 246.892 367.923 246.09 367.923 245.101C367.923 244.112 367.121 243.31 366.132 243.31C365.143 243.31 364.341 244.112 364.341 245.101C364.341 246.09 365.143 246.892 366.132 246.892Z" fill="#EEEEEE"/>
<path d="M364.341 263.972C364.341 264.566 364.634 265.089 365.079 265.415C365.427 264.342 365.768 263.267 366.097 262.185C365.124 262.204 364.341 262.995 364.341 263.972Z" fill="#EEEEEE"/>
</g>
<defs>
<clipPath id="clip0_745_858">
<rect width="367.923" height="395.849" fill="white"/>
</clipPath>
</defs>
</svg>
