<svg width="235" height="68" viewBox="0 0 235 68" fill="none" xmlns="http://www.w3.org/2000/svg">
<g opacity="0.5">
<rect width="5" height="5" fill="#0BCA9D"/>
<rect x="23" width="5" height="5" fill="#0BCA9D"/>
<rect x="46" width="5" height="5" fill="#0BCA9D"/>
<rect x="69" width="5" height="5" fill="#0BCA9D"/>
<rect x="92" width="5" height="5" fill="#0BCA9D"/>
<rect x="115" width="5" height="5" fill="#0BCA9D"/>
<rect x="138" width="5" height="5" fill="#0BCA9D"/>
<rect x="161" width="5" height="5" fill="#0BCA9D"/>
<rect x="184" width="5" height="5" fill="#0BCA9D"/>
<rect x="207" width="5" height="5" fill="#0BCA9D"/>
<rect x="230" width="5" height="5" fill="#0BCA9D"/>
<rect y="21" width="5" height="5" fill="#0BCA9D"/>
<rect x="23" y="21" width="5" height="5" fill="#0BCA9D"/>
<rect x="46" y="21" width="5" height="5" fill="#0BCA9D"/>
<rect x="69" y="21" width="5" height="5" fill="#0BCA9D"/>
<rect x="92" y="21" width="5" height="5" fill="#0BCA9D"/>
<rect x="115" y="21" width="5" height="5" fill="#0BCA9D"/>
<rect x="138" y="21" width="5" height="5" fill="#0BCA9D"/>
<rect x="161" y="21" width="5" height="5" fill="#0BCA9D"/>
<rect x="184" y="21" width="5" height="5" fill="#0BCA9D"/>
<rect x="207" y="21" width="5" height="5" fill="#0BCA9D"/>
<rect x="230" y="21" width="5" height="5" fill="#0BCA9D"/>
<rect y="42" width="5" height="5" fill="#0BCA9D"/>
<rect x="23" y="42" width="5" height="5" fill="#0BCA9D"/>
<rect x="46" y="42" width="5" height="5" fill="#0BCA9D"/>
<rect x="69" y="42" width="5" height="5" fill="#0BCA9D"/>
<rect x="92" y="42" width="5" height="5" fill="#0BCA9D"/>
<rect x="115" y="42" width="5" height="5" fill="#0BCA9D"/>
<rect x="138" y="42" width="5" height="5" fill="#0BCA9D"/>
<rect x="161" y="42" width="5" height="5" fill="#0BCA9D"/>
<rect x="184" y="42" width="5" height="5" fill="#0BCA9D"/>
<rect x="207" y="42" width="5" height="5" fill="#0BCA9D"/>
<rect x="230" y="42" width="5" height="5" fill="#0BCA9D"/>
<rect y="63" width="5" height="5" fill="#0BCA9D"/>
<rect x="23" y="63" width="5" height="5" fill="#0BCA9D"/>
<rect x="46" y="63" width="5" height="5" fill="#0BCA9D"/>
<rect x="69" y="63" width="5" height="5" fill="#0BCA9D"/>
<rect x="92" y="63" width="5" height="5" fill="#0BCA9D"/>
<rect x="115" y="63" width="5" height="5" fill="#0BCA9D"/>
<rect x="138" y="63" width="5" height="5" fill="#0BCA9D"/>
<rect x="161" y="63" width="5" height="5" fill="#0BCA9D"/>
<rect x="184" y="63" width="5" height="5" fill="#0BCA9D"/>
<rect x="207" y="63" width="5" height="5" fill="#0BCA9D"/>
<rect x="230" y="63" width="5" height="5" fill="#0BCA9D"/>
</g>
</svg>
