<svg width="360" height="369" viewBox="0 0 360 369" fill="none" xmlns="http://www.w3.org/2000/svg">
<g opacity="0.1" clip-path="url(#clip0_497_360)">
<path d="M289.382 222.594L289.457 222.638L324.63 242.926L324.63 283.589L324.554 283.633L289.382 303.92L289.306 303.876L254.133 283.589L254.133 242.926L254.209 242.881L289.382 222.594ZM324.325 243.101L289.382 222.946L254.438 243.101L254.438 283.414L289.382 303.569L324.325 283.414L324.325 243.101Z" fill="#A044FF"/>
<path d="M219.19 222.594L219.266 222.638L254.438 242.926L254.438 283.589L254.363 283.633L219.19 303.92L219.114 303.876L183.942 283.589L183.942 242.926L184.018 242.881L219.19 222.594ZM254.134 243.101L219.19 222.946L184.247 243.101L184.247 283.414L219.19 303.569L254.134 283.414L254.134 243.101Z" fill="#A044FF"/>
<path d="M148.998 222.594L149.074 222.638L184.246 242.926L184.246 283.589L184.17 283.633L148.998 303.92L148.922 303.876L113.75 283.589L113.75 242.926L113.825 242.881L148.998 222.594ZM183.941 243.101L148.998 222.946L114.054 243.101L114.054 283.414L148.998 303.569L183.941 283.414L183.941 243.101Z" fill="#A044FF"/>
<path d="M78.8065 222.594L78.8822 222.638L114.055 242.925L114.055 283.589L113.979 283.633L78.8065 303.92L78.7307 303.876L43.5598 283.589L43.5598 242.925L43.6356 242.881L78.8065 222.594ZM113.75 243.1L78.8065 222.946L43.8645 243.1L43.8645 283.414L78.8065 303.568L113.75 283.414L113.75 243.1Z" fill="#A044FF"/>
<path d="M-0.000298531 227.915L8.61602 222.946L43.5596 243.1L43.5596 283.414L8.61602 303.568L-0.000304711 298.599L-0.000304741 298.95L8.53867 303.876L8.61602 303.92L43.7885 283.633L43.8643 283.589L43.8643 242.925L8.6918 222.638L8.61602 222.594L-0.0002985 227.564L-0.000298531 227.915Z" fill="#A044FF"/>
<path d="M254.285 161.863L254.361 161.907L289.533 182.194L289.533 222.857L289.457 222.902L254.285 243.189L254.209 243.145L219.037 222.857L219.037 182.194L219.112 182.15L254.285 161.863ZM289.229 182.371L254.285 162.216L219.341 182.371L219.341 222.682L254.285 242.837L289.229 222.682L289.229 182.371Z" fill="#A044FF"/>
<path d="M184.094 161.863L184.169 161.907L219.342 182.194L219.342 222.857L219.266 222.902L184.094 243.189L184.018 243.145L148.845 222.857L148.845 182.194L148.921 182.15L184.094 161.863ZM219.037 182.371L184.094 162.216L149.15 182.371L149.15 222.682L184.094 242.837L219.037 222.682L219.037 182.371Z" fill="#A044FF"/>
<path d="M113.901 161.863L113.977 161.907L149.149 182.194L149.149 222.857L149.074 222.902L113.901 243.189L113.825 243.145L78.653 222.857L78.653 182.194L78.7287 182.15L113.901 161.863ZM148.845 182.371L113.901 162.216L78.9577 182.371L78.9577 222.682L113.901 242.837L148.845 222.682L148.845 182.371Z" fill="#A044FF"/>
<path d="M43.7114 161.863L43.7871 161.907L78.958 182.194L78.958 222.857L78.8822 222.902L43.7114 243.189L43.6356 243.145L8.46311 222.857L8.46311 182.194L8.53889 182.15L43.7114 161.863ZM78.6533 182.371L43.7114 162.216L8.76778 182.371L8.76778 222.682L43.7114 242.837L78.6533 222.682L78.6533 182.371Z" fill="#A044FF"/>
<path d="M-0.000209215 177.488L8.46291 182.371L8.46291 222.682L-0.000213592 227.564L-0.000213623 227.915L8.69182 222.901L8.76758 222.857L8.76758 182.194L-0.000209184 177.136L-0.000209215 177.488Z" fill="#A044FF"/>
<path d="M148.998 101.131L149.074 101.175L184.246 121.463L184.246 162.126L184.17 162.17L148.998 182.458L148.922 182.413L113.75 162.126L113.75 121.463L113.825 121.419L148.998 101.131ZM183.941 121.638L148.998 101.483L114.054 121.638L114.054 161.949L148.998 182.104L183.941 161.949L183.941 121.638Z" fill="#A044FF"/>
<path d="M78.8065 101.131L78.8822 101.175L114.055 121.463L114.055 162.126L113.979 162.17L78.8065 182.458L78.7307 182.413L43.5598 162.126L43.5598 121.463L43.6356 121.419L78.8065 101.131ZM113.75 121.638L78.8065 101.483L43.8645 121.638L43.8645 161.949L78.8065 182.104L113.75 161.949L113.75 121.638Z" fill="#A044FF"/>
<path d="M-0.000298531 106.453L8.61602 101.483L43.5596 121.638L43.5596 161.951L8.61602 182.106L-0.000304711 177.136L-0.000304741 177.488L8.53867 182.413L8.61602 182.458L43.7885 162.17L43.8643 162.126L43.8643 121.463L8.6918 101.175L8.61602 101.131L-0.0002985 106.101L-0.000298531 106.453Z" fill="#A044FF"/>
<path d="M113.901 40.3997L113.977 40.4439L149.149 60.7313L149.149 101.395L149.074 101.439L113.901 121.726L113.825 121.682L78.653 101.394L78.653 60.7313L78.7287 60.6872L113.901 40.3997ZM148.845 60.908L113.901 40.753L78.9577 60.908L78.9577 101.219L113.901 121.374L148.845 101.219L148.845 60.908Z" fill="#A044FF"/>
<path d="M43.7114 40.3997L43.7871 40.4439L78.958 60.7313L78.958 101.395L78.8822 101.439L43.7114 121.726L43.6356 121.682L8.46311 101.394L8.46311 60.7313L8.53889 60.6872L43.7114 40.3997ZM78.6533 60.908L43.7114 40.753L8.76778 60.908L8.76778 101.219L43.7114 121.374L78.6533 101.219L78.6533 60.908Z" fill="#A044FF"/>
<path d="M-0.00027025 56.025L8.46291 60.908L8.46291 101.219L-0.000274627 106.101L-0.000274658 106.453L8.69182 101.439L8.76758 101.395L8.76758 60.7314L-0.000270219 55.6733L-0.00027025 56.025Z" fill="#A044FF"/>
<path d="M43.5596 0.176765L43.5596 40.4882L8.61602 60.6432L-0.000304711 55.6734L-0.000304741 56.0251L8.53867 60.9523L8.61602 60.9949L43.7885 40.7075L43.8643 40.6649L43.8643 0.00012207" fill="#A044FF"/>
<path d="M159.742 369L159.742 334.504L204.687 308.579L249.633 334.504L249.633 369L251.221 369L251.221 333.587L204.687 306.747L158.154 333.587L158.154 369L159.742 369Z" fill="#A044FF"/>
<path d="M68.2638 369L68.2638 334.504L113.208 308.579L158.154 334.504L158.154 369L159.742 369L159.742 333.587L113.208 306.747L66.6741 333.587L66.6741 369L68.2638 369Z" fill="#A044FF"/>
<path d="M66.6749 334.504L66.6749 369L68.2646 369L68.2647 333.587L21.7321 306.747L0.00034004 319.282L0.00033988 321.115L21.7321 308.579L66.6749 334.504Z" fill="#A044FF"/>
<path d="M158.948 227.597L205.482 254.439L205.482 308.12L158.948 334.961L112.414 308.12L112.414 254.437L158.948 227.597ZM203.893 255.355L158.948 229.431L114.002 255.355L114.002 307.205L158.948 333.13L203.893 307.206L203.893 255.355Z" fill="#A044FF"/>
<path d="M67.4708 227.597L114.005 254.437L114.005 308.12L67.4708 334.961L20.9383 308.12L20.9383 254.437L67.4708 227.597ZM112.415 255.355L67.4708 229.431L22.528 255.355L22.528 307.205L67.4708 333.13L112.415 307.206L112.415 255.355Z" fill="#A044FF"/>
<path d="M0.000525604 243.277L20.9382 255.355L20.9382 307.205L0.000518959 319.282L0.000518799 321.115L22.5264 308.122L22.5264 254.439L0.000525764 241.444L0.000525604 243.277Z" fill="#A044FF"/>
<path d="M113.209 148.449L159.743 175.289L159.743 228.972L113.209 255.813L66.675 228.972L66.675 175.289L113.209 148.449ZM158.155 176.206L113.211 150.281L68.2663 176.206L68.2663 228.056L113.211 253.98L158.155 228.056L158.155 176.206Z" fill="#A044FF"/>
<path d="M0.000343823 162.815L21.7322 150.28L66.6749 176.206L66.6749 228.056L21.7321 253.98L0.000336949 241.445L0.000336789 243.277L21.7321 255.813L68.2647 228.972L68.2647 175.289L21.7322 148.449L0.000343984 160.982L0.000343823 162.815Z" fill="#A044FF"/>
<path d="M0.000525603 84.9791L20.9382 97.0557L20.9382 148.906L0.000518959 160.982L0.000518799 162.815L22.5264 149.822L22.5264 96.1394L0.000525764 83.1464L0.000525603 84.9791Z" fill="#A044FF"/>
<path d="M359.574 303.319C359.338 303.319 359.148 303.51 359.148 303.745C359.148 303.98 359.338 304.171 359.574 304.171C359.809 304.171 360 303.98 360 303.745C360 303.51 359.809 303.319 359.574 303.319Z" fill="#A044FF"/>
<path d="M324.477 278.666C321.805 278.666 319.638 280.831 319.638 283.5C319.638 286.17 321.805 288.334 324.477 288.334C327.149 288.334 329.315 286.17 329.315 283.5C329.315 280.831 327.149 278.666 324.477 278.666Z" fill="#A044FF"/>
<path d="M324.477 239.987C322.804 239.987 321.448 241.342 321.448 243.014C321.448 244.685 322.804 246.041 324.477 246.041C326.151 246.041 327.507 244.685 327.507 243.014C327.507 241.342 326.151 239.987 324.477 239.987Z" fill="#A044FF"/>
<path d="M289.382 220.047C287.877 220.047 286.657 221.266 286.657 222.769C286.657 224.272 287.877 225.491 289.382 225.491C290.887 225.491 292.106 224.272 292.106 222.769C292.106 221.266 290.887 220.047 289.382 220.047Z" fill="#A044FF"/>
<path d="M289.382 302.343C288.607 302.343 287.978 302.971 287.978 303.745C287.978 304.52 288.607 305.147 289.382 305.147C290.157 305.147 290.785 304.52 290.785 303.745C290.785 302.971 290.157 302.343 289.382 302.343Z" fill="#A044FF"/>
<path d="M254.287 280.726C252.753 280.726 251.51 281.968 251.51 283.5C251.51 285.033 252.753 286.275 254.287 286.275C255.82 286.275 257.063 285.033 257.063 283.5C257.063 281.968 255.82 280.726 254.287 280.726Z" fill="#A044FF"/>
<path d="M254.287 238.144C251.595 238.144 249.412 240.324 249.412 243.014C249.412 245.704 251.595 247.884 254.287 247.884C256.98 247.884 259.162 245.704 259.162 243.014C259.162 240.324 256.98 238.144 254.287 238.144Z" fill="#A044FF"/>
<path d="M219.19 301.692C218.055 301.692 217.134 302.611 217.134 303.745C217.134 304.879 218.055 305.799 219.19 305.799C220.325 305.799 221.245 304.879 221.245 303.745C221.245 302.611 220.325 301.692 219.19 301.692Z" fill="#A044FF"/>
<path d="M184.096 279.717C182.004 279.717 180.308 281.411 180.308 283.5C180.308 285.59 182.004 287.284 184.096 287.284C186.187 287.284 187.883 285.59 187.883 283.5C187.883 281.411 186.187 279.717 184.096 279.717Z" fill="#A044FF"/>
<path d="M184.096 238.498C181.599 238.498 179.576 240.52 179.576 243.014C179.576 245.508 181.599 247.529 184.096 247.529C186.592 247.529 188.615 245.508 188.615 243.014C188.615 240.52 186.592 238.498 184.096 238.498Z" fill="#A044FF"/>
<path d="M148.999 301.386C147.694 301.386 146.637 302.442 146.637 303.745C146.637 305.048 147.694 306.105 148.999 306.105C150.303 306.105 151.36 305.048 151.36 303.745C151.36 302.442 150.303 301.386 148.999 301.386Z" fill="#A044FF"/>
<path d="M113.903 280.786C112.403 280.786 111.186 282.001 111.186 283.5C111.186 285 112.403 286.215 113.903 286.215C115.404 286.215 116.62 285 116.62 283.5C116.62 282.001 115.404 280.786 113.903 280.786Z" fill="#A044FF"/>
<path d="M113.903 241.079C112.833 241.079 111.966 241.945 111.966 243.014C111.966 244.083 112.833 244.949 113.903 244.949C114.973 244.949 115.84 244.083 115.84 243.014C115.84 241.945 114.973 241.079 113.903 241.079Z" fill="#A044FF"/>
<path d="M78.8063 301.92C77.7975 301.92 76.9798 302.737 76.9798 303.745C76.9798 304.753 77.7975 305.57 78.8063 305.57C79.8151 305.57 80.6328 304.753 80.6328 303.745C80.6328 302.737 79.8151 301.92 78.8063 301.92Z" fill="#A044FF"/>
<path d="M43.7116 280.627C42.123 280.627 40.8353 281.913 40.8353 283.5C40.8353 285.087 42.123 286.374 43.7116 286.374C45.3001 286.374 46.5879 285.087 46.5879 283.5C46.5879 281.913 45.3001 280.627 43.7116 280.627Z" fill="#A044FF"/>
<path d="M43.7113 239.751C41.9074 239.751 40.4451 241.212 40.4451 243.014C40.4451 244.816 41.9074 246.277 43.7113 246.277C45.5152 246.277 46.9775 244.816 46.9775 243.014C46.9775 241.212 45.5152 239.751 43.7113 239.751Z" fill="#A044FF"/>
<path d="M8.61467 301.004C7.09936 301.004 5.87097 302.231 5.87097 303.745C5.87097 305.259 7.09936 306.486 8.61467 306.486C10.13 306.486 11.3584 305.259 11.3584 303.745C11.3584 302.231 10.13 301.004 8.61467 301.004Z" fill="#A044FF"/>
<path d="M289.382 178.625C287.36 178.625 285.721 180.262 285.721 182.282C285.721 184.302 287.36 185.94 289.382 185.94C291.404 185.94 293.043 184.302 293.043 182.282C293.043 180.262 291.404 178.625 289.382 178.625Z" fill="#A044FF"/>
<path d="M219.19 220.899C218.156 220.899 217.318 221.736 217.318 222.769C217.318 223.802 218.156 224.64 219.19 224.64C220.224 224.64 221.063 223.802 221.063 222.769C221.063 221.736 220.224 220.899 219.19 220.899Z" fill="#A044FF"/>
<path d="M219.19 178.813C217.272 178.813 215.717 180.366 215.717 182.282C215.717 184.199 217.272 185.752 219.19 185.752C221.108 185.752 222.663 184.199 222.663 182.282C222.663 180.366 221.108 178.813 219.19 178.813Z" fill="#A044FF"/>
<path d="M184.095 159.849C182.885 159.849 181.904 160.829 181.904 162.038C181.904 163.247 182.885 164.227 184.095 164.227C185.305 164.227 186.286 163.247 186.286 162.038C186.286 160.829 185.305 159.849 184.095 159.849Z" fill="#A044FF"/>
<path d="M148.998 217.645C146.165 217.645 143.869 219.939 143.869 222.769C143.869 225.599 146.165 227.893 148.998 227.893C151.831 227.893 154.127 225.599 154.127 222.769C154.127 219.939 151.831 217.645 148.998 217.645Z" fill="#A044FF"/>
<path d="M78.8068 218.968C76.7056 218.968 75.0023 220.67 75.0023 222.769C75.0023 224.868 76.7056 226.57 78.8068 226.57C80.908 226.57 82.6113 224.868 82.6113 222.769C82.6113 220.67 80.908 218.968 78.8068 218.968Z" fill="#A044FF"/>
<path d="M43.7116 158.251C41.6182 158.251 39.9212 159.946 39.9212 162.038C39.9212 164.129 41.6182 165.824 43.7116 165.824C45.8049 165.824 47.502 164.129 47.502 162.038C47.502 159.946 45.8049 158.251 43.7116 158.251Z" fill="#A044FF"/>
<path d="M78.8062 177.817C76.338 177.817 74.3371 179.817 74.3371 182.283C74.3371 184.748 76.338 186.748 78.8062 186.748C81.2745 186.748 83.2754 184.748 83.2754 182.283C83.2754 179.817 81.2745 177.817 78.8062 177.817Z" fill="#A044FF"/>
<path d="M8.61461 218.708C6.36954 218.708 4.54956 220.526 4.54956 222.769C4.54956 225.012 6.36954 226.83 8.61461 226.83C10.8597 226.83 12.6797 225.012 12.6797 222.769C12.6797 220.526 10.8597 218.708 8.61461 218.708Z" fill="#A044FF"/>
<path d="M254.286 159.125C252.676 159.125 251.371 160.429 251.371 162.038C251.371 163.646 252.676 164.951 254.286 164.951C255.897 164.951 257.202 163.646 257.202 162.038C257.202 160.429 255.897 159.125 254.286 159.125Z" fill="#A044FF"/>
<path d="M148.999 179.934C147.701 179.934 146.648 180.985 146.648 182.282C146.648 183.579 147.701 184.631 148.999 184.631C150.297 184.631 151.35 183.579 151.35 182.282C151.35 180.985 150.297 179.934 148.999 179.934Z" fill="#A044FF"/>
<path d="M113.903 159.522C112.512 159.522 111.385 160.648 111.385 162.038C111.385 163.427 112.512 164.553 113.903 164.553C115.294 164.553 116.421 163.427 116.421 162.038C116.421 160.648 115.294 159.522 113.903 159.522Z" fill="#A044FF"/>
<path d="M8.61414 98.8144C7.2366 98.8144 6.1199 99.9301 6.1199 101.306C6.1199 102.683 7.2366 103.798 8.61414 103.798C9.99168 103.798 11.1084 102.683 11.1084 101.306C11.1084 99.9301 9.99168 98.8144 8.61414 98.8144Z" fill="#A044FF"/>
<path d="M43.7117 118.307C41.9183 118.307 40.4644 119.759 40.4644 121.551C40.4644 123.343 41.9183 124.795 43.7117 124.795C45.5051 124.795 46.959 123.343 46.959 121.551C46.959 119.759 45.5051 118.307 43.7117 118.307Z" fill="#A044FF"/>
<path d="M8.61448 179.18C6.8995 179.18 5.50925 180.569 5.50925 182.282C5.50925 183.996 6.8995 185.385 8.61447 185.385C10.3294 185.385 11.7197 183.996 11.7197 182.282C11.7197 180.569 10.3294 179.18 8.61448 179.18Z" fill="#A044FF"/>
<path d="M184.096 117.804C182.024 117.804 180.345 119.482 180.345 121.551C180.345 123.621 182.024 125.299 184.096 125.299C186.167 125.299 187.847 123.621 187.847 121.551C187.847 119.482 186.167 117.804 184.096 117.804Z" fill="#A044FF"/>
<path d="M148.998 97.4137C146.847 97.4137 145.102 99.1564 145.102 101.306C145.102 103.456 146.847 105.199 148.998 105.199C151.15 105.199 152.895 103.456 152.895 101.306C152.895 99.1564 151.15 97.4137 148.998 97.4137Z" fill="#A044FF"/>
<path d="M113.903 38.2249C112.603 38.2249 111.549 39.2777 111.549 40.5764C111.549 41.8752 112.603 42.928 113.903 42.928C115.203 42.928 116.257 41.8752 116.257 40.5764C116.257 39.2777 115.203 38.2249 113.903 38.2249Z" fill="#A044FF"/>
<path d="M148.999 57.7567C147.306 57.7567 145.933 59.128 145.933 60.8196C145.933 62.5112 147.306 63.8826 148.999 63.8826C150.692 63.8826 152.064 62.5112 152.064 60.8196C152.064 59.128 150.692 57.7567 148.999 57.7567Z" fill="#A044FF"/>
<path d="M113.904 118.283C112.097 118.283 110.633 119.746 110.633 121.551C110.633 123.356 112.097 124.819 113.904 124.819C115.71 124.819 117.175 123.356 117.175 121.551C117.175 119.746 115.71 118.283 113.904 118.283Z" fill="#A044FF"/>
<path d="M78.8061 56.178C76.2402 56.178 74.1601 58.2562 74.1601 60.8197C74.1601 63.3833 76.2402 65.4614 78.8061 65.4614C81.3721 65.4614 83.4521 63.3833 83.4521 60.8197C83.4521 58.2562 81.3721 56.178 78.8061 56.178Z" fill="#A044FF"/>
<path d="M43.7112 37.9552C42.2622 37.9552 41.0875 39.1288 41.0875 40.5765C41.0875 42.0242 42.2622 43.1978 43.7112 43.1978C45.1603 43.1978 46.335 42.0242 46.335 40.5765C46.335 39.1288 45.1603 37.9552 43.7112 37.9552Z" fill="#A044FF"/>
<path d="M78.8063 96.7133C76.2674 96.7133 74.2092 98.7696 74.2092 101.306C74.2092 103.843 76.2674 105.899 78.8063 105.899C81.3452 105.899 83.4033 103.843 83.4033 101.306C83.4033 98.7696 81.3452 96.7133 78.8063 96.7133Z" fill="#A044FF"/>
<path d="M8.61482 58.7361C7.4631 58.7361 6.52945 59.6689 6.52945 60.8196C6.52945 61.9703 7.4631 62.9031 8.61482 62.9031C9.76654 62.9031 10.7002 61.9703 10.7002 60.8196C10.7002 59.6689 9.76654 58.7361 8.61482 58.7361Z" fill="#A044FF"/>
</g>
<defs>
<clipPath id="clip0_497_360">
<rect width="360" height="369" fill="white" transform="translate(360 369) rotate(-180)"/>
</clipPath>
</defs>
</svg>
