<svg width="360" height="369" viewBox="0 0 360 369" fill="none" xmlns="http://www.w3.org/2000/svg">
<g opacity="0.1" clip-path="url(#clip0_497_453)">
<path d="M70.6184 146.406L70.5426 146.362L35.3701 126.074L35.3701 85.4112L35.4459 85.367L70.6184 65.0796L70.6941 65.1238L105.867 85.4112L105.867 126.074L105.791 126.119L70.6184 146.406ZM35.6748 125.899L70.6184 146.054L105.562 125.899L105.562 85.5862L70.6184 65.4313L35.6748 85.5862L35.6748 125.899Z" fill="#A044FF"/>
<path d="M140.81 146.406L140.734 146.362L105.562 126.074L105.562 85.4112L105.637 85.367L140.81 65.0796L140.886 65.1238L176.058 85.4112V126.074L175.982 126.119L140.81 146.406ZM105.866 125.899L140.81 146.054L175.753 125.899V85.5863L140.81 65.4313L105.866 85.5863L105.866 125.899Z" fill="#A044FF"/>
<path d="M211.002 146.406L210.926 146.362L175.754 126.074V85.4112L175.83 85.367L211.002 65.0796L211.078 65.1238L246.25 85.4112V126.074L246.175 126.119L211.002 146.406ZM176.059 125.899L211.002 146.054L245.946 125.899V85.5862L211.002 65.4313L176.059 85.5862V125.899Z" fill="#A044FF"/>
<path d="M281.194 146.406L281.118 146.362L245.945 126.074V85.4112L246.021 85.367L281.194 65.0796L281.269 65.1238L316.44 85.4112V126.074L316.364 126.119L281.194 146.406ZM246.25 125.899L281.194 146.054L316.136 125.899V85.5862L281.194 65.4313L246.25 85.5862V125.899Z" fill="#A044FF"/>
<path d="M360 141.085L351.384 146.054L316.44 125.899V85.5862L351.384 65.4313L360 70.401V70.0493L351.461 65.1238L351.384 65.0796L316.212 85.367L316.136 85.4112V126.074L351.308 146.362L351.384 146.406L360 141.436V141.085Z" fill="#A044FF"/>
<path d="M105.715 207.137L105.639 207.093L70.4668 186.806L70.4668 146.143L70.5426 146.098L105.715 125.811L105.791 125.855L140.963 146.143V186.806L140.888 186.85L105.715 207.137ZM70.7715 186.629L105.715 206.784L140.659 186.629V146.318L105.715 126.163L70.7715 146.318L70.7715 186.629Z" fill="#A044FF"/>
<path d="M175.906 207.137L175.831 207.093L140.658 186.806V146.143L140.734 146.098L175.906 125.811L175.982 125.855L211.155 146.143V186.806L211.079 186.85L175.906 207.137ZM140.963 186.629L175.906 206.784L210.85 186.629V146.318L175.906 126.163L140.963 146.318V186.629Z" fill="#A044FF"/>
<path d="M246.099 207.137L246.023 207.093L210.851 186.806V146.143L210.926 146.098L246.099 125.811L246.175 125.855L281.347 146.143V186.806L281.271 186.85L246.099 207.137ZM211.155 186.629L246.099 206.784L281.042 186.629V146.318L246.099 126.163L211.155 146.318V186.629Z" fill="#A044FF"/>
<path d="M316.289 207.137L316.213 207.093L281.042 186.806V146.143L281.118 146.098L316.289 125.811L316.364 125.855L351.537 146.143V186.806L351.461 186.85L316.289 207.137ZM281.347 186.629L316.289 206.784L351.232 186.629V146.318L316.289 126.163L281.347 146.318V186.629Z" fill="#A044FF"/>
<path d="M360 191.512L351.537 186.629V146.318L360 141.436V141.084L351.308 146.098L351.232 146.143V186.806L360 191.864V191.512Z" fill="#A044FF"/>
<path d="M211.002 267.869L210.926 267.825L175.754 247.537V206.874L175.83 206.83L211.002 186.542L211.078 186.587L246.25 206.874V247.537L246.175 247.581L211.002 267.869ZM176.059 247.362L211.002 267.517L245.946 247.362V207.051L211.002 186.896L176.059 207.051V247.362Z" fill="#A044FF"/>
<path d="M281.194 267.869L281.118 267.825L245.945 247.537V206.874L246.021 206.83L281.194 186.542L281.269 186.587L316.44 206.874V247.537L316.364 247.581L281.194 267.869ZM246.25 247.362L281.194 267.517L316.135 247.362V207.051L281.194 186.896L246.25 207.051V247.362Z" fill="#A044FF"/>
<path d="M360 262.547L351.384 267.517L316.44 247.362V207.049L351.384 186.894L360 191.864V191.512L351.461 186.587L351.384 186.542L316.212 206.83L316.136 206.874V247.537L351.308 267.825L351.384 267.869L360 262.899V262.547Z" fill="#A044FF"/>
<path d="M246.099 328.6L246.023 328.556L210.851 308.269V267.605L210.926 267.561L246.099 247.274L246.175 247.318L281.347 267.605V308.269L281.271 308.313L246.099 328.6ZM211.155 308.092L246.099 328.247L281.042 308.092V267.781L246.099 247.626L211.155 267.781V308.092Z" fill="#A044FF"/>
<path d="M316.289 328.6L316.213 328.556L281.042 308.269V267.605L281.118 267.561L316.289 247.274L316.364 247.318L351.537 267.605V308.269L351.461 308.313L316.289 328.6ZM281.347 308.092L316.289 328.247L351.232 308.092V267.781L316.289 247.626L281.347 267.781V308.092Z" fill="#A044FF"/>
<path d="M360 312.975L351.537 308.092V267.781L360 262.899V262.547L351.308 267.561L351.232 267.605V308.269L360 313.327V312.975Z" fill="#A044FF"/>
<path d="M316.44 368.823V328.512L351.384 308.357L360 313.327V312.975L351.461 308.048L351.384 308.005L316.212 328.293L316.136 328.335V369" fill="#A044FF"/>
<path d="M200.258 0V34.4964L155.313 60.4207L110.367 34.4964V0L108.779 0V35.4127L155.313 62.2534L201.846 35.4127V0L200.258 0Z" fill="#A044FF"/>
<path d="M291.736 0V34.4964L246.792 60.4207L201.846 34.4964V0L200.258 0V35.4127L246.792 62.2534L293.326 35.4127V0L291.736 0Z" fill="#A044FF"/>
<path d="M293.325 34.4964V0L291.735 0V35.4127L338.268 62.2534L360 49.7178V47.8851L338.268 60.4207L293.325 34.4964Z" fill="#A044FF"/>
<path d="M201.052 141.403L154.518 114.561V60.8797L201.052 34.0391L247.586 60.8797V114.563L201.052 141.403ZM156.107 113.645L201.052 139.569L245.998 113.645V61.7945L201.052 35.8702L156.107 61.7945V113.645Z" fill="#A044FF"/>
<path d="M292.529 141.403L245.995 114.563V60.8797L292.529 34.0391L339.062 60.8797V114.563L292.529 141.403ZM247.585 113.645L292.529 139.569L337.472 113.645V61.7945L292.529 35.8702L247.585 61.7945V113.645Z" fill="#A044FF"/>
<path d="M359.999 125.723L339.062 113.645V61.7945L359.999 49.718V47.8853L337.474 60.8782V114.561L359.999 127.556V125.723Z" fill="#A044FF"/>
<path d="M246.791 220.551L200.257 193.711V140.028L246.791 113.187L293.325 140.028V193.711L246.791 220.551ZM201.845 192.794L246.789 218.719L291.734 192.794V140.944L246.789 115.02L201.845 140.944V192.794Z" fill="#A044FF"/>
<path d="M360 206.185L338.268 218.72L293.325 192.794V140.944L338.268 115.02L360 127.555V125.723L338.268 113.187L291.735 140.028V193.711L338.268 220.551L360 208.018V206.185Z" fill="#A044FF"/>
<path d="M359.999 284.021L339.062 271.944V220.094L359.999 208.018V206.185L337.474 219.178V272.861L359.999 285.854V284.021Z" fill="#A044FF"/>
<path d="M0.426237 65.6805C0.661642 65.6805 0.852475 65.4899 0.852475 65.2547C0.852475 65.0195 0.661642 64.8289 0.426237 64.8289C0.190833 64.8289 0 65.0195 0 65.2547C0 65.4899 0.190833 65.6805 0.426237 65.6805Z" fill="#A044FF"/>
<path d="M35.5232 90.3337C38.1954 90.3337 40.3617 88.1694 40.3617 85.4996C40.3617 82.8298 38.1954 80.6655 35.5232 80.6655C32.8509 80.6655 30.6846 82.8298 30.6846 85.4996C30.6846 88.1694 32.8509 90.3337 35.5232 90.3337Z" fill="#A044FF"/>
<path d="M35.5226 129.013C37.1957 129.013 38.5521 127.658 38.5521 125.986C38.5521 124.315 37.1957 122.959 35.5226 122.959C33.8495 122.959 32.4932 124.315 32.4932 125.986C32.4932 127.658 33.8495 129.013 35.5226 129.013Z" fill="#A044FF"/>
<path d="M70.6183 148.953C72.1232 148.953 73.3431 147.734 73.3431 146.231C73.3431 144.728 72.1232 143.509 70.6183 143.509C69.1135 143.509 67.8936 144.728 67.8936 146.231C67.8936 147.734 69.1135 148.953 70.6183 148.953Z" fill="#A044FF"/>
<path d="M70.6183 66.6568C71.3934 66.6568 72.0217 66.029 72.0217 65.2547C72.0217 64.4803 71.3934 63.8525 70.6183 63.8525C69.8432 63.8525 69.2148 64.4803 69.2148 65.2547C69.2148 66.029 69.8432 66.6568 70.6183 66.6568Z" fill="#A044FF"/>
<path d="M105.713 88.2739C107.247 88.2739 108.49 87.0318 108.49 85.4996C108.49 83.9674 107.247 82.7253 105.713 82.7253C104.18 82.7253 102.937 83.9674 102.937 85.4996C102.937 87.0318 104.18 88.2739 105.713 88.2739Z" fill="#A044FF"/>
<path d="M105.713 130.856C108.405 130.856 110.588 128.676 110.588 125.986C110.588 123.296 108.405 121.116 105.713 121.116C103.02 121.116 100.838 123.296 100.838 125.986C100.838 128.676 103.02 130.856 105.713 130.856Z" fill="#A044FF"/>
<path d="M140.81 67.3082C141.945 67.3082 142.866 66.3888 142.866 65.2547C142.866 64.1206 141.945 63.2012 140.81 63.2012C139.675 63.2012 138.755 64.1206 138.755 65.2547C138.755 66.3888 139.675 67.3082 140.81 67.3082Z" fill="#A044FF"/>
<path d="M175.904 89.2832C177.996 89.2832 179.692 87.5892 179.692 85.4995C179.692 83.4098 177.996 81.7158 175.904 81.7158C173.813 81.7158 172.117 83.4098 172.117 85.4995C172.117 87.5892 173.813 89.2832 175.904 89.2832Z" fill="#A044FF"/>
<path d="M175.904 130.502C178.401 130.502 180.424 128.48 180.424 125.986C180.424 123.492 178.401 121.471 175.904 121.471C173.408 121.471 171.385 123.492 171.385 125.986C171.385 128.48 173.408 130.502 175.904 130.502Z" fill="#A044FF"/>
<path d="M211.001 67.6142C212.306 67.6142 213.363 66.5579 213.363 65.2547C213.363 63.9516 212.306 62.8953 211.001 62.8953C209.697 62.8953 208.64 63.9516 208.64 65.2547C208.64 66.5579 209.697 67.6142 211.001 67.6142Z" fill="#A044FF"/>
<path d="M246.097 88.2139C247.597 88.2139 248.814 86.9986 248.814 85.4995C248.814 84.0004 247.597 82.7852 246.097 82.7852C244.596 82.7852 243.38 84.0004 243.38 85.4995C243.38 86.9986 244.596 88.2139 246.097 88.2139Z" fill="#A044FF"/>
<path d="M246.097 127.921C247.167 127.921 248.034 127.055 248.034 125.986C248.034 124.917 247.167 124.051 246.097 124.051C245.027 124.051 244.16 124.917 244.16 125.986C244.16 127.055 245.027 127.921 246.097 127.921Z" fill="#A044FF"/>
<path d="M281.194 67.0796C282.202 67.0796 283.02 66.2626 283.02 65.2547C283.02 64.2469 282.202 63.4299 281.194 63.4299C280.185 63.4299 279.367 64.2469 279.367 65.2547C279.367 66.2626 280.185 67.0796 281.194 67.0796Z" fill="#A044FF"/>
<path d="M316.288 88.3733C317.877 88.3733 319.165 87.0867 319.165 85.4996C319.165 83.9125 317.877 82.626 316.288 82.626C314.7 82.626 313.412 83.9125 313.412 85.4996C313.412 87.0867 314.7 88.3733 316.288 88.3733Z" fill="#A044FF"/>
<path d="M316.289 129.249C318.093 129.249 319.555 127.788 319.555 125.986C319.555 124.184 318.093 122.723 316.289 122.723C314.485 122.723 313.022 124.184 313.022 125.986C313.022 127.788 314.485 129.249 316.289 129.249Z" fill="#A044FF"/>
<path d="M351.385 67.996C352.901 67.996 354.129 66.7687 354.129 65.2548C354.129 63.7409 352.901 62.5137 351.385 62.5137C349.87 62.5137 348.642 63.7409 348.642 65.2548C348.642 66.7687 349.87 67.996 351.385 67.996Z" fill="#A044FF"/>
<path d="M70.6189 190.375C72.6408 190.375 74.2798 188.738 74.2798 186.718C74.2798 184.698 72.6408 183.06 70.6189 183.06C68.5971 183.06 66.958 184.698 66.958 186.718C66.958 188.738 68.5971 190.375 70.6189 190.375Z" fill="#A044FF"/>
<path d="M140.81 148.101C141.844 148.101 142.682 147.264 142.682 146.231C142.682 145.198 141.844 144.36 140.81 144.36C139.776 144.36 138.938 145.198 138.938 146.231C138.938 147.264 139.776 148.101 140.81 148.101Z" fill="#A044FF"/>
<path d="M140.81 190.187C142.728 190.187 144.283 188.634 144.283 186.717C144.283 184.801 142.728 183.248 140.81 183.248C138.892 183.248 137.337 184.801 137.337 186.717C137.337 188.634 138.892 190.187 140.81 190.187Z" fill="#A044FF"/>
<path d="M175.905 209.151C177.115 209.151 178.096 208.171 178.096 206.962C178.096 205.753 177.115 204.773 175.905 204.773C174.695 204.773 173.714 205.753 173.714 206.962C173.714 208.171 174.695 209.151 175.905 209.151Z" fill="#A044FF"/>
<path d="M211.002 151.355C213.835 151.355 216.131 149.061 216.131 146.231C216.131 143.401 213.835 141.107 211.002 141.107C208.169 141.107 205.873 143.401 205.873 146.231C205.873 149.061 208.169 151.355 211.002 151.355Z" fill="#A044FF"/>
<path d="M281.193 150.032C283.294 150.032 284.998 148.33 284.998 146.231C284.998 144.132 283.294 142.43 281.193 142.43C279.092 142.43 277.389 144.132 277.389 146.231C277.389 148.33 279.092 150.032 281.193 150.032Z" fill="#A044FF"/>
<path d="M316.288 210.749C318.382 210.749 320.079 209.054 320.079 206.962C320.079 204.871 318.382 203.176 316.288 203.176C314.195 203.176 312.498 204.871 312.498 206.962C312.498 209.054 314.195 210.749 316.288 210.749Z" fill="#A044FF"/>
<path d="M281.194 191.183C283.662 191.183 285.663 189.183 285.663 186.717C285.663 184.252 283.662 182.252 281.194 182.252C278.726 182.252 276.725 184.252 276.725 186.717C276.725 189.183 278.726 191.183 281.194 191.183Z" fill="#A044FF"/>
<path d="M351.385 150.292C353.63 150.292 355.45 148.474 355.45 146.231C355.45 143.988 353.63 142.17 351.385 142.17C349.14 142.17 347.32 143.988 347.32 146.231C347.32 148.474 349.14 150.292 351.385 150.292Z" fill="#A044FF"/>
<path d="M105.714 209.875C107.324 209.875 108.629 208.571 108.629 206.962C108.629 205.354 107.324 204.049 105.714 204.049C104.103 204.049 102.798 205.354 102.798 206.962C102.798 208.571 104.103 209.875 105.714 209.875Z" fill="#A044FF"/>
<path d="M211.001 189.066C212.299 189.066 213.352 188.015 213.352 186.718C213.352 185.421 212.299 184.369 211.001 184.369C209.703 184.369 208.65 185.421 208.65 186.718C208.65 188.015 209.703 189.066 211.001 189.066Z" fill="#A044FF"/>
<path d="M246.097 209.478C247.488 209.478 248.615 208.352 248.615 206.962C248.615 205.573 247.488 204.447 246.097 204.447C244.706 204.447 243.579 205.573 243.579 206.962C243.579 208.352 244.706 209.478 246.097 209.478Z" fill="#A044FF"/>
<path d="M351.386 270.186C352.763 270.186 353.88 269.07 353.88 267.694C353.88 266.317 352.763 265.202 351.386 265.202C350.008 265.202 348.892 266.317 348.892 267.694C348.892 269.07 350.008 270.186 351.386 270.186Z" fill="#A044FF"/>
<path d="M316.288 250.693C318.082 250.693 319.536 249.241 319.536 247.449C319.536 245.657 318.082 244.205 316.288 244.205C314.495 244.205 313.041 245.657 313.041 247.449C313.041 249.241 314.495 250.693 316.288 250.693Z" fill="#A044FF"/>
<path d="M351.386 189.82C353.1 189.82 354.491 188.431 354.491 186.718C354.491 185.004 353.1 183.615 351.386 183.615C349.671 183.615 348.28 185.004 348.28 186.718C348.28 188.431 349.671 189.82 351.386 189.82Z" fill="#A044FF"/>
<path d="M175.904 251.196C177.976 251.196 179.655 249.518 179.655 247.449C179.655 245.379 177.976 243.701 175.904 243.701C173.833 243.701 172.153 245.379 172.153 247.449C172.153 249.518 173.833 251.196 175.904 251.196Z" fill="#A044FF"/>
<path d="M211.002 271.586C213.153 271.586 214.898 269.844 214.898 267.694C214.898 265.544 213.153 263.801 211.002 263.801C208.85 263.801 207.105 265.544 207.105 267.694C207.105 269.844 208.85 271.586 211.002 271.586Z" fill="#A044FF"/>
<path d="M246.097 330.775C247.397 330.775 248.451 329.722 248.451 328.424C248.451 327.125 247.397 326.072 246.097 326.072C244.797 326.072 243.743 327.125 243.743 328.424C243.743 329.722 244.797 330.775 246.097 330.775Z" fill="#A044FF"/>
<path d="M211.001 311.243C212.694 311.243 214.067 309.872 214.067 308.18C214.067 306.489 212.694 305.117 211.001 305.117C209.308 305.117 207.936 306.489 207.936 308.18C207.936 309.872 209.308 311.243 211.001 311.243Z" fill="#A044FF"/>
<path d="M246.096 250.717C247.903 250.717 249.367 249.254 249.367 247.449C249.367 245.644 247.903 244.181 246.096 244.181C244.29 244.181 242.825 245.644 242.825 247.449C242.825 249.254 244.29 250.717 246.096 250.717Z" fill="#A044FF"/>
<path d="M281.194 312.822C283.76 312.822 285.84 310.744 285.84 308.18C285.84 305.617 283.76 303.539 281.194 303.539C278.628 303.539 276.548 305.617 276.548 308.18C276.548 310.744 278.628 312.822 281.194 312.822Z" fill="#A044FF"/>
<path d="M316.289 331.045C317.738 331.045 318.912 329.871 318.912 328.424C318.912 326.976 317.738 325.802 316.289 325.802C314.84 325.802 313.665 326.976 313.665 328.424C313.665 329.871 314.84 331.045 316.289 331.045Z" fill="#A044FF"/>
<path d="M281.194 272.287C283.733 272.287 285.791 270.23 285.791 267.694C285.791 265.157 283.733 263.101 281.194 263.101C278.655 263.101 276.597 265.157 276.597 267.694C276.597 270.23 278.655 272.287 281.194 272.287Z" fill="#A044FF"/>
<path d="M351.385 310.264C352.537 310.264 353.471 309.331 353.471 308.18C353.471 307.029 352.537 306.097 351.385 306.097C350.233 306.097 349.3 307.029 349.3 308.18C349.3 309.331 350.233 310.264 351.385 310.264Z" fill="#A044FF"/>
</g>
<defs>
<clipPath id="clip0_497_453">
<rect width="360" height="369" fill="white"/>
</clipPath>
</defs>
</svg>
